<svg width="16" height="4" viewBox="0 0 16 4" fill="none" xmlns="http://www.w3.org/2000/svg">
<path d="M11.5596 1.84811C11.5596 2.85613 12.3843 3.68087 13.3923 3.68087C14.4004 3.68087 15.2251 2.85613 15.2251 1.84811C15.2251 0.840096 14.4004 0.0153541 13.3923 0.0153541C12.3843 0.015354 11.5596 0.840095 11.5596 1.84811ZM9.72682 1.84811C9.72682 0.840095 8.90208 0.0153539 7.89406 0.0153538C6.88605 0.0153538 6.0613 0.840095 6.0613 1.84811C6.0613 2.85613 6.88605 3.68087 7.89406 3.68087C8.90208 3.68087 9.72682 2.85613 9.72682 1.84811ZM4.22855 1.84811C4.22855 0.840095 3.4038 0.0153536 2.39579 0.0153536C1.38777 0.0153536 0.563028 0.840095 0.563028 1.84811C0.563028 2.85613 1.38777 3.68087 2.39579 3.68087C3.4038 3.68087 4.22855 2.85613 4.22855 1.84811Z" fill="#19191B"/>
</svg>
