<svg width="36" height="36" viewBox="0 0 36 36" fill="none" xmlns="http://www.w3.org/2000/svg">
<path fill-rule="evenodd" clip-rule="evenodd" d="M5 4C5 3.44772 4.55229 3 4 3C3.44772 3 3 3.44772 3 4V32C3 32.5523 3.44772 33 4 33C4.55228 33 5 32.5523 5 32L5 4ZM31 9H13L13 13H31V9ZM13 7C11.8954 7 11 7.89543 11 9V13C11 14.1046 11.8954 15 13 15H31C32.1046 15 33 14.1046 33 13V9C33 7.89543 32.1046 7 31 7H13ZM31 23H13L13 27H31V23ZM13 21C11.8954 21 11 21.8954 11 23V27C11 28.1046 11.8954 29 13 29H31C32.1046 29 33 28.1046 33 27V23C33 21.8954 32.1046 21 31 21H13Z" fill="black"/>
</svg>
