<svg width="36" height="36" viewBox="0 0 36 36" fill="none" xmlns="http://www.w3.org/2000/svg">
<path fill-rule="evenodd" clip-rule="evenodd" d="M31 4C31 3.44772 31.4477 3 32 3C32.5523 3 33 3.44772 33 4V32C33 32.5523 32.5523 33 32 33C31.4477 33 31 32.5523 31 32L31 4ZM5 9H23L23 13H5V9ZM23 7C24.1046 7 25 7.89543 25 9V13C25 14.1046 24.1046 15 23 15H5C3.89543 15 3 14.1046 3 13V9C3 7.89543 3.89543 7 5 7H23ZM5 23H23L23 27H5V23ZM23 21C24.1046 21 25 21.8954 25 23V27C25 28.1046 24.1046 29 23 29H5C3.89543 29 3 28.1046 3 27V23C3 21.8954 3.89543 21 5 21H23Z" fill="black"/>
</svg>
