<svg width="36" height="36" viewBox="0 0 36 36" fill="none" xmlns="http://www.w3.org/2000/svg">
<path fill-rule="evenodd" clip-rule="evenodd" d="M32 30L32 6L29 6L29 30L32 30ZM34 6C34 4.89543 33.1046 4 32 4L29 4C27.8954 4 27 4.89543 27 6L27 30C27 31.1046 27.8954 32 29 32L32 32C33.1046 32 34 31.1046 34 30L34 6ZM7 30L7 6L4 6L4 30L7 30ZM9 6C9 4.89543 8.10457 4 7 4L4 4C2.89543 4 2 4.89543 2 6L2 30C2 31.1046 2.89543 32 4 32L7 32C8.10457 32 9 31.1046 9 30L9 6ZM20 6L20 30L17 30L17 6L20 6ZM20 4C21.1046 4 22 4.89543 22 6L22 30C22 31.1046 21.1046 32 20 32L17 32C15.8954 32 15 31.1046 15 30L15 6C15 4.89543 15.8954 4 17 4L20 4Z" fill="black"/>
</svg>
