<svg width="36" height="36" viewBox="0 0 36 36" fill="none" xmlns="http://www.w3.org/2000/svg">
<path fill-rule="evenodd" clip-rule="evenodd" d="M18 2C18.5523 2 19 2.44772 19 3V7H30C31.1046 7 32 7.89543 32 9V13C32 14.1046 31.1046 15 30 15H6C4.89543 15 4 14.1046 4 13V9C4 7.89543 4.89543 7 6 7H17V3C17 2.44772 17.4477 2 18 2ZM6 9H18H30V13H6V9ZM30 27V23H6V27H18H30ZM30 29H19V33C19 33.5523 18.5523 34 18 34C17.4477 34 17 33.5523 17 33V29H6C4.89543 29 4 28.1046 4 27V23C4 21.8954 4.89543 21 6 21H30C31.1046 21 32 21.8954 32 23V27C32 28.1046 31.1046 29 30 29Z" fill="black"/>
</svg>
