<svg width="36" height="36" viewBox="0 0 36 36" fill="none" xmlns="http://www.w3.org/2000/svg">
<path fill-rule="evenodd" clip-rule="evenodd" d="M4 5C4 4.44772 3.55229 4 3 4C2.44772 4 2 4.44771 2 5V31C2 31.5523 2.44771 32 3 32C3.55228 32 4 31.5523 4 31L4 5ZM34 5C34 4.44772 33.5523 4 33 4C32.4477 4 32 4.44771 32 5L32 31C32 31.5523 32.4477 32 33 32C33.5523 32 34 31.5523 34 31L34 5ZM26 9H10V13H26V9ZM10 7C8.89543 7 8 7.89543 8 9V13C8 14.1046 8.89543 15 10 15H26C27.1046 15 28 14.1046 28 13V9C28 7.89543 27.1046 7 26 7H10ZM10 23H26V27H10V23ZM8 23C8 21.8954 8.89543 21 10 21H26C27.1046 21 28 21.8954 28 23V27C28 28.1046 27.1046 29 26 29H10C8.89543 29 8 28.1046 8 27V23Z" fill="black"/>
</svg>
