<svg width="36" height="36" viewBox="0 0 36 36" fill="none" xmlns="http://www.w3.org/2000/svg">
<path fill-rule="evenodd" clip-rule="evenodd" d="M4 9C4 7.34314 5.34315 6 7 6L28.5858 6L26.2929 3.70711C25.9024 3.31658 25.9024 2.68342 26.2929 2.29289C26.6834 1.90237 27.3166 1.90237 27.7071 2.29289L31.7071 6.29289C31.803 6.38877 31.8753 6.49927 31.9241 6.61722C31.973 6.73513 32 6.86441 32 7C32 7.13667 31.9726 7.26694 31.923 7.3856C31.876 7.498 31.8077 7.60358 31.718 7.69609L31.7059 7.70835L27.7071 11.7071C27.3166 12.0976 26.6834 12.0976 26.2929 11.7071C25.9024 11.3166 25.9024 10.6834 26.2929 10.2929L28.5858 8L7 8C6.44772 8 6 8.44771 6 9L6 17C6 17.5523 5.55229 18 5 18C4.44772 18 4 17.5523 4 17L4 9ZM32 27C32 28.6569 30.6569 30 29 30H7.41421L9.70711 32.2929C10.0976 32.6834 10.0976 33.3166 9.70711 33.7071C9.31658 34.0976 8.68342 34.0976 8.2929 33.7071L4.2929 29.7071C4.19702 29.6112 4.12468 29.5007 4.07588 29.3828C4.02699 29.2649 4 29.1356 4 29C4 28.8633 4.02742 28.7331 4.07705 28.6144C4.12396 28.502 4.19229 28.3964 4.28205 28.3039L4.29414 28.2916L8.2929 24.2929C8.68342 23.9024 9.31659 23.9024 9.70711 24.2929C10.0976 24.6834 10.0976 25.3166 9.70711 25.7071L7.41422 28H29C29.5523 28 30 27.5523 30 27L30 19C30 18.4477 30.4477 18 31 18C31.5523 18 32 18.4477 32 19L32 27Z" fill="black"/>
</svg>
