<svg width="36" height="36" viewBox="0 0 36 36" fill="none" xmlns="http://www.w3.org/2000/svg">
<path fill-rule="evenodd" clip-rule="evenodd" d="M30 4H6V7H30V4ZM6 2C4.89543 2 4 2.89543 4 4V7C4 8.10457 4.89543 9 6 9H30C31.1046 9 32 8.10457 32 7V4C32 2.89543 31.1046 2 30 2H6ZM30 29H6V32H30V29ZM6 27C4.89543 27 4 27.8954 4 29V32C4 33.1046 4.89543 34 6 34H30C31.1046 34 32 33.1046 32 32V29C32 27.8954 31.1046 27 30 27H6ZM6 16H30V19H6V16ZM4 16C4 14.8954 4.89543 14 6 14H30C31.1046 14 32 14.8954 32 16V19C32 20.1046 31.1046 21 30 21H6C4.89543 21 4 20.1046 4 19V16Z" fill="black"/>
</svg>
