<svg width="13" height="14" viewBox="0 0 13 14" fill="none" xmlns="http://www.w3.org/2000/svg">
<path fill-rule="evenodd" clip-rule="evenodd" d="M5.28951 12.7848C5.08123 12.9931 5.08123 13.3308 5.28951 13.539C5.49779 13.7473 5.83547 13.7473 6.04375 13.539L12.2052 7.37758C12.4135 7.1693 12.4135 6.83161 12.2052 6.62333L6.04375 0.461874C5.83547 0.253594 5.49779 0.253594 5.28951 0.461874C5.08123 0.670153 5.08123 1.00784 5.28951 1.21612L11.0738 7.00046L5.28951 12.7848ZM0.622528 12.7848C0.414228 12.9931 0.414228 13.3308 0.622528 13.539C0.830828 13.7473 1.16853 13.7473 1.37673 13.539L7.53822 7.37758C7.7465 7.1693 7.7465 6.83161 7.53822 6.62333L1.37673 0.461874C1.16853 0.253594 0.830828 0.253594 0.622528 0.461874C0.414228 0.670153 0.414228 1.00784 0.622528 1.21612L6.40685 7.00046L0.622528 12.7848Z" fill="#B2C8DF"/>
</svg>
