<svg width="36" height="36" viewBox="0 0 36 36" fill="none" xmlns="http://www.w3.org/2000/svg">
<path fill-rule="evenodd" clip-rule="evenodd" d="M30.94 9.42618L26.5738 5.06003L25.2249 6.409L29.591 10.7751L30.94 9.42618ZM23.7695 7.86438L28.1356 12.2305L11.5525 28.8137L7.18635 24.4475L23.7695 7.86438ZM5.78134 25.9533L5.25919 30.7408L10.0467 30.2187L5.78134 25.9533ZM28.0318 3.60209C27.228 2.7983 25.9236 2.79945 25.1184 3.60465L4.33829 24.3848C4.00579 24.7173 3.79673 25.1533 3.74579 25.6204L3.00311 32.43C2.96746 32.7569 3.24309 33.0325 3.57003 32.9969L10.3796 32.2542C10.8467 32.2033 11.2827 31.9942 11.6152 31.6617L32.3953 10.8816C33.2005 10.0764 33.2017 8.77202 32.3979 7.96823L28.0318 3.60209Z" fill="black"/>
</svg>
