<svg width="36" height="36" viewBox="0 0 36 36" fill="none" xmlns="http://www.w3.org/2000/svg">
<path fill-rule="evenodd" clip-rule="evenodd" d="M4 17C3.44772 17 3 17.4477 3 18C3 18.5523 3.44772 19 4 19C4.55228 19 5 18.5523 5 18C5 17.4477 4.55228 17 4 17ZM7 18C7 17.4477 7.44772 17 8 17C8.55228 17 9 17.4477 9 18C9 18.5523 8.55228 19 8 19C7.44772 19 7 18.5523 7 18ZM12 17C11.4477 17 11 17.4477 11 18C11 18.5523 11.4477 19 12 19C12.5523 19 13 18.5523 13 18C13 17.4477 12.5523 17 12 17ZM15 18C15 17.4477 15.4477 17 16 17C16.5523 17 17 17.4477 17 18C17 18.5523 16.5523 19 16 19C15.4477 19 15 18.5523 15 18ZM20 17C19.4477 17 19 17.4477 19 18C19 18.5523 19.4477 19 20 19C20.5523 19 21 18.5523 21 18C21 17.4477 20.5523 17 20 17ZM23 18C23 17.4477 23.4477 17 24 17C24.5523 17 25 17.4477 25 18C25 18.5523 24.5523 19 24 19C23.4477 19 23 18.5523 23 18ZM28 17C27.4477 17 27 17.4477 27 18C27 18.5523 27.4477 19 28 19C28.5523 19 29 18.5523 29 18C29 17.4477 28.5523 17 28 17ZM32 17C31.4477 17 31 17.4477 31 18C31 18.5523 31.4477 19 32 19C32.5523 19 33 18.5523 33 18C33 17.4477 32.5523 17 32 17Z" fill="black"/>
</svg>
