<svg xmlns="http://www.w3.org/2000/svg" width="26" height="26" viewBox="0 0 26 26" fill="none">
    <rect y="0.507812" width="25.0526" height="25.0526" rx="12.5263" fill="#FFD53E"/>
    <path d="M10.2138 11.21C10.4961 10.7916 10.8831 10.4517 11.3746 10.1903C11.8766 9.92884 12.4466 9.79811 13.0845 9.79811C13.8271 9.79811 14.4964 9.98113 15.0925 10.3472C15.6991 10.7132 16.1749 11.2361 16.52 11.9159C16.8756 12.5852 17.0534 13.3643 17.0534 14.2533C17.0534 15.1422 16.8756 15.9318 16.52 16.622C16.1749 17.3018 15.6991 17.8299 15.0925 18.2064C14.4964 18.5829 13.8271 18.7712 13.0845 18.7712C12.4361 18.7712 11.8662 18.6457 11.3746 18.3947C10.8936 18.1332 10.5066 17.7986 10.2138 17.3907V18.63H8.01758V7.02148H10.2138V11.21ZM14.8101 14.2533C14.8101 13.7304 14.7003 13.2807 14.4807 12.9042C14.2715 12.5172 13.9892 12.2244 13.6336 12.0257C13.2885 11.827 12.912 11.7276 12.5041 11.7276C12.1067 11.7276 11.7302 11.8322 11.3746 12.0414C11.0295 12.2401 10.7471 12.5329 10.5275 12.9199C10.3184 13.3068 10.2138 13.7617 10.2138 14.2846C10.2138 14.8075 10.3184 15.2625 10.5275 15.6494C10.7471 16.0364 11.0295 16.3344 11.3746 16.5436C11.7302 16.7423 12.1067 16.8416 12.5041 16.8416C12.912 16.8416 13.2885 16.7371 13.6336 16.5279C13.9892 16.3187 14.2715 16.0207 14.4807 15.6337C14.7003 15.2468 14.8101 14.7866 14.8101 14.2533Z" fill="black"/>
</svg>