<svg width="22" height="22" viewBox="0 0 22 22" fill="none" xmlns="http://www.w3.org/2000/svg">
<path d="M8.80002 0.524727C4.22373 0.524727 0.501047 4.24275 0.501047 8.81331C0.501047 13.3839 4.22373 17.1019 8.80002 17.1019C10.199 17.1019 11.5743 16.7704 12.7361 16.131C12.8292 16.2428 12.9324 16.3459 13.0444 16.4388L17.4155 20.807C17.6344 21.053 17.7606 21.1349 18.0592 21.2742C18.3579 21.4135 18.6819 21.4903 19.0113 21.5C19.3408 21.5097 19.6687 21.452 19.9751 21.3305C20.2814 21.2091 20.5596 21.0263 20.7927 20.7936C21.0257 20.5608 21.2087 20.2829 21.3303 19.977C21.452 19.671 21.5097 19.3435 21.5 19.0144C21.4903 18.6854 21.4134 18.3618 21.2739 18.0636C21.1345 17.7653 21.0763 17.6155 20.8299 17.3968L16.4588 13.0287C16.3433 12.9133 16.2162 12.8101 16.0794 12.7208C16.7196 11.5604 17.1227 10.2105 17.1227 8.78963C17.1227 4.21907 13.4 0.501045 8.82374 0.501045L8.80002 0.524727ZM8.80002 2.89289C12.0959 2.89289 14.7279 5.52156 14.7279 8.81331C14.7279 10.3763 14.1588 11.8209 13.1629 12.8866L13.0918 12.9576C12.9798 13.0506 12.8766 13.1536 12.7835 13.2655C11.7402 14.2127 10.3176 14.7574 8.77631 14.7574C5.48043 14.7574 2.84847 12.1287 2.84847 8.83699C2.84847 5.54524 5.48043 2.91658 8.77631 2.91658L8.80002 2.89289Z" fill="#A5A5A5"/>
</svg>
