<svg width="36" height="36" viewBox="0 0 36 36" fill="black" xmlns="http://www.w3.org/2000/svg">
    <path className='wb-align-path' fill-rule="evenodd" clip-rule="evenodd" d="M4 3C3.44772 3 3 3.44772 3 4C3 4.55228 3.44772 5 4 5H32C32.5523 5 33 4.55228 33 4C33 3.44772 32.5523 3 32 3H4ZM4 21C3.44772 21 3 21.4477 3 22C3 22.5523 3.44772 23 4 23H32C32.5523 23 33 22.5523 33 22C33 21.4477 32.5523 21 32 21H4Z" />
    <path className='wb-align-path' fill-rule="evenodd" clip-rule="evenodd" d="M4 12C3.44772 12 3 12.4477 3 13C3 13.5523 3.44772 14 4 14H25C25.5523 14 26 13.5523 26 13C26 12.4477 25.5523 12 25 12H4ZM4 30C3.44772 30 3 30.4477 3 31C3 31.5523 3.44772 32 4 32H20C20.5523 32 21 31.5523 21 31C21 30.4477 20.5523 30 20 30H4Z"  />
</svg>