<svg width="36" height="36" viewBox="0 0 36 36" fill="black" xmlns="http://www.w3.org/2000/svg">
    <path className='wb-align-path' fill-rule="evenodd" clip-rule="evenodd" d="M4 3C3.44772 3 3 3.44772 3 4C3 4.55228 3.44772 5 4 5H32C32.5523 5 33 4.55228 33 4C33 3.44772 32.5523 3 32 3H4ZM4 21C3.44772 21 3 21.4477 3 22C3 22.5523 3.44772 23 4 23H32C32.5523 23 33 22.5523 33 22C33 21.4477 32.5523 21 32 21H4Z" />
    <path className='wb-align-path' fill-rule="evenodd" clip-rule="evenodd" d="M11 12C10.4477 12 10 12.4477 10 13C10 13.5523 10.4477 14 11 14H32C32.5523 14 33 13.5523 33 13C33 12.4477 32.5523 12 32 12H11ZM16 30C15.4477 30 15 30.4477 15 31C15 31.5523 15.4477 32 16 32H32C32.5523 32 33 31.5523 33 31C33 30.4477 32.5523 30 32 30H16Z" />
</svg>