<svg width="36" height="36" viewBox="0 0 36 36" fill="black" xmlns="http://www.w3.org/2000/svg">
<path fill-rule="evenodd" clip-rule="evenodd" d="M32.7068 17.2921C33.0974 17.6818 33.0978 18.314 32.7077 18.7042L18.7317 32.6822C18.7265 32.6877 18.7212 32.6932 18.7159 32.6987C18.7128 32.7018 18.7096 32.705 18.7065 32.7081C18.5104 32.9036 18.2534 33.0009 17.9966 33C17.9951 33 17.9935 33 17.992 33C17.989 33 17.9861 33 17.9831 33C17.6865 32.9997 17.4206 32.8661 17.2404 32.6551L3.29229 18.704C2.9021 18.3137 2.90264 17.6815 3.2935 17.2919C3.68437 16.9022 4.31754 16.9028 4.70773 17.2931L17.0027 29.5907L17.0315 3.99834C17.0321 3.44634 17.4733 2.99937 18.0169 3C18.5605 3.00063 19.0006 3.44863 19 4.00062L18.9712 29.6168L31.2933 17.2929C31.6834 16.9027 32.3163 16.9023 32.7068 17.2921Z"/>
</svg>
