<svg width="36" height="36" viewBox="0 0 36 36" fill="black" xmlns="http://www.w3.org/2000/svg">
<path fill-rule="evenodd" clip-rule="evenodd" d="M18.7079 32.7068C18.3182 33.0974 17.686 33.0978 17.2958 32.7077L3.31785 18.7317C3.31229 18.7265 3.30679 18.7212 3.30133 18.7159C3.29815 18.7128 3.295 18.7097 3.29185 18.7065C3.09641 18.5104 2.99914 18.2534 3 17.9966C3.00001 17.9951 3.00002 17.9935 3.00003 17.992C3 17.989 2.99999 17.9861 3 17.9831C3.00034 17.6865 3.13393 17.4206 3.34494 17.2404L17.296 3.29229C17.6863 2.9021 18.3185 2.90264 18.7081 3.2935C19.0978 3.68437 19.0972 4.31754 18.7069 4.70774L6.40933 17.0027L32.0017 17.0315C32.5537 17.0321 33.0006 17.4733 33 18.0169C32.9994 18.5605 32.5514 19.0006 31.9994 19L6.38323 18.9712L18.7071 31.2933C19.0973 31.6834 19.0977 32.3163 18.7079 32.7068Z" />
</svg>
