<svg width="36" height="36" viewBox="0 0 36 36" fill="black" xmlns="http://www.w3.org/2000/svg">
<path fill-rule="evenodd" clip-rule="evenodd" d="M17.2921 3.29315C17.6818 2.9026 18.314 2.90224 18.7042 3.29235L32.6822 17.2683C32.6877 17.2735 32.6932 17.2788 32.6987 17.2841C32.7018 17.2872 32.705 17.2904 32.7081 17.2935C32.9036 17.4896 33.0009 17.7466 33 18.0034C33 18.0049 33 18.0065 33 18.008C33 18.011 33 18.0139 33 18.0169C32.9997 18.3135 32.8661 18.5794 32.6551 18.7596L18.704 32.7077C18.3137 33.0979 17.6815 33.0974 17.2919 32.7065C16.9022 32.3156 16.9028 31.6825 17.2931 31.2923L29.5907 18.9973L3.99834 18.9685C3.44634 18.9679 2.99937 18.5267 3 17.9831C3.00063 17.4395 3.44863 16.9994 4.00062 17L29.6168 17.0288L17.2929 4.70668C16.9027 4.31657 16.9023 3.68371 17.2921 3.29315Z"/>
</svg>
