<svg width="36" height="36" viewBox="0 0 36 36" fill="black" xmlns="http://www.w3.org/2000/svg">
<path fill-rule="evenodd" clip-rule="evenodd" d="M3.29315 18.7079C2.9026 18.3182 2.90224 17.686 3.29235 17.2958L17.2683 3.31785C17.2735 3.3123 17.2788 3.30679 17.2841 3.30133C17.2872 3.29815 17.2904 3.295 17.2935 3.29185C17.4896 3.09641 17.7466 2.99914 18.0034 3.00001C18.0049 3.00001 18.0065 3.00002 18.008 3.00003C18.011 3.00001 18.0139 3 18.0169 3C18.3135 3.00034 18.5794 3.13393 18.7596 3.34494L32.7077 17.296C33.0979 17.6863 33.0974 18.3185 32.7065 18.7081C32.3156 19.0978 31.6825 19.0972 31.2923 18.7069L18.9973 6.40933L18.9685 32.0017C18.9679 32.5537 18.5267 33.0006 17.9831 33C17.4395 32.9994 16.9994 32.5514 17 31.9994L17.0288 6.38323L4.70668 18.7071C4.31657 19.0973 3.68371 19.0977 3.29315 18.7079Z" />
</svg>
