<svg width="36" height="36" viewBox="0 0 36 36" fill="black" xmlns="http://www.w3.org/2000/svg">
<path fill-rule="evenodd" clip-rule="evenodd" d="M5 2C4.44772 2 4 2.44772 4 3C4 3.55228 4.44771 4 5 4H31C31.5523 4 32 3.55228 32 3C32 2.44772 31.5523 2 31 2H5ZM5 12C4.44772 12 4 12.4477 4 13C4 13.5523 4.44771 14 5 14H31C31.5523 14 32 13.5523 32 13C32 12.4477 31.5523 12 31 12H5ZM4 23C4 22.4477 4.44772 22 5 22H31C31.5523 22 32 22.4477 32 23C32 23.5523 31.5523 24 31 24H5C4.44771 24 4 23.5523 4 23ZM5 32C4.44772 32 4 32.4477 4 33C4 33.5523 4.44771 34 5 34H31C31.5523 34 32 33.5523 32 33C32 32.4477 31.5523 32 31 32H5Z" />
</svg>
