<svg width="36" height="36" viewBox="0 0 36 36" fill="black" xmlns="http://www.w3.org/2000/svg">
    <path className='wb-align-path' fill-rule="evenodd" clip-rule="evenodd" d="M4 3C3.44772 3 3 3.44772 3 4C3 4.55228 3.44772 5 4 5H32C32.5523 5 33 4.55228 33 4C33 3.44772 32.5523 3 32 3H4ZM4 21C3.44772 21 3 21.4477 3 22C3 22.5523 3.44772 23 4 23H32C32.5523 23 33 22.5523 33 22C33 21.4477 32.5523 21 32 21H4Z" />
    <path className='wb-align-path' fill-rule="evenodd" clip-rule="evenodd" d="M7 12C6.44772 12 6 12.4477 6 13C6 13.5523 6.44772 14 7 14H28C28.5523 14 29 13.5523 29 13C29 12.4477 28.5523 12 28 12H7ZM10 30C9.44772 30 9 30.4477 9 31C9 31.5523 9.44772 32 10 32H26C26.5523 32 27 31.5523 27 31C27 30.4477 26.5523 30 26 30H10Z" />
</svg>