<svg width="18" height="18" viewBox="0 0 18 18" fill="none" xmlns="http://www.w3.org/2000/svg">
<g clip-path="url(#clip0_3876_36625)">
<path d="M14.1798 2.88464C12.2981 1.60171 9.9746 2.20041 8.72017 3.66865C7.46575 2.20041 5.14222 1.59458 3.26059 2.88464C2.26276 3.56887 1.63554 4.7235 1.59278 5.94229C1.493 8.70772 3.94482 10.9243 7.6867 14.3241L7.75798 14.3883C8.29966 14.88 9.13356 14.88 9.67525 14.3811L9.75365 14.3099C13.4955 10.9172 15.9402 8.70059 15.8476 5.93516C15.8048 4.72351 15.1776 3.56887 14.1798 2.88464ZM8.79145 13.2621L8.72017 13.3334L8.6489 13.2621C5.25626 10.1902 3.01826 8.15891 3.01826 6.09909C3.01826 4.67361 4.08737 3.6045 5.51285 3.6045C6.61047 3.6045 7.67957 4.31012 8.05733 5.28657H9.39015C9.76077 4.31012 10.8299 3.6045 11.9275 3.6045C13.353 3.6045 14.4221 4.67361 14.4221 6.09909C14.4221 8.15891 12.1841 10.1902 8.79145 13.2621Z" fill="white"/>
</g>
<defs>
<clipPath id="clip0_3876_36625">
<rect width="17.1057" height="17.1057" fill="white" transform="translate(0.167969 0.040863)"/>
</clipPath>
</defs>
</svg>
