<svg width="45" height="42" viewBox="0 0 45 42" fill="none" xmlns="http://www.w3.org/2000/svg">
<path fill-rule="evenodd" clip-rule="evenodd" d="M0.5 0.75C0.5 0.335786 0.835786 0 1.25 0H2.75C3.16421 0 3.5 0.335786 3.5 0.75V2.25C3.5 2.66421 3.16421 3 2.75 3H1.25C0.835786 3 0.5 2.66421 0.5 2.25V0.75ZM30.5 22.6935C30.5 21.5302 31.7667 20.8097 32.7666 21.4042L44.0634 28.1212C45.1789 28.7845 44.9829 30.4552 43.7442 30.8423L40.2441 31.9361L43.5291 37.6102C43.9396 38.3193 43.7053 39.2265 43.0027 39.648L40.5391 41.1262C39.8209 41.5571 38.8889 41.3164 38.4692 40.5915L35.1917 34.9303L33.009 36.9145C32.0454 37.7905 30.5 37.1068 30.5 35.8046V22.6935ZM43.2968 29.4105L32 22.6935V35.8046L34.1827 33.8203C34.8902 33.1772 36.0108 33.3512 36.4898 34.1787L39.7674 39.8399L42.231 38.3618L38.9459 32.6876C38.4641 31.8554 38.8788 30.7912 39.7967 30.5043L43.2968 29.4105ZM8.75 0C8.33579 0 8 0.335786 8 0.75V2.25C8 2.66421 8.33579 3 8.75 3H10.25C10.6642 3 11 2.66421 11 2.25V0.75C11 0.335786 10.6642 0 10.25 0H8.75ZM15.5 0.75C15.5 0.335786 15.8358 0 16.25 0H17.75C18.1642 0 18.5 0.335786 18.5 0.75V2.25C18.5 2.66421 18.1642 3 17.75 3H16.25C15.8358 3 15.5 2.66421 15.5 2.25V0.75ZM23.75 0C23.3358 0 23 0.335786 23 0.75V2.25C23 2.66421 23.3358 3 23.75 3H25.25C25.6642 3 26 2.66421 26 2.25V0.75C26 0.335786 25.6642 0 25.25 0H23.75ZM23 8.25C23 7.83579 23.3358 7.5 23.75 7.5H25.25C25.6642 7.5 26 7.83579 26 8.25V9.75C26 10.1642 25.6642 10.5 25.25 10.5H23.75C23.3358 10.5 23 10.1642 23 9.75V8.25ZM16.25 12C14.5931 12 13.25 13.3431 13.25 15V36C13.25 37.6569 14.5931 39 16.25 39H26.75V37.5H16.25C15.4216 37.5 14.75 36.8284 14.75 36V15C14.75 14.1716 15.4216 13.5 16.25 13.5H37.25C38.0784 13.5 38.75 14.1716 38.75 15V20.25H40.25V15C40.25 13.3431 38.9069 12 37.25 12H16.25ZM0.5 8.25C0.5 7.83579 0.835786 7.5 1.25 7.5H2.75C3.16421 7.5 3.5 7.83579 3.5 8.25V9.75C3.5 10.1642 3.16421 10.5 2.75 10.5H1.25C0.835786 10.5 0.5 10.1642 0.5 9.75V8.25ZM1.25 15C0.835786 15 0.5 15.3358 0.5 15.75V17.25C0.5 17.6642 0.835786 18 1.25 18H2.75C3.16421 18 3.5 17.6642 3.5 17.25V15.75C3.5 15.3358 3.16421 15 2.75 15H1.25ZM0.5 23.25C0.5 22.8358 0.835786 22.5 1.25 22.5H2.75C3.16421 22.5 3.5 22.8358 3.5 23.25V24.75C3.5 25.1642 3.16421 25.5 2.75 25.5H1.25C0.835786 25.5 0.5 25.1642 0.5 24.75V23.25ZM8.75 22.5C8.33579 22.5 8 22.8358 8 23.25V24.75C8 25.1642 8.33579 25.5 8.75 25.5H10.25C10.6642 25.5 11 25.1642 11 24.75V23.25C11 22.8358 10.6642 22.5 10.25 22.5H8.75Z" fill="#A1A1A1"/>
</svg>
