<svg width="28" height="28" viewBox="0 0 28 28" fill="none" xmlns="http://www.w3.org/2000/svg">
<path fill-rule="evenodd" clip-rule="evenodd" d="M14 0C21.732 0 28 6.26807 28 14C28 21.7319 21.732 28 14 28C6.26801 28 0 21.7319 0 14C0 6.26807 6.26801 0 14 0ZM9.10369 14.3386C8.94482 10.5182 9.76186 8.53064 11.8952 7.60315C14.1421 6.60938 17.2286 7.42639 18.1364 9.28149C18.5223 10.0544 18.5677 10.3416 18.3634 10.6948C17.9322 11.4899 17.4783 11.2249 16.979 9.94397C16.3889 8.33191 13.847 7.7356 12.213 8.79565C10.8739 9.65686 10.5335 10.6506 10.5335 13.8086C10.5335 16.1937 10.6016 16.6796 11.0101 17.3422C11.691 18.4905 12.7803 19.1089 14.0967 19.1089C16.2527 19.1089 17.2286 18.0708 17.2286 15.73C17.2286 15.0675 17.1605 14.4933 17.0925 14.4049C16.8201 14.1399 15.6173 14.7804 14.9818 15.5092C14.5279 16.0392 14.1875 16.26 13.9605 16.1716C13.4158 15.9508 13.5293 15.4429 14.3009 14.5817C15.0045 13.8086 15.4584 13.6321 17.9776 13.1461C18.8627 12.9695 19.5436 12.6604 20.0429 12.2407C20.928 11.4899 21.5408 11.4015 21.5408 12.0199C21.5408 12.5499 20.0882 13.7424 19.2485 13.9192C18.6584 14.0516 18.6357 14.1178 18.545 15.8624C18.4769 16.9447 18.2953 17.9604 18.0684 18.38C17.5237 19.396 16.3208 20.0364 14.6414 20.1467C12.281 20.3456 10.6697 19.5505 9.69377 17.6954C9.30795 16.9888 9.19447 16.2821 9.10369 14.3386Z" fill="#287CB2"/>
</svg>
