<svg width="12" height="12" viewBox="0 0 12 12" fill="#676767" xmlns="http://www.w3.org/2000/svg">
<path d="M6 0C2.68594 0 0 2.68594 0 6C0 9.31406 2.68594 12 6 12C9.31406 12 12 9.31406 12 6C12 2.68594 9.31406 0 6 0ZM6 11.25C3.10547 11.25 0.75 8.89453 0.75 6C0.75 3.10547 3.10547 0.75 6 0.75C8.89453 0.75 11.25 3.10547 11.25 6C11.25 8.89453 8.89453 11.25 6 11.25ZM6 4.3125C6.31055 4.3125 6.5625 4.06078 6.5625 3.75C6.5625 3.43945 6.31055 3.1875 6 3.1875C5.68945 3.1875 5.4375 3.43828 5.4375 3.75C5.4375 4.06172 5.68828 4.3125 6 4.3125ZM7.125 8.25H6.375V5.625C6.375 5.41875 6.20625 5.25 6 5.25H5.25C5.04375 5.25 4.875 5.41875 4.875 5.625C4.875 5.83125 5.04375 6 5.25 6H5.625V8.25H4.875C4.66875 8.25 4.5 8.41875 4.5 8.625C4.5 8.83125 4.66875 9 4.875 9H7.125C7.33209 9 7.5 8.83209 7.5 8.625C7.5 8.41875 7.33125 8.25 7.125 8.25Z" />
</svg>
