<svg width="36" height="36" viewBox="0 0 36 36" fill="none" xmlns="http://www.w3.org/2000/svg">
<path fill-rule="evenodd" clip-rule="evenodd" d="M29 5H7V9H29V5ZM7 3C5.89543 3 5 3.89543 5 5V9C5 10.1046 5.89543 11 7 11H29C30.1046 11 31 10.1046 31 9V5C31 3.89543 30.1046 3 29 3H7ZM3 18C3 17.4477 3.44772 17 4 17H32C32.5523 17 33 17.4477 33 18C33 18.5523 32.5523 19 32 19H4C3.44772 19 3 18.5523 3 18ZM7 27H29V31H7V27ZM5 27C5 25.8954 5.89543 25 7 25H29C30.1046 25 31 25.8954 31 27V31C31 32.1046 30.1046 33 29 33H7C5.89543 33 5 32.1046 5 31V27Z" fill="black"/>
</svg>
