<svg width="36" height="36" viewBox="0 0 36 36" fill="none" xmlns="http://www.w3.org/2000/svg">
<path fill-rule="evenodd" clip-rule="evenodd" d="M33 32C33 32.5523 32.5523 33 32 33L4 33C3.44772 33 3 32.5523 3 32C3 31.4477 3.44772 31 4 31L32 31C32.5523 31 33 31.4477 33 32ZM7 23L29 23L29 19L7 19L7 23ZM29 25C30.1046 25 31 24.1046 31 23L31 19C31 17.8954 30.1046 17 29 17L7 17C5.89543 17 5 17.8954 5 19L5 23C5 24.1046 5.89543 25 7 25L29 25ZM29 9L7 9L7 5L29 5L29 9ZM31 9C31 10.1046 30.1046 11 29 11L7 11C5.89543 11 5 10.1046 5 9L5 5C5 3.89543 5.89543 3 7 3L29 3C30.1046 3 31 3.89544 31 5L31 9Z" fill="black"/>
</svg>
