<svg width="36" height="36" viewBox="0 0 36 36" fill="none" xmlns="http://www.w3.org/2000/svg">
<path fill-rule="evenodd" clip-rule="evenodd" d="M5 2C4.44772 2 4 2.44772 4 3C4 3.55228 4.44771 4 5 4H31C31.5523 4 32 3.55228 32 3C32 2.44772 31.5523 2 31 2H5ZM5 32C4.44772 32 4 32.4477 4 33C4 33.5523 4.44771 34 5 34H31C31.5523 34 32 33.5523 32 33C32 32.4477 31.5523 32 31 32H5ZM29 9H7V13H29V9ZM7 7C5.89543 7 5 7.89543 5 9V13C5 14.1046 5.89543 15 7 15H29C30.1046 15 31 14.1046 31 13V9C31 7.89543 30.1046 7 29 7H7ZM7 23H29V27H7V23ZM5 23C5 21.8954 5.89543 21 7 21H29C30.1046 21 31 21.8954 31 23V27C31 28.1046 30.1046 29 29 29H7C5.89543 29 5 28.1046 5 27V23Z" fill="black"/>
</svg>
