<svg width="36" height="36" viewBox="0 0 36 36" fill="none" xmlns="http://www.w3.org/2000/svg">
<path fill-rule="evenodd" clip-rule="evenodd" d="M5 2C4.44772 2 4 2.44772 4 3C4 3.55228 4.44771 4 5 4H31C31.5523 4 32 3.55228 32 3C32 2.44772 31.5523 2 31 2H5ZM5 32C4.44772 32 4 32.4477 4 33C4 33.5523 4.44771 34 5 34H31C31.5523 34 32 33.5523 32 33C32 32.4477 31.5523 32 31 32H5ZM29 10H7V14H29V10ZM7 8C5.89543 8 5 8.89543 5 10V14C5 15.1046 5.89543 16 7 16H29C30.1046 16 31 15.1046 31 14V10C31 8.89543 30.1046 8 29 8H7ZM7 22H29V26H7V22ZM5 22C5 20.8954 5.89543 20 7 20H29C30.1046 20 31 20.8954 31 22V26C31 27.1046 30.1046 28 29 28H7C5.89543 28 5 27.1046 5 26V22Z" fill="black"/>
</svg>
