<svg width="30" height="30" viewBox="0 0 30 30" fill="none" xmlns="http://www.w3.org/2000/svg">
<path fill-rule="evenodd" clip-rule="evenodd" d="M0 1C0 0.447715 0.447715 0 1 0H29C29.5523 0 30 0.447715 30 1C30 1.55228 29.5523 2 29 2H1C0.447716 2 0 1.55228 0 1ZM26 10H4V14H26V10ZM4 8C2.89543 8 2 8.89543 2 10V14C2 15.1046 2.89543 16 4 16H26C27.1046 16 28 15.1046 28 14V10C28 8.89543 27.1046 8 26 8H4ZM4 24H26V28H4V24ZM2 24C2 22.8954 2.89543 22 4 22H26C27.1046 22 28 22.8954 28 24V28C28 29.1046 27.1046 30 26 30H4C2.89543 30 2 29.1046 2 28V24Z" fill="black"/>
</svg>
