<svg width="36" height="36" viewBox="0 0 36 36" fill="none" xmlns="http://www.w3.org/2000/svg">
<path fill-rule="evenodd" clip-rule="evenodd" d="M3 6C3 5.44772 3.44772 5 4 5H7H29H32C32.5523 5 33 5.44772 33 6C33 6.55228 32.5523 7 32 7H31V13C31 14.1046 30.1046 15 29 15H7C5.89543 15 5 14.1046 5 13V7L4 7C3.44772 7 3 6.55228 3 6ZM7 7H29V13H7V7ZM29 23H7V29H29V23ZM5 23V29H4C3.44772 29 3 29.4477 3 30C3 30.5523 3.44772 31 4 31H7H29H32C32.5523 31 33 30.5523 33 30C33 29.4477 32.5523 29 32 29H31V23C31 21.8954 30.1046 21 29 21H7C5.89543 21 5 21.8954 5 23Z" fill="black"/>
</svg>
