<svg width="36" height="36" viewBox="0 0 36 36" fill="none" xmlns="http://www.w3.org/2000/svg">
<path d="M19.3455 23.4081L13.1661 29.6029C12.7674 30.0026 12.1694 30.4023 11.5714 30.6021C10.3754 31.1017 9.07973 31.1017 7.88372 30.6021C7.28571 30.4023 6.78738 30.0026 6.28904 29.6029C5.89037 29.2033 5.49169 28.6038 5.29236 28.0043C5.09302 27.5047 4.99336 26.8053 4.99336 26.2058C4.99336 25.6063 5.09302 25.0068 5.39203 24.4073C5.59136 23.8077 5.99003 23.3082 6.3887 22.8086L12.5681 16.6137C12.9668 16.2141 12.9668 15.6146 12.5681 15.2149C12.1694 14.8152 11.5714 14.8152 11.1728 15.2149L4.99336 21.4097C4.39535 22.0092 3.89701 22.8086 3.49834 23.6079C3.19934 24.4073 3 25.3065 3 26.2058C3 27.105 3.19934 28.0043 3.49834 28.8036C3.89701 29.6029 4.39535 30.4023 4.99336 31.0018C5.59136 31.6013 6.3887 32.1008 7.18605 32.5005C7.98339 32.9002 8.8804 33.0001 9.77741 33.0001C10.6744 33.0001 11.5714 32.8003 12.3688 32.5005C13.1661 32.2008 13.9635 31.7012 14.5615 31.0018L20.7409 24.8069C21.1395 24.4072 21.1395 23.8077 20.7409 23.4081C20.3422 23.0084 19.7442 23.0084 19.3455 23.4081Z" fill="black"/>
<path d="M32.402 7.22148C32.0033 6.42215 31.505 5.62281 30.907 5.02331C30.309 4.42381 29.5116 3.92423 28.7143 3.52456C27.0199 2.82515 25.2259 2.82515 23.5316 3.52456C22.7342 3.92423 21.9369 4.42381 21.3389 5.02331L15.3588 11.0183C14.9601 11.418 14.9601 12.0175 15.3588 12.4172C15.7575 12.8168 16.3555 12.8168 16.7542 12.4172L22.7342 6.42215C23.1329 6.02248 23.7309 5.62281 24.3289 5.42298C25.5249 4.9234 26.8206 4.9234 28.0166 5.42298C28.6146 5.62281 29.113 6.02248 29.6113 6.42215C30.01 6.82182 30.4087 7.42132 30.608 8.02082C30.8073 8.62032 31.0067 9.21982 31.0067 9.81932C31.0067 10.4188 30.907 11.0183 30.608 11.6178C30.4087 12.2173 30.01 12.7169 29.6113 13.2165L23.6312 19.2115C23.2326 19.6112 23.2326 20.2107 23.6312 20.6103C23.8306 20.8102 24.1296 20.9101 24.3289 20.9101C24.5283 20.9101 24.8273 20.8102 25.0266 20.6103L31.0067 14.6153C31.6047 14.0158 32.103 13.2165 32.5017 12.4172C32.8007 11.6178 33 10.7186 33 9.81932C32.9003 8.92007 32.701 8.02082 32.402 7.22148Z" fill="black"/>
<path d="M20.8405 13.7161L13.7641 20.8102C13.3654 21.2099 13.3654 21.8094 13.7641 22.2091C13.9634 22.4089 14.2624 22.5088 14.4618 22.5088C14.6611 22.5088 14.9601 22.4089 15.1594 22.2091L22.2359 15.115C22.6345 14.7153 22.6345 14.1158 22.2359 13.7161C21.8372 13.3165 21.1395 13.3165 20.8405 13.7161Z" fill="black"/>
</svg>
