<svg width="15" height="15" viewBox="0 0 15 15" fill="none" xmlns="http://www.w3.org/2000/svg">
<path d="M13.9204 3.34827C13.8407 3.01612 13.419 2.90513 13.1776 3.14668L11.0745 5.25003L8.79145 5.25002V2.96699L10.8945 0.863641C11.136 0.622178 11.025 0.200436 10.693 0.120764C10.0421 -0.0356418 9.33745 -0.0471256 8.60721 0.127588C6.91898 0.531445 5.60164 1.96555 5.3324 3.67988C5.18943 4.39226 5.25811 5.10382 5.4724 5.74669L0.579411 10.6397C-0.193137 11.4122 -0.193137 12.6642 0.579411 13.4365C0.94096 13.8238 1.44647 14.0409 1.92835 14.0409C2.41023 14.0409 2.94046 13.8477 3.32701 13.4615L8.22 8.56847C8.86453 8.781 9.57471 8.8498 10.3126 8.73342C12.0272 8.46308 13.4611 7.14546 13.8649 5.45861C14.088 4.70271 14.077 3.99939 13.9204 3.34827ZM2.17286 12.5024C1.80884 12.5024 1.5135 12.207 1.5135 11.843C1.5135 11.4787 1.80884 11.1837 2.17286 11.1837C2.53688 11.1837 2.83222 11.4787 2.83222 11.843C2.83222 12.2084 2.53688 12.5024 2.17286 12.5024Z" fill="black"/>
</svg>
