<svg width="24" height="24" viewBox="0 0 24 24" fill="none" xmlns="http://www.w3.org/2000/svg">
<path d="M10.1348 18.4502C9.56992 19.0971 9.32148 19.2518 8.53164 19.5424C7.31523 19.9971 5.08633 20.8338 3.63555 21.3775C3.36133 21.4854 2.32539 21.4314 2.75899 20.4143C3.25117 18.9986 3.97305 16.908 4.38555 15.715C4.68555 14.8736 4.80508 14.6557 5.40977 14.0908L11.6559 7.84473L16.0785 12.2674C16.0785 12.2674 11.8738 16.6432 10.1348 18.4502Z" fill="black"/>
<path d="M17.0277 11.3178L12.6074 6.89746L13.5543 5.94824L17.977 10.3709L17.0277 11.3178Z" fill="black"/>
<path d="M20.8193 7.52813L18.9256 9.42422L14.5029 5.00156L16.399 3.10781C17.0975 2.40937 18.2271 2.40937 18.9256 3.10781L20.8217 5.00156C21.5178 5.69766 21.5178 6.82969 20.8193 7.52813Z" fill="black"/>
</svg>
