<svg width="16" height="16" viewBox="0 0 16 16" fill="none" xmlns="http://www.w3.org/2000/svg">
<path fill-rule="evenodd" clip-rule="evenodd" d="M2.39941 2.87953C2.39941 2.61437 2.61437 2.39941 2.87953 2.39941H4.31988C4.58504 2.39941 4.8 2.61437 4.8 2.87953V4.31988C4.8 4.58504 4.58504 4.8 4.31988 4.8H2.87953C2.61437 4.8 2.39941 4.58504 2.39941 4.31988V2.87953ZM2.4002 7.27941C2.4002 7.01432 2.6151 6.79941 2.8802 6.79941H4.3202C4.58529 6.79941 4.8002 7.01432 4.8002 7.27941V8.71941C4.8002 8.98451 4.58529 9.19941 4.3202 9.19941H2.8802C2.6151 9.19941 2.4002 8.98451 2.4002 8.71941V7.27941ZM2.87941 11.1994C2.61432 11.1994 2.39941 11.4143 2.39941 11.6794V13.1194C2.39941 13.3845 2.61432 13.5994 2.87941 13.5994H4.31941C4.58451 13.5994 4.79941 13.3845 4.79941 13.1194V11.6794C4.79941 11.4143 4.58451 11.1994 4.31941 11.1994H2.87941ZM6.79941 2.87936C6.79941 2.61429 7.01429 2.39941 7.27936 2.39941H8.71947C8.98454 2.39941 9.19941 2.61429 9.19941 2.87936V4.31947C9.19941 4.58454 8.98454 4.79941 8.71947 4.79941H7.27936C7.01429 4.79941 6.79941 4.58454 6.79941 4.31947V2.87936ZM7.27941 6.79941C7.01432 6.79941 6.79941 7.01432 6.79941 7.27941V8.71941C6.79941 8.98451 7.01432 9.19941 7.27941 9.19941H8.71941C8.98451 9.19941 9.19941 8.98451 9.19941 8.71941V7.27941C9.19941 7.01432 8.98451 6.79941 8.71941 6.79941H7.27941ZM6.79941 11.6794C6.79941 11.4143 7.01432 11.1994 7.27941 11.1994H8.71941C8.98451 11.1994 9.19941 11.4143 9.19941 11.6794V13.1194C9.19941 13.3845 8.98451 13.5994 8.71941 13.5994H7.27941C7.01432 13.5994 6.79941 13.3845 6.79941 13.1194V11.6794ZM11.6794 2.39941C11.4143 2.39941 11.1994 2.61432 11.1994 2.87941V4.31941C11.1994 4.58451 11.4143 4.79941 11.6794 4.79941H13.1194C13.3845 4.79941 13.5994 4.58451 13.5994 4.31941V2.87941C13.5994 2.61432 13.3845 2.39941 13.1194 2.39941H11.6794ZM11.1994 7.27941C11.1994 7.01432 11.4143 6.79941 11.6794 6.79941H13.1194C13.3845 6.79941 13.5994 7.01432 13.5994 7.27941V8.71941C13.5994 8.98451 13.3845 9.19941 13.1194 9.19941H11.6794C11.4143 9.19941 11.1994 8.98451 11.1994 8.71941V7.27941ZM11.6793 11.1994C11.4143 11.1994 11.1994 11.4143 11.1994 11.6793V13.1195C11.1994 13.3846 11.4143 13.5994 11.6793 13.5994H13.1195C13.3846 13.5994 13.5994 13.3846 13.5994 13.1195V11.6793C13.5994 11.4143 13.3846 11.1994 13.1195 11.1994H11.6793Z" fill="#808B93"/>
</svg>
