<svg width="16" height="16" viewBox="0 0 16 16" fill="none" xmlns="http://www.w3.org/2000/svg">
<path d="M3.2002 5.13379H4.26682H12.7998" stroke="#808B93" stroke-width="0.799971" stroke-linecap="round" stroke-linejoin="round"/>
<path d="M5.86654 5.13326V4.06663C5.86654 3.78374 5.97892 3.51244 6.17895 3.31241C6.37898 3.11238 6.65028 3 6.93317 3H9.06643C9.34931 3 9.62061 3.11238 9.82065 3.31241C10.0207 3.51244 10.1331 3.78374 10.1331 4.06663V5.13326M11.733 5.13326V12.5996C11.733 12.8825 11.6206 13.1538 11.4206 13.3539C11.2206 13.5539 10.9493 13.6663 10.6664 13.6663H5.33323C5.05034 13.6663 4.77904 13.5539 4.57901 13.3539C4.37898 13.1538 4.2666 12.8825 4.2666 12.5996V5.13326H11.733Z" stroke="#808B93" stroke-width="0.799971" stroke-linecap="round" stroke-linejoin="round"/>
<path d="M8 7.7998V10.9997" stroke="#808B93" stroke-width="0.799971" stroke-linecap="round" stroke-linejoin="round"/>
</svg>
