<svg width="16" height="16" viewBox="0 0 16 16" fill="none" xmlns="http://www.w3.org/2000/svg">
<path fill-rule="evenodd" clip-rule="evenodd" d="M1 1H15V12H10H9H7H6H1V1ZM6 13H1C0.447715 13 0 12.5523 0 12V1C0 0.447715 0.447715 0 1 0H15C15.5523 0 16 0.447715 16 1V12C16 12.5523 15.5523 13 15 13H10V15H11.5C11.7761 15 12 15.2239 12 15.5C12 15.7761 11.7761 16 11.5 16H10H9H7H6H4.5C4.22386 16 4 15.7761 4 15.5C4 15.2239 4.22386 15 4.5 15H6V13ZM9 13V15H7V13H9ZM5.35355 4.35355C5.54882 4.15829 5.54882 3.84171 5.35355 3.64645C5.15829 3.45118 4.84171 3.45118 4.64645 3.64645L2.14645 6.14645C1.95118 6.34171 1.95118 6.65829 2.14645 6.85355L4.64645 9.35355C4.84171 9.54882 5.15829 9.54882 5.35355 9.35355C5.54882 9.15829 5.54882 8.84171 5.35355 8.64645L3.20711 6.5L5.35355 4.35355ZM10.6464 3.64645C10.4512 3.84171 10.4512 4.15829 10.6464 4.35355L12.7929 6.5L10.6464 8.64645C10.4512 8.84171 10.4512 9.15829 10.6464 9.35355C10.8417 9.54882 11.1583 9.54882 11.3536 9.35355L13.8536 6.85355C14.0488 6.65829 14.0488 6.34171 13.8536 6.14645L11.3536 3.64645C11.1583 3.45118 10.8417 3.45118 10.6464 3.64645ZM9.48076 3.13736C9.55662 2.87184 9.40288 2.5951 9.13736 2.51924C8.87184 2.44338 8.5951 2.59712 8.51924 2.86264L6.51924 9.86264C6.44338 10.1282 6.59712 10.4049 6.86264 10.4808C7.12816 10.5566 7.4049 10.4029 7.48076 10.1374L9.48076 3.13736Z" fill="#808B93"/>
</svg>
