<svg width="36" height="36" viewBox="0 0 36 36" fill="none" xmlns="http://www.w3.org/2000/svg">
<path fill-rule="evenodd" clip-rule="evenodd" d="M15.3633 3C14.811 3 14.3633 3.44772 14.3633 4V7.49482C13.9473 7.6399 13.5403 7.8097 13.1445 8.00332L10.6736 5.52603C10.4861 5.33809 10.2316 5.23239 9.9662 5.23222C9.70076 5.23205 9.44614 5.33742 9.25845 5.52512L5.52512 9.25845C5.33742 9.44614 5.23205 9.70076 5.23222 9.9662C5.23239 10.2316 5.33809 10.4861 5.52603 10.6736L8.00317 13.1443C7.81004 13.5399 7.64142 13.947 7.49827 14.3633H4C3.44772 14.3633 3 14.811 3 15.3633V20.6367C3 21.189 3.44772 21.6367 4 21.6367H7.49827C7.64142 22.053 7.81004 22.4601 8.00317 22.8557L5.52603 25.3264C5.33809 25.5139 5.23239 25.7684 5.23222 26.0338C5.23205 26.2992 5.33742 26.5539 5.52512 26.7416L9.25845 30.4749C9.44614 30.6626 9.70076 30.768 9.9662 30.7678C10.2316 30.7676 10.4861 30.6619 10.6736 30.474L13.1445 27.9967C13.5403 28.1903 13.9473 28.3601 14.3633 28.5052V32C14.3633 32.5523 14.811 33 15.3633 33H20.6367C21.189 33 21.6367 32.5523 21.6367 32V28.5052C22.0527 28.3601 22.4597 28.1903 22.8555 27.9967L25.3264 30.474C25.5139 30.6619 25.7684 30.7676 26.0338 30.7678C26.2992 30.768 26.5539 30.6626 26.7416 30.4749L30.4749 26.7416C30.6626 26.5539 30.768 26.2992 30.7678 26.0338C30.7676 25.7684 30.6619 25.5139 30.474 25.3264L27.9968 22.8557C28.19 22.4601 28.3586 22.053 28.5017 21.6367H32C32.5523 21.6367 33 21.189 33 20.6367V15.3633C33 14.811 32.5523 14.3633 32 14.3633H28.5017C28.3586 13.947 28.19 13.5399 27.9968 13.1443L30.474 10.6736C30.6619 10.4861 30.7676 10.2316 30.7678 9.9662C30.768 9.70076 30.6626 9.44614 30.4749 9.25845L26.7416 5.52512C26.5539 5.33742 26.2992 5.23205 26.0338 5.23222C25.7684 5.23239 25.5139 5.33809 25.3264 5.52603L22.8555 8.00332C22.4597 7.8097 22.0527 7.6399 21.6367 7.49482V4C21.6367 3.44772 21.189 3 20.6367 3H15.3633ZM16.3633 8.23111V5H19.6367V8.23111C19.6367 8.68226 19.9387 9.07753 20.3741 9.19601C21.1317 9.40221 21.8593 9.70597 22.5386 10.0997C22.9311 10.3271 23.4276 10.2619 23.748 9.94063L26.0354 7.64735L28.3526 9.96464L26.0594 12.252C25.7378 12.5728 25.6727 13.07 25.9011 13.4627C26.294 14.1383 26.5944 14.8636 26.7944 15.6192C26.9105 16.0578 27.3074 16.3633 27.7611 16.3633H31V19.6367H27.7611C27.3074 19.6367 26.9105 19.9422 26.7944 20.3808C26.5944 21.1364 26.294 21.8617 25.9011 22.5373C25.6727 22.93 25.7378 23.4272 26.0594 23.748L28.3526 26.0354L26.0354 28.3526L23.748 26.0594C23.4276 25.7381 22.9311 25.6729 22.5386 25.9003C21.8593 26.294 21.1317 26.5978 20.3741 26.804C19.9387 26.9225 19.6367 27.3177 19.6367 27.7689V31H16.3633V27.7689C16.3633 27.3177 16.0613 26.9225 15.6259 26.804C14.8683 26.5978 14.1407 26.294 13.4614 25.9003C13.0689 25.6729 12.5724 25.7381 12.252 26.0594L9.96464 28.3526L7.64735 26.0354L9.94063 23.748C10.2622 23.4272 10.3273 22.93 10.0989 22.5373C9.70604 21.8617 9.40558 21.1364 9.2056 20.3808C9.0895 19.9422 8.69263 19.6367 8.23889 19.6367H5V16.3633H8.23889C8.69263 16.3633 9.0895 16.0578 9.2056 15.6192C9.40558 14.8636 9.70604 14.1383 10.0989 13.4627C10.3273 13.07 10.2622 12.5728 9.94063 12.252L7.64735 9.96464L9.96464 7.64735L12.252 9.94063C12.5724 10.2619 13.0689 10.3271 13.4614 10.0997C14.1407 9.70596 14.8683 9.40221 15.6259 9.19601C16.0613 9.07753 16.3633 8.68226 16.3633 8.23111ZM14.4811 18C14.4811 16.0565 16.0566 14.4811 18 14.4811C19.9434 14.4811 21.5189 16.0565 21.5189 18C21.5189 19.9434 19.9434 21.5189 18 21.5189C16.0566 21.5189 14.4811 19.9434 14.4811 18ZM18 12.4811C14.952 12.4811 12.4811 14.952 12.4811 18C12.4811 21.048 14.952 23.5189 18 23.5189C21.048 23.5189 23.5189 21.048 23.5189 18C23.5189 14.952 21.048 12.4811 18 12.4811Z" fill="black"/>
</svg>
