<svg width="38" height="35" viewBox="0 0 38 35" fill="none" xmlns="http://www.w3.org/2000/svg">
<path fill-rule="evenodd" clip-rule="evenodd" d="M0.25 1.125C0.25 0.779822 0.529822 0.5 0.875 0.5H2.125C2.47018 0.5 2.75 0.779822 2.75 1.125V2.375C2.75 2.72018 2.47018 3 2.125 3H0.875C0.529822 3 0.25 2.72018 0.25 2.375V1.125ZM25.25 19.4113C25.25 18.4419 26.3056 17.8414 27.1388 18.3368L36.5529 23.9344C37.4824 24.487 37.3191 25.8793 36.2869 26.2019L33.3701 27.1134L36.1076 31.8418C36.4497 32.4327 36.2544 33.1887 35.6689 33.54L33.6159 34.7718C33.0174 35.1309 32.2407 34.9303 31.891 34.3262L29.1597 29.6085L27.3408 31.2621C26.5379 31.9921 25.25 31.4223 25.25 30.3372V19.4113ZM35.914 25.0088L26.5 19.4113V30.3372L28.3189 28.6836C28.9085 28.1476 29.8423 28.2927 30.2415 28.9822L32.9728 33.6999L35.0258 32.4681L32.2883 27.7397C31.8868 27.0462 32.2324 26.1593 32.9972 25.9203L35.914 25.0088ZM7.125 0.5C6.77982 0.5 6.5 0.779822 6.5 1.125V2.375C6.5 2.72018 6.77982 3 7.125 3H8.375C8.72018 3 9 2.72018 9 2.375V1.125C9 0.779822 8.72018 0.5 8.375 0.5H7.125ZM12.75 1.125C12.75 0.779822 13.0298 0.5 13.375 0.5H14.625C14.9702 0.5 15.25 0.779822 15.25 1.125V2.375C15.25 2.72018 14.9702 3 14.625 3H13.375C13.0298 3 12.75 2.72018 12.75 2.375V1.125ZM19.625 0.5C19.2798 0.5 19 0.779822 19 1.125V2.375C19 2.72018 19.2798 3 19.625 3H20.875C21.2202 3 21.5 2.72018 21.5 2.375V1.125C21.5 0.779822 21.2202 0.5 20.875 0.5H19.625ZM19 7.375C19 7.02982 19.2798 6.75 19.625 6.75H20.875C21.2202 6.75 21.5 7.02982 21.5 7.375V8.625C21.5 8.97018 21.2202 9.25 20.875 9.25H19.625C19.2798 9.25 19 8.97018 19 8.625V7.375ZM13.375 10.5C11.9943 10.5 10.875 11.6193 10.875 13V30.5C10.875 31.8807 11.9943 33 13.375 33H22.125V31.75H13.375C12.6846 31.75 12.125 31.1904 12.125 30.5V13C12.125 12.3096 12.6846 11.75 13.375 11.75H30.875C31.5654 11.75 32.125 12.3096 32.125 13V17.375H33.375V13C33.375 11.6193 32.2557 10.5 30.875 10.5H13.375ZM0.25 7.375C0.25 7.02982 0.529822 6.75 0.875 6.75H2.125C2.47018 6.75 2.75 7.02982 2.75 7.375V8.625C2.75 8.97018 2.47018 9.25 2.125 9.25H0.875C0.529822 9.25 0.25 8.97018 0.25 8.625V7.375ZM0.875 13C0.529822 13 0.25 13.2798 0.25 13.625V14.875C0.25 15.2202 0.529822 15.5 0.875 15.5H2.125C2.47018 15.5 2.75 15.2202 2.75 14.875V13.625C2.75 13.2798 2.47018 13 2.125 13H0.875ZM0.25 19.875C0.25 19.5298 0.529822 19.25 0.875 19.25H2.125C2.47018 19.25 2.75 19.5298 2.75 19.875V21.125C2.75 21.4702 2.47018 21.75 2.125 21.75H0.875C0.529822 21.75 0.25 21.4702 0.25 21.125V19.875ZM7.125 19.25C6.77982 19.25 6.5 19.5298 6.5 19.875V21.125C6.5 21.4702 6.77982 21.75 7.125 21.75H8.375C8.72018 21.75 9 21.4702 9 21.125V19.875C9 19.5298 8.72018 19.25 8.375 19.25H7.125Z" fill="#A1A1A1"/>
</svg>
