<svg width="16" height="16" viewBox="0 0 16 16" fill="none" xmlns="http://www.w3.org/2000/svg">
<path fill-rule="evenodd" clip-rule="evenodd" d="M15 8C15 11.866 11.866 15 8 15C4.13401 15 1 11.866 1 8C1 4.13401 4.13401 1 8 1C11.866 1 15 4.13401 15 8ZM16 8C16 12.4183 12.4183 16 8 16C3.58172 16 0 12.4183 0 8C0 3.58172 3.58172 0 8 0C12.4183 0 16 3.58172 16 8ZM10.6464 9.85355C10.8417 10.0488 11.1583 10.0488 11.3536 9.85355C11.5488 9.65829 11.5488 9.34171 11.3536 9.14645L8.30593 6.09883C8.11067 5.90357 7.79409 5.90357 7.59883 6.09883L4.55121 9.14645C4.35595 9.34171 4.35595 9.65829 4.55121 9.85355C4.74647 10.0488 5.06305 10.0488 5.25832 9.85355L7.95238 7.15949L10.6464 9.85355Z" fill="#fff"/>
</svg>
