<svg width="8" height="8" viewBox="0 0 8 8" fill="none" xmlns="http://www.w3.org/2000/svg">
<g clip-path="url(#clip0_3689_41401)">
<path d="M6.66667 3H3.66667C3.29848 3 3 3.29848 3 3.66667V6.66667C3 7.03486 3.29848 7.33333 3.66667 7.33333H6.66667C7.03486 7.33333 7.33333 7.03486 7.33333 6.66667V3.66667C7.33333 3.29848 7.03486 3 6.66667 3Z" stroke="white" stroke-linecap="round" stroke-linejoin="round"/>
<path d="M1.66699 5.00033H1.33366C1.15685 5.00033 0.987279 4.93009 0.862254 4.80506C0.73723 4.68004 0.666992 4.51047 0.666992 4.33366V1.33366C0.666992 1.15685 0.73723 0.987279 0.862254 0.862254C0.987279 0.73723 1.15685 0.666992 1.33366 0.666992H4.33366C4.51047 0.666992 4.68004 0.73723 4.80506 0.862254C4.93009 0.987279 5.00033 1.15685 5.00033 1.33366V1.66699" stroke="white" stroke-linecap="round" stroke-linejoin="round"/>
</g>
<defs>
<clipPath id="clip0_3689_41401">
<rect width="8" height="8" fill="white"/>
</clipPath>
</defs>
</svg>
