<svg width="8" height="8" viewBox="0 0 8 8" fill="none" xmlns="http://www.w3.org/2000/svg">
<path d="M2.84783 6.39303L2.83943 6.40176L2.83147 6.41088C2.71961 6.53898 2.66748 6.58457 2.62414 6.61376C2.57897 6.64417 2.51711 6.67461 2.3544 6.73448L2.3544 6.73447L2.35199 6.73537C2.00565 6.86483 1.4661 7.06719 0.962497 7.25607C0.865545 7.29244 0.769926 7.3283 0.677274 7.36304C0.822919 6.94292 0.988498 6.46386 1.12168 6.07851C1.16414 5.95567 1.20331 5.84235 1.23749 5.7435C1.30146 5.56422 1.33054 5.49919 1.35954 5.45249C1.38464 5.41205 1.42235 5.3651 1.54215 5.2532L1.54837 5.24739L1.55439 5.24137L3.85428 2.94148L5.03295 4.12015L4.38715 4.79211C3.84823 5.35281 3.21709 6.00934 2.84783 6.39303Z" stroke="white"/>
<path d="M6.13563 3.70977L4.25781 1.83195L4.66006 1.42871L6.53887 3.30752L6.13563 3.70977Z" fill="white"/>
<path d="M7.39225 1.74679L7.39204 1.74701L6.94109 2.19851L5.76983 1.02724L6.22133 0.576302L6.22154 0.576084C6.32299 0.474639 6.48632 0.474639 6.58776 0.576084L6.58798 0.576302L7.39325 1.38058C7.39331 1.38064 7.39337 1.3807 7.39343 1.38076C7.39344 1.38077 7.39346 1.38078 7.39347 1.3808C7.49327 1.48084 7.49405 1.645 7.39225 1.74679Z" stroke="white"/>
</svg>
