<svg width="12" height="12" viewBox="0 0 12 12" fill="none" xmlns="http://www.w3.org/2000/svg">
<path fill-rule="evenodd" clip-rule="evenodd" d="M1.80078 2.15892C1.80078 1.96005 1.962 1.79883 2.16087 1.79883H3.24113C3.44 1.79883 3.60122 1.96004 3.60122 2.15892V3.23918C3.60122 3.43805 3.44 3.59927 3.24113 3.59927H2.16087C1.962 3.59927 1.80078 3.43805 1.80078 3.23918V2.15892ZM1.80078 5.45961C1.80078 5.26079 1.96196 5.09961 2.16078 5.09961H3.24078C3.4396 5.09961 3.60078 5.26079 3.60078 5.45961V6.53961C3.60078 6.73843 3.4396 6.89961 3.24078 6.89961H2.16078C1.96196 6.89961 1.80078 6.73843 1.80078 6.53961V5.45961ZM2.16078 8.39755C1.96196 8.39755 1.80078 8.55873 1.80078 8.75755V9.83755C1.80078 10.0364 1.96196 10.1975 2.16078 10.1975H3.24078C3.4396 10.1975 3.60078 10.0364 3.60078 9.83755V8.75755C3.60078 8.55873 3.4396 8.39755 3.24078 8.39755H2.16078ZM5.10059 2.15878C5.10059 1.95999 5.26174 1.79883 5.46054 1.79883H6.54063C6.73943 1.79883 6.90059 1.95999 6.90059 2.15878V3.23887C6.90059 3.43767 6.73943 3.59883 6.54063 3.59883H5.46054C5.26174 3.59883 5.10059 3.43767 5.10059 3.23887V2.15878ZM5.46059 5.09961C5.26176 5.09961 5.10059 5.26079 5.10059 5.45961V6.53961C5.10059 6.73843 5.26176 6.89961 5.46059 6.89961H6.54059C6.73941 6.89961 6.90059 6.73843 6.90059 6.53961V5.45961C6.90059 5.26079 6.73941 5.09961 6.54059 5.09961H5.46059ZM5.10059 8.75746C5.10059 8.55864 5.26176 8.39746 5.46059 8.39746H6.54059C6.73941 8.39746 6.90059 8.55864 6.90059 8.75746V9.83746C6.90059 10.0363 6.73941 10.1975 6.54059 10.1975H5.46059C5.26176 10.1975 5.10059 10.0363 5.10059 9.83746V8.75746ZM8.76057 1.79883C8.56175 1.79883 8.40057 1.96001 8.40057 2.15883V3.23883C8.40057 3.43765 8.56175 3.59883 8.76057 3.59883H9.84057C10.0394 3.59883 10.2006 3.43765 10.2006 3.23883V2.15883C10.2006 1.96001 10.0394 1.79883 9.84057 1.79883H8.76057ZM8.40039 5.45961C8.40039 5.26079 8.56157 5.09961 8.76039 5.09961H9.84039C10.0392 5.09961 10.2004 5.26079 10.2004 5.45961V6.53961C10.2004 6.73843 10.0392 6.89961 9.84039 6.89961H8.76039C8.56157 6.89961 8.40039 6.73843 8.40039 6.53961V5.45961ZM8.76048 8.39755C8.56171 8.39755 8.40057 8.55869 8.40057 8.75746V9.83764C8.40057 10.0364 8.56171 10.1975 8.76048 10.1975H9.84066C10.0394 10.1975 10.2006 10.0364 10.2006 9.83764V8.75746C10.2006 8.55869 10.0394 8.39755 9.84066 8.39755H8.76048Z" fill="white"/>
</svg>
