<svg width="36" height="36" viewBox="0 0 36 36" fill="#B2C8DF" xmlns="http://www.w3.org/2000/svg">
<path fill-rule="evenodd" clip-rule="evenodd" d="M3.29289 3.29289C3.68342 2.90237 4.31658 2.90237 4.70711 3.29289L13 11.5858L13 4C13 3.44772 13.4477 3 14 3C14.5523 3 15 3.44772 15 4L15 14C15 14.1367 14.9726 14.2669 14.923 14.3856C14.8753 14.4998 14.8055 14.607 14.7136 14.7005L14.7005 14.7136C14.6062 14.8063 14.498 14.8764 14.3828 14.9241C14.2649 14.973 14.1356 15 14 15H4C3.44772 15 3 14.5523 3 14C3 13.4477 3.44772 13 4 13L11.5858 13L3.29289 4.70711C2.90237 4.31658 2.90237 3.68342 3.29289 3.29289ZM4 23C3.44772 23 3 22.5523 3 22C3 21.4477 3.44772 21 4 21L14 21C14.0345 21 14.0686 21.0017 14.1022 21.0052C14.2016 21.0153 14.2967 21.0399 14.3852 21.0769C14.4992 21.1244 14.6061 21.1939 14.6996 21.2854L14.7147 21.3006C14.8062 21.394 14.8757 21.501 14.9232 21.6149C14.9668 21.7194 14.9932 21.8328 14.9989 21.9517C14.9996 21.9677 15 21.9838 15 22V32C15 32.5523 14.5523 33 14 33C13.4477 33 13 32.5523 13 32L13 24.4142L4.70711 32.7071C4.31658 33.0976 3.68342 33.0976 3.29289 32.7071C2.90237 32.3166 2.90237 31.6834 3.29289 31.2929L11.5858 23L4 23ZM32 13L24.4142 13L32.7071 4.70711C33.0976 4.31658 33.0976 3.68342 32.7071 3.29289C32.3166 2.90237 31.6834 2.90237 31.2929 3.29289L23 11.5858V4C23 3.44772 22.5523 3 22 3C21.4477 3 21 3.44772 21 4V14C21 14.1367 21.0274 14.2669 21.077 14.3856C21.1255 14.5016 21.1967 14.6104 21.2908 14.705L21.2972 14.7114C21.4778 14.8898 21.7261 15 22 15L32 15C32.5523 15 33 14.5523 33 14C33 13.4477 32.5523 13 32 13ZM32 21L22 21C21.7239 21 21.4739 21.1119 21.2929 21.2929C21.1978 21.388 21.1258 21.4975 21.077 21.6144C21.0274 21.7331 21 21.8633 21 22V32C21 32.5523 21.4477 33 22 33C22.5523 33 23 32.5523 23 32V24.4142L31.2929 32.7071C31.6834 33.0976 32.3166 33.0976 32.7071 32.7071C33.0976 32.3166 33.0976 31.6834 32.7071 31.2929L24.4142 23L32 23C32.5523 23 33 22.5523 33 22C33 21.4477 32.5523 21 32 21Z" />
</svg>
