<svg width="99" height="16" viewBox="0 0 99 16" fill="none" xmlns="http://www.w3.org/2000/svg">
<path d="M6.96457 2.92705C7.26392 2.00574 8.56733 2.00574 8.86668 2.92705L9.46828 4.77858C9.60216 5.1906 9.98611 5.46956 10.4193 5.46956H12.3662C13.3349 5.46956 13.7377 6.70918 12.9539 7.27858L11.3789 8.42289C11.0284 8.67753 10.8818 9.1289 11.0157 9.54092L11.6173 11.3925C11.9166 12.3138 10.8621 13.0799 10.0784 12.5105L8.50341 11.3662C8.15292 11.1115 7.67833 11.1115 7.32784 11.3662L5.75284 12.5105C4.96912 13.0799 3.91464 12.3138 4.21399 11.3925L4.81559 9.54092C4.94947 9.1289 4.80281 8.67753 4.45232 8.42289L2.87732 7.27858C2.0936 6.70918 2.49638 5.46956 3.4651 5.46956H5.41192C5.84514 5.46956 6.2291 5.1906 6.36297 4.77858L6.96457 2.92705Z" fill="#FFB803"/>
<path d="M27.7204 2.92705C28.0198 2.00574 29.3232 2.00574 29.6225 2.92705L30.2241 4.77858C30.358 5.1906 30.742 5.46956 31.1752 5.46956H33.122C34.0907 5.46956 34.4935 6.70918 33.7098 7.27858L32.1348 8.42289C31.7843 8.67753 31.6376 9.1289 31.7715 9.54092L32.3731 11.3925C32.6725 12.3138 31.618 13.0799 30.8343 12.5105L29.2593 11.3662C28.9088 11.1115 28.4342 11.1115 28.0837 11.3662L26.5087 12.5105C25.725 13.0799 24.6705 12.3138 24.9699 11.3925L25.5715 9.54092C25.7053 9.1289 25.5587 8.67753 25.2082 8.42289L23.6332 7.27858C22.8495 6.70918 23.2522 5.46956 24.221 5.46956H26.1678C26.601 5.46956 26.985 5.1906 27.1188 4.77858L27.7204 2.92705Z" fill="#FFB803"/>
<path d="M48.4763 2.92705C48.7756 2.00574 50.0791 2.00574 50.3784 2.92705L50.98 4.77858C51.1139 5.1906 51.4978 5.46956 51.9311 5.46956H53.8779C54.8466 5.46956 55.2494 6.70918 54.4657 7.27858L52.8907 8.42289C52.5402 8.67753 52.3935 9.1289 52.5274 9.54092L53.129 11.3925C53.4283 12.3138 52.3738 13.0799 51.5901 12.5105L50.0151 11.3662C49.6646 11.1115 49.19 11.1115 48.8396 11.3662L47.2646 12.5105C46.4808 13.0799 45.4264 12.3138 45.7257 11.3925L46.3273 9.54092C46.4612 9.1289 46.3145 8.67753 45.964 8.42289L44.389 7.27858C43.6053 6.70918 44.0081 5.46956 44.9768 5.46956H46.9236C47.3569 5.46956 47.7408 5.1906 47.8747 4.77858L48.4763 2.92705Z" fill="#FFB803"/>
<path d="M69.2321 2.92705C69.5315 2.00574 70.8349 2.00574 71.1343 2.92705L71.7359 4.77858C71.8697 5.1906 72.2537 5.46956 72.6869 5.46956H74.6337C75.6025 5.46956 76.0052 6.70918 75.2215 7.27858L73.6465 8.42289C73.296 8.67753 73.1494 9.1289 73.2832 9.54092L73.8848 11.3925C74.1842 12.3138 73.1297 13.0799 72.346 12.5105L70.771 11.3662C70.4205 11.1115 69.9459 11.1115 69.5954 11.3662L68.0204 12.5105C67.2367 13.0799 66.1822 12.3138 66.4816 11.3925L67.0832 9.54092C67.217 9.1289 67.0704 8.67753 66.7199 8.42289L65.1449 7.27858C64.3612 6.70918 64.764 5.46956 65.7327 5.46956H67.6795C68.1127 5.46956 68.4967 5.1906 68.6305 4.77858L69.2321 2.92705Z" fill="#FFB803"/>
<path d="M90.1335 2.92705C90.4329 2.00574 91.7363 2.00574 92.0356 2.92705L92.6372 4.77858C92.7711 5.1906 93.1551 5.46956 93.5883 5.46956H95.5351C96.5038 5.46956 96.9066 6.70918 96.1229 7.27858L94.5479 8.42289C94.1974 8.67753 94.0507 9.1289 94.1846 9.54092L94.7862 11.3925C95.0856 12.3138 94.0311 13.0799 93.2474 12.5105L91.6724 11.3662C91.3219 11.1115 90.8473 11.1115 90.4968 11.3662L88.9218 12.5105C88.1381 13.0799 87.0836 12.3138 87.3829 11.3925L87.9845 9.54092C88.1184 9.1289 87.9718 8.67753 87.6213 8.42289L86.0463 7.27858C85.2625 6.70918 85.6653 5.46956 86.634 5.46956H88.5809C89.0141 5.46956 89.398 5.1906 89.5319 4.77858L90.1335 2.92705Z" fill="#FFB803"/>
</svg>
