<svg width="271" height="380" viewBox="0 0 271 380" fill="none" xmlns="http://www.w3.org/2000/svg">
<mask id="mask0_7084_4308" style="mask-type:alpha" maskUnits="userSpaceOnUse" x="0" y="0" width="271" height="380">
<rect width="271" height="380" rx="20" fill="white"/>
</mask>
<g mask="url(#mask0_7084_4308)">
<g opacity="0.7" filter="url(#filter0_f_7084_4308)">
<path fill-rule="evenodd" clip-rule="evenodd" d="M144.857 37.3409C176.062 21.1864 216.939 38.292 249.39 61.0338C279.444 82.0949 300.466 118.377 314.368 156.132C326.321 188.592 317.924 221.663 321.078 255.722C324.715 295.006 357.271 346.31 334.235 370.693C309.673 396.69 266.743 353.067 231.752 350.27C210.05 348.536 191.38 362.182 169.675 357.54C142.541 351.738 114.598 343.551 93.1131 320.623C67.5283 293.32 39.2639 257.711 40.3398 219.517C41.4154 181.338 81.0406 169.238 98.2212 139.292C116.912 106.714 114.18 53.2222 144.857 37.3409Z" fill="#C6D9FF"/>
</g>
<rect x="209.5" y="253.5" width="70" height="27" rx="5.5" fill="url(#paint0_linear_7084_4308)" stroke="#CFE2FF"/>
<rect x="200.5" y="289.5" width="61" height="27" rx="5.5" fill="url(#paint1_linear_7084_4308)" stroke="#CFE2FF"/>
<path d="M231.025 262H231.316C232.325 262.022 233.318 262.428 234.031 263.146C233.767 263.415 233.499 263.673 233.241 263.941C232.841 263.579 232.358 263.3 231.832 263.201C231.053 263.036 230.214 263.185 229.561 263.629C228.848 264.095 228.366 264.885 228.261 265.729C228.146 266.563 228.382 267.44 228.925 268.087C229.446 268.718 230.241 269.113 231.064 269.14C231.832 269.184 232.632 268.948 233.192 268.411C233.63 268.032 233.833 267.457 233.899 266.897C232.989 266.897 232.078 266.903 231.168 266.897V265.767H235.001C235.199 266.979 234.914 268.345 233.992 269.211C233.378 269.826 232.528 270.188 231.662 270.259C230.822 270.341 229.956 270.182 229.21 269.776C228.316 269.299 227.603 268.493 227.252 267.544C226.923 266.672 226.918 265.685 227.225 264.808C227.505 264.007 228.042 263.3 228.733 262.806C229.397 262.318 230.203 262.049 231.025 262Z" fill="#3780FF"/>
<path d="M253.016 262.285H254.189V270.116C253.8 270.116 253.405 270.122 253.016 270.111C253.021 267.506 253.016 264.896 253.016 262.285Z" fill="#38B137"/>
<path d="M237.612 265C238.335 264.863 239.12 265.016 239.717 265.45C240.26 265.833 240.639 266.437 240.754 267.095C240.902 267.857 240.715 268.691 240.222 269.294C239.69 269.968 238.818 270.33 237.968 270.275C237.189 270.232 236.433 269.842 235.972 269.206C235.451 268.504 235.325 267.539 235.61 266.716C235.895 265.833 236.701 265.159 237.612 265ZM237.776 266.042C237.48 266.119 237.206 266.289 237.008 266.53C236.476 267.166 236.509 268.202 237.096 268.795C237.431 269.135 237.935 269.294 238.401 269.201C238.834 269.124 239.213 268.833 239.421 268.449C239.783 267.797 239.679 266.897 239.125 266.387C238.769 266.058 238.248 265.921 237.776 266.042Z" fill="#FA3913"/>
<path d="M243.426 265C244.254 264.841 245.159 265.072 245.779 265.653C246.788 266.558 246.898 268.252 246.037 269.294C245.516 269.952 244.671 270.314 243.838 270.276C243.042 270.254 242.258 269.859 241.787 269.206C241.255 268.488 241.139 267.501 241.441 266.662C241.743 265.806 242.532 265.154 243.426 265ZM243.591 266.042C243.295 266.119 243.02 266.289 242.823 266.525C242.297 267.15 242.318 268.17 242.883 268.768C243.218 269.124 243.739 269.3 244.221 269.201C244.649 269.119 245.033 268.834 245.241 268.45C245.598 267.792 245.494 266.892 244.934 266.382C244.578 266.053 244.057 265.922 243.591 266.042Z" fill="#FCBD06"/>
<path d="M248.352 265.318C248.982 264.924 249.821 264.814 250.501 265.154C250.715 265.247 250.891 265.406 251.061 265.565C251.066 265.417 251.061 265.264 251.066 265.11C251.434 265.116 251.801 265.11 252.174 265.116V269.952C252.169 270.682 251.982 271.455 251.456 271.987C250.88 272.574 249.997 272.755 249.202 272.634C248.352 272.508 247.611 271.888 247.282 271.104C247.611 270.945 247.957 270.819 248.297 270.671C248.489 271.12 248.878 271.504 249.366 271.592C249.854 271.68 250.419 271.559 250.737 271.153C251.077 270.737 251.077 270.166 251.061 269.656C250.809 269.903 250.518 270.122 250.167 270.205C249.405 270.419 248.566 270.155 247.979 269.64C247.387 269.124 247.036 268.329 247.069 267.539C247.085 266.646 247.59 265.785 248.352 265.318ZM249.487 266.02C249.152 266.075 248.84 266.262 248.626 266.519C248.11 267.134 248.11 268.115 248.631 268.719C248.928 269.075 249.405 269.272 249.865 269.223C250.299 269.179 250.699 268.905 250.913 268.527C251.275 267.885 251.214 267.013 250.726 266.454C250.425 266.108 249.942 265.938 249.487 266.02Z" fill="#3780FF"/>
<path d="M255.597 265.598C256.255 264.983 257.27 264.775 258.114 265.099C258.915 265.4 259.425 266.163 259.683 266.947C258.493 267.44 257.308 267.928 256.118 268.422C256.283 268.734 256.535 269.02 256.875 269.135C257.352 269.305 257.922 269.244 258.323 268.926C258.482 268.806 258.608 268.647 258.728 268.493C259.03 268.696 259.332 268.894 259.633 269.096C259.206 269.738 258.487 270.188 257.714 270.259C256.858 270.363 255.948 270.034 255.394 269.365C254.484 268.312 254.572 266.546 255.597 265.598ZM256.184 266.612C255.997 266.881 255.921 267.21 255.926 267.533C256.721 267.204 257.516 266.875 258.312 266.541C258.18 266.234 257.862 266.047 257.538 265.998C257.017 265.905 256.475 266.184 256.184 266.612Z" fill="#FA3913"/>
<path d="M53.3455 48.5H311.654C315.375 48.5 318.5 51.9592 318.5 56.3674L318.5 232.633C318.5 237.041 315.376 240.5 311.654 240.5H53.3455C49.6241 240.5 46.5 237.041 46.5 232.633V56.3674C46.5 51.9592 49.624 48.5 53.3455 48.5Z" fill="white" stroke="#CFE2FF" stroke-miterlimit="10"/>
<path d="M59.9507 62.8949C61.4466 62.8949 62.6592 61.6824 62.6592 60.1867C62.6592 58.691 61.4466 57.4785 59.9507 57.4785C58.4548 57.4785 57.2422 58.691 57.2422 60.1867C57.2422 61.6824 58.4548 62.8949 59.9507 62.8949Z" fill="#B3EB65"/>
<path d="M70.108 62.8949C71.6038 62.8949 72.8165 61.6824 72.8165 60.1867C72.8165 58.691 71.6038 57.4785 70.108 57.4785C68.6121 57.4785 67.3994 58.691 67.3994 60.1867C67.3994 61.6824 68.6121 62.8949 70.108 62.8949Z" fill="#F7DD93"/>
<path d="M80.2681 62.8949C81.764 62.8949 82.9766 61.6824 82.9766 60.1867C82.9766 58.691 81.764 57.4785 80.2681 57.4785C78.7722 57.4785 77.5596 58.691 77.5596 60.1867C77.5596 61.6824 78.7722 62.8949 80.2681 62.8949Z" fill="#FFBBB1"/>
<path d="M150.774 184.779C150.709 184.779 150.652 184.737 150.644 184.679C150.276 182.027 150.486 179.62 151.288 177.322C151.309 177.261 151.383 177.227 151.452 177.245C151.522 177.263 151.561 177.328 151.54 177.388C150.75 179.656 150.542 182.031 150.906 184.651C150.914 184.714 150.863 184.771 150.791 184.779C150.785 184.779 150.78 184.779 150.774 184.779Z" fill="#7C92C6"/>
<path d="M133.978 184.779C133.973 184.779 133.967 184.779 133.961 184.778C133.886 184.771 133.832 184.714 133.841 184.651C134.235 181.942 134.04 179.566 133.243 177.387C133.221 177.327 133.262 177.263 133.335 177.245C133.408 177.227 133.485 177.261 133.507 177.322C134.315 179.531 134.514 181.938 134.115 184.679C134.106 184.737 134.047 184.779 133.978 184.779V184.779Z" fill="#7C92C6"/>
<rect x="118.159" y="147.162" width="48.182" height="3.23101" rx="1.61551" fill="#E5E8F8"/>
<rect x="118.159" y="102.928" width="31.4231" height="3.23101" rx="1.61551" fill="#E5E8F8"/>
<rect x="154.821" y="102.928" width="31.4231" height="3.23101" rx="1.61551" fill="#E5E8F8"/>
<rect x="191.479" y="102.928" width="19.6394" height="3.23101" rx="1.61551" fill="#E5E8F8"/>
<path d="M118.662 115.639C118.662 115.363 118.886 115.139 119.162 115.139H246.782C247.058 115.139 247.282 115.363 247.282 115.639V138.358C247.282 138.634 247.058 138.858 246.782 138.858H119.162C118.886 138.858 118.662 138.634 118.662 138.358V115.639Z" fill="white" stroke="#DCDCDC"/>
<rect x="222.904" y="126.348" width="19.6394" height="7.80605" rx="1" fill="#8499CD"/>
<path d="M120.687 216.461C120.747 216.276 121.007 216.276 121.067 216.461L121.442 217.615C121.469 217.698 121.546 217.754 121.632 217.754H122.846C123.04 217.754 123.121 218.001 122.964 218.115L121.982 218.829C121.912 218.88 121.882 218.97 121.909 219.053L122.284 220.208C122.344 220.392 122.133 220.545 121.976 220.431L120.995 219.718C120.924 219.667 120.83 219.667 120.759 219.718L119.777 220.431C119.621 220.545 119.41 220.392 119.47 220.208L119.845 219.053C119.872 218.97 119.842 218.88 119.772 218.829L118.79 218.115C118.633 218.001 118.714 217.754 118.908 217.754H120.121C120.208 217.754 120.285 217.698 120.312 217.615L120.687 216.461Z" fill="#FFB800"/>
<path d="M127.794 216.461C127.854 216.276 128.115 216.276 128.175 216.461L128.55 217.615C128.576 217.698 128.653 217.754 128.74 217.754H129.954C130.148 217.754 130.228 218.001 130.071 218.115L129.089 218.829C129.019 218.88 128.99 218.97 129.017 219.053L129.392 220.208C129.452 220.392 129.241 220.545 129.084 220.431L128.102 219.718C128.032 219.667 127.937 219.667 127.867 219.718L126.885 220.431C126.728 220.545 126.517 220.392 126.577 220.208L126.952 219.053C126.979 218.97 126.95 218.88 126.88 218.829L125.897 218.115C125.741 218.001 125.821 217.754 126.015 217.754H127.229C127.316 217.754 127.392 217.698 127.419 217.615L127.794 216.461Z" fill="#FFB800"/>
<path d="M134.903 216.461C134.962 216.276 135.223 216.276 135.283 216.461L135.658 217.615C135.685 217.698 135.762 217.754 135.848 217.754H137.062C137.256 217.754 137.336 218.001 137.18 218.115L136.198 218.829C136.128 218.88 136.098 218.97 136.125 219.053L136.5 220.208C136.56 220.392 136.349 220.545 136.192 220.431L135.21 219.718C135.14 219.667 135.045 219.667 134.975 219.718L133.993 220.431C133.837 220.545 133.626 220.392 133.685 220.208L134.061 219.053C134.087 218.97 134.058 218.88 133.988 218.829L133.006 218.115C132.849 218.001 132.93 217.754 133.123 217.754H134.337C134.424 217.754 134.501 217.698 134.528 217.615L134.903 216.461Z" fill="#FFB800"/>
<path d="M142.01 216.461C142.07 216.276 142.331 216.276 142.39 216.461L142.766 217.615C142.792 217.698 142.869 217.754 142.956 217.754H144.17C144.363 217.754 144.444 218.001 144.287 218.115L143.305 218.829C143.235 218.88 143.206 218.97 143.232 219.053L143.608 220.208C143.667 220.392 143.456 220.545 143.3 220.431L142.318 219.718C142.248 219.667 142.153 219.667 142.083 219.718L141.101 220.431C140.944 220.545 140.733 220.392 140.793 220.208L141.168 219.053C141.195 218.97 141.165 218.88 141.095 218.829L140.113 218.115C139.957 218.001 140.037 217.754 140.231 217.754H141.445C141.531 217.754 141.608 217.698 141.635 217.615L142.01 216.461Z" fill="#FFB800"/>
<path d="M149.119 216.461C149.179 216.276 149.44 216.276 149.5 216.461L149.875 217.615C149.902 217.698 149.978 217.754 150.065 217.754H151.279C151.473 217.754 151.553 218.001 151.397 218.115L150.414 218.829C150.344 218.88 150.315 218.97 150.342 219.053L150.717 220.208C150.777 220.392 150.566 220.545 150.409 220.431L149.427 219.718C149.357 219.667 149.262 219.667 149.192 219.718L148.21 220.431C148.053 220.545 147.842 220.392 147.902 220.208L148.277 219.053C148.304 218.97 148.275 218.88 148.205 218.829L147.223 218.115C147.066 218.001 147.146 217.754 147.34 217.754H148.554C148.641 217.754 148.718 217.698 148.744 217.615L149.119 216.461Z" fill="#FFB800"/>
<rect x="118.158" y="224.629" width="47.3882" height="3.23101" rx="1.61551" fill="#E5E8F8"/>
<rect x="118.158" y="165.393" width="47.3882" height="46.3112" rx="3" fill="#F8F9FF"/>
<path d="M128.929 203.229C128.929 203.229 128.929 205.064 129.861 205.205C130.794 205.346 131.726 205.064 131.993 204.641C132.26 204.218 132.126 203.088 132.126 203.088L128.929 203.229H128.929Z" fill="#D0DDFE"/>
<path d="M154.777 203.229C154.777 203.229 154.777 205.064 153.844 205.205C152.911 205.346 151.979 205.064 151.713 204.641C151.446 204.218 151.579 203.088 151.579 203.088L154.776 203.229H154.777Z" fill="#D0DDFE"/>
<path d="M156.568 191.288C156.029 186.599 154.547 178.962 152.121 176.819C149.696 174.675 145.625 174.694 145.625 174.694C145.589 173.274 145.623 173.472 145.623 173.472C145.502 174.799 143.384 175.93 142.931 176.165C142.298 176.081 139.29 174.874 139.161 173.472C139.161 173.472 139.053 173.309 139.052 174.675C139.052 174.675 135.145 174.675 132.72 176.819C130.296 178.962 128.813 186.599 128.275 191.288C127.736 195.977 127.601 202.139 128.544 203.346C129.488 204.551 131.643 204.284 132.451 203.48C133.395 202.542 132.316 195.843 132.855 191.556C133.394 187.269 134.337 184.858 134.337 184.858C134.337 184.858 134.876 191.288 134.607 194.504C134.337 197.719 133.125 198.121 135.011 199.595C136.897 201.068 142.421 200.8 142.421 200.8C142.421 200.8 147.945 201.068 149.831 199.595C151.717 198.121 150.504 197.719 150.235 194.504C149.965 191.288 150.504 184.858 150.504 184.858C150.504 184.858 151.448 187.269 151.987 191.556C152.525 195.843 151.178 202.542 152.121 203.48C153.065 204.418 155.221 204.418 156.163 203.211C157.107 202.006 157.107 195.977 156.568 191.288Z" fill="#8499CD"/>
<path d="M141.854 179.754C141.854 179.555 142.016 179.395 142.216 179.395C142.416 179.395 142.578 179.555 142.578 179.754C142.578 179.952 142.416 180.113 142.216 180.113C142.016 180.113 141.854 179.952 141.854 179.754Z" fill="#D0DDFE"/>
<path d="M141.854 183.681C141.854 183.483 142.016 183.322 142.216 183.322C142.416 183.322 142.578 183.483 142.578 183.681C142.578 183.88 142.416 184.04 142.216 184.04C142.016 184.04 141.854 183.88 141.854 183.681Z" fill="#D0DDFE"/>
<path d="M141.854 187.607C141.854 187.409 142.016 187.248 142.216 187.248C142.416 187.248 142.578 187.409 142.578 187.607C142.578 187.805 142.416 187.966 142.216 187.966C142.016 187.966 141.854 187.805 141.854 187.607Z" fill="#D0DDFE"/>
<path d="M141.854 191.533C141.854 191.335 142.016 191.174 142.216 191.174C142.416 191.174 142.578 191.335 142.578 191.533C142.578 191.731 142.416 191.892 142.216 191.892C142.016 191.892 141.854 191.731 141.854 191.533Z" fill="#D0DDFE"/>
<path d="M141.854 195.461C141.854 195.262 142.016 195.102 142.216 195.102C142.416 195.102 142.578 195.262 142.578 195.461C142.578 195.659 142.416 195.82 142.216 195.82C142.016 195.82 141.854 195.659 141.854 195.461Z" fill="#D0DDFE"/>
<path d="M141.854 199.388C141.854 199.19 142.016 199.029 142.216 199.029C142.416 199.029 142.578 199.19 142.578 199.388C142.578 199.587 142.416 199.747 142.216 199.747C142.016 199.747 141.854 199.587 141.854 199.388Z" fill="#D0DDFE"/>
<path d="M144.007 181.549H148.315V184.99L146.087 186.934L144.007 184.84V181.549Z" fill="#D0DDFE"/>
<path d="M139.353 172.932C139.353 172.932 140.812 175.683 142.93 175.828L141.471 178.317C141.471 178.317 138.93 176.93 138.645 174.824C138.469 173.514 139.353 172.932 139.353 172.932Z" fill="#D0DDFE"/>
<path d="M145.63 172.932C145.63 172.932 144.473 175.697 142.93 175.842L144.087 178.317C144.087 178.317 145.937 176.93 146.144 174.824C146.272 173.514 145.63 172.932 145.63 172.932Z" fill="#D0DDFE"/>
<path d="M174.885 216.461C174.945 216.276 175.206 216.276 175.265 216.461L175.641 217.615C175.667 217.698 175.744 217.754 175.831 217.754H177.045C177.238 217.754 177.319 218.001 177.162 218.115L176.18 218.829C176.11 218.88 176.081 218.97 176.107 219.053L176.483 220.208C176.542 220.392 176.331 220.545 176.175 220.431L175.193 219.718C175.123 219.667 175.028 219.667 174.958 219.718L173.976 220.431C173.819 220.545 173.608 220.392 173.668 220.208L174.043 219.053C174.07 218.97 174.04 218.88 173.97 218.829L172.988 218.115C172.832 218.001 172.912 217.754 173.106 217.754H174.32C174.406 217.754 174.483 217.698 174.51 217.615L174.885 216.461Z" fill="#FFB800"/>
<path d="M181.992 216.461C182.052 216.276 182.313 216.276 182.373 216.461L182.748 217.615C182.775 217.698 182.852 217.754 182.938 217.754H184.152C184.346 217.754 184.426 218.001 184.27 218.115L183.287 218.829C183.217 218.88 183.188 218.97 183.215 219.053L183.59 220.208C183.65 220.392 183.439 220.545 183.282 220.431L182.3 219.718C182.23 219.667 182.135 219.667 182.065 219.718L181.083 220.431C180.926 220.545 180.715 220.392 180.775 220.208L181.15 219.053C181.177 218.97 181.148 218.88 181.078 218.829L180.096 218.115C179.939 218.001 180.02 217.754 180.213 217.754H181.427C181.514 217.754 181.591 217.698 181.617 217.615L181.992 216.461Z" fill="#FFB800"/>
<path d="M189.101 216.461C189.161 216.276 189.421 216.276 189.481 216.461L189.856 217.615C189.883 217.698 189.96 217.754 190.047 217.754H191.26C191.454 217.754 191.535 218.001 191.378 218.115L190.396 218.829C190.326 218.88 190.296 218.97 190.323 219.053L190.698 220.208C190.758 220.392 190.547 220.545 190.391 220.431L189.409 219.718C189.339 219.667 189.244 219.667 189.173 219.718L188.192 220.431C188.035 220.545 187.824 220.392 187.884 220.208L188.259 219.053C188.286 218.97 188.256 218.88 188.186 218.829L187.204 218.115C187.047 218.001 187.128 217.754 187.322 217.754H188.536C188.622 217.754 188.699 217.698 188.726 217.615L189.101 216.461Z" fill="#FFB800"/>
<path d="M196.208 216.461C196.268 216.276 196.529 216.276 196.589 216.461L196.964 217.615C196.991 217.698 197.067 217.754 197.154 217.754H198.368C198.562 217.754 198.642 218.001 198.485 218.115L197.503 218.829C197.433 218.88 197.404 218.97 197.431 219.053L197.806 220.208C197.866 220.392 197.655 220.545 197.498 220.431L196.516 219.718C196.446 219.667 196.351 219.667 196.281 219.718L195.299 220.431C195.142 220.545 194.931 220.392 194.991 220.208L195.366 219.053C195.393 218.97 195.364 218.88 195.294 218.829L194.311 218.115C194.155 218.001 194.235 217.754 194.429 217.754H195.643C195.73 217.754 195.806 217.698 195.833 217.615L196.208 216.461Z" fill="#FFB800"/>
<path d="M203.318 216.461C203.377 216.276 203.638 216.276 203.698 216.461L204.073 217.615C204.1 217.698 204.177 217.754 204.263 217.754H205.477C205.671 217.754 205.752 218.001 205.595 218.115L204.613 218.829C204.543 218.88 204.513 218.97 204.54 219.053L204.915 220.208C204.975 220.392 204.764 220.545 204.607 220.431L203.625 219.718C203.555 219.667 203.46 219.667 203.39 219.718L202.408 220.431C202.252 220.545 202.041 220.392 202.101 220.208L202.476 219.053C202.502 218.97 202.473 218.88 202.403 218.829L201.421 218.115C201.264 218.001 201.345 217.754 201.538 217.754H202.752C202.839 217.754 202.916 217.698 202.943 217.615L203.318 216.461Z" fill="#FFB800"/>
<rect x="172.357" y="224.631" width="47.0389" height="3.23101" rx="1.61551" fill="#E5E8F8"/>
<rect x="172.357" y="165.395" width="47.0389" height="46.7412" rx="3" fill="#F8F9FF"/>
<g clip-path="url(#clip0_7084_4308)">
<path d="M183.748 178.23C181.696 179.023 179.516 189.794 179.516 189.794C181.704 192.017 185.367 191.64 185.367 191.64L188.199 184.013C188.199 184.013 185.799 177.439 183.748 178.23Z" fill="#9BAEDD"/>
<path d="M183.748 178.23C181.696 179.023 179.516 189.794 179.516 189.794C180.255 190.544 181.161 190.999 182.039 191.27C182.54 189.646 183.167 187.57 183.748 185.54C184.437 183.135 184.432 180.257 184.295 178.184C184.112 178.15 183.929 178.162 183.748 178.232V178.23Z" fill="#96A9DA"/>
<path d="M212.238 189.694C212.238 189.694 209.995 178.937 207.939 178.158C205.883 177.379 203.521 183.966 203.521 183.966L205.278 191.074C205.278 191.074 210.062 191.931 212.238 189.694Z" fill="#9BAEDD"/>
<path d="M205.364 180.071C205.488 183.45 205.939 188.216 207.407 191.236C208.965 191.232 211.015 190.952 212.238 189.694C212.238 189.694 209.994 178.937 207.938 178.158C207.067 177.827 206.142 178.818 205.364 180.071Z" fill="#96A9DA"/>
<path d="M183.876 178.183C184.311 178.013 186.103 177.322 192.577 174.82H199.508C199.533 174.834 207.819 178.032 208.062 178.217C208.057 178.235 205.189 180.228 204.971 190.235C204.823 196.992 205.648 202.677 205.648 202.7C205.648 202.7 199.154 207.369 186.092 203.146L186.518 189.127C186.258 187.175 185.104 179.615 183.743 178.232L183.872 178.183H183.876Z" fill="#8499CD"/>
<path d="M195.842 187.088C195.186 187.088 194.655 186.55 194.655 185.887V177.232H197.026V185.888C197.026 186.552 196.495 187.09 195.84 187.09L195.842 187.088Z" fill="#9BAEDD"/>
<path d="M197.028 177.232C197.06 177.935 197.37 185.849 197.028 186.457C196.812 186.859 196.279 187.114 195.842 187.088C196.328 187.066 196.822 186.737 196.951 186.114C196.993 185.849 196.846 181.296 197.027 177.232H197.028Z" fill="#7C91C4"/>
<path d="M195.897 177.305C192.608 177.677 191.522 173.746 192.066 173.523C192.066 173.523 197.861 173.753 199.228 173.566C199.384 173.544 199.542 173.581 199.671 173.671L199.676 173.674C199.867 174.469 198.528 177.008 195.897 177.305Z" fill="#7C92C6"/>
<path d="M198.717 175.823C199.446 175.014 199.778 174.095 199.676 173.674L199.67 173.671C199.541 173.581 199.384 173.544 199.228 173.566C197.859 173.754 192.066 173.523 192.066 173.523C191.778 173.641 191.947 174.8 192.659 175.808C194.345 175.862 197.624 175.947 198.717 175.823Z" fill="#B4C1DF"/>
<path d="M195.897 177.303L193.27 180.973C193.27 180.973 189.986 177.008 190.473 175.633C190.961 174.26 191.81 173.523 192.067 173.523C191.519 173.746 192.615 177.675 195.897 177.303Z" fill="#D0DDFE"/>
<path d="M198.269 180.602L195.897 177.304C198.652 176.994 199.842 174.36 199.678 173.674C200.018 173.91 200.655 174.444 201.188 175.42C201.953 176.822 198.269 180.602 198.269 180.602Z" fill="#D0DDFE"/>
<path d="M195.787 180.312C196.059 180.312 196.279 180.089 196.279 179.813C196.279 179.538 196.059 179.314 195.787 179.314C195.515 179.314 195.294 179.538 195.294 179.813C195.294 180.089 195.515 180.312 195.787 180.312Z" fill="#FFFFE3"/>
<path opacity="0.4" d="M195.787 179.316C195.755 179.316 195.725 179.319 195.696 179.324C195.924 179.367 196.098 179.57 196.098 179.813C196.098 180.056 195.926 180.26 195.696 180.302C195.726 180.307 195.757 180.31 195.787 180.31C196.058 180.31 196.279 180.086 196.279 179.811C196.279 179.537 196.058 179.312 195.787 179.312V179.316Z" fill="#BCB49B"/>
<path d="M195.787 182.66C196.059 182.66 196.279 182.437 196.279 182.161C196.279 181.886 196.059 181.662 195.787 181.662C195.515 181.662 195.294 181.886 195.294 182.161C195.294 182.437 195.515 182.66 195.787 182.66Z" fill="#FFFFE3"/>
<path opacity="0.4" d="M195.787 181.662C195.755 181.662 195.725 181.665 195.696 181.67C195.924 181.713 196.098 181.916 196.098 182.159C196.098 182.402 195.926 182.605 195.696 182.648C195.726 182.653 195.757 182.656 195.787 182.656C196.058 182.656 196.279 182.432 196.279 182.157C196.279 181.882 196.058 181.658 195.787 181.658V181.662Z" fill="#BCB49B"/>
<path d="M195.787 185.334C196.059 185.334 196.279 185.111 196.279 184.835C196.279 184.559 196.059 184.336 195.787 184.336C195.515 184.336 195.294 184.559 195.294 184.835C195.294 185.111 195.515 185.334 195.787 185.334Z" fill="#FFFFE3"/>
<path opacity="0.4" d="M195.787 184.335C195.755 184.335 195.725 184.339 195.696 184.344C195.924 184.386 196.098 184.59 196.098 184.833C196.098 185.075 195.926 185.279 195.696 185.322C195.726 185.327 195.757 185.33 195.787 185.33C196.058 185.33 196.279 185.106 196.279 184.831C196.279 184.556 196.058 184.332 195.787 184.332V184.335Z" fill="#BCB49B"/>
<path d="M203.367 203.742C198.162 205.602 191.567 204.719 186.263 203.019C186.35 197.482 186.486 198.322 186.463 192.271C186.233 197.942 186.04 197.594 185.925 203.271C189.517 204.302 191.304 204.76 194.699 204.998C195.047 204.991 201.624 205.444 205.649 202.698C204.934 203.142 204.156 203.467 203.367 203.74V203.742Z" fill="#5C7A93"/>
</g>
<rect x="47.0762" y="70.6172" width="270.328" height="20.4631" fill="#8499CD"/>
<rect x="75.8818" y="75.8203" width="11.7836" height="10.4081" rx="2" fill="white"/>
<path d="M116.469 76.8203C116.469 76.268 116.916 75.8203 117.469 75.8203H201.573V86.2284H117.469C116.916 86.2284 116.469 85.7807 116.469 85.2284V76.8203Z" fill="white"/>
<rect x="197.646" y="75.8203" width="11.847" height="10.4081" rx="1" fill="#DCDCDC"/>
<rect x="201.338" y="78.4062" width="4.28498" height="4.25469" rx="2.12735" stroke="#848484" stroke-width="0.5"/>
<path d="M205.277 82.3184L206.474 83.507" stroke="#848484" stroke-width="0.5"/>
<rect x="238.235" y="75.8203" width="10.4744" height="10.4081" rx="5.20403" fill="#A4B9EC"/>
<path d="M236.629 85.6959L239.86 82.4648L243.091 85.6959H236.629Z" fill="#A4B9EC"/>
<path d="M81.1191 86.2299L81.1191 81.5462M85.047 78.4238H82.1191C81.5669 78.4238 81.1191 78.8715 81.1191 79.4238L81.1191 81.5462M81.1191 81.5462H84.2614" stroke="#8499CD"/>
<path d="M232.498 81.0263C232.498 83.6213 230.38 85.7303 227.761 85.7303C225.141 85.7303 223.023 83.6213 223.023 81.0263C223.023 78.4313 225.141 76.3223 227.761 76.3223C230.38 76.3223 232.498 78.4313 232.498 81.0263Z" fill="#8499CD" stroke="black"/>
<path d="M227.761 75.8223C224.867 75.8223 222.523 78.1511 222.523 81.0263C222.523 83.9015 224.867 86.2303 227.761 86.2303C230.654 86.2303 232.998 83.9015 232.998 81.0263C232.998 78.1511 230.654 75.8223 227.761 75.8223ZM227.761 77.3835C228.627 77.3835 229.332 78.0834 229.332 78.9447C229.332 79.8086 228.627 80.5059 227.761 80.5059C226.894 80.5059 226.189 79.8086 226.189 78.9447C226.189 78.0834 226.894 77.3835 227.761 77.3835ZM227.761 84.7732C226.449 84.7732 225.297 84.1071 224.618 83.0975C224.631 82.0645 226.716 81.4947 227.761 81.4947C228.805 81.4947 230.887 82.0645 230.903 83.0975C230.225 84.1071 229.073 84.7732 227.761 84.7732Z" fill="#A4B9EC"/>
<path d="M47.0762 91.0801H107.388V239.707H53.0762C49.7625 239.707 47.0762 237.02 47.0762 233.707V91.0801Z" fill="#F7F8FE"/>
<path d="M317.404 91.0801H257.092V239.707H311.404C314.718 239.707 317.404 237.02 317.404 233.707V91.0801Z" fill="#F7F8FE"/>
<rect x="265.708" y="175.086" width="2.15401" height="2.15401" rx="1.077" fill="#8CC936"/>
<rect x="265.71" y="186.934" width="2.29531" height="2.28078" rx="1.14039" fill="#8CC936"/>
<rect x="265.71" y="198.908" width="2.29531" height="2.28078" rx="1.14039" fill="#8CC936"/>
<rect x="265.71" y="210.881" width="2.29531" height="2.28078" rx="1.14039" fill="#8CC936"/>
<rect x="265.71" y="222.855" width="2.29531" height="2.28078" rx="1.14039" fill="#8CC936"/>
<rect x="58.9229" y="147.598" width="33.3871" height="3.23101" rx="1.61551" fill="#E5E8F8"/>
<rect x="58.9229" y="184.578" width="33.3871" height="3.23101" rx="1.61551" fill="#E5E8F8"/>
<rect x="58.9229" y="221.559" width="33.3871" height="3.23101" rx="1.61551" fill="#E5E8F8"/>
<rect x="58.9229" y="159.924" width="24.7711" height="3.23101" rx="1.61551" fill="#E5E8F8"/>
<rect x="58.9229" y="172.252" width="24.7711" height="3.23101" rx="1.61551" fill="#E2E4EF"/>
<rect x="58.9229" y="209.23" width="24.7711" height="3.23101" rx="1.61551" fill="#E2E4EF"/>
<rect x="58.9229" y="196.904" width="24.7711" height="3.23101" rx="1.61551" fill="#E5E8F8"/>
<ellipse cx="77.191" cy="121.581" rx="15.7115" ry="15.6121" fill="#8499CD"/>
<path d="M77.191 105.969C68.5104 105.969 61.4795 112.955 61.4795 121.581C61.4795 130.207 68.5104 137.193 77.191 137.193C85.8716 137.193 92.9026 130.207 92.9026 121.581C92.9026 112.955 85.8716 105.969 77.191 105.969ZM77.191 110.652C79.7913 110.652 81.9045 112.752 81.9045 115.336C81.9045 117.928 79.7913 120.02 77.191 120.02C74.5908 120.02 72.4776 117.928 72.4776 115.336C72.4776 112.752 74.5908 110.652 77.191 110.652ZM77.191 132.822C73.2553 132.822 69.7987 130.823 67.7641 127.794C67.8034 124.695 74.0566 122.986 77.191 122.986C80.3255 122.986 86.5708 124.695 86.6179 127.794C84.5833 130.823 81.1268 132.822 77.191 132.822Z" fill="white"/>
<rect x="257.092" y="149.238" width="60.3123" height="12.9241" fill="#E5E8F8"/>
<rect x="270.016" y="102.928" width="33.3871" height="3.23101" rx="1.61551" fill="#E5E8F8"/>
<rect x="270.016" y="116.928" width="33.3871" height="3.23101" rx="1.61551" fill="#E5E8F8"/>
<rect x="270.016" y="130.93" width="33.3871" height="7.53903" rx="1" fill="#8499CD"/>
<circle cx="236.63" cy="188.011" r="9.69304" fill="#E5E8F8"/>
<path d="M233.397 187.51C233.121 187.51 232.897 187.734 232.897 188.01C232.897 188.286 233.121 188.51 233.397 188.51L233.397 187.51ZM240.213 188.363C240.408 188.168 240.408 187.851 240.213 187.656L237.031 184.474C236.836 184.279 236.519 184.279 236.324 184.474C236.129 184.669 236.129 184.986 236.324 185.181L239.152 188.01L236.324 190.838C236.129 191.033 236.129 191.35 236.324 191.545C236.519 191.741 236.836 191.741 237.031 191.545L240.213 188.363ZM233.397 188.51L239.859 188.51L239.859 187.51L233.397 187.51L233.397 188.51Z" fill="#8499CD"/>
<rect x="46.5" y="253.5" width="70" height="27" rx="5.5" fill="white" stroke="#CFE2FF"/>
<path d="M82.6735 266.53C82.342 266.53 82.1029 266.629 81.8606 266.73V269.022C82.0927 269.043 82.2258 269.043 82.446 269.043C83.2419 269.043 83.351 268.709 83.351 268.244V267.149C83.351 266.806 83.2263 266.53 82.6735 266.53ZM77.388 266.405C76.8358 266.405 76.7098 266.682 76.7098 267.025V267.218H78.0655V267.025C78.0655 266.682 77.9395 266.405 77.388 266.405ZM67.1489 268.79C67.1489 269.062 67.2891 269.203 67.5983 269.203C67.9301 269.203 68.1265 269.104 68.3687 269.002V268.459H67.6433C67.2998 268.459 67.1489 268.517 67.1489 268.79ZM87.815 266.53C87.2619 266.53 87.0703 266.806 87.0703 267.149V268.404C87.0703 268.748 87.2619 269.025 87.815 269.025C88.3667 269.025 88.5598 268.748 88.5598 268.404V267.149C88.5596 266.806 88.3665 266.53 87.815 266.53ZM64.4383 270.197H62.8124V266.598H62V265.358H62.8126V264.613C62.8126 263.601 63.2711 263 64.5744 263H65.6594V264.24H64.9812C64.4738 264.24 64.4404 264.414 64.4404 264.737L64.4383 265.358H65.6669L65.5232 266.598H64.4383V270.197ZM69.995 270.206H68.6399L68.5813 269.892C67.9626 270.206 67.4104 270.257 67.0461 270.257C66.0523 270.257 65.5234 269.65 65.5234 268.81C65.5234 267.82 66.1406 267.466 67.2448 267.466H68.3687V267.252C68.3687 266.746 68.3053 266.598 67.455 266.598H66.0648L66.2007 265.358H67.7203C69.5859 265.358 69.995 265.897 69.995 267.262V270.206ZM74.6031 266.689C73.7598 266.557 73.5176 266.528 73.1119 266.528C72.3831 266.528 72.1629 266.675 72.1629 267.241V268.311C72.1629 268.877 72.3831 269.025 73.1119 269.025C73.5176 269.025 73.7598 268.995 74.6031 268.862V270.072C73.8645 270.223 73.3833 270.263 72.9766 270.263C71.231 270.263 70.5372 269.424 70.5372 268.211V267.342C70.5372 266.129 71.231 265.288 72.9766 265.288C73.3833 265.288 73.8645 265.328 74.6031 265.48V266.689ZM79.6912 268.211H76.7096V268.311C76.7096 268.877 76.9301 269.025 77.6586 269.025C78.3136 269.025 78.7134 268.995 79.5552 268.862V270.072C78.7433 270.223 78.3203 270.263 77.5239 270.263C75.7781 270.263 75.0839 269.424 75.0839 268.211V267.218C75.0839 266.157 75.5989 265.288 77.3878 265.288C79.1767 265.288 79.6912 266.147 79.6912 267.218V268.211ZM84.9765 268.234C84.9765 269.406 84.6102 270.261 82.391 270.261C81.5896 270.261 81.1196 270.197 80.235 270.072V263.373L81.8604 263.125V265.468C82.2117 265.349 82.6663 265.288 83.08 265.288C84.7056 265.288 84.9764 265.954 84.9764 267.025L84.9765 268.234ZM90.1868 268.26C90.1868 269.271 89.7303 270.251 87.8204 270.251C85.9096 270.251 85.4445 269.271 85.4445 268.26V267.283C85.4445 266.272 85.9096 265.291 87.8204 265.291C89.7303 265.291 90.1868 266.272 90.1868 267.283V268.26ZM95.3935 268.26C95.3935 269.271 94.9365 270.251 93.0269 270.251C91.1161 270.251 90.6511 269.271 90.6511 268.26V267.283C90.6511 266.272 91.1161 265.291 93.0269 265.291C94.9365 265.291 95.3935 266.272 95.3935 267.283V268.26ZM100.737 270.197H98.9751L97.485 267.922V270.197H95.8591V263.372L97.485 263.124V267.518L98.9751 265.358H100.737L99.1102 267.715L100.737 270.197ZM93.0214 266.53C92.4692 266.53 92.2775 266.806 92.2775 267.149V268.404C92.2775 268.748 92.4692 269.025 93.0214 269.025C93.5728 269.025 93.768 268.748 93.768 268.404V267.149C93.768 266.806 93.5728 266.53 93.0214 266.53Z" fill="#3B5998"/>
<rect x="46.5" y="289.5" width="65" height="27" rx="5.5" fill="white" stroke="#CFE2FF"/>
<rect x="129.5" y="329.5" width="55" height="17" rx="8.5" fill="#CFE2FF" stroke="#CFE2FF"/>
<path d="M140.611 340.085C140.369 340.085 140.15 340.04 139.955 339.95C139.759 339.859 139.604 339.727 139.49 339.555C139.377 339.383 139.321 339.171 139.321 338.921C139.321 338.706 139.362 338.528 139.445 338.389C139.528 338.25 139.64 338.14 139.781 338.059C139.921 337.977 140.079 337.916 140.253 337.875C140.427 337.833 140.604 337.802 140.785 337.78C141.013 337.754 141.199 337.732 141.342 337.716C141.484 337.697 141.588 337.668 141.652 337.629C141.717 337.589 141.749 337.524 141.749 337.435V337.417C141.749 337.2 141.688 337.032 141.565 336.913C141.444 336.793 141.264 336.734 141.023 336.734C140.773 336.734 140.576 336.789 140.432 336.9C140.289 337.01 140.191 337.131 140.136 337.266L139.438 337.107C139.52 336.875 139.641 336.687 139.8 336.545C139.961 336.401 140.146 336.296 140.355 336.232C140.564 336.165 140.783 336.132 141.013 336.132C141.166 336.132 141.328 336.15 141.498 336.187C141.671 336.222 141.831 336.286 141.98 336.381C142.131 336.475 142.255 336.61 142.351 336.786C142.447 336.96 142.495 337.186 142.495 337.464V340H141.769V339.478H141.739C141.691 339.574 141.619 339.669 141.523 339.761C141.427 339.854 141.304 339.931 141.153 339.993C141.002 340.054 140.821 340.085 140.611 340.085ZM140.772 339.488C140.978 339.488 141.154 339.447 141.299 339.366C141.447 339.285 141.559 339.179 141.635 339.048C141.713 338.915 141.752 338.774 141.752 338.623V338.131C141.725 338.157 141.674 338.182 141.598 338.205C141.523 338.227 141.438 338.246 141.342 338.262C141.246 338.277 141.152 338.291 141.061 338.305C140.97 338.316 140.893 338.326 140.832 338.335C140.688 338.353 140.556 338.383 140.437 338.426C140.319 338.47 140.225 338.532 140.153 338.613C140.084 338.692 140.049 338.799 140.049 338.931C140.049 339.115 140.117 339.254 140.253 339.349C140.389 339.442 140.562 339.488 140.772 339.488ZM144.263 337.733V340H143.52V336.182H144.233V336.803H144.281C144.368 336.601 144.506 336.439 144.693 336.316C144.882 336.193 145.12 336.132 145.407 336.132C145.667 336.132 145.895 336.187 146.09 336.296C146.286 336.404 146.437 336.565 146.545 336.778C146.653 336.992 146.707 337.257 146.707 337.571V340H145.964V337.661C145.964 337.384 145.891 337.168 145.747 337.012C145.603 336.855 145.405 336.776 145.153 336.776C144.981 336.776 144.828 336.813 144.693 336.888C144.561 336.962 144.455 337.072 144.378 337.216C144.301 337.358 144.263 337.531 144.263 337.733ZM149.168 340.075C148.86 340.075 148.585 339.996 148.343 339.838C148.102 339.679 147.913 339.453 147.776 339.16C147.64 338.865 147.572 338.511 147.572 338.098C147.572 337.686 147.641 337.333 147.778 337.039C147.918 336.746 148.108 336.522 148.35 336.366C148.592 336.21 148.866 336.132 149.173 336.132C149.41 336.132 149.6 336.172 149.745 336.251C149.89 336.329 150.003 336.42 150.083 336.525C150.164 336.629 150.227 336.721 150.272 336.801H150.316V334.909H151.06V340H150.334V339.406H150.272C150.227 339.487 150.162 339.58 150.078 339.684C149.995 339.789 149.881 339.88 149.735 339.958C149.589 340.036 149.4 340.075 149.168 340.075ZM149.332 339.441C149.546 339.441 149.726 339.384 149.874 339.272C150.023 339.157 150.136 338.999 150.212 338.797C150.29 338.595 150.329 338.359 150.329 338.091C150.329 337.826 150.291 337.594 150.214 337.395C150.138 337.196 150.026 337.041 149.879 336.93C149.731 336.819 149.549 336.763 149.332 336.763C149.108 336.763 148.922 336.821 148.773 336.938C148.624 337.054 148.511 337.212 148.435 337.412C148.36 337.613 148.323 337.839 148.323 338.091C148.323 338.346 148.361 338.576 148.437 338.779C148.513 338.983 148.626 339.145 148.775 339.264C148.926 339.382 149.112 339.441 149.332 339.441ZM154.043 340V336.182H154.756V336.803H154.804C154.883 336.593 155.013 336.429 155.194 336.311C155.375 336.192 155.591 336.132 155.843 336.132C156.098 336.132 156.312 336.192 156.484 336.311C156.658 336.43 156.786 336.594 156.869 336.803H156.909C157 336.599 157.145 336.437 157.344 336.316C157.543 336.193 157.78 336.132 158.055 336.132C158.401 336.132 158.684 336.241 158.903 336.458C159.123 336.675 159.233 337.002 159.233 337.44V340H158.49V337.509C158.49 337.251 158.42 337.063 158.279 336.947C158.138 336.831 157.97 336.773 157.774 336.773C157.532 336.773 157.344 336.848 157.21 336.997C157.076 337.145 157.009 337.334 157.009 337.566V340H156.268V337.462C156.268 337.255 156.203 337.088 156.074 336.962C155.945 336.836 155.776 336.773 155.569 336.773C155.428 336.773 155.298 336.811 155.179 336.885C155.061 336.958 154.966 337.06 154.893 337.191C154.822 337.322 154.786 337.474 154.786 337.646V340H154.043ZM161.873 340.077C161.515 340.077 161.202 339.995 160.936 339.831C160.669 339.667 160.462 339.437 160.314 339.142C160.167 338.847 160.093 338.503 160.093 338.108C160.093 337.712 160.167 337.366 160.314 337.069C160.462 336.773 160.669 336.542 160.936 336.378C161.202 336.214 161.515 336.132 161.873 336.132C162.231 336.132 162.543 336.214 162.81 336.378C163.077 336.542 163.284 336.773 163.431 337.069C163.579 337.366 163.653 337.712 163.653 338.108C163.653 338.503 163.579 338.847 163.431 339.142C163.284 339.437 163.077 339.667 162.81 339.831C162.543 339.995 162.231 340.077 161.873 340.077ZM161.875 339.453C162.107 339.453 162.3 339.392 162.452 339.269C162.604 339.147 162.717 338.983 162.79 338.779C162.865 338.576 162.902 338.351 162.902 338.106C162.902 337.862 162.865 337.638 162.79 337.435C162.717 337.229 162.604 337.064 162.452 336.94C162.3 336.816 162.107 336.754 161.875 336.754C161.642 336.754 161.448 336.816 161.294 336.94C161.141 337.064 161.028 337.229 160.953 337.435C160.88 337.638 160.844 337.862 160.844 338.106C160.844 338.351 160.88 338.576 160.953 338.779C161.028 338.983 161.141 339.147 161.294 339.269C161.448 339.392 161.642 339.453 161.875 339.453ZM164.517 340V336.182H165.236V336.788H165.275C165.345 336.583 165.468 336.421 165.643 336.304C165.821 336.184 166.021 336.125 166.245 336.125C166.291 336.125 166.346 336.126 166.409 336.13C166.474 336.133 166.524 336.137 166.561 336.142V336.853C166.531 336.845 166.478 336.836 166.401 336.826C166.325 336.814 166.249 336.808 166.173 336.808C165.997 336.808 165.841 336.846 165.703 336.92C165.567 336.993 165.459 337.095 165.38 337.226C165.3 337.355 165.261 337.503 165.261 337.668V340H164.517ZM168.748 340.077C168.371 340.077 168.047 339.997 167.776 339.836C167.506 339.674 167.297 339.446 167.149 339.152C167.003 338.857 166.931 338.512 166.931 338.116C166.931 337.725 167.003 337.38 167.149 337.082C167.297 336.783 167.502 336.551 167.766 336.383C168.031 336.216 168.341 336.132 168.695 336.132C168.911 336.132 169.12 336.168 169.322 336.239C169.524 336.31 169.706 336.422 169.866 336.575C170.027 336.727 170.154 336.925 170.247 337.169C170.339 337.411 170.386 337.705 170.386 338.051V338.315H167.351V337.758H169.657C169.657 337.562 169.618 337.389 169.538 337.238C169.459 337.086 169.347 336.966 169.203 336.878C169.06 336.79 168.893 336.746 168.7 336.746C168.492 336.746 168.309 336.797 168.154 336.9C167.999 337.001 167.88 337.134 167.796 337.298C167.713 337.46 167.671 337.637 167.671 337.827V338.262C167.671 338.518 167.716 338.735 167.806 338.914C167.897 339.093 168.023 339.229 168.186 339.324C168.348 339.417 168.538 339.463 168.755 339.463C168.896 339.463 169.024 339.443 169.14 339.403C169.256 339.362 169.357 339.301 169.441 339.219C169.526 339.138 169.59 339.038 169.635 338.919L170.339 339.045C170.282 339.253 170.181 339.434 170.035 339.59C169.891 339.744 169.71 339.864 169.491 339.95C169.274 340.035 169.026 340.077 168.748 340.077ZM171.735 340.047C171.599 340.047 171.482 339.999 171.385 339.903C171.287 339.805 171.238 339.688 171.238 339.55C171.238 339.414 171.287 339.298 171.385 339.202C171.482 339.104 171.599 339.055 171.735 339.055C171.871 339.055 171.988 339.104 172.086 339.202C172.183 339.298 172.232 339.414 172.232 339.55C172.232 339.641 172.209 339.725 172.163 339.801C172.118 339.876 172.058 339.935 171.984 339.98C171.909 340.025 171.826 340.047 171.735 340.047ZM173.753 340.047C173.617 340.047 173.5 339.999 173.402 339.903C173.304 339.805 173.255 339.688 173.255 339.55C173.255 339.414 173.304 339.298 173.402 339.202C173.5 339.104 173.617 339.055 173.753 339.055C173.888 339.055 174.005 339.104 174.103 339.202C174.201 339.298 174.25 339.414 174.25 339.55C174.25 339.641 174.227 339.725 174.18 339.801C174.135 339.876 174.076 339.935 174.001 339.98C173.927 340.025 173.844 340.047 173.753 340.047ZM175.77 340.047C175.634 340.047 175.517 339.999 175.42 339.903C175.322 339.805 175.273 339.688 175.273 339.55C175.273 339.414 175.322 339.298 175.42 339.202C175.517 339.104 175.634 339.055 175.77 339.055C175.906 339.055 176.023 339.104 176.121 339.202C176.218 339.298 176.267 339.414 176.267 339.55C176.267 339.641 176.244 339.725 176.198 339.801C176.153 339.876 176.093 339.935 176.019 339.98C175.944 340.025 175.861 340.047 175.77 340.047Z" fill="#6A85CA"/>
<rect x="124.5" y="289.5" width="64" height="27" rx="5.5" fill="white" stroke="#CFE2FF"/>
<path d="M142.053 309.105C145.395 309.105 148.105 306.395 148.105 303.053C148.105 299.71 145.395 297 142.053 297C138.71 297 136 299.71 136 303.053C136 306.395 138.71 309.105 142.053 309.105Z" fill="#E13138"/>
<path d="M142.291 300.238C140.605 300.238 139.754 301.434 139.754 302.431C139.754 303.036 139.985 303.571 140.48 303.772C140.562 303.806 140.634 303.774 140.658 303.685C140.675 303.624 140.75 303.467 140.767 303.404C140.791 303.317 140.781 303.286 140.716 303.208C140.574 303.041 140.485 302.867 140.485 302.562C140.485 301.545 141.116 300.822 142.192 300.822C143.144 300.822 143.667 301.415 143.667 302.184C143.667 303.196 143.214 304.019 142.541 304.019C142.17 304.019 141.893 303.748 141.982 303.375C142.088 302.93 142.295 302.451 142.295 302.129C142.295 301.841 142.141 301.635 141.818 301.635C141.439 301.635 141.133 301.991 141.133 302.511C141.133 302.843 141.242 303.007 141.242 303.007C141.242 303.007 140.858 304.694 140.788 304.98C140.653 305.549 140.769 306.243 140.779 306.313C140.784 306.355 140.839 306.364 140.863 306.333C140.897 306.289 141.35 305.735 141.504 305.183C141.548 305.028 141.755 304.22 141.755 304.22C141.878 304.452 142.24 304.602 142.621 304.602C143.761 304.602 144.535 303.627 144.535 302.252C144.538 301.209 143.646 300.238 142.291 300.238Z" fill="white"/>
<path d="M155.808 302.764C156.058 302.764 156.297 302.548 156.339 302.282C156.388 302.022 156.219 301.806 155.97 301.806C155.72 301.806 155.481 302.022 155.438 302.282C155.39 302.548 155.552 302.764 155.808 302.764ZM172.744 303.536H173.302C173.379 303.536 173.424 303.503 173.441 303.429C173.468 303.314 173.495 303.199 173.523 303.085C173.54 303.018 173.503 302.967 173.431 302.967H172.88C172.92 302.803 173.075 302.27 173.075 301.922C173.075 301.228 172.508 300.638 171.704 300.638C170.796 300.638 170.205 301.271 170.205 302.163C170.205 302.424 170.298 302.727 170.414 302.915C170.364 302.912 170.314 302.911 170.264 302.911C169.574 302.911 169.14 303.3 169.14 303.867C169.14 304.398 169.543 304.605 169.922 304.742C170.259 304.865 170.569 304.921 170.569 305.195C170.569 305.38 170.399 305.488 170.065 305.488C169.668 305.488 169.45 305.294 169.395 305.22C169.432 305.19 169.488 305.116 169.488 304.995C169.488 304.824 169.373 304.685 169.159 304.685C168.979 304.685 168.826 304.839 168.787 305.04C168.497 305.288 168.18 305.448 167.731 305.448C167.288 305.448 167.058 305.208 167.058 304.699C167.162 304.732 167.432 304.771 167.611 304.771C168.36 304.771 168.871 304.417 168.871 303.708C168.871 303.326 168.549 302.926 167.912 302.926H167.911C167.073 302.926 166.604 303.478 166.399 304.085C166.342 304.07 166.284 304.056 166.227 304.043C166.273 303.908 166.306 303.752 166.306 303.579C166.306 303.279 166.127 302.926 165.649 302.926C165.317 302.926 165.001 303.152 164.782 303.492C164.837 303.27 164.873 303.123 164.875 303.113C164.89 303.055 164.866 302.99 164.779 302.99H164.289C164.219 302.99 164.17 303.016 164.15 303.099C164.137 303.154 163.969 303.841 163.805 304.511C163.701 304.928 163.167 305.448 162.496 305.448C162.053 305.448 161.823 305.192 161.823 304.683C161.939 304.731 162.197 304.771 162.376 304.771C163.156 304.771 163.636 304.417 163.636 303.708C163.636 303.326 163.314 302.926 162.677 302.926H162.676C161.733 302.926 161.155 303.688 161.057 304.552C161.016 304.911 160.725 305.404 160.409 305.404C160.255 305.404 160.169 305.303 160.169 305.133C160.169 304.985 160.269 304.625 160.378 304.173C160.415 304.022 160.471 303.791 160.532 303.536H161.045C161.121 303.536 161.166 303.503 161.183 303.429C161.208 303.322 161.253 303.136 161.266 303.085C161.282 303.018 161.245 302.967 161.174 302.967H160.669C160.669 302.967 160.902 302.004 160.907 301.979C160.929 301.881 160.851 301.825 160.768 301.843C160.768 301.843 160.378 301.922 160.306 301.938C160.234 301.953 160.177 301.994 160.151 302.103L159.945 302.967H159.54C159.463 302.967 159.418 303 159.401 303.074C159.374 303.189 159.347 303.304 159.319 303.418C159.302 303.485 159.34 303.536 159.411 303.536H159.808C159.805 303.548 159.665 304.104 159.551 304.602C159.497 304.842 159.318 305.402 159.025 305.402C158.849 305.402 158.775 305.31 158.775 305.113C158.775 304.802 159.069 304.024 159.069 303.671C159.069 303.199 158.826 302.926 158.328 302.926C158.014 302.926 157.688 303.137 157.55 303.322C157.55 303.322 157.592 303.171 157.606 303.112C157.621 303.051 157.59 302.99 157.512 302.99H157.025C156.921 302.99 156.893 303.048 156.877 303.111C156.871 303.137 156.696 303.854 156.527 304.542C156.412 305.014 156.132 305.407 155.832 305.407C155.678 305.407 155.61 305.307 155.61 305.136C155.61 304.989 155.701 304.625 155.811 304.173C155.944 303.623 156.061 303.17 156.074 303.117C156.09 303.049 156.061 302.99 155.977 302.99H155.487C155.398 302.99 155.366 303.039 155.347 303.106C155.347 303.106 155.21 303.649 155.063 304.254C154.957 304.693 154.84 305.14 154.84 305.35C154.84 305.725 155.002 306.007 155.447 306.007C155.79 306.007 156.062 305.826 156.269 305.595C156.239 305.72 156.219 305.799 156.217 305.807C156.199 305.879 156.221 305.942 156.302 305.942H156.803C156.891 305.942 156.924 305.905 156.943 305.826C156.96 305.751 157.335 304.218 157.335 304.218C157.434 303.806 157.679 303.534 158.023 303.534C158.186 303.534 158.328 303.646 158.311 303.865C158.293 304.105 158.014 304.97 158.014 305.349C158.014 305.636 158.117 306.007 158.636 306.007C158.99 306.007 159.251 305.831 159.441 305.603C159.51 305.845 159.694 306.007 160.031 306.007C160.592 306.007 160.93 305.662 161.128 305.314C161.293 305.718 161.679 306.007 162.245 306.007C162.822 306.007 163.268 305.754 163.584 305.411L163.485 305.813C163.468 305.885 163.498 305.942 163.58 305.942H164.076C164.144 305.942 164.192 305.906 164.21 305.832C164.219 305.796 164.291 305.507 164.392 305.098C164.586 304.314 164.897 303.5 165.365 303.5C165.53 303.5 165.598 303.596 165.598 303.748C165.598 303.819 165.578 303.88 165.56 303.913C165.334 303.867 165.151 303.983 165.151 304.235C165.151 304.399 165.317 304.548 165.541 304.548C165.712 304.548 165.854 304.505 165.967 304.425C166.078 304.449 166.189 304.474 166.299 304.501C166.282 304.614 166.274 304.729 166.273 304.844C166.273 305.474 166.705 306.007 167.48 306.007C168.086 306.007 168.503 305.776 168.862 305.48C169.035 305.774 169.471 306.012 170.043 306.012C170.828 306.012 171.273 305.588 171.273 305.027C171.273 304.519 170.872 304.333 170.459 304.177C170.123 304.051 169.843 303.982 169.843 303.735C169.843 303.533 169.996 303.44 170.259 303.44C170.429 303.44 170.557 303.479 170.625 303.499C170.693 303.675 170.833 303.87 171.072 303.87C171.275 303.87 171.365 303.704 171.365 303.55C171.365 303.114 170.666 303.068 170.666 302.132C170.666 301.55 170.983 301.07 171.639 301.07C172.094 301.07 172.392 301.37 172.392 301.855C172.392 302.255 172.159 302.967 172.159 302.967H171.762C171.686 302.967 171.641 303 171.624 303.074C171.597 303.189 171.57 303.304 171.542 303.418C171.525 303.485 171.562 303.536 171.634 303.536H172.021C172.021 303.536 171.621 305.071 171.621 305.35C171.621 305.724 171.824 306.007 172.269 306.007C172.898 306.007 173.291 305.582 173.462 304.963C173.476 304.915 173.45 304.876 173.403 304.876H173.163C173.115 304.876 173.087 304.905 173.075 304.953C173.021 305.173 172.886 305.404 172.622 305.404C172.468 305.404 172.382 305.303 172.382 305.133C172.382 304.985 172.476 304.64 172.591 304.173C172.646 303.951 172.744 303.536 172.744 303.536ZM167.782 303.51C168.005 303.51 168.11 303.664 168.11 303.847C168.11 304.157 167.879 304.347 167.517 304.347C167.387 304.347 167.206 304.315 167.099 304.278C167.144 303.992 167.343 303.51 167.782 303.51ZM162.547 303.51C162.79 303.51 162.875 303.664 162.875 303.847C162.875 304.157 162.644 304.347 162.282 304.347C162.152 304.347 161.971 304.315 161.864 304.278C161.909 303.992 162.085 303.51 162.547 303.51ZM152.916 300.631C151.328 300.631 150.527 301.815 150.527 302.803C150.527 303.401 150.745 303.933 151.212 304.131C151.288 304.163 151.357 304.132 151.379 304.044C151.395 303.983 151.431 303.829 151.447 303.765C151.47 303.678 151.461 303.647 151.399 303.571C151.265 303.406 151.179 303.192 151.179 302.889C151.179 302.011 151.811 301.224 152.824 301.224C153.722 301.224 154.215 301.795 154.215 302.556C154.215 303.559 153.789 304.405 153.155 304.405C152.806 304.405 152.544 304.104 152.628 303.735C152.728 303.295 152.923 302.819 152.923 302.502C152.923 302.217 152.776 301.98 152.472 301.98C152.115 301.98 151.828 302.364 151.828 302.879C151.828 303.208 151.934 303.43 151.934 303.43C151.934 303.43 151.568 305.042 151.504 305.324C151.377 305.886 151.485 306.576 151.494 306.645C151.5 306.686 151.551 306.696 151.574 306.665C151.607 306.62 152.032 306.074 152.177 305.527C152.218 305.373 152.412 304.572 152.412 304.572C152.528 304.802 152.868 305.005 153.229 305.005C154.303 305.005 155.032 303.986 155.032 302.623C155.032 301.591 154.192 300.631 152.916 300.631Z" fill="#CB2027"/>
<g clip-path="url(#clip1_7084_4308)">
<path d="M81.2842 302.651C81.406 302.504 81.5407 302.365 81.6473 302.208C82.1645 301.452 82.9366 301.439 83.6838 301.537C83.3118 301.92 82.9221 302.343 82.502 302.739C82.332 302.899 82.3361 302.996 82.4675 303.169C82.9775 303.843 83.4697 304.528 84.0029 305.256C83.6012 305.256 83.2477 305.244 82.8949 305.26C82.7097 305.269 82.6375 305.158 82.5541 305.046C82.2182 304.592 81.8831 304.138 81.5584 303.698C81.0629 303.871 81.1535 304.254 81.1527 304.602C81.1516 305.031 80.9341 305.246 80.5 305.246C80.1366 305.246 79.9548 305.075 79.9548 304.733C79.9548 303.403 79.9605 302.073 79.9492 300.742C79.9484 300.503 80.0037 300.42 80.2771 300.422C81.1535 300.426 81.1535 300.414 81.1535 301.244C81.1535 301.662 81.1535 302.08 81.1559 302.498C81.1559 302.521 81.1679 302.545 81.1751 302.568C81.212 302.596 81.2481 302.623 81.285 302.651H81.2842Z" fill="#040404"/>
<path d="M94.3206 302.671C94.6309 302.359 94.9244 302.083 95.1946 301.786C95.3846 301.578 95.5962 301.492 95.8897 301.515C96.2072 301.54 96.5279 301.52 96.8654 301.52C96.475 301.908 96.1142 302.301 95.7109 302.651C95.4712 302.859 95.4295 302.997 95.6371 303.259C96.131 303.884 96.5848 304.538 97.1059 305.249C96.657 305.249 96.2689 305.253 95.8809 305.246C95.7526 305.244 95.7269 305.117 95.6676 305.039C95.3942 304.681 95.132 304.316 94.857 303.96C94.7841 303.865 94.7303 303.66 94.6013 303.72C94.4425 303.794 94.2421 303.9 94.2477 304.136C94.2549 304.428 94.2397 304.72 94.2525 305.01C94.2605 305.186 94.2124 305.243 94.0136 305.25C93.0434 305.287 93.0434 305.294 93.0434 304.379C93.0434 303.163 93.0523 301.946 93.0362 300.73C93.033 300.476 93.1108 300.42 93.3666 300.422C94.2493 300.429 94.2485 300.419 94.2493 301.268C94.2493 301.699 94.2509 302.129 94.2533 302.56C94.2533 302.57 94.2645 302.579 94.3214 302.67L94.3206 302.671Z" fill="#020202"/>
<path d="M89.5196 301.377C89.9357 301.352 90.3502 301.26 90.7679 301.36C90.8873 301.412 91.0068 301.463 91.1247 301.516C92.1533 301.983 92.5943 303.126 92.1285 304.103C91.8871 304.61 91.4374 304.906 90.9563 305.175L90.9603 305.172C90.8673 305.167 90.7671 305.137 90.7021 305.236C90.2532 305.236 89.7986 305.326 89.3592 305.162C89.3135 305.056 89.198 305.041 89.1099 304.99C88.2953 304.523 87.9176 303.661 88.1493 302.785C88.3354 302.081 88.8725 301.68 89.5187 301.376L89.5196 301.377ZM91.2297 303.285C91.2265 302.758 90.7719 302.326 90.2139 302.319C89.6366 302.311 89.1644 302.752 89.1708 303.294C89.1772 303.841 89.6398 304.264 90.2227 304.255C90.7767 304.247 91.2337 303.807 91.2305 303.285H91.2297Z" fill="#040404"/>
<path d="M75.3855 303.306C75.3855 302.775 75.3751 302.243 75.3903 301.713C75.3968 301.488 75.3398 301.375 75.0841 301.41C75.0191 301.42 74.951 301.412 74.8844 301.412C74.0707 301.412 74.0771 301.412 74.1212 300.641C74.1316 300.48 74.1709 300.425 74.3473 300.426C75.4673 300.433 76.5874 300.434 77.7074 300.426C77.9407 300.424 77.9415 300.519 77.8846 300.676C77.8718 300.711 77.8525 300.745 77.8397 300.781C77.6208 301.43 77.6208 301.445 76.9001 301.437C76.6315 301.434 76.6042 301.527 76.6058 301.741C76.6162 302.803 76.5994 303.866 76.6178 304.928C76.6226 305.203 76.5353 305.257 76.2635 305.253C75.3847 305.241 75.3847 305.251 75.3847 304.407C75.3847 304.04 75.3847 303.673 75.3847 303.307L75.3855 303.306Z" fill="#020202"/>
<path d="M88.1285 300.43C88.0916 300.568 88.0732 300.654 88.0451 300.737C87.8182 301.423 87.8174 301.435 87.0573 301.437C86.8096 301.438 86.7855 301.528 86.7872 301.723C86.796 302.8 86.7847 303.877 86.7968 304.954C86.7992 305.176 86.7575 305.254 86.4969 305.254C85.5701 305.252 85.5701 305.263 85.5701 304.375C85.5701 303.501 85.5613 302.626 85.5757 301.753C85.5797 301.498 85.5196 301.367 85.2277 301.41C85.1628 301.42 85.0946 301.412 85.0273 301.412C84.2793 301.412 84.167 301.273 84.3001 300.568C84.3298 300.411 84.4204 300.431 84.5222 300.431C85.7096 300.431 86.897 300.431 88.1277 300.431L88.1285 300.43Z" fill="#020202"/>
<path d="M79.4154 303.611C79.4154 304.078 79.4082 304.545 79.4194 305.012C79.4235 305.185 79.3818 305.244 79.1821 305.252C78.212 305.289 78.212 305.296 78.212 304.385C78.212 303.678 78.2216 302.971 78.2064 302.264C78.2016 302.042 78.2465 301.965 78.5054 301.965C79.4154 301.967 79.4154 301.956 79.4154 302.815C79.4154 303.08 79.4154 303.345 79.4154 303.611Z" fill="#020202"/>
<path d="M89.5196 301.377C88.8734 301.681 88.3362 302.082 88.1502 302.786C87.9193 303.662 88.2961 304.524 89.1107 304.991C89.1989 305.041 89.3144 305.057 89.3601 305.163C88.6369 305.108 87.9586 304.462 87.7782 303.625C87.5633 302.626 88.3603 301.439 89.5196 301.378V301.377Z" fill="#01EBE0"/>
<path d="M90.957 305.176C91.438 304.907 91.8878 304.611 92.1291 304.104C92.595 303.127 92.1532 301.983 91.1253 301.517C91.0075 301.464 90.8872 301.413 90.7686 301.361C91.7732 301.391 92.6294 302.258 92.6407 303.256C92.6519 304.228 91.8638 305.127 90.9578 305.177L90.957 305.176Z" fill="#F20347"/>
<path d="M78.8267 300.432C79.1498 300.439 79.4128 300.684 79.4152 300.979C79.4176 301.292 79.1394 301.544 78.797 301.537C78.4699 301.531 78.2117 301.289 78.2109 300.989C78.2101 300.671 78.4819 300.424 78.8267 300.432Z" fill="#040404"/>
<path d="M90.7031 305.238C90.7673 305.139 90.8675 305.169 90.9613 305.174C90.9052 305.304 90.7937 305.233 90.7031 305.238Z" fill="#F20347"/>
</g>
<path fill-rule="evenodd" clip-rule="evenodd" d="M71.6842 299.383C71.6842 298.619 71.0651 298 70.3008 298H63.3835C62.6191 298 62 298.619 62 299.383V306.301C62 307.065 62.6191 307.684 63.3835 307.684H70.3008C71.0651 307.684 71.6842 307.065 71.6842 306.301V299.383Z" fill="#070201"/>
<path fill-rule="evenodd" clip-rule="evenodd" d="M69.5474 302.09C69.5474 302.142 69.5249 302.191 69.4834 302.224C69.4436 302.256 69.3917 302.262 69.3399 302.26C69.0182 302.251 68.515 302.141 68.2781 301.914V304.083C68.2781 305.082 67.4687 305.891 66.4692 305.891H66.2824C65.8639 305.891 65.4662 305.739 65.1445 305.478C65.3918 305.601 65.6633 305.674 65.9452 305.674H66.132C67.1315 305.674 67.9408 304.864 67.9408 303.865V301.696C68.1778 301.921 68.681 302.033 69.0027 302.042C69.0545 302.042 69.1064 302.038 69.1462 302.006C69.186 301.973 69.2102 301.924 69.2102 301.872C69.2102 301.627 69.2102 301.219 69.2102 301.004C69.2759 301.023 69.3433 301.039 69.4108 301.055C69.4903 301.072 69.5474 301.141 69.5474 301.222C69.5474 301.437 69.5474 301.847 69.5474 302.09ZM66.1614 302.856C66.1285 302.889 66.0853 302.907 66.0386 302.907C65.5613 302.907 65.1739 303.294 65.1739 303.771C65.1739 304.147 65.4143 304.463 65.7498 304.582C65.6028 304.427 65.5111 304.219 65.5111 303.989C65.5111 303.512 65.8985 303.125 66.3758 303.125C66.4225 303.125 66.4657 303.107 66.4986 303.074C66.5314 303.041 66.5487 302.998 66.5487 302.952V302.433C66.5487 302.388 66.5297 302.343 66.4986 302.31C66.4675 302.277 66.4225 302.26 66.3758 302.26H66.2824C66.2582 302.26 66.2357 302.267 66.2115 302.267V302.734C66.2115 302.78 66.1925 302.824 66.1614 302.856ZM68.5254 300.662C68.3818 300.532 68.2608 300.361 68.1743 300.128C68.1484 300.06 68.0844 300.012 68.0117 300.012H67.8838C68.0342 300.342 68.2573 300.536 68.5254 300.66V300.662Z" fill="#FE2C55"/>
<path fill-rule="evenodd" clip-rule="evenodd" d="M65.0031 305.361C65.0463 305.405 65.0982 305.439 65.1449 305.477C64.9703 305.391 64.806 305.284 64.6659 305.143C64.3269 304.805 64.1367 304.345 64.1367 303.864V303.85C64.1367 302.85 64.946 302.041 65.9456 302.041H66.039C66.0857 302.041 66.1289 302.06 66.1618 302.091C66.1946 302.124 66.2119 302.167 66.2119 302.214V302.266C65.2469 302.304 64.4739 303.093 64.4739 304.068V304.082C64.4739 304.561 64.6642 305.021 65.0031 305.361ZM69.2071 301.003C69.2071 300.922 69.15 300.851 69.0705 300.836C68.8768 300.793 68.6918 300.741 68.5223 300.661C68.7142 300.834 68.9494 300.933 69.2054 301.003H69.2071ZM66.3745 304.855C66.6045 304.855 66.8241 304.763 66.9866 304.602C67.1492 304.441 67.2391 304.22 67.2391 303.99V300.186C67.2391 300.09 67.3169 300.013 67.4121 300.013H67.8824C67.8669 299.978 67.8496 299.947 67.8357 299.909C67.8098 299.841 67.7458 299.793 67.6732 299.793H67.0748C66.9797 299.793 66.9019 299.871 66.9019 299.966V303.77C66.9019 304 66.8103 304.22 66.6494 304.383C66.4886 304.545 66.2672 304.635 66.0372 304.635C65.9352 304.635 65.8384 304.614 65.7484 304.581C65.9058 304.747 66.1272 304.853 66.3745 304.853V304.855Z" fill="#25F4EE"/>
<path fill-rule="evenodd" clip-rule="evenodd" d="M66.1333 305.674C67.1328 305.674 67.9421 304.864 67.9421 303.865V301.696C68.179 301.921 68.6823 302.034 69.0039 302.042C69.0558 302.042 69.1077 302.039 69.1475 302.006C69.1872 301.973 69.2115 301.925 69.2115 301.873C69.2115 301.627 69.2115 301.219 69.2115 301.005C68.9555 300.934 68.7203 300.835 68.5284 300.662C68.2621 300.538 68.0372 300.342 67.8868 300.014H67.4164C67.3213 300.014 67.2435 300.091 67.2435 300.187V303.991C67.2435 304.221 67.1518 304.441 66.991 304.603C66.8302 304.766 66.6088 304.856 66.3788 304.856C66.1315 304.856 65.9102 304.75 65.7528 304.584C65.419 304.465 65.1769 304.148 65.1769 303.773C65.1769 303.296 65.5643 302.909 66.0416 302.909C66.0883 302.909 66.1315 302.891 66.1644 302.858C66.1972 302.826 66.2145 302.782 66.2145 302.736V302.269C65.2496 302.307 64.4766 303.095 64.4766 304.071V304.084C64.4766 304.564 64.6668 305.024 65.0057 305.364C65.049 305.407 65.1008 305.442 65.1475 305.48C65.3948 305.603 65.6663 305.675 65.9482 305.675H66.135L66.1333 305.674Z" fill="white"/>
<rect x="128.5" y="253.5" width="70" height="27" rx="5.5" fill="white" stroke="#CFE2FF"/>
<path d="M147.177 263C146.83 263 146.379 263.309 146.114 263.515C145.529 263.95 145 264.75 145 265.392C145 266.304 145.925 266.649 146.159 266.649C146.236 266.649 146.302 266.615 146.302 266.527C146.302 266.459 146.25 266.401 146.198 266.342C145.984 266.068 145.915 265.806 145.915 265.452C145.915 264.715 146.32 264.039 146.657 263.73C146.719 263.674 146.859 263.553 146.901 263.553C146.942 263.553 146.953 263.581 146.953 263.669L146.914 268.495C146.914 269.249 146.654 269.549 146.654 269.726C146.654 269.804 146.694 269.825 146.771 269.825C147.135 269.825 147.498 269.452 147.601 269.316C147.92 268.855 147.998 268.494 147.998 267.454V263.399C147.998 263.289 147.962 263.242 147.837 263.174C147.655 263.077 147.447 263 147.177 263ZM157.59 263.013C157.419 263.013 157.345 263.089 157.337 263.321L157.299 264.283L156.296 264.254C156.235 264.253 156.208 264.269 156.181 264.314C156.096 264.448 156.051 264.553 156.051 264.728C156.051 264.87 156.128 264.885 156.197 264.885L157.24 264.91L157.237 266.749C157.237 267.139 156.944 267.644 156.423 268.065C156.423 268.065 156.468 267.938 156.466 267.805C156.466 267.428 156.176 267.086 155.79 266.844L154.849 266.25C155.046 266.058 155.38 265.678 155.38 265.357C155.38 265.109 155.194 265.004 154.846 265.004C154.356 265.004 153.787 265.381 153.787 265.94C153.787 266.144 153.895 266.327 154.059 266.467C153.832 266.828 153.511 267.303 153.273 267.641C153.093 267.9 152.789 268.297 152.609 268.297C152.476 268.297 152.414 268.122 152.414 267.448C152.414 266.889 152.462 266.281 152.485 265.697C152.485 265.563 152.459 265.439 152.252 265.318C152.062 265.216 151.826 265.073 151.584 265.073C151.045 265.073 150.678 265.489 150.426 265.896C150.165 266.317 150.024 266.672 149.826 267.188L149.847 265.414C149.854 265.287 149.816 265.238 149.696 265.195C149.539 265.14 149.309 265.075 149.104 265.075C148.933 265.075 148.913 265.137 148.913 265.288L148.89 267.416L148.887 268.237C148.887 268.977 148.998 269.101 149.521 269.101C149.811 269.101 149.904 269.072 149.91 268.87C149.918 268.736 149.994 268.412 150.097 268.088C150.399 267.129 150.756 266.371 151.372 265.793C151.436 265.737 151.486 265.757 151.476 265.836C151.476 265.836 151.378 267.134 151.378 267.664C151.378 268.608 151.552 269.101 152.112 269.101C152.661 269.101 153.201 268.508 153.495 268.109L154.44 266.783C155.053 267.22 155.48 267.56 155.48 267.973C155.48 268.229 155.287 268.48 154.993 268.48C154.626 268.48 154.391 268.155 154.143 268.155C153.937 268.155 153.672 268.489 153.672 268.678C153.672 268.857 154.138 269.11 154.972 269.11C156.204 269.11 156.865 268.401 157.262 267.615C157.338 268.547 157.781 269.092 158.471 269.092C158.924 269.092 159.448 268.612 159.686 268.025C159.686 268.025 159.709 268.178 159.89 268.49C160.139 268.897 160.518 269.084 160.988 269.084C161.573 269.084 162.073 268.787 162.378 268.288C162.424 268.666 162.803 269.082 163.411 269.082C163.793 269.082 164.142 268.836 164.37 268.432C164.37 268.432 164.666 269.1 165.523 269.1C166.004 269.1 166.574 268.726 166.71 268.455L166.725 268.85L165.454 269.833C165.085 270.133 164.692 270.565 164.692 271.043C164.692 271.65 165.377 272 165.979 272C166.605 272 167.02 271.667 167.247 271.389C167.534 271.028 167.655 270.348 167.655 269.684L167.626 268.685C168.483 267.895 169.153 266.804 169.452 266.031L170.102 266.017C170.228 266.01 170.221 266.052 170.204 266.113C170.09 266.518 169.99 266.977 169.99 267.434C169.99 268.188 170.197 268.517 170.495 268.785C170.754 269.01 171.012 269.086 171.283 269.086C171.813 269.086 172.146 268.719 172.251 268.487C172.5 268.894 172.867 269.084 173.337 269.084C173.922 269.084 174.422 268.787 174.727 268.288C174.774 268.666 175.152 269.082 175.76 269.082C176.215 269.082 176.479 268.862 176.686 268.447C176.69 268.581 176.697 268.723 176.701 268.856C176.707 268.925 176.772 268.969 176.831 268.987C177.025 269.048 177.194 269.079 177.347 269.079C177.744 269.079 177.83 269.011 177.83 268.793C177.83 268.433 177.843 267.865 177.965 267.409C178.094 266.955 178.289 266.441 178.558 266.084C178.582 266.047 178.642 266.057 178.644 266.101C178.683 266.867 178.744 268.162 178.984 268.497C179.102 268.657 179.285 268.773 179.558 268.773C179.687 268.773 179.844 268.727 179.884 268.699C179.925 268.672 179.945 268.643 179.943 268.588C179.943 267.61 180.307 266.663 180.671 266.026C180.681 266.007 180.709 266.006 180.708 266.031L180.688 266.735C180.688 267.893 180.787 268.624 181.477 268.975C181.612 269.039 181.765 269.072 181.92 269.072C182.273 269.072 182.593 268.907 182.751 268.641C182.879 268.434 183 268.037 183 267.812C183 267.725 183.001 267.583 182.831 267.583C182.738 267.583 182.681 267.641 182.659 267.728C182.605 267.917 182.56 268.079 182.476 268.266C182.396 268.445 182.275 268.549 182.133 268.549C181.966 268.549 181.881 268.438 181.832 268.37C181.619 268.097 181.602 267.469 181.602 266.946L181.653 265.598C181.653 265.486 181.598 265.353 181.392 265.255C181.255 265.188 180.907 265.063 180.693 265.063C180.495 265.063 180.399 265.157 180.328 265.295C180.194 265.543 179.747 266.515 179.627 267.305C179.622 267.326 179.591 267.33 179.589 267.304C179.527 266.745 179.495 266.071 179.496 265.617C179.496 265.48 179.455 265.283 179.108 265.156C178.939 265.097 178.8 265.062 178.629 265.062C178.418 265.062 178.372 265.148 178.296 265.263C178.057 265.635 177.891 266.119 177.642 266.73L177.646 265.332C177.646 265.267 177.598 265.181 177.462 265.158C177.122 265.093 176.965 265.063 176.831 265.063C176.734 265.063 176.68 265.128 176.68 265.198L176.662 267.582C176.596 267.874 176.33 268.571 175.953 268.571C175.643 268.571 175.499 268.307 175.499 267.207L175.555 265.419C175.555 265.306 175.467 265.258 175.338 265.211C175.154 265.149 175.007 265.125 174.82 265.125C174.585 265.125 174.504 265.219 174.552 265.446C174.293 265.153 174.035 264.991 173.579 264.991C172.663 264.991 171.973 265.915 171.973 267.258C171.964 267.634 172.072 268.009 172.072 268.009C171.989 268.321 171.794 268.576 171.525 268.576C171.186 268.576 170.969 268.173 170.969 267.475C170.969 266.775 171.287 265.986 171.287 265.772C171.287 265.523 171.093 265.366 170.749 265.366C170.576 265.366 169.937 265.488 169.609 265.527C169.609 265.527 169.646 265.397 169.644 265.294C169.644 265.048 169.507 264.895 169.166 264.895C168.75 264.895 168.444 265.144 168.444 265.569C168.444 265.76 168.575 265.937 168.748 266.032C168.523 266.819 168.157 267.405 167.618 268.059L167.663 265.409C167.663 265.323 167.636 265.27 167.435 265.204C167.328 265.166 167.155 265.121 166.937 265.121C166.62 265.121 166.641 265.311 166.658 265.453C166.513 265.237 166.196 264.982 165.706 264.982C164.373 264.982 163.963 266.687 164.164 267.899C164.164 268.046 163.992 268.571 163.604 268.571C163.294 268.571 163.15 268.307 163.15 267.207L163.206 265.419C163.206 265.306 163.117 265.258 162.989 265.211C162.804 265.149 162.658 265.125 162.471 265.125C162.236 265.125 162.155 265.219 162.203 265.446C161.945 265.153 161.686 264.991 161.23 264.991C160.314 264.991 159.614 265.836 159.614 267.179C159.614 267.691 159.088 268.474 158.719 268.474C158.514 268.474 158.296 268.158 158.296 267.352C158.297 266.802 158.386 264.931 158.386 264.931L159.674 264.913C159.735 264.913 159.771 264.856 159.794 264.821C159.853 264.721 159.882 264.654 159.882 264.533C159.882 264.425 159.856 264.385 159.69 264.377L158.406 264.312L158.46 263.309C158.464 263.246 158.419 263.205 158.336 263.174C158.088 263.092 157.783 263.013 157.59 263.013ZM161.488 265.642C161.832 265.642 162.18 265.905 162.18 266.837C162.18 268.01 161.67 268.556 161.278 268.556C160.911 268.556 160.632 268.121 160.632 267.267C160.632 266.403 160.904 265.642 161.488 265.642ZM173.856 265.642C174.199 265.642 174.547 265.905 174.547 266.837C174.547 268.01 174.038 268.556 173.646 268.556C173.278 268.556 172.999 268.121 172.999 267.267C172.999 266.403 173.272 265.642 173.856 265.642ZM166.011 265.647C166.46 265.647 166.658 266.035 166.658 266.786C166.658 267.918 166.256 268.563 165.769 268.563C165.458 268.563 165.1 268.135 165.119 267.292C165.119 266.753 165.328 265.647 166.011 265.647ZM166.77 269.436V269.882C166.77 271.362 166.3 271.615 165.922 271.615C165.779 271.615 165.428 271.524 165.428 271.158C165.428 270.646 166.066 270.064 166.265 269.884L166.77 269.436Z" fill="#3F5D87"/>
<path d="M227.235 301.114C227.218 300.95 227.144 300.821 227.013 300.73C226.884 300.638 226.716 300.592 226.508 300.592C226.363 300.592 226.238 300.614 226.134 300.658C226.03 300.702 225.95 300.762 225.895 300.837C225.839 300.913 225.811 300.999 225.81 301.095C225.81 301.176 225.828 301.246 225.864 301.305C225.902 301.364 225.953 301.414 226.017 301.456C226.081 301.496 226.152 301.53 226.23 301.557C226.308 301.585 226.386 301.608 226.465 301.627L226.827 301.718C226.972 301.752 227.112 301.797 227.247 301.855C227.382 301.913 227.503 301.986 227.61 302.074C227.718 302.162 227.804 302.268 227.866 302.393C227.929 302.517 227.96 302.663 227.96 302.83C227.96 303.056 227.903 303.255 227.787 303.428C227.672 303.599 227.505 303.732 227.286 303.829C227.069 303.925 226.806 303.972 226.497 303.972C226.197 303.972 225.937 303.926 225.716 303.833C225.496 303.74 225.324 303.604 225.2 303.426C225.077 303.247 225.01 303.03 225 302.773H225.687C225.697 302.908 225.739 303.02 225.812 303.109C225.884 303.198 225.979 303.265 226.096 303.309C226.214 303.353 226.346 303.375 226.492 303.375C226.643 303.375 226.777 303.352 226.891 303.307C227.006 303.26 227.097 303.196 227.162 303.115C227.227 303.032 227.261 302.935 227.262 302.824C227.261 302.724 227.231 302.641 227.173 302.575C227.116 302.509 227.035 302.453 226.93 302.41C226.827 302.364 226.707 302.324 226.569 302.289L226.13 302.176C225.812 302.094 225.561 301.97 225.377 301.804C225.193 301.637 225.102 301.415 225.102 301.139C225.102 300.911 225.163 300.712 225.286 300.541C225.411 300.37 225.579 300.238 225.793 300.143C226.006 300.048 226.248 300 226.518 300C226.792 300 227.031 300.048 227.237 300.143C227.444 300.238 227.607 300.369 227.725 300.537C227.843 300.704 227.904 300.897 227.908 301.114H227.235Z" fill="#434343"/>
<path d="M229.235 302.217V303.914H228.553V301.018H229.205V301.51H229.239C229.305 301.348 229.411 301.219 229.557 301.124C229.704 301.028 229.885 300.98 230.101 300.98C230.301 300.98 230.475 301.023 230.623 301.109C230.772 301.194 230.888 301.318 230.969 301.48C231.052 301.642 231.093 301.839 231.092 302.07V303.914H230.41V302.176C230.41 301.982 230.36 301.831 230.259 301.721C230.16 301.612 230.023 301.557 229.847 301.557C229.728 301.557 229.622 301.584 229.529 301.637C229.437 301.688 229.365 301.763 229.312 301.861C229.261 301.959 229.235 302.078 229.235 302.217Z" fill="#434343"/>
<path d="M232.617 303.972C232.434 303.972 232.269 303.94 232.122 303.874C231.976 303.808 231.861 303.71 231.775 303.58C231.691 303.451 231.649 303.291 231.649 303.101C231.649 302.938 231.679 302.803 231.74 302.696C231.8 302.589 231.882 302.504 231.986 302.44C232.091 302.376 232.208 302.327 232.339 302.294C232.47 302.261 232.607 302.236 232.747 302.221C232.917 302.203 233.054 302.188 233.16 302.174C233.265 302.159 233.342 302.136 233.389 302.106C233.438 302.075 233.463 302.026 233.463 301.961V301.949C233.463 301.807 233.421 301.697 233.337 301.62C233.253 301.542 233.131 301.503 232.973 301.503C232.806 301.503 232.674 301.539 232.576 301.612C232.479 301.685 232.414 301.771 232.38 301.87L231.743 301.78C231.794 301.604 231.876 301.457 231.992 301.339C232.108 301.219 232.249 301.13 232.416 301.071C232.583 301.011 232.767 300.98 232.969 300.98C233.109 300.98 233.247 300.997 233.386 301.029C233.524 301.062 233.65 301.116 233.764 301.192C233.878 301.266 233.97 301.367 234.039 301.495C234.109 301.623 234.145 301.784 234.145 301.976V303.914H233.489V303.516H233.467C233.425 303.597 233.367 303.672 233.291 303.742C233.217 303.812 233.124 303.868 233.011 303.91C232.899 303.952 232.768 303.972 232.617 303.972ZM232.794 303.471C232.931 303.471 233.05 303.444 233.15 303.39C233.251 303.335 233.328 303.262 233.382 303.171C233.437 303.081 233.465 302.982 233.465 302.875V302.534C233.443 302.552 233.407 302.568 233.355 302.583C233.305 302.598 233.249 302.611 233.186 302.623C233.123 302.634 233.061 302.644 233 302.653C232.938 302.662 232.885 302.669 232.839 302.675C232.738 302.689 232.647 302.712 232.566 302.743C232.486 302.775 232.423 302.819 232.376 302.875C232.33 302.93 232.306 303.002 232.306 303.09C232.306 303.216 232.352 303.311 232.444 303.375C232.536 303.439 232.652 303.471 232.794 303.471Z" fill="#434343"/>
<path d="M234.83 305V301.018H235.5V301.497H235.54C235.575 301.427 235.625 301.352 235.689 301.273C235.753 301.192 235.839 301.124 235.949 301.067C236.058 301.009 236.197 300.98 236.367 300.98C236.59 300.98 236.792 301.038 236.971 301.152C237.152 301.265 237.295 301.433 237.401 301.655C237.507 301.877 237.561 302.148 237.561 302.47C237.561 302.788 237.509 303.058 237.404 303.281C237.3 303.503 237.158 303.673 236.979 303.79C236.799 303.906 236.596 303.965 236.369 303.965C236.203 303.965 236.065 303.937 235.956 303.882C235.847 303.827 235.759 303.76 235.693 303.682C235.627 303.603 235.576 303.528 235.54 303.458H235.512V305H234.83ZM235.499 302.466C235.499 302.653 235.525 302.817 235.578 302.958C235.632 303.099 235.709 303.209 235.809 303.288C235.911 303.366 236.034 303.405 236.178 303.405C236.329 303.405 236.455 303.365 236.557 303.284C236.659 303.203 236.735 303.091 236.787 302.951C236.839 302.809 236.866 302.647 236.866 302.466C236.866 302.286 236.84 302.127 236.789 301.987C236.737 301.848 236.661 301.738 236.559 301.659C236.457 301.58 236.33 301.54 236.178 301.54C236.033 301.54 235.909 301.579 235.807 301.655C235.706 301.732 235.629 301.839 235.576 301.978C235.524 302.116 235.499 302.279 235.499 302.466Z" fill="#434343"/>
<path d="M239.406 303.971C239.118 303.971 238.87 303.907 238.662 303.78C238.457 303.653 238.298 303.478 238.186 303.254C238.075 303.029 238.02 302.77 238.02 302.477C238.02 302.183 238.077 301.924 238.19 301.699C238.303 301.472 238.462 301.297 238.668 301.171C238.875 301.044 239.12 300.98 239.403 300.98C239.637 300.98 239.845 301.024 240.026 301.11C240.208 301.196 240.353 301.317 240.461 301.474C240.569 301.63 240.63 301.812 240.645 302.021H239.994C239.968 301.882 239.905 301.765 239.806 301.672C239.708 301.578 239.576 301.531 239.412 301.531C239.273 301.531 239.15 301.569 239.045 301.644C238.939 301.718 238.857 301.825 238.798 301.965C238.74 302.104 238.711 302.271 238.711 302.466C238.711 302.663 238.74 302.833 238.798 302.975C238.856 303.116 238.937 303.225 239.041 303.301C239.146 303.377 239.27 303.414 239.412 303.414C239.512 303.414 239.602 303.396 239.681 303.358C239.762 303.319 239.829 303.263 239.883 303.19C239.937 303.117 239.974 303.029 239.994 302.924H240.645C240.629 303.129 240.569 303.311 240.465 303.469C240.36 303.626 240.219 303.749 240.039 303.839C239.86 303.927 239.649 303.971 239.406 303.971Z" fill="#434343"/>
<path d="M241.887 302.217V303.914H241.205V300.053H241.872V301.51H241.906C241.974 301.347 242.078 301.218 242.22 301.124C242.363 301.028 242.546 300.98 242.766 300.98C242.967 300.98 243.142 301.022 243.292 301.107C243.441 301.191 243.557 301.314 243.638 301.476C243.721 301.638 243.763 301.836 243.763 302.07V303.914H243.081V302.176C243.081 301.981 243.031 301.829 242.93 301.721C242.831 301.612 242.692 301.557 242.512 301.557C242.392 301.557 242.284 301.584 242.188 301.637C242.094 301.688 242.02 301.763 241.966 301.861C241.913 301.959 241.887 302.078 241.887 302.217Z" fill="#434343"/>
<path d="M245.29 303.972C245.107 303.972 244.942 303.94 244.795 303.874C244.649 303.808 244.534 303.71 244.448 303.58C244.364 303.451 244.322 303.291 244.322 303.101C244.322 302.938 244.352 302.803 244.412 302.696C244.473 302.589 244.555 302.504 244.659 302.44C244.763 302.376 244.881 302.327 245.011 302.294C245.143 302.261 245.279 302.236 245.42 302.221C245.589 302.203 245.727 302.188 245.832 302.174C245.938 302.159 246.014 302.136 246.062 302.106C246.111 302.075 246.136 302.026 246.136 301.961V301.949C246.136 301.807 246.094 301.697 246.009 301.62C245.925 301.542 245.804 301.503 245.646 301.503C245.479 301.503 245.347 301.539 245.249 301.612C245.152 301.685 245.087 301.771 245.053 301.87L244.416 301.78C244.466 301.604 244.549 301.457 244.665 301.339C244.78 301.219 244.922 301.13 245.089 301.071C245.255 301.011 245.44 300.98 245.642 300.98C245.782 300.98 245.92 300.997 246.058 301.029C246.196 301.062 246.323 301.116 246.437 301.192C246.551 301.266 246.643 301.367 246.712 301.495C246.782 301.623 246.817 301.784 246.817 301.976V303.914H246.162V303.516H246.139C246.098 303.597 246.04 303.672 245.964 303.742C245.89 303.812 245.797 303.868 245.684 303.91C245.572 303.952 245.441 303.972 245.29 303.972ZM245.467 303.471C245.604 303.471 245.723 303.444 245.823 303.39C245.923 303.335 246.001 303.262 246.055 303.171C246.11 303.081 246.137 302.982 246.137 302.875V302.534C246.116 302.552 246.08 302.568 246.028 302.583C245.978 302.598 245.922 302.611 245.859 302.623C245.796 302.634 245.734 302.644 245.672 302.653C245.611 302.662 245.557 302.669 245.512 302.675C245.411 302.689 245.32 302.712 245.239 302.743C245.159 302.775 245.095 302.819 245.049 302.875C245.003 302.93 244.979 303.002 244.979 303.09C244.979 303.216 245.025 303.311 245.117 303.375C245.208 303.439 245.325 303.471 245.467 303.471Z" fill="#434343"/>
<path d="M248.947 301.018V301.546H247.284V301.018H248.947ZM247.695 300.324H248.377V303.043C248.377 303.135 248.39 303.205 248.418 303.254C248.447 303.302 248.485 303.335 248.531 303.352C248.578 303.37 248.629 303.379 248.685 303.379C248.728 303.379 248.767 303.375 248.802 303.369C248.839 303.363 248.866 303.357 248.885 303.352L249 303.886C248.964 303.898 248.911 303.912 248.844 303.927C248.777 303.942 248.696 303.951 248.599 303.954C248.428 303.959 248.274 303.933 248.137 303.876C248.001 303.819 247.892 303.729 247.812 303.609C247.733 303.488 247.694 303.337 247.695 303.156V300.324Z" fill="#434343"/>
<path d="M212 304.227V304.227C212.006 304.442 212.008 304.659 212.044 304.872C212.082 305.099 212.137 305.319 212.242 305.525C212.384 305.802 212.579 306.037 212.825 306.229C213.001 306.366 213.194 306.476 213.407 306.545C213.718 306.645 214.039 306.683 214.365 306.685C214.568 306.687 214.771 306.692 214.975 306.691C216.451 306.685 217.928 306.702 219.404 306.682C219.6 306.679 219.793 306.655 219.985 306.62C220.353 306.553 220.679 306.395 220.958 306.147C221.282 305.857 221.502 305.503 221.601 305.075C221.665 304.795 221.681 304.511 221.684 304.227V304.17C221.684 304.148 221.676 299.332 221.675 299.268C221.673 299.093 221.66 298.92 221.627 298.748C221.587 298.538 221.531 298.334 221.431 298.144C221.325 297.944 221.192 297.764 221.028 297.606C220.776 297.365 220.486 297.194 220.148 297.104C219.842 297.023 219.531 297.005 219.217 297.005C219.217 297.005 219.216 297.002 219.216 297H214.467C214.467 297.002 214.467 297.003 214.467 297.005C214.289 297.008 214.111 297.007 213.933 297.029C213.739 297.053 213.547 297.089 213.364 297.157C213.074 297.264 212.823 297.431 212.608 297.653C212.365 297.905 212.193 298.197 212.102 298.536C212.021 298.839 212.004 299.148 212.003 299.459" fill="#FFFC00"/>
<path d="M216.882 305.178C216.862 305.178 216.843 305.177 216.828 305.177C216.817 305.178 216.805 305.178 216.793 305.178C216.37 305.178 216.088 304.978 215.838 304.802C215.66 304.676 215.491 304.556 215.294 304.524C215.197 304.508 215.1 304.499 215.007 304.499C214.839 304.499 214.706 304.525 214.609 304.544C214.55 304.556 214.498 304.566 214.459 304.566C214.417 304.566 214.366 304.557 214.345 304.485C214.329 304.428 214.317 304.373 214.305 304.32C214.276 304.188 214.255 304.107 214.206 304.099C213.676 304.018 213.363 303.897 213.3 303.751C213.294 303.737 213.29 303.721 213.289 303.705C213.288 303.684 213.295 303.664 213.308 303.647C213.321 303.631 213.34 303.62 213.36 303.616C213.781 303.547 214.155 303.325 214.473 302.955C214.718 302.669 214.839 302.396 214.852 302.365C214.853 302.364 214.853 302.363 214.854 302.361C214.915 302.237 214.927 302.13 214.89 302.043C214.822 301.882 214.596 301.81 214.446 301.762C214.409 301.751 214.374 301.74 214.346 301.728C214.213 301.676 213.995 301.565 214.024 301.413C214.045 301.301 214.192 301.224 214.312 301.224C214.345 301.224 214.374 301.229 214.399 301.241C214.533 301.304 214.654 301.336 214.758 301.336C214.888 301.336 214.95 301.287 214.966 301.273C214.962 301.202 214.957 301.131 214.953 301.061C214.922 300.577 214.884 299.975 215.038 299.63C215.499 298.597 216.476 298.517 216.764 298.517C216.812 298.517 216.86 298.516 216.907 298.516C217.196 298.516 218.175 298.596 218.636 299.63C218.79 299.975 218.752 300.577 218.722 301.061L218.72 301.084C218.716 301.15 218.712 301.212 218.709 301.273C218.723 301.286 218.781 301.331 218.897 301.335C218.996 301.332 219.11 301.3 219.236 301.241C219.275 301.223 219.318 301.219 219.347 301.219C219.391 301.219 219.436 301.228 219.473 301.243L219.475 301.244C219.582 301.282 219.652 301.357 219.653 301.437C219.655 301.511 219.6 301.622 219.329 301.728C219.301 301.739 219.266 301.751 219.228 301.762C219.079 301.81 218.853 301.882 218.784 302.043C218.747 302.13 218.76 302.237 218.821 302.361C218.821 302.363 218.822 302.364 218.823 302.365C218.841 302.409 219.297 303.449 220.314 303.616C220.335 303.62 220.354 303.631 220.367 303.647C220.38 303.664 220.387 303.684 220.385 303.705C220.384 303.721 220.381 303.737 220.374 303.752C220.312 303.897 219.999 304.017 219.469 304.099C219.419 304.106 219.398 304.187 219.37 304.319C219.358 304.373 219.346 304.426 219.329 304.482C219.314 304.535 219.28 304.561 219.224 304.561H219.216C219.18 304.561 219.129 304.554 219.065 304.542C218.953 304.52 218.828 304.499 218.668 304.499C218.575 304.499 218.478 304.508 218.381 304.524C218.184 304.557 218.015 304.676 217.837 304.802C217.587 304.978 217.305 305.178 216.882 305.178Z" fill="white"/>
<path d="M216.914 298.6C217.186 298.6 218.124 298.673 218.566 299.663C218.711 299.99 218.674 300.58 218.644 301.055C218.639 301.13 218.635 301.203 218.631 301.273L218.629 301.303L218.649 301.325C218.657 301.334 218.733 301.413 218.901 301.42L218.904 301.42L218.907 301.42C219.018 301.415 219.143 301.381 219.279 301.317C219.299 301.308 219.326 301.303 219.354 301.303C219.386 301.303 219.42 301.309 219.448 301.321L219.453 301.323C219.524 301.348 219.574 301.395 219.575 301.438C219.576 301.462 219.558 301.549 219.305 301.648C219.28 301.658 219.248 301.669 219.21 301.68C219.045 301.733 218.797 301.811 218.713 302.009C218.666 302.12 218.679 302.251 218.751 302.398C218.781 302.468 219.251 303.525 220.308 303.7C220.307 303.705 220.306 303.711 220.303 303.717C220.285 303.759 220.172 303.904 219.463 304.014C219.352 304.031 219.325 304.155 219.294 304.299C219.282 304.351 219.271 304.403 219.255 304.457C219.25 304.474 219.249 304.474 219.232 304.474H219.223C219.192 304.474 219.144 304.468 219.089 304.457C218.988 304.438 218.851 304.413 218.675 304.413C218.577 304.413 218.476 304.422 218.374 304.439C218.158 304.475 217.981 304.6 217.795 304.732C217.544 304.909 217.285 305.092 216.889 305.092C216.872 305.092 216.855 305.092 216.838 305.091L216.834 305.091L216.829 305.091C216.82 305.092 216.81 305.092 216.8 305.092C216.405 305.092 216.145 304.909 215.895 304.732C215.708 304.6 215.532 304.475 215.315 304.439C215.213 304.422 215.112 304.413 215.014 304.413C214.838 304.413 214.701 304.44 214.6 304.46C214.545 304.471 214.497 304.48 214.466 304.48C214.44 304.48 214.44 304.479 214.434 304.46C214.418 304.406 214.407 304.353 214.395 304.301C214.364 304.156 214.337 304.031 214.226 304.014C213.518 303.905 213.404 303.759 213.386 303.717C213.383 303.712 213.382 303.706 213.381 303.7C214.438 303.526 214.908 302.468 214.938 302.398C215.01 302.251 215.023 302.12 214.976 302.009C214.892 301.812 214.644 301.733 214.479 301.681C214.441 301.669 214.409 301.658 214.384 301.648C214.171 301.564 214.105 301.479 214.115 301.428C214.126 301.368 214.229 301.308 214.319 301.308C214.339 301.308 214.357 301.311 214.37 301.317C214.516 301.386 214.649 301.42 214.766 301.42C214.949 301.42 215.031 301.335 215.04 301.325L215.06 301.303L215.058 301.273C215.054 301.203 215.05 301.13 215.045 301.055C215.015 300.581 214.978 299.99 215.123 299.664C215.564 298.677 216.496 298.601 216.772 298.601C216.778 298.601 216.898 298.6 216.898 298.6C216.903 298.6 216.909 298.6 216.914 298.6ZM216.914 298.43H216.914C216.908 298.43 216.902 298.43 216.896 298.43L216.771 298.431C216.61 298.431 216.287 298.454 215.94 298.607C215.742 298.694 215.564 298.812 215.41 298.958C215.228 299.132 215.079 299.346 214.968 299.595C214.805 299.959 214.844 300.572 214.875 301.065L214.875 301.066C214.878 301.119 214.882 301.174 214.885 301.227C214.861 301.238 214.822 301.25 214.766 301.25C214.674 301.25 214.565 301.221 214.442 301.163C214.406 301.146 214.364 301.138 214.319 301.138C214.245 301.138 214.168 301.159 214.101 301.199C214.017 301.248 213.962 301.318 213.947 301.396C213.938 301.447 213.938 301.549 214.051 301.651C214.113 301.708 214.204 301.76 214.321 301.807C214.352 301.819 214.389 301.831 214.428 301.843C214.562 301.886 214.766 301.95 214.819 302.075C214.846 302.139 214.834 302.222 214.785 302.323C214.783 302.325 214.782 302.328 214.781 302.331C214.768 302.36 214.653 302.622 214.415 302.899C214.28 303.056 214.132 303.188 213.974 303.29C213.781 303.414 213.572 303.496 213.354 303.532C213.312 303.539 213.275 303.56 213.248 303.593C213.222 303.626 213.209 303.667 213.211 303.709C213.213 303.734 213.219 303.759 213.229 303.783L213.229 303.784C213.264 303.865 213.344 303.934 213.475 303.995C213.635 304.069 213.874 304.132 214.186 304.18C214.201 304.21 214.218 304.286 214.229 304.337C214.241 304.392 214.253 304.448 214.271 304.508C214.29 304.573 214.339 304.65 214.466 304.65C214.514 304.65 214.569 304.639 214.633 304.627C214.726 304.609 214.854 304.584 215.014 304.584C215.103 304.584 215.194 304.591 215.287 304.607C215.465 304.636 215.618 304.745 215.796 304.87C216.056 305.054 216.35 305.262 216.8 305.262C216.812 305.262 216.824 305.262 216.836 305.261C216.851 305.262 216.87 305.262 216.889 305.262C217.339 305.262 217.633 305.054 217.893 304.871L217.893 304.87C218.071 304.745 218.224 304.636 218.402 304.607C218.494 304.591 218.586 304.584 218.675 304.584C218.827 304.584 218.948 304.603 219.056 304.624C219.126 304.638 219.181 304.645 219.223 304.645L219.227 304.645H219.231C219.324 304.645 219.392 304.594 219.418 304.505C219.435 304.446 219.448 304.391 219.46 304.336C219.47 304.287 219.487 304.21 219.503 304.18C219.815 304.131 220.054 304.068 220.214 303.994C220.344 303.934 220.425 303.865 220.46 303.784C220.47 303.76 220.476 303.735 220.478 303.709C220.48 303.667 220.467 303.626 220.44 303.593C220.414 303.56 220.377 303.538 220.335 303.532C219.364 303.371 218.926 302.373 218.908 302.331C218.907 302.328 218.905 302.325 218.904 302.323C218.854 302.222 218.843 302.138 218.87 302.075C218.923 301.95 219.126 301.885 219.261 301.843C219.3 301.83 219.337 301.819 219.367 301.807C219.5 301.754 219.595 301.698 219.657 301.633C219.732 301.556 219.746 301.482 219.745 301.434C219.743 301.318 219.654 301.214 219.512 301.163C219.464 301.143 219.41 301.133 219.354 301.133C219.316 301.133 219.26 301.138 219.207 301.163C219.093 301.216 218.991 301.245 218.904 301.249C218.858 301.247 218.825 301.237 218.804 301.227C218.807 301.182 218.809 301.135 218.813 301.086L218.814 301.065C218.845 300.572 218.884 299.958 218.721 299.594C218.61 299.344 218.46 299.13 218.277 298.956C218.123 298.81 217.944 298.692 217.745 298.604C217.399 298.452 217.076 298.43 216.914 298.43Z" fill="#020202"/>
</g>
<defs>
<filter id="filter0_f_7084_4308" x="-23.6904" y="-33.0156" width="430.105" height="475.941" filterUnits="userSpaceOnUse" color-interpolation-filters="sRGB">
<feFlood flood-opacity="0" result="BackgroundImageFix"/>
<feBlend mode="normal" in="SourceGraphic" in2="BackgroundImageFix" result="shape"/>
<feGaussianBlur stdDeviation="32" result="effect1_foregroundBlur_7084_4308"/>
</filter>
<linearGradient id="paint0_linear_7084_4308" x1="209" y1="267" x2="280" y2="267" gradientUnits="userSpaceOnUse">
<stop stop-color="white"/>
<stop offset="1" stop-color="#D8E5FF"/>
</linearGradient>
<linearGradient id="paint1_linear_7084_4308" x1="200" y1="303" x2="262" y2="303" gradientUnits="userSpaceOnUse">
<stop stop-color="white"/>
<stop offset="1" stop-color="#D8E5FF"/>
</linearGradient>
<clipPath id="clip0_7084_4308">
<rect width="32.7227" height="31.4995" fill="white" transform="translate(179.516 173.523)"/>
</clipPath>
<clipPath id="clip1_7084_4308">
<rect width="23" height="4.84211" fill="white" transform="translate(74.1055 300.422)"/>
</clipPath>
</defs>
</svg>
