<svg width="38" height="38" viewBox="0 0 38 38" fill="none" xmlns="http://www.w3.org/2000/svg">
<rect opacity="0.21" y="0.373047" width="37.5737" height="37.2561" rx="18.6281" fill="#FF8F8F"/>
<path d="M18.7875 28.6876C18.9765 28.6876 19.1364 28.6236 19.2672 28.4955L26.0707 22.0708C26.1434 22.0139 26.2434 21.9214 26.3706 21.7933C26.4978 21.6652 26.6995 21.4322 26.9757 21.0943C27.2519 20.7563 27.499 20.4094 27.7171 20.0537C27.9352 19.698 28.1296 19.2675 28.3004 18.7624C28.4712 18.2572 28.5566 17.7663 28.5566 17.2896C28.5566 15.7243 28.0951 14.5005 27.1719 13.6183C26.2488 12.736 24.9732 12.2949 23.345 12.2949C22.8943 12.2949 22.4346 12.3714 21.9657 12.5244C21.4969 12.6773 21.0608 12.8837 20.6573 13.1434C20.2539 13.4031 19.9069 13.6468 19.6161 13.8744C19.3254 14.1021 19.0491 14.344 18.7875 14.6001C18.5258 14.344 18.2496 14.1021 17.9588 13.8744C17.6681 13.6468 17.321 13.4031 16.9176 13.1434C16.5142 12.8837 16.078 12.6773 15.6092 12.5244C15.1404 12.3714 14.6806 12.2949 14.23 12.2949C12.6018 12.2949 11.3261 12.736 10.403 13.6183C9.47986 14.5005 9.0183 15.7243 9.0183 17.2896C9.0183 18.862 9.85056 20.4628 11.5151 22.0921L18.3077 28.4955C18.4386 28.6236 18.5985 28.6876 18.7875 28.6876Z" fill="#FF8F8F"/>
</svg>
