<svg width="38" height="38" viewBox="0 0 38 38" fill="none" xmlns="http://www.w3.org/2000/svg">
<rect opacity="0.21" y="0.371094" width="37.5737" height="37.2561" rx="18.6281" fill="#007FFF"/>
<path d="M22.5188 17.9765C21.5584 17.4917 20.5374 17.1224 19.5265 16.7392C18.9385 16.531 18.3855 16.2481 17.8838 15.899C16.9083 15.188 17.0954 14.0338 18.2377 13.5766C18.5578 13.459 18.8985 13.3949 19.2435 13.3873C20.547 13.316 21.8487 13.5512 23.0242 14.0706C23.6206 14.3338 23.8177 14.2506 24.0199 13.6828C24.2322 13.0827 24.4091 12.4732 24.6062 11.8685C24.7376 11.4622 24.576 11.1944 24.1564 11.0236C23.3955 10.713 22.5935 10.4942 21.7707 10.3726C20.6891 10.2203 20.6891 10.2157 20.684 9.22304C20.6789 7.82431 20.6789 7.82431 19.1423 7.82431C18.9199 7.82431 18.6975 7.81971 18.4751 7.82431C17.7574 7.84278 17.636 7.9582 17.6158 8.61836C17.6058 8.91381 17.6158 9.20932 17.6108 9.50936C17.6058 10.3866 17.6007 10.3727 16.6808 10.6774C14.4568 11.4161 13.082 12.8011 12.9352 15.0172C12.8038 16.9793 13.9258 18.3043 15.6899 19.2691C16.7766 19.8647 17.9796 20.2155 19.1319 20.6818C19.5828 20.8508 20.0049 21.0778 20.3855 21.3559C21.4924 22.1914 21.2899 23.5811 19.9759 24.1074C19.28 24.3786 18.5159 24.4697 17.7671 24.3706C16.5938 24.2509 15.4536 23.9397 14.4008 23.4518C13.7791 23.1564 13.5972 23.2349 13.3849 23.8493C13.2029 24.3803 13.0412 24.9157 12.8794 25.4513C12.6621 26.1714 12.7429 26.3423 13.4961 26.6793C14.4564 27.1041 15.4824 27.321 16.5287 27.4734C17.3478 27.5934 17.3728 27.6257 17.383 28.4013C17.388 28.752 17.388 29.1077 17.3931 29.4586C17.3981 29.9018 17.6306 30.1599 18.131 30.1695C18.6971 30.1787 19.2683 30.1787 19.8344 30.1649C20.2994 30.1557 20.5369 29.9249 20.5369 29.4955C20.5369 29.0154 20.5625 28.5306 20.5419 28.0505C20.5163 27.5611 20.7492 27.3118 21.2647 27.1825C22.4345 26.9032 23.477 26.292 24.2423 25.437C26.4058 23.0364 25.5818 19.523 22.5188 17.9765Z" fill="#007FFF"/>
</svg>
