<svg width="38" height="38" viewBox="0 0 38 38" fill="none" xmlns="http://www.w3.org/2000/svg">
<rect opacity="0.21" y="0.373047" width="37.5737" height="37.2561" rx="18.6281" fill="#6ABE45"/>
<path d="M10.6594 13.1992C9.11079 15.2848 8.2666 17.8936 8.2666 20.6475C8.2666 20.691 8.27306 20.7328 8.28429 20.7726C8.37136 19.8872 8.77963 19.096 9.38913 18.5181C9.69807 16.7794 10.3776 15.1927 11.3291 13.8706C11.0418 13.7223 10.8113 13.4871 10.6594 13.1992ZM28.8221 20.7726C28.8333 20.7328 28.8398 20.6909 28.8398 20.6475C28.8398 17.8937 27.9956 15.2849 26.4471 13.1993C26.2952 13.4873 26.0647 13.7224 25.7774 13.8708C26.7289 15.1928 27.4084 16.7795 27.7173 18.5181C28.3267 19.096 28.735 19.8872 28.8221 20.7726Z" fill="#6ABE45"/>
<path d="M26.4186 13.215C26.549 12.966 26.6216 12.6783 26.6216 12.3732C26.6216 11.9098 26.4468 11.4639 26.1419 11.1498C24.0674 9.01296 21.3821 7.83191 18.5809 7.82427C18.5717 7.82427 18.5631 7.82422 18.5539 7.82422C15.7363 7.82422 13.0408 9.00494 10.9618 11.1508C10.8076 11.3102 10.6877 11.4998 10.6054 11.7136C10.5244 11.9231 10.4834 12.145 10.4834 12.3731C10.4834 12.6782 10.556 12.966 10.6865 13.2149C10.8379 13.5038 11.0675 13.7398 11.3538 13.8887C11.3958 13.9105 11.4386 13.9311 11.483 13.949C12.028 14.1701 12.6302 14.0359 13.0547 13.599C14.5712 12.0376 16.5237 11.1778 18.5525 11.1778C20.5815 11.1778 22.534 12.0377 24.0505 13.599C24.3397 13.8968 24.7115 14.0539 25.0915 14.0539C25.2691 14.0539 25.4485 14.0196 25.622 13.9492C25.6665 13.9312 25.7094 13.9106 25.7514 13.8888C26.0376 13.7399 26.2673 13.5039 26.4186 13.215Z" fill="#6ABE45"/>
<path d="M26.3074 26.1613C26.3074 27.1984 25.4496 28.0421 24.3952 28.0421H21.3252C21.3631 28.1769 21.3838 28.3187 21.3838 28.4652V28.5333C21.3838 28.6798 21.3631 28.8216 21.3252 28.9564H24.3952C25.963 28.9564 27.2384 27.7025 27.2384 26.1613V24.0703C26.955 24.265 26.642 24.4197 26.3074 24.5259V26.1613Z" fill="#6ABE45"/>
<path d="M21.4478 28.4954C21.4478 28.3468 21.4268 28.203 21.3884 28.0663C21.1967 27.3837 20.5595 26.8809 19.8047 26.8809H18.5327C17.6267 26.8809 16.8896 27.6051 16.8896 28.4954V28.5644C16.8896 29.4547 17.6267 30.1789 18.5327 30.1789H19.8047C20.5595 30.1789 21.1967 29.676 21.3884 28.9935C21.4268 28.8568 21.4478 28.713 21.4478 28.5644V28.4954Z" fill="#6ABE45"/>
<path d="M8.28429 20.717C8.27278 20.8358 8.2666 20.9562 8.2666 21.0781C8.2666 22.9269 9.62592 24.4564 11.3771 24.6815C11.3632 24.6028 11.3556 24.5219 11.3556 24.4392V17.7169C11.3556 17.6342 11.3632 17.5533 11.3771 17.4746C10.6128 17.5728 9.92358 17.9193 9.38908 18.4328C8.77963 19.0184 8.37136 19.8199 8.28429 20.717ZM27.7172 18.4328C27.1827 17.9193 26.4935 17.5728 25.7292 17.4746C25.7431 17.5533 25.7507 17.6342 25.7507 17.7169V24.4392C25.7507 24.5219 25.7431 24.6028 25.7292 24.6815C25.9459 24.6537 26.1566 24.6065 26.3595 24.5406C26.6958 24.4313 27.0103 24.2721 27.2952 24.0717C28.2272 23.4159 28.8398 22.3189 28.8398 21.0781C28.8398 20.9563 28.8336 20.8359 28.8221 20.717C28.735 19.8199 28.3267 19.0184 27.7172 18.4328Z" fill="#6ABE45"/>
<path d="M11.3467 24.4061C11.3467 24.488 11.3543 24.5681 11.3682 24.6461C11.4827 25.2899 12.049 25.7806 12.7288 25.7806H12.8145C13.5766 25.7806 14.1966 25.164 14.1966 24.4061V17.7495C14.1966 16.9916 13.5766 16.375 12.8145 16.375H12.7288C12.049 16.375 11.4827 16.8657 11.3682 17.5096C11.3543 17.5876 11.3467 17.6677 11.3467 17.7495V24.4061ZM25.7602 17.7495C25.7602 17.6677 25.7526 17.5876 25.7387 17.5096C25.6242 16.8658 25.0579 16.375 24.3781 16.375H24.2924C23.5303 16.375 22.9103 16.9916 22.9103 17.7495V24.4061C22.9103 25.164 23.5303 25.7806 24.2924 25.7806H24.3781C25.0578 25.7806 25.6242 25.2899 25.7387 24.6461C25.7526 24.5681 25.7602 24.488 25.7602 24.4061V17.7495Z" fill="#6ABE45"/>
</svg>
