<svg width="14" height="13" viewBox="0 0 14 13" fill="none" xmlns="http://www.w3.org/2000/svg">
<path d="M6.84367 0.45331C6.78577 0.475024 6.69167 0.537754 6.63618 0.593246C6.44317 0.786262 6.45523 0.537754 6.45523 4.07717V7.22814L5.96787 6.74077C5.44673 6.22205 5.35505 6.1569 5.15479 6.15449C4.97867 6.15449 4.86045 6.20516 4.72534 6.33544C4.52508 6.53087 4.48166 6.75766 4.59746 7.01099C4.62642 7.07614 4.91835 7.38496 5.5167 7.98089C6.30323 8.76261 6.4118 8.86153 6.55174 8.92667C6.87263 9.07625 7.22488 9.07867 7.553 8.93632C7.68087 8.87841 7.79668 8.77467 8.58804 7.99055C9.23947 7.34394 9.49039 7.07855 9.52417 7.00134C9.58448 6.87106 9.58689 6.65874 9.5314 6.52846C9.44455 6.31614 9.20087 6.15449 8.97649 6.15449C8.75934 6.1569 8.67731 6.21481 8.15135 6.74077L7.66157 7.22814V4.07717C7.66157 0.537754 7.67364 0.786262 7.48062 0.593246C7.31415 0.424358 7.07288 0.373692 6.84367 0.45331Z" fill="#8991A4"/>
<path d="M1.27018 6.02651C1.12059 6.07959 0.971005 6.23642 0.917926 6.39565C0.881736 6.50664 0.876911 6.57419 0.891387 6.86371C0.944466 8.01215 1.29672 9.0858 1.92402 10.0195C2.38966 10.7168 3.09899 11.3996 3.80108 11.8363C5.47549 12.8737 7.52145 13.0498 9.36715 12.3188C10.1537 12.0076 10.8485 11.5347 11.4855 10.8808C12.5543 9.78306 13.1575 8.39094 13.2274 6.85889C13.2443 6.45356 13.213 6.32569 13.0537 6.16645C12.8173 5.93001 12.4457 5.93001 12.2093 6.16645C12.0766 6.29915 12.0356 6.43184 12.0187 6.80581C11.9994 7.19184 11.9511 7.51755 11.857 7.86739C11.3914 9.61417 9.98721 10.9894 8.23319 11.414C5.58889 12.0558 2.92287 10.4514 2.2449 7.80949C2.16046 7.47654 2.08808 6.95781 2.08808 6.6707C2.08808 6.44632 2.03259 6.29191 1.90713 6.16645C1.74065 5.99756 1.49938 5.94689 1.27018 6.02651Z" fill="#8991A4"/>
</svg>
