<svg width="13" height="13" viewBox="0 0 13 13" fill="none" xmlns="http://www.w3.org/2000/svg">
<path d="M8.51293 6.58874C8.51293 7.60786 7.6894 8.43139 6.67028 8.43139C5.65117 8.43139 4.82764 7.60786 4.82764 6.58874C4.82764 5.56962 5.65117 4.74609 6.67028 4.74609C7.6894 4.74609 8.51293 5.56962 8.51293 6.58874Z" stroke="#8991A4" stroke-width="1.23529" stroke-linecap="round" stroke-linejoin="round"/>
<path d="M6.67019 10.8455C8.4871 10.8455 10.1805 9.77494 11.3592 7.922C11.8224 7.19627 11.8224 5.97641 11.3592 5.25068C10.1805 3.39774 8.4871 2.32715 6.67019 2.32715C4.85328 2.32715 3.15989 3.39774 1.98122 5.25068C1.51798 5.97641 1.51798 7.19627 1.98122 7.922C3.15989 9.77494 4.85328 10.8455 6.67019 10.8455Z" stroke="#8991A4" stroke-width="1.23529" stroke-linecap="round" stroke-linejoin="round"/>
</svg>
