<svg width="24" height="24" viewBox="0 0 24 24" fill="none" xmlns="http://www.w3.org/2000/svg">
<path fill-rule="evenodd" clip-rule="evenodd" d="M24 12C24 18.6274 18.6274 24 12 24C5.37258 24 0 18.6274 0 12C0 5.37258 5.37258 0 12 0C18.6274 0 24 5.37258 24 12ZM13.2436 3.68333H15.9019H15.9032V6.55204C15.7509 6.55293 15.2982 6.55261 14.8837 6.55231C14.6901 6.55217 14.5048 6.55204 14.3624 6.55204C14.3604 6.55204 14.3574 6.55198 14.3534 6.5519C14.2418 6.5496 13.3656 6.53159 13.3656 7.40394C13.3713 7.77303 13.3656 9.04397 13.3656 9.04397H15.9135L15.707 11.901H13.4251V20.3166H9.96787V11.9562H8.08641V9.05212H9.91139C9.91139 8.75976 9.91228 8.4785 9.91316 8.20323C9.91485 7.66989 9.91647 7.15902 9.91139 6.6335C9.91139 4.34681 11.666 3.68333 13.2436 3.68333Z" fill="#3C5A9A"/>
</svg>
