<svg width="22" height="22" viewBox="0 0 22 22" xmlns="http://www.w3.org/2000/svg">
  <path d="M20.99 11.2059C20.99 10.3045 20.9186 9.64681 20.764 8.96472H10.7092V13.0329H16.6111C16.4922 14.0439 15.8496 15.5664 14.4217 16.5895L14.4017 16.7257L17.5808 19.2467L17.8011 19.2692C19.8239 17.3569 20.99 14.5432 20.99 11.2059Z" fill="#4285F4"/>
  <path d="M10.7153 21.9773C13.6068 21.9773 16.0342 21.0029 17.8072 19.3221L14.4278 16.6423C13.5235 17.2879 12.3098 17.7386 10.7153 17.7386C7.88337 17.7386 5.47977 15.8263 4.62295 13.1832L4.49736 13.1941L1.19167 15.8129L1.14844 15.9359C2.90948 19.5169 6.52682 21.9773 10.7153 21.9773Z" fill="#34A853"/>
  <path d="M4.6168 13.1303C4.39072 12.4482 4.25988 11.7174 4.25988 10.9622C4.25988 10.207 4.39072 9.47621 4.60491 8.79413L4.59892 8.64886L1.2518 5.98804L1.14229 6.04136C0.416473 7.52737 0 9.19609 0 10.9622C0 12.7284 0.416473 14.397 1.14229 15.883L4.6168 13.1303Z" fill="#FBBC05"/>
  <path d="M10.7153 4.23869C12.7262 4.23869 14.0827 5.12785 14.8562 5.87089L17.8785 2.85018C16.0223 1.08405 13.6068 0 10.7153 0C6.52682 0 2.90948 2.46039 1.14844 6.04135L4.61106 8.79412C5.47977 6.15102 7.88337 4.23869 10.7153 4.23869Z" fill="#EA4335"/>
</svg>
