<svg width="16" height="16" viewBox="0 0 16 16" fill="none" xmlns="http://www.w3.org/2000/svg">
<path d="M8 0C3.58125 0 0 3.58125 0 8C0 12.4187 3.58125 16 8 16C12.4187 16 16 12.4187 16 8C16 3.58125 12.4187 0 8 0ZM8 15C4.14062 15 1 11.8594 1 8C1 4.14062 4.14062 1 8 1C11.8594 1 15 4.14062 15 8C15 11.8594 11.8594 15 8 15ZM8 5.75C8.41406 5.75 8.75 5.41437 8.75 5C8.75 4.58594 8.41406 4.25 8 4.25C7.58594 4.25 7.25 4.58437 7.25 5C7.25 5.41563 7.58437 5.75 8 5.75ZM9.5 11H8.5V7.5C8.5 7.225 8.275 7 8 7H7C6.725 7 6.5 7.225 6.5 7.5C6.5 7.775 6.725 8 7 8H7.5V11H6.5C6.225 11 6 11.225 6 11.5C6 11.775 6.225 12 6.5 12H9.5C9.77612 12 10 11.7761 10 11.5C10 11.225 9.775 11 9.5 11Z" fill="#2A2A96"/>
</svg>
