<svg width="22" height="22" viewBox="0 0 22 22" fill="none" xmlns="http://www.w3.org/2000/svg">
<path d="M12 12C11.44 12.56 10.55 12.56 9.99996 12.01V12C9.44996 11.45 9.44996 10.56 9.99996 10.01V9.99996C10.55 9.44996 11.44 9.44996 11.99 9.99996H12C12.55 10.55 12.55 11.45 12 12ZM11 4.99996L13.12 7.11996L15.62 4.61996L12.42 1.41996C11.64 0.639961 10.37 0.639961 9.58996 1.41996L6.38996 4.61996L8.88996 7.11996L11 4.99996ZM4.99996 11L7.11996 8.87996L4.61996 6.37996L1.41996 9.57996C0.639961 10.36 0.639961 11.63 1.41996 12.41L4.61996 15.61L7.11996 13.11L4.99996 11ZM17 11L14.88 13.12L17.38 15.62L20.58 12.42C21.36 11.64 21.36 10.37 20.58 9.58996L17.38 6.38996L14.88 8.88996L17 11ZM11 17L8.87996 14.88L6.37996 17.38L9.57996 20.58C10.36 21.36 11.63 21.36 12.41 20.58L15.61 17.38L13.11 14.88L11 17Z" fill="#040483"/>
</svg>
