<svg width="38" height="40" viewBox="0 0 12 14" fill="none" xmlns="http://www.w3.org/2000/svg">
<path fill-rule="evenodd" clip-rule="evenodd" d="M3.08325 1.60382C2.35838 1.60382 1.77075 2.19145 1.77075 2.91632V11.083C1.77075 11.8079 2.35838 12.3955 3.08325 12.3955H8.91659C9.64146 12.3955 10.2291 11.8079 10.2291 11.083V4.52049H8.91659C8.03063 4.52049 7.31242 3.80228 7.31242 2.91632V1.60382H3.08325ZM8.18742 2.22254L9.61037 3.64549H8.91659C8.51388 3.64549 8.18742 3.31903 8.18742 2.91632V2.22254ZM0.895752 2.91632C0.895752 1.7082 1.87513 0.728821 3.08325 0.728821H7.74992H7.93114L8.05928 0.856962L10.9759 3.77363L11.1041 3.90177V4.08299V11.083C11.1041 12.2911 10.1247 13.2705 8.91659 13.2705H3.08325C1.87513 13.2705 0.895752 12.2911 0.895752 11.083V2.91632ZM3.22909 6.99965C3.22909 6.75803 3.42496 6.56215 3.66659 6.56215H6.58325C6.82488 6.56215 7.02075 6.75803 7.02075 6.99965C7.02075 7.24128 6.82488 7.43715 6.58325 7.43715H3.66659C3.42496 7.43715 3.22909 7.24128 3.22909 6.99965ZM3.66659 9.18715C3.42496 9.18715 3.22909 9.38303 3.22909 9.62465C3.22909 9.86628 3.42496 10.0622 3.66659 10.0622H8.33325C8.57488 10.0622 8.77075 9.86628 8.77075 9.62465C8.77075 9.38303 8.57488 9.18715 8.33325 9.18715H3.66659Z" fill="white"/>
</svg>
