<svg width="13" height="12" viewBox="0 0 13 12" fill="none" xmlns="http://www.w3.org/2000/svg">
<path d="M6.79116 0.0356951C6.73488 0.0567989 6.64344 0.117764 6.58951 0.171695C6.40192 0.359281 6.41364 0.117764 6.41364 3.55762V6.61995L5.93999 6.1463C5.43351 5.64216 5.34441 5.57885 5.14979 5.57651C4.97862 5.57651 4.86372 5.62575 4.73241 5.75237C4.53779 5.9423 4.49558 6.16271 4.60814 6.40892C4.63627 6.47223 4.92 6.77236 5.50151 7.35154C6.26592 8.11126 6.37144 8.20739 6.50744 8.2707C6.8193 8.41608 7.16164 8.41843 7.48054 8.28008C7.60481 8.22381 7.71736 8.12298 8.48646 7.36091C9.11956 6.7325 9.36342 6.47457 9.39625 6.39954C9.45487 6.27292 9.45722 6.06657 9.40329 5.93995C9.31887 5.73361 9.08205 5.57651 8.86398 5.57651C8.65295 5.57885 8.57322 5.63513 8.06205 6.1463L7.58605 6.61995V3.55762C7.58605 0.117764 7.59778 0.359281 7.41019 0.171695C7.2484 0.00755787 7.01392 -0.0416832 6.79116 0.0356951Z" fill="#19191B"/>
<path d="M1.37381 5.45235C1.22843 5.50394 1.08305 5.65635 1.03147 5.81111C0.996296 5.91897 0.991606 5.98463 1.00568 6.266C1.05726 7.38214 1.3996 8.42558 2.00926 9.33302C2.46181 10.0107 3.15118 10.6743 3.83353 11.0987C5.46083 12.1069 7.44924 12.2781 9.24302 11.5676C10.0074 11.2652 10.6827 10.8056 11.3018 10.1701C12.3405 9.10323 12.9267 7.75027 12.9947 6.26131C13.0111 5.86738 12.9807 5.74311 12.8259 5.58835C12.5961 5.35856 12.235 5.35856 12.0052 5.58835C11.8763 5.71732 11.8364 5.84628 11.82 6.20973C11.8012 6.5849 11.7543 6.90145 11.6629 7.24145C11.2103 8.93909 9.84564 10.2756 8.14096 10.6883C5.57104 11.312 2.98001 9.75275 2.32112 7.18517C2.23905 6.86159 2.16871 6.35745 2.16871 6.07842C2.16871 5.86035 2.11477 5.71028 1.99284 5.58835C1.83105 5.42421 1.59657 5.37497 1.37381 5.45235Z" fill="#19191B"/>
</svg>
