<svg xmlns="http://www.w3.org/2000/svg" width="12" height="16" viewBox="0 0 12 16" fill="none">
<path d="M1.71407 15.1778C1.76575 15.169 1.81673 15.162 1.86103 15.2006H1.7204C1.71541 15.1941 1.71314 15.1859 1.71407 15.1778Z" fill="#4F4F4F"/>
<path d="M10.111 15.2006C10.1553 15.162 10.2062 15.169 10.2579 15.1778C10.2587 15.186 10.2564 15.1942 10.2512 15.2006H10.111Z" fill="#4F4F4F"/>
<path fill-rule="evenodd" clip-rule="evenodd" d="M1.71413 15.1788C1.03034 15.1169 0.393306 14.5048 0.28854 13.8126C0.269932 13.6877 0.260766 13.5616 0.261118 13.4354V7.86452C0.261118 6.83374 0.986392 6.10952 2.01612 6.10671C2.09411 6.10671 2.1721 6.10635 2.25009 6.10598C2.44808 6.10505 2.64606 6.10413 2.84405 6.10917C2.94002 6.11163 2.95655 6.07894 2.9562 5.99175C2.95485 5.72535 2.95592 5.45895 2.95699 5.19257C2.95872 4.76185 2.96045 4.33119 2.95198 3.90066C2.92315 2.42409 3.94127 1.20698 5.35069 0.893742C6.95733 0.538313 8.62725 1.6032 8.95315 3.20597C8.99689 3.42589 9.01797 3.64972 9.01608 3.87394C9.0154 4.14371 9.01551 4.41354 9.01561 4.68341V4.68342V4.68379C9.01578 5.11539 9.01594 5.54706 9.01292 5.97874C9.01292 6.08069 9.03331 6.10917 9.14053 6.11023C9.25619 6.11118 9.37197 6.10851 9.48777 6.10584H9.4878C9.75531 6.09967 10.0229 6.0935 10.2891 6.13202C11.0727 6.24523 11.6876 6.92902 11.7055 7.72284C11.7142 8.11026 11.7126 8.49784 11.711 8.88548V8.8855C11.7103 9.04978 11.7096 9.21406 11.7098 9.37835C11.7098 9.83538 11.71 10.2924 11.7102 10.7494C11.7107 11.6635 11.7112 12.5776 11.7098 13.4916C11.7098 14.3111 11.1859 14.9682 10.3963 15.1591C10.3506 15.168 10.3045 15.1745 10.2582 15.1788C10.2366 15.1895 10.2132 15.1882 10.1899 15.187C10.1627 15.1855 10.1354 15.184 10.1112 15.2016H1.86108C1.83702 15.184 1.8098 15.1855 1.7825 15.187C1.75913 15.1882 1.73569 15.1895 1.71413 15.1788ZM5.98707 14.0791H2.0464C1.59921 14.0791 1.38406 13.865 1.38406 13.4196V7.89266C1.38406 7.44547 1.59816 7.23066 2.04394 7.23066H9.92562C10.3732 7.23066 10.588 7.44477 10.588 7.89019V13.4157C10.588 13.8629 10.3739 14.0773 9.92808 14.0773L5.98707 14.0791ZM5.537 6.10783C5.68654 6.10796 5.836 6.10809 5.98536 6.10809C6.13863 6.10809 6.29189 6.1079 6.44515 6.10771C6.88566 6.10718 7.32611 6.10664 7.76638 6.11055C7.87009 6.1116 7.89645 6.08735 7.89645 5.98188C7.89254 5.45106 7.89308 4.92024 7.89362 4.38942C7.89381 4.20481 7.89399 4.0202 7.89399 3.83559C7.8956 3.69067 7.87978 3.54607 7.84688 3.40492C7.65739 2.62867 7.06571 2.10309 6.23638 1.97407C5.12684 1.80145 4.09079 2.67086 4.07919 3.79305C4.07477 4.2125 4.0754 4.63196 4.07603 5.05148C4.07651 5.36614 4.07698 5.68083 4.07532 5.99559C4.07497 6.087 4.09817 6.1102 4.18993 6.1102C4.63876 6.10703 5.08818 6.10743 5.537 6.10783Z" fill="white"/>
<path d="M5.42412 11.4421C5.42412 11.3581 5.4199 11.2737 5.42412 11.1897C5.43924 10.9503 5.40514 10.7601 5.20932 10.5625C4.80537 10.1561 4.87674 9.47267 5.30705 9.11478C5.76971 8.72806 6.41271 8.78677 6.79064 9.24837C6.87732 9.35428 6.9419 9.47649 6.98058 9.60776C7.01926 9.73904 7.03125 9.87674 7.01585 10.0127C7.00045 10.1487 6.95797 10.2802 6.89091 10.3995C6.82385 10.5188 6.73358 10.6235 6.62541 10.7074C6.59793 10.7271 6.5761 10.7538 6.5621 10.7846C6.5481 10.8155 6.54241 10.8494 6.5456 10.8831C6.54842 11.2387 6.54842 11.5941 6.5456 11.9494C6.5456 12.3056 6.31357 12.5569 5.98978 12.5601C5.65861 12.5633 5.42728 12.3112 5.42377 11.9463C5.42342 11.7789 5.42412 11.6105 5.42412 11.4421Z" fill="white"/>
</svg>