<svg width="30" height="30" viewBox="0 0 16 16" fill="none" xmlns="http://www.w3.org/2000/svg">
<path fill-rule="evenodd" clip-rule="evenodd" d="M0.802856 7.42261V7.56324C0.807156 7.56652 0.810641 7.57075 0.81304 7.5756C0.815439 7.58044 0.816686 7.58578 0.816686 7.59119C0.816686 7.5966 0.815439 7.60193 0.81304 7.60678C0.810641 7.61163 0.807156 7.61586 0.802856 7.61914V7.75976C0.81416 7.78639 0.819986 7.81503 0.819986 7.84396C0.819986 7.87289 0.81416 7.90153 0.802856 7.92816V8.23683C0.819668 8.25412 0.818432 8.27437 0.817194 8.29465C0.81662 8.30406 0.816045 8.31348 0.81727 8.32261V8.39293C0.816827 8.39869 0.816988 8.40461 0.817148 8.41054C0.817625 8.42812 0.818104 8.44579 0.802856 8.45972V8.60035C0.818393 8.67721 0.822042 8.75514 0.825693 8.83311C0.828321 8.88923 0.83095 8.94536 0.838013 9.00113C0.942778 9.81605 1.19661 10.5821 1.56856 11.3151C2.02243 12.2102 2.64856 12.9646 3.41708 13.5975C4.41165 14.4169 5.55422 14.9267 6.82723 15.1377C6.92083 15.1532 7.0153 15.1595 7.10978 15.1657H7.1098C7.20516 15.172 7.30053 15.1784 7.395 15.1943H7.53563C7.55083 15.1776 7.57025 15.1785 7.5893 15.1794C7.5936 15.1796 7.59787 15.1798 7.60208 15.1798H7.65551C7.66748 15.1816 7.67985 15.1808 7.69222 15.1799C7.71618 15.1783 7.74011 15.1766 7.76098 15.1943H8.18356C8.20109 15.1774 8.22175 15.1787 8.24238 15.1799C8.25195 15.1805 8.26151 15.1811 8.27075 15.1798H8.39766C8.40337 15.1803 8.40918 15.1801 8.41499 15.18H8.41502C8.43247 15.1796 8.44987 15.1792 8.46411 15.1943H8.5186C8.60267 15.1796 8.68762 15.1762 8.77259 15.1729H8.77261H8.77263C8.84042 15.1702 8.90823 15.1675 8.97563 15.1591C9.96563 15.0364 10.8797 14.695 11.7301 14.1818C12.6188 13.6473 13.3795 12.9246 13.959 12.0646C14.4629 11.3247 14.8242 10.4971 15.0243 9.62445C15.1835 8.93433 15.1902 8.23894 15.1723 7.53582C15.1568 6.93113 15.0362 6.34789 14.8492 5.778C14.4361 4.49775 13.6703 3.36 12.6396 2.49547C11.8468 1.82293 10.9465 1.35711 9.95086 1.06144C9.05684 0.796013 8.14278 0.773162 7.22872 0.837849C6.36247 0.899021 5.54051 1.15812 4.76391 1.54695C3.8141 2.0234 2.98052 2.70263 2.32206 3.53664C1.66361 4.37066 1.19636 5.33911 0.953325 6.37355C0.870708 6.71949 0.835903 7.07105 0.802856 7.42261ZM5.12832 3.28825V2.35626L5.12155 2.35925C5.08748 2.37427 5.07327 2.38053 5.05906 2.39177C4.0074 2.93684 3.13025 3.76673 2.52781 4.78661C2.48281 4.86079 2.48703 4.88857 2.56754 4.92724C2.91915 5.09562 3.26936 5.2676 3.61954 5.43957L3.6196 5.4396L3.96183 5.60751C4.28843 5.76747 4.36156 5.94325 4.24519 6.28462C4.17445 6.49189 4.10386 6.69931 4.03327 6.90673L4.03302 6.90746C3.86339 7.4059 3.69376 7.90434 3.52203 8.40068C3.50856 8.4348 3.50245 8.47139 3.50409 8.50804C3.50572 8.54469 3.51507 8.58058 3.53152 8.61337C3.63727 8.8395 3.73942 9.06742 3.84157 9.29535L3.91824 9.46626C4.16339 10.0098 4.40808 10.5536 4.6523 11.0979C4.74757 11.3102 4.89066 11.4659 5.13218 11.5029C5.50343 11.5595 5.78222 11.3594 5.87328 10.9674L5.91813 10.7747C6.05761 10.1756 6.19706 9.57662 6.3282 8.97618C6.37217 8.76172 6.46747 8.56111 6.60593 8.39154C6.93779 7.9822 7.26552 7.56977 7.59279 7.15792L7.59281 7.15789L7.59284 7.15786C7.80607 6.88952 8.01911 6.62142 8.23296 6.35458C8.42562 6.11447 8.48574 5.8515 8.40664 5.55478C8.37886 5.45068 8.35142 5.34658 8.324 5.24251L8.32399 5.24248L8.32398 5.24245C8.28963 5.11211 8.2553 4.98183 8.22031 4.85165C8.13171 4.52048 7.9148 4.32431 7.58433 4.254C6.91378 4.11126 6.24289 3.96958 5.57164 3.82896C5.24644 3.76111 5.12832 3.61943 5.12832 3.28825ZM13.5619 4.99493C13.8964 5.60678 14.1252 6.27073 14.2386 6.95876C14.4196 8.03225 14.3211 9.13426 13.9526 10.1586C13.584 11.183 12.9579 12.0952 12.1345 12.8074C12.0888 12.8471 12.0544 12.8608 12.0055 12.8176C11.9781 12.7919 11.9463 12.7715 11.9116 12.7571C11.5668 12.6267 11.4824 12.3588 11.4606 12.0149C11.434 11.5751 11.3816 11.1376 11.329 10.6992L11.329 10.6992L11.329 10.6988C11.312 10.5571 11.295 10.4153 11.2788 10.2733C11.2453 10.0067 11.3152 9.73736 11.474 9.5206C11.6599 9.25845 11.8441 8.99565 12.0282 8.73294L12.0285 8.73259L12.0286 8.73235C12.2274 8.44882 12.4261 8.1654 12.6267 7.88302C12.7157 7.76237 12.7622 7.61561 12.7589 7.46572C12.7554 7.12661 12.756 6.78733 12.7567 6.44799V6.44797C12.7569 6.31519 12.7572 6.18241 12.7572 6.04962L12.7571 6.03406C12.7566 5.98445 12.7562 5.9367 12.7948 5.89212C12.9603 5.70013 13.1249 5.50709 13.2929 5.31012L13.2931 5.30983C13.3816 5.20609 13.4709 5.10127 13.5619 4.99493ZM7.6256 14.3432C8.244 14.3747 8.86375 14.3185 9.46638 14.1763C9.40906 14.1017 9.3537 14.0282 9.29918 13.9558C9.18587 13.8052 9.07621 13.6596 8.96013 13.5195C8.80826 13.3353 8.60998 13.3023 8.39412 13.4056C8.29713 13.4519 8.20205 13.5013 8.10656 13.5509C8.06567 13.5721 8.02471 13.5934 7.98349 13.6145C7.87813 13.6667 7.79396 13.7536 7.74513 13.8606C7.72744 13.8978 7.71003 13.9352 7.69261 13.9727C7.65118 14.0618 7.60972 14.1509 7.56443 14.2378C7.524 14.3144 7.53595 14.3383 7.6256 14.3432Z" fill="white"/>
</svg>
