<svg width="40" height="40" viewBox="0 0 14 14" fill="none" xmlns="http://www.w3.org/2000/svg">
<path fill-rule="evenodd" clip-rule="evenodd" d="M1.45825 1.45868V12.542H5.54159V1.45868H1.45825ZM1.16659 0.583679C0.844419 0.583679 0.583252 0.844846 0.583252 1.16701V12.8337C0.583252 13.1558 0.84442 13.417 1.16659 13.417H5.83325C6.15542 13.417 6.41659 13.1558 6.41659 12.8337V1.16701C6.41659 0.844846 6.15542 0.583679 5.83325 0.583679H1.16659ZM8.45825 1.45868V5.54201H12.5416V1.45868H8.45825ZM8.16659 0.583679C7.84442 0.583679 7.58325 0.844847 7.58325 1.16701V5.83368C7.58325 6.15585 7.84442 6.41701 8.16659 6.41701H12.8333C13.1554 6.41701 13.4166 6.15585 13.4166 5.83368V1.16701C13.4166 0.844846 13.1554 0.583679 12.8333 0.583679H8.16659ZM8.02303 7.72951C7.78141 7.72951 7.58553 7.92539 7.58553 8.16701C7.58553 8.40864 7.78141 8.60451 8.02303 8.60451H12.9791C13.2207 8.60451 13.4166 8.40864 13.4166 8.16701C13.4166 7.92539 13.2207 7.72951 12.9791 7.72951H8.02303ZM7.58553 10.5003C7.58553 10.2587 7.78141 10.0628 8.02303 10.0628H12.9791C13.2207 10.0628 13.4166 10.2587 13.4166 10.5003C13.4166 10.742 13.2207 10.9378 12.9791 10.9378H8.02303C7.78141 10.9378 7.58553 10.742 7.58553 10.5003ZM8.02303 12.3962C7.78141 12.3962 7.58553 12.5921 7.58553 12.8337C7.58553 13.0753 7.78141 13.2712 8.02303 13.2712H12.9791C13.2207 13.2712 13.4166 13.0753 13.4166 12.8337C13.4166 12.5921 13.2207 12.3962 12.9791 12.3962H8.02303Z" fill="white"/>
</svg>
