<svg width="11" height="11" viewBox="0 0 11 11" fill="none" xmlns="http://www.w3.org/2000/svg">
<path d="M5.5 1.75C6.1875 1.75 6.75 2.3125 6.75 3C6.75 3.6875 6.1875 4.25 5.5 4.25C4.8125 4.25 4.25 3.6875 4.25 3C4.25 2.3125 4.8125 1.75 5.5 1.75ZM5.5 8C7.1875 8 9.125 8.80625 9.25 9.25H1.75C1.89375 8.8 3.81875 8 5.5 8ZM5.5 0.5C4.11875 0.5 3 1.61875 3 3C3 4.38125 4.11875 5.5 5.5 5.5C6.88125 5.5 8 4.38125 8 3C8 1.61875 6.88125 0.5 5.5 0.5ZM5.5 6.75C3.83125 6.75 0.5 7.5875 0.5 9.25V10.5H10.5V9.25C10.5 7.5875 7.16875 6.75 5.5 6.75Z" fill="#F35421"/>
</svg>
