<svg width="12" height="13" viewBox="0 0 10 11" fill="none" xmlns="http://www.w3.org/2000/svg">
<path d="M6.49176 5.20895C6.49176 6.03395 5.82509 6.70062 5.00009 6.70062C4.17509 6.70062 3.50842 6.03395 3.50842 5.20895C3.50842 4.38395 4.17509 3.71729 5.00009 3.71729C5.82509 3.71729 6.49176 4.38395 6.49176 5.20895Z" stroke="#19191B" stroke-width="1.02473" stroke-linecap="round" stroke-linejoin="round"/>
<path d="M5.00006 8.65511C6.47089 8.65511 7.84172 7.78844 8.79589 6.28844C9.17089 5.70094 9.17089 4.71344 8.79589 4.12594C7.84172 2.62594 6.47089 1.75928 5.00006 1.75928C3.52922 1.75928 2.15839 2.62594 1.20422 4.12594C0.829224 4.71344 0.829224 5.70094 1.20422 6.28844C2.15839 7.78844 3.52922 8.65511 5.00006 8.65511Z" stroke="#19191B" stroke-width="1.02473" stroke-linecap="round" stroke-linejoin="round"/>
</svg>