<svg width="20" height="20" viewBox="0 0 20 20" fill="none" xmlns="http://www.w3.org/2000/svg"><path fill-rule="evenodd" clip-rule="evenodd" d="M3.68292 4.61448L9.90514 3.05893C10.1506 2.99757 10.3883 3.18321 10.3883 3.4362V16.5627C10.3883 16.8157 10.1506 17.0013 9.90514 16.94L3.68292 15.3844C3.5098 15.3411 3.38835 15.1856 3.38835 15.0071V4.99176C3.38835 4.81331 3.50979 4.65776 3.68292 4.61448ZM2.22168 4.99176C2.22168 4.27797 2.70748 3.65577 3.39996 3.48265L9.62218 1.92709C10.604 1.68165 11.555 2.4242 11.555 3.4362V3.77592H11.5553H15.8331C16.6922 3.77592 17.3887 4.47236 17.3887 5.33147V14.6648C17.3887 15.5239 16.6922 16.2204 15.8331 16.2204H11.5553H11.555V16.5627C11.555 17.5747 10.604 18.3172 9.62218 18.0718L3.39996 16.5162C2.70748 16.3431 2.22168 15.7209 2.22168 15.0071V4.99176ZM11.5553 4.94258H15.8331C16.0479 4.94258 16.222 5.11669 16.222 5.33147V14.6648C16.222 14.8796 16.0479 15.0537 15.8331 15.0537H11.5553V4.94258Z" fill="white"></path></svg>