<svg width="14" height="15" viewBox="0 0 14 15" fill="none" xmlns="http://www.w3.org/2000/svg">
<path fill-rule="evenodd" clip-rule="evenodd" d="M6.12111 0.363656C6.55151 0.0623758 7.12436 0.0623748 7.55476 0.363655L12.7626 4.00912C13.4459 4.48746 13.478 5.48816 12.8266 6.00924L12.5676 6.21642L12.7626 6.35287C13.4459 6.83121 13.478 7.83191 12.8266 8.35299L12.5676 8.56017L12.7626 8.69662C13.4459 9.17496 13.478 10.1757 12.8266 10.6967L10.3534 12.6753L8.39967 14.2383C7.48663 14.9687 6.18924 14.9687 5.2762 14.2383L3.3225 12.6753L0.849267 10.6967C0.197919 10.1757 0.229957 9.17496 0.913307 8.69662L1.10823 8.56017L0.849267 8.35299C0.197919 7.83191 0.229957 6.83121 0.913307 6.35287L1.10824 6.21642L0.849267 6.00924C0.197919 5.48816 0.229957 4.48746 0.913307 4.00912L6.12111 0.363656ZM2.12545 9.37394L1.63014 9.72066L4.10337 11.6992L6.05707 13.2622C6.51359 13.6274 7.16228 13.6274 7.6188 13.2622L9.5725 11.6992L12.0457 9.72066L11.5504 9.37394L10.3534 10.3316L8.39967 11.8945C7.48663 12.625 6.18924 12.625 5.2762 11.8945L3.3225 10.3316L2.12545 9.37394ZM10.3534 7.98783L11.5504 7.03019L12.0457 7.37691L9.5725 9.35549L7.6188 10.9185C7.16228 11.2837 6.51359 11.2837 6.05707 10.9185L4.10337 9.35549L1.63014 7.37691L2.12545 7.03019L3.3225 7.98783L5.2762 9.55079C6.18924 10.2812 7.48663 10.2812 8.39967 9.55079L10.3534 7.98783ZM12.0457 5.03316L6.83794 1.3877L1.63013 5.03316L4.10337 7.01174L6.05707 8.5747C6.51359 8.93992 7.16228 8.93992 7.6188 8.5747L9.5725 7.01174L12.0457 5.03316Z" fill="#C22076"/>
</svg>
