<svg width="14" height="14" viewBox="0 0 14 14" fill="none" xmlns="http://www.w3.org/2000/svg">
<path d="M10.0625 5.25V3.81063C10.0613 3.0324 9.75168 2.28639 9.2014 1.7361C8.65111 1.18582 7.9051 0.876157 7.12688 0.875H6.87313C6.0949 0.876157 5.34889 1.18582 4.7986 1.7361C4.24832 2.28639 3.93866 3.0324 3.9375 3.81063V5.25C3.5894 5.25 3.25556 5.38828 3.00942 5.63442C2.76328 5.88056 2.625 6.2144 2.625 6.5625V10.6312C2.62616 11.2923 2.88926 11.9259 3.35668 12.3933C3.8241 12.8607 4.45772 13.1238 5.11875 13.125H8.88125C9.54228 13.1238 10.1759 12.8607 10.6433 12.3933C11.1107 11.9259 11.3738 11.2923 11.375 10.6312V6.5625C11.375 6.2144 11.2367 5.88056 10.9906 5.63442C10.7444 5.38828 10.4106 5.25 10.0625 5.25ZM4.8125 3.81063C4.8125 3.26411 5.0296 2.73999 5.41604 2.35354C5.80249 1.9671 6.32661 1.75 6.87313 1.75H7.12688C7.67339 1.75 8.19752 1.9671 8.58396 2.35354C8.9704 2.73999 9.1875 3.26411 9.1875 3.81063V5.25H4.8125V3.81063Z" fill="#727272"/>
<path d="M7.4375 9.0649V10.4999C7.4375 10.6159 7.39141 10.7272 7.30936 10.8093C7.22731 10.8913 7.11603 10.9374 7 10.9374C6.88397 10.9374 6.77269 10.8913 6.69064 10.8093C6.60859 10.7272 6.5625 10.6159 6.5625 10.4999V9.0649C6.39569 8.96859 6.26532 8.81993 6.19161 8.64198C6.11789 8.46402 6.10496 8.26672 6.15482 8.08066C6.20467 7.89461 6.31452 7.7302 6.46733 7.61294C6.62015 7.49569 6.80738 7.43213 7 7.43213C7.19262 7.43213 7.37985 7.49569 7.53267 7.61294C7.68548 7.7302 7.79533 7.89461 7.84519 8.08066C7.89504 8.26672 7.88211 8.46402 7.8084 8.64198C7.73468 8.81993 7.60431 8.96859 7.4375 9.0649Z" fill="#D1D1D6"/>
</svg>
