<svg width="51" height="50" viewBox="0 0 51 50" fill="none" xmlns="http://www.w3.org/2000/svg">
<g clip-path="url(#clip0_605_3169)">
<mask id="mask0_605_3169" style="mask-type:luminance" maskUnits="userSpaceOnUse" x="0" y="0" width="51" height="50">
<path d="M0.5 0H50.5V50H0.5V0Z" fill="white"/>
</mask>
<g mask="url(#mask0_605_3169)">
<path d="M45.2917 50H24.4583C21.5875 50 19.25 47.6625 19.25 44.7917V36.4583C19.25 35.8833 19.7167 35.4167 20.2917 35.4167C20.8667 35.4167 21.3333 35.8833 21.3333 36.4583V44.7917C21.3333 46.5146 22.7354 47.9167 24.4583 47.9167H45.2917C47.0146 47.9167 48.4167 46.5146 48.4167 44.7917V23.9583C48.4167 22.2354 47.0146 20.8333 45.2917 20.8333H34.875C34.3 20.8333 33.8333 20.3667 33.8333 19.7917C33.8333 19.2167 34.3 18.75 34.875 18.75H45.2917C48.1625 18.75 50.5 21.0875 50.5 23.9583V44.7917C50.5 47.6625 48.1625 50 45.2917 50Z" fill="#727272"/>
<path d="M16.1224 31.2513H15.0807C14.5057 31.2513 14.0391 30.7846 14.0391 30.2096C14.0391 29.6346 14.5057 29.168 15.0807 29.168H16.1224C16.6974 29.168 17.1641 29.6346 17.1641 30.2096C17.1641 30.7846 16.6974 31.2513 16.1224 31.2513Z" fill="#727272"/>
<path d="M10.8729 31.25H8.76667C8.19167 31.25 7.725 30.7833 7.725 30.2083C7.725 29.6333 8.19167 29.1667 8.76667 29.1667H10.8729C11.4479 29.1667 11.9146 29.6333 11.9146 30.2083C11.9146 30.7833 11.4479 31.25 10.8729 31.25ZM4.57083 31.0917C4.47708 31.0917 4.38125 31.0792 4.28542 31.0521C3.44167 30.8125 2.66458 30.3583 2.03958 29.7354C1.63125 29.3312 1.62917 28.6708 2.03542 28.2625C2.44167 27.8562 3.10208 27.8521 3.50833 28.2583C3.88333 28.6312 4.35 28.9042 4.85417 29.0479C5.40833 29.2042 5.72917 29.7812 5.57083 30.3354C5.44167 30.7937 5.02292 31.0917 4.57083 31.0917ZM1.54167 26.1604C0.966667 26.1604 0.5 25.6937 0.5 25.1187V23.0125C0.5 22.4375 0.966667 21.9708 1.54167 21.9708C2.11667 21.9708 2.58333 22.4375 2.58333 23.0125V25.1187C2.58333 25.6937 2.11667 26.1604 1.54167 26.1604ZM1.54167 19.8417C0.966667 19.8417 0.5 19.375 0.5 18.8V16.6937C0.5 16.1187 0.966667 15.6521 1.54167 15.6521C2.11667 15.6521 2.58333 16.1187 2.58333 16.6937V18.8C2.58333 19.375 2.11667 19.8417 1.54167 19.8417ZM1.54167 13.525C0.966667 13.525 0.5 13.0583 0.5 12.4833V10.3771C0.5 9.80208 0.966667 9.33542 1.54167 9.33542C2.11667 9.33542 2.58333 9.80208 2.58333 10.3771V12.4833C2.58333 13.0583 2.11667 13.525 1.54167 13.525ZM30.7083 11.3771C30.1333 11.3771 29.6667 10.9104 29.6667 10.3354V8.22917C29.6667 7.65417 30.1333 7.1875 30.7083 7.1875C31.2833 7.1875 31.75 7.65208 31.75 8.22917V10.3354C31.75 10.9104 31.2833 11.3771 30.7083 11.3771ZM1.54167 7.20625C0.966667 7.20625 0.5 6.73958 0.5 6.16458V5.20833C0.5 4.72917 0.566667 4.25208 0.695833 3.79167C0.852083 3.23542 1.43125 2.90833 1.98125 3.07292C2.53542 3.22917 2.85625 3.80417 2.7 4.35833C2.62292 4.63333 2.58333 4.91875 2.58333 5.20833V6.16458C2.58333 6.73958 2.11667 7.20625 1.54167 7.20625ZM30.5396 5.075C30.0875 5.075 29.6729 4.77917 29.5396 4.325C29.3937 3.82292 29.1146 3.36042 28.7396 2.98542C28.3312 2.58125 28.3271 1.92083 28.7312 1.5125C29.1354 1.10208 29.7958 1.1 30.2042 1.50417C30.8312 2.125 31.2937 2.89792 31.5396 3.73958C31.7021 4.29167 31.3833 4.86875 30.8312 5.03125C30.7333 5.0625 30.6354 5.075 30.5396 5.075ZM4.5375 2.25C4.0875 2.25 3.67083 1.95625 3.5375 1.50208C3.37708 0.95 3.69375 0.370833 4.24583 0.208333C4.71875 0.0708333 5.21042 0 5.70833 0H6.62708C7.20208 0 7.66875 0.466667 7.66875 1.04167C7.66875 1.61667 7.20417 2.08333 6.62708 2.08333H5.70833C5.40833 2.08333 5.11458 2.125 4.83125 2.20833C4.73333 2.2375 4.63542 2.25 4.5375 2.25ZM25.5812 2.08333H23.475C22.9 2.08333 22.4333 1.61667 22.4333 1.04167C22.4333 0.466667 22.9 0 23.475 0H25.5812C26.1562 0 26.6229 0.466667 26.6229 1.04167C26.6229 1.61667 26.1562 2.08333 25.5812 2.08333ZM19.2625 2.08333H17.1583C16.5833 2.08333 16.1167 1.61667 16.1167 1.04167C16.1167 0.466667 16.5812 0 17.1583 0H19.2646C19.8396 0 20.3062 0.466667 20.3062 1.04167C20.3062 1.61667 19.8396 2.08333 19.2625 2.08333ZM12.9458 2.08333H10.8396C10.2646 2.08333 9.79792 1.61667 9.79792 1.04167C9.79792 0.466667 10.2646 0 10.8396 0H12.9458C13.5208 0 13.9875 0.466667 13.9875 1.04167C13.9875 1.61667 13.5208 2.08333 12.9458 2.08333Z" fill="#727272"/>
<path d="M30.7057 16.668C30.1307 16.668 29.6641 16.2013 29.6641 15.6263V14.5846C29.6641 14.0096 30.1307 13.543 30.7057 13.543C31.2807 13.543 31.7474 14.0096 31.7474 14.5846V15.6263C31.7474 16.2013 31.2807 16.668 30.7057 16.668Z" fill="#727272"/>
<path d="M26.6459 37.4999H22.3751C19.5042 37.4999 17.1667 35.1624 17.1667 32.2916V28.5562L16.2333 27.6228C15.6187 27.0103 15.2812 26.1916 15.2812 25.3228C15.2812 24.4541 15.6187 23.6374 16.2333 23.0228C16.7417 22.5145 17.3896 22.1958 18.0917 22.0999C18.0292 21.1937 18.3438 20.2667 19.0354 19.575C19.7583 18.8521 20.7958 18.5146 21.7897 18.6542C21.9082 18.0375 22.2043 17.4479 22.6814 16.9708C23.5564 16.0958 24.9147 15.8021 26.0501 16.1979C26.2022 15.7188 26.4689 15.2667 26.848 14.8875C28.1147 13.6208 30.1793 13.6208 31.4459 14.8875L34.6751 18.1167C36.8189 20.2625 38.0001 23.1145 38.0001 26.1458C38.0001 32.4062 32.9064 37.4999 26.6459 37.4999ZM19.25 30.6395V32.2916C19.25 34.0145 20.6521 35.4166 22.3751 35.4166H26.6459C31.7584 35.4166 35.9168 31.2583 35.9168 26.1458C35.9168 23.6708 34.952 21.3416 33.202 19.5917L29.973 16.3625C29.5168 15.9063 28.7772 15.9063 28.3209 16.3625C28.1001 16.5813 27.9772 16.875 27.9772 17.1875C27.9772 17.5 28.0978 17.7938 28.3186 18.0125C28.5228 18.2167 28.6251 18.4833 28.6251 18.75C28.6251 19.0167 28.523 19.2833 28.3209 19.4875C27.9147 19.8938 27.2543 19.8938 26.848 19.4875L25.8064 18.4458C25.3647 18.0042 24.5959 18.0042 24.1543 18.4458C23.698 18.9021 23.698 19.6417 24.1543 20.0979L25.1959 21.1395C25.398 21.3416 25.5001 21.6083 25.5001 21.8749C25.5001 22.1416 25.398 22.4083 25.1959 22.6124C24.7897 23.0187 24.1293 23.0187 23.723 22.6124L22.1605 21.0499C21.7189 20.6083 20.95 20.6083 20.5083 21.0499C20.0521 21.5062 20.0521 22.2458 20.5083 22.702L23.1126 25.3062C23.3147 25.5083 23.4168 25.7749 23.4168 26.0416C23.4168 26.3083 23.3147 26.5749 23.1126 26.7791C22.7064 27.1853 22.0459 27.1853 21.6397 26.7791L19.3583 24.4978C18.9167 24.0562 18.1479 24.0562 17.7062 24.4978C17.4854 24.7187 17.3646 25.0124 17.3646 25.3228C17.3646 25.6333 17.4854 25.9291 17.7062 26.1478L23.1126 31.5541C23.3147 31.7583 23.4168 32.0249 23.4168 32.2916C23.4168 32.5583 23.3147 32.8249 23.1126 33.0291C22.7064 33.4353 22.0459 33.4353 21.6397 33.0291L19.25 30.6395Z" fill="#727272"/>
</g>
</g>
<defs>
<clipPath id="clip0_605_3169">
<rect width="50" height="50" fill="white" transform="translate(0.5)"/>
</clipPath>
</defs>
</svg>
