<svg width="484" height="156" viewBox="0 0 484 156" fill="none" xmlns="http://www.w3.org/2000/svg">
<g opacity="0.4">
<path d="M83.2663 69.6543H77.6293V77.6263H69.6133V83.3083H77.6293V91.2803H83.2663V83.3083H91.2383V77.6263H83.2663V69.6543Z" fill="white"/>
<path d="M80.4464 22H59.0855V77.627H41.8203V83.309H59.0855V91.281H64.7231V27.682H80.4464C89.0794 27.682 96.0824 34.685 96.1264 43.317V54.24H101.808V43.317C101.764 35.654 97.6234 28.607 90.9734 24.819C87.7584 22.969 84.1464 22 80.4464 22Z" fill="white"/>
<path d="M83.2663 41.8633H77.6293V59.0843H69.6133V64.7663H133.212V80.4463C133.212 89.0783 126.209 96.1253 117.62 96.1693H106.653V101.851H117.62C125.24 101.807 132.331 97.6673 136.119 90.9723C137.925 87.8013 138.894 84.1453 138.894 80.4463V59.0843H83.2663V41.8633Z" fill="white"/>
<path d="M101.809 69.6543H96.1707V133.254H80.4467C71.8147 133.254 64.7676 126.251 64.7235 117.618V106.695H59.0859V117.618C59.0859 125.282 63.2701 132.373 69.9207 136.116C73.1357 137.966 76.7477 138.891 80.4467 138.891H101.809V83.3083H119.074V77.6263H101.809V69.6543Z" fill="white"/>
<path d="M54.24 59.0859H43.2731C35.6536 59.1299 28.5625 63.2699 24.7747 69.9649C22.9689 73.1359 22 76.7919 22 80.4909V101.853H77.6278V119.074H83.2648V101.853H91.2368V96.1709H27.6816V80.4909C27.6816 71.8589 34.6846 64.8119 43.2731 64.7679H54.24V59.0859Z" fill="white"/>
</g>
<path d="M69.6133 83.3109V77.6289H101.809V83.3109H69.6133Z" fill="white"/>
<path d="M64.7235 59.0859V101.853H59.0859V59.0859H64.7235Z" fill="white"/>
<path d="M101.808 59.0859H69.6562V64.7679H101.808V59.0859Z" fill="white"/>
<path d="M101.765 96.1699V101.852H69.6133V96.1699H101.765Z" fill="white"/>
<path d="M195.357 41.8633H160.254V49.0423H173.291V84.9383H182.143V49.0423H195.357V41.8633Z" fill="white"/>
<path d="M237.946 41.8633H229.049V59.3053H211.74V41.8633H202.887V84.9383H211.74V66.4843H229.049V84.9383H237.946V41.8633Z" fill="white"/>
<path d="M276.969 41.8633H248.164V84.9383H277.013V77.8033H257.017V66.2643H274.062V59.3053H257.017V49.0423H276.969V41.8633Z" fill="white"/>
<path fill-rule="evenodd" clip-rule="evenodd" d="M327.622 43.6253C330.089 44.8003 331.983 46.4883 333.304 48.6903C334.625 50.8633 335.286 53.3443 335.286 56.1333C335.286 60.3323 333.832 63.6503 330.926 66.0873C328.048 68.5243 324.055 69.7433 318.946 69.7433H311.15V84.9383H302.297V41.8633H319.078C322.308 41.8633 325.156 42.4513 327.622 43.6253ZM319.078 62.5643C321.427 62.5643 323.218 62.0063 324.451 60.8903C325.684 59.8043 326.301 58.2333 326.301 56.1783C326.301 54.0633 325.684 52.3603 324.451 51.0683C323.218 49.7473 321.5 49.0723 319.298 49.0423H311.15V62.5643H319.078Z" fill="white"/>
<path d="M352.725 41.8633H343.828V84.9383H371.576V77.8033H352.725V41.8633Z" fill="white"/>
<path d="M410.997 41.8633H402.1V70.5363C402.042 75.7623 399.516 78.3763 394.525 78.3763C392.117 78.3763 390.238 77.7303 388.887 76.4383C387.536 75.1463 386.861 73.0903 386.861 70.2723V41.8633H378.008V70.5363C378.067 75.2043 379.579 78.8603 382.545 81.5033C385.481 84.1753 389.474 85.5113 394.525 85.5113C399.634 85.5113 403.656 84.1453 406.593 81.4153C409.529 78.6553 410.997 74.9263 410.997 70.2273V41.8633Z" fill="white"/>
<path d="M436.19 41.2461C433.136 41.2461 430.376 41.7601 427.91 42.7881C425.473 43.8151 423.594 45.2391 422.272 47.0601C420.951 48.8801 420.29 50.9651 420.29 53.3141C420.29 57.7771 422.742 61.3301 427.646 63.9731C429.437 64.9421 431.874 65.9251 434.957 66.9241C438.011 67.9221 440.139 68.8621 441.343 69.7421C442.518 70.6531 443.105 71.9451 443.105 73.6181C443.105 75.1451 442.518 76.3491 441.343 77.2301C440.139 78.0811 438.495 78.5071 436.41 78.5071C430.714 78.5071 427.866 76.1291 427.866 71.3721H418.969C418.969 74.1611 419.688 76.6131 421.127 78.7271C422.537 80.8121 424.607 82.4711 427.337 83.7041C430.068 84.9081 433.092 85.5101 436.41 85.5101C441.167 85.5101 444.955 84.4531 447.774 82.3391C450.593 80.2251 452.002 77.3031 452.002 73.5741C452.002 70.2271 450.857 67.4231 448.566 65.1621C446.247 62.9011 442.562 61.0221 437.511 59.5241C434.781 58.7021 432.711 57.8071 431.301 56.8381C429.892 55.8981 429.187 54.7231 429.187 53.3141C429.187 51.8171 429.789 50.6131 430.993 49.7021C432.197 48.7921 433.885 48.3371 436.058 48.3371C438.29 48.3371 440.022 48.8801 441.255 49.9671C442.518 51.0531 443.149 52.5951 443.149 54.5911H452.002C452.002 52.0071 451.341 49.6881 450.02 47.6321C448.699 45.6061 446.834 44.0361 444.426 42.9201C442.019 41.8041 439.273 41.2461 436.19 41.2461Z" fill="white"/>
<path fill-rule="evenodd" clip-rule="evenodd" d="M182.541 106.343C183.422 107.107 183.877 108.179 183.907 109.559V115.813C183.907 117.046 184.068 118.044 184.391 118.808V118.984H181.969C181.822 118.72 181.704 118.25 181.616 117.575C180.53 118.69 179.238 119.248 177.74 119.248C176.419 119.248 175.333 118.867 174.481 118.103C173.6 117.34 173.16 116.385 173.16 115.24C173.16 113.802 173.703 112.7 174.789 111.937C175.876 111.144 177.388 110.748 179.326 110.748H181.572V109.691C181.572 108.869 181.337 108.223 180.868 107.753C180.368 107.254 179.649 107.004 178.709 107.004C177.887 107.004 177.197 107.224 176.639 107.665C176.081 108.076 175.803 108.575 175.803 109.162H173.468C173.468 108.487 173.703 107.841 174.173 107.224C174.643 106.578 175.303 106.079 176.155 105.727C176.977 105.345 177.873 105.154 178.842 105.154C180.427 105.154 181.66 105.551 182.541 106.343ZM180.163 116.65C180.809 116.268 181.279 115.784 181.572 115.196V112.377H179.766C176.918 112.377 175.494 113.214 175.494 114.888C175.494 115.622 175.744 116.195 176.243 116.606C176.713 117.017 177.329 117.222 178.093 117.222C178.827 117.222 179.517 117.031 180.163 116.65Z" fill="white"/>
<path fill-rule="evenodd" clip-rule="evenodd" d="M200.245 118.985H198.131L197.999 117.531C197.059 118.676 195.767 119.249 194.123 119.249C192.537 119.249 191.26 118.603 190.291 117.311C189.293 116.019 188.793 114.331 188.793 112.246V112.07C188.793 109.985 189.278 108.311 190.247 107.049C191.245 105.786 192.537 105.155 194.123 105.155C195.738 105.155 197 105.698 197.91 106.784V99.6934H200.245V118.985ZM197.91 115.285V109.075C197.235 107.783 196.178 107.137 194.739 107.137C193.594 107.137 192.699 107.577 192.053 108.458C191.407 109.339 191.084 110.646 191.084 112.378C191.084 113.905 191.407 115.109 192.053 115.99C192.699 116.841 193.58 117.267 194.695 117.267C196.163 117.267 197.235 116.606 197.91 115.285Z" fill="white"/>
<path fill-rule="evenodd" clip-rule="evenodd" d="M216.542 118.985H214.428L214.295 117.531C213.356 118.676 212.064 119.249 210.42 119.249C208.834 119.249 207.557 118.603 206.588 117.311C205.589 116.019 205.09 114.331 205.09 112.246V112.07C205.09 109.985 205.575 108.311 206.544 107.049C207.542 105.786 208.834 105.155 210.42 105.155C212.035 105.155 213.297 105.698 214.207 106.784V99.6934H216.542V118.985ZM214.207 115.285V109.075C213.532 107.783 212.475 107.137 211.036 107.137C209.891 107.137 208.996 107.577 208.35 108.458C207.704 109.339 207.381 110.646 207.381 112.378C207.381 113.905 207.704 115.109 208.35 115.99C208.996 116.841 209.876 117.267 210.992 117.267C212.46 117.267 213.532 116.606 214.207 115.285Z" fill="white"/>
<path fill-rule="evenodd" clip-rule="evenodd" d="M231.958 107.092C233.103 108.355 233.676 110.058 233.676 112.201V112.333C233.676 113.655 233.426 114.844 232.927 115.901C232.428 116.958 231.709 117.78 230.769 118.367C229.829 118.955 228.743 119.248 227.51 119.248C225.66 119.248 224.177 118.602 223.061 117.31C221.916 116.048 221.344 114.359 221.344 112.245V112.069C221.344 110.748 221.593 109.559 222.092 108.502C222.621 107.415 223.355 106.593 224.295 106.035C225.234 105.448 226.306 105.154 227.51 105.154C229.36 105.154 230.843 105.8 231.958 107.092ZM230.329 115.945C231.033 115.035 231.386 113.743 231.386 112.069C231.386 110.572 231.033 109.368 230.329 108.458C229.595 107.518 228.655 107.048 227.51 107.048C226.365 107.048 225.44 107.503 224.735 108.414C224.03 109.324 223.678 110.63 223.678 112.333C223.678 113.86 224.016 115.079 224.691 115.989C225.396 116.899 226.335 117.354 227.51 117.354C228.684 117.354 229.624 116.885 230.329 115.945Z" fill="white"/>
<path d="M244.729 105.154C243.055 105.154 241.705 105.8 240.677 107.092L240.589 105.419H238.387V118.984H240.721V109.294C241.044 108.648 241.485 108.12 242.042 107.709C242.63 107.327 243.29 107.136 244.024 107.136C244.964 107.136 245.654 107.371 246.094 107.841C246.535 108.311 246.755 109.03 246.755 109.999V118.984H249.089V109.999C249.06 106.769 247.607 105.154 244.729 105.154Z" fill="white"/>
<path d="M259.31 105.154C257.842 105.154 256.638 105.536 255.699 106.299C254.759 107.063 254.289 108.002 254.289 109.118C254.289 109.794 254.451 110.381 254.774 110.88C255.097 111.35 255.611 111.761 256.315 112.113C256.991 112.466 257.916 112.774 259.09 113.038C260.294 113.273 261.131 113.567 261.601 113.919C262.07 114.271 262.305 114.756 262.305 115.372C262.305 115.989 262.041 116.474 261.512 116.826C260.984 117.178 260.279 117.354 259.398 117.354C258.429 117.354 257.651 117.12 257.064 116.65C256.506 116.209 256.198 115.593 256.139 114.8H253.805C253.805 115.622 254.04 116.371 254.509 117.046C255.009 117.751 255.669 118.294 256.491 118.676C257.343 119.057 258.312 119.248 259.398 119.248C260.925 119.248 262.173 118.881 263.142 118.147C264.111 117.413 264.596 116.444 264.596 115.24C264.596 114.506 264.434 113.89 264.111 113.39C263.759 112.862 263.215 112.422 262.481 112.069C261.777 111.717 260.837 111.409 259.663 111.144C258.517 110.88 257.725 110.601 257.284 110.307C256.844 110.043 256.624 109.632 256.624 109.074C256.624 108.458 256.858 107.973 257.328 107.621C257.798 107.239 258.459 107.048 259.31 107.048C260.132 107.048 260.808 107.283 261.336 107.753C261.894 108.223 262.173 108.766 262.173 109.382H264.507C264.507 108.149 264.023 107.136 263.054 106.343C262.085 105.551 260.837 105.154 259.31 105.154Z" fill="white"/>
<path d="M283.224 99.4297C281.785 99.4297 280.684 99.8257 279.921 100.619C279.128 101.441 278.731 102.572 278.731 104.01V105.42H276.617V107.181H278.731V118.985H281.066V107.181H283.973V105.42H281.066V103.966C281.066 103.144 281.271 102.513 281.682 102.072C282.093 101.632 282.681 101.412 283.444 101.412C283.885 101.412 284.296 101.456 284.677 101.544L284.81 99.6497C284.281 99.5027 283.752 99.4297 283.224 99.4297Z" fill="white"/>
<path fill-rule="evenodd" clip-rule="evenodd" d="M298.374 107.092C299.519 108.355 300.092 110.058 300.092 112.201V112.333C300.092 113.655 299.828 114.844 299.299 115.901C298.8 116.958 298.08 117.78 297.141 118.367C296.201 118.955 295.115 119.248 293.882 119.248C292.061 119.248 290.578 118.602 289.433 117.31C288.288 116.048 287.715 114.359 287.715 112.245V112.069C287.715 110.748 287.98 109.559 288.508 108.502C289.007 107.415 289.727 106.593 290.666 106.035C291.606 105.448 292.678 105.154 293.882 105.154C295.731 105.154 297.229 105.8 298.374 107.092ZM296.7 115.945C297.405 115.035 297.757 113.743 297.757 112.069C297.757 110.572 297.405 109.368 296.7 108.458C295.996 107.518 295.056 107.048 293.882 107.048C292.736 107.048 291.812 107.503 291.107 108.414C290.402 109.324 290.05 110.63 290.05 112.333C290.05 113.86 290.402 115.079 291.107 115.989C291.782 116.899 292.707 117.354 293.882 117.354C295.085 117.354 296.025 116.885 296.7 115.945Z" fill="white"/>
<path d="M310.31 105.154C308.93 105.154 307.859 105.756 307.095 106.96L307.051 105.419H304.805V118.984H307.095V109.338C307.653 108.047 308.695 107.401 310.222 107.401C310.633 107.401 311.015 107.43 311.367 107.489V105.33C311.132 105.213 310.78 105.154 310.31 105.154Z" fill="white"/>
<path d="M335.284 100.705H323.789V118.983H335.416V117.001H326.211V110.527H334.139V108.589H326.211V102.687H335.284V100.705Z" fill="white"/>
<path d="M342.373 99.6934H340.039V118.985H342.373V99.6934Z" fill="white"/>
<path fill-rule="evenodd" clip-rule="evenodd" d="M357.351 106.916C358.32 108.061 358.804 109.72 358.804 111.893V112.862H349.643C349.672 114.213 350.054 115.299 350.788 116.121C351.552 116.943 352.506 117.354 353.651 117.354C354.473 117.354 355.163 117.178 355.721 116.826C356.308 116.503 356.807 116.062 357.219 115.505L358.628 116.606C357.512 118.367 355.809 119.248 353.519 119.248C351.698 119.248 350.201 118.646 349.026 117.443C347.881 116.209 347.309 114.58 347.309 112.554V112.157C347.309 110.807 347.558 109.603 348.057 108.546C348.586 107.489 349.305 106.652 350.216 106.035C351.155 105.448 352.168 105.154 353.255 105.154C355.016 105.154 356.382 105.742 357.351 106.916ZM356.514 110.968V110.792C356.426 109.617 356.103 108.692 355.545 108.017C354.987 107.371 354.224 107.048 353.255 107.048C352.315 107.048 351.522 107.401 350.876 108.105C350.23 108.781 349.834 109.735 349.687 110.968H356.514Z" fill="white"/>
<path d="M377.788 105.154C376.819 105.154 375.967 105.36 375.233 105.771C374.499 106.153 373.912 106.681 373.471 107.356C372.796 105.888 371.504 105.154 369.595 105.154C367.892 105.154 366.542 105.742 365.543 106.916L365.499 105.419H363.297V118.984H365.631V109.074C366.189 107.782 367.232 107.136 368.759 107.136C370.696 107.136 371.665 108.12 371.665 110.087V118.984H374V109.955C374.088 109.104 374.411 108.414 374.969 107.885C375.527 107.386 376.246 107.136 377.127 107.136C378.155 107.136 378.903 107.371 379.373 107.841C379.814 108.34 380.034 109.074 380.034 110.043V118.984H382.324V109.867C382.295 106.725 380.782 105.154 377.788 105.154Z" fill="white"/>
<path fill-rule="evenodd" clip-rule="evenodd" d="M397.121 106.916C398.09 108.061 398.575 109.72 398.575 111.893V112.862H389.37C389.399 114.213 389.795 115.299 390.559 116.121C391.293 116.943 392.247 117.354 393.422 117.354C394.214 117.354 394.904 117.178 395.492 116.826C396.05 116.503 396.549 116.062 396.989 115.505L398.399 116.606C397.253 118.367 395.55 119.248 393.289 119.248C391.44 119.248 389.942 118.646 388.797 117.443C387.623 116.209 387.035 114.58 387.035 112.554V112.157C387.035 110.807 387.3 109.603 387.828 108.546C388.327 107.489 389.047 106.652 389.986 106.035C390.896 105.448 391.895 105.154 392.981 105.154C394.743 105.154 396.123 105.742 397.121 106.916ZM396.24 110.968V110.792C396.182 109.617 395.873 108.692 395.316 108.017C394.728 107.371 393.95 107.048 392.981 107.048C392.042 107.048 391.263 107.401 390.647 108.105C390.001 108.781 389.605 109.735 389.458 110.968H396.24Z" fill="white"/>
<path d="M409.409 105.154C407.735 105.154 406.369 105.8 405.312 107.092L405.268 105.419H403.066V118.984H405.356V109.294C405.679 108.648 406.135 108.12 406.722 107.709C407.28 107.327 407.94 107.136 408.704 107.136C409.614 107.136 410.289 107.371 410.73 107.841C411.17 108.311 411.405 109.03 411.435 109.999V118.984H413.725V109.999C413.695 106.769 412.257 105.154 409.409 105.154Z" fill="white"/>
<path d="M422.184 102.115H419.85V105.419H417.383V107.18H419.85V115.637C419.85 116.782 420.114 117.663 420.643 118.279C421.171 118.925 421.964 119.248 423.021 119.248C423.579 119.248 424.166 119.16 424.783 118.984V117.134C424.313 117.222 423.946 117.266 423.682 117.266C423.153 117.266 422.771 117.134 422.537 116.87C422.302 116.606 422.184 116.195 422.184 115.637V107.18H424.739V105.419H422.184V102.115Z" fill="white"/>
<path fill-rule="evenodd" clip-rule="evenodd" d="M439.006 107.092C440.151 108.355 440.724 110.058 440.724 112.201V112.333C440.724 113.655 440.474 114.844 439.975 115.901C439.476 116.958 438.757 117.78 437.817 118.367C436.877 118.955 435.791 119.248 434.558 119.248C432.708 119.248 431.21 118.602 430.065 117.31C428.92 116.048 428.348 114.359 428.348 112.245V112.069C428.348 110.748 428.612 109.559 429.14 108.502C429.669 107.415 430.403 106.593 431.343 106.035C432.282 105.448 433.339 105.154 434.514 105.154C436.364 105.154 437.861 105.8 439.006 107.092ZM437.377 115.945C438.052 115.035 438.39 113.743 438.39 112.069C438.39 110.572 438.037 109.368 437.332 108.458C436.628 107.518 435.688 107.048 434.514 107.048C433.369 107.048 432.444 107.503 431.739 108.414C431.034 109.324 430.697 110.63 430.726 112.333C430.726 113.86 431.064 115.079 431.739 115.989C432.444 116.899 433.383 117.354 434.558 117.354C435.732 117.354 436.672 116.885 437.377 115.945Z" fill="white"/>
<path d="M450.987 105.154C449.578 105.154 448.491 105.756 447.728 106.96L447.684 105.419H445.438V118.984H447.772V109.338C448.301 108.047 449.328 107.401 450.855 107.401C451.266 107.401 451.648 107.43 452 107.489V105.33C451.765 105.213 451.428 105.154 450.987 105.154Z" fill="white"/>
</svg>
