<svg xmlns="http://www.w3.org/2000/svg" width="249" height="81" fill="none" xmlns:v="https://vecta.io/nano"><path fill-rule="evenodd" d="M93.109 56.518l-.189-.158.004-.004.17.145.014.018zm.1.079l-.114-.097-.142-.173.017-.017.239.287zm0 0l.051.043.71-.9-.62-.46-.68.86.013.011c-.296.232-.604.449-.923.649h.07l.42.65 1-.76-.141-.172.111.092-.011-.013zM4.34 4.3L3.1 0 0 3.22l2.043.508A20.49 20.49 0 0 0 2 6h.76a19 19 0 0 1 .042-2.083L4.34 4.3zm102.052 44.848l.078.162.7-.31-.51-1.05-.69.36.422.838zm-2.812-4.728l1.27 1.89.66-.41-1.3-1.93-.63.45zm-2.94-3.46l1.54 1.67.59-.5-1.58-1.72-.55.55zm-2.582-2.267l.942.747.49-.6-1.86-1.41-.44.64.512.362-.462.078c.123.725.207 1.456.25 2.19l.78-.05-.212-1.957zM93.23 35.96a19.91 19.91 0 0 1 2 .94l.41-.66a18.62 18.62 0 0 0-2.13-1l-.28.72zm-4.45-1.09c.748.083 1.49.217 2.22.4l.19-.75c-.763-.193-1.538-.333-2.32-.42l-.09.77zm-4.5.03c.746-.097 1.498-.15 2.25-.16l.03-.74a18.93 18.93 0 0 0-2.38.13l.1.77zm-4.4 1.05c.715-.251 1.443-.464 2.18-.64l-.18-.76-2.25.67.25.73zm-4.08 1.83l2-1-.28-.68c-.69.27-1.38.62-2.09 1l.37.68zm-3.9 2.42l1.9-1.27-.41-.65-1.93 1.29.44.63zm-1.849 1.385l.019-.015v.04l-.019-.025zm-.881.715l.881-.715L69.6 41l-.92.7.019.024c-.338.261-.662.54-.969.836l.55.54c.28-.284.578-.551.89-.8zm-2.94 4.9a5.49 5.49 0 0 1 .65-2.2l-.69-.36a6.45 6.45 0 0 0-.73 2.5l.77.06zm1.45 4.26a8 8 0 0 1-1.12-2v-.05l-.73.26a9.08 9.08 0 0 0 1.22 2.25l.63-.46zm3.49 3.3a17.93 17.93 0 0 1-1.89-1.49l-.02.01-.52.57c.629.564 1.297 1.082 2 1.55l.43-.64zM75.48 57a19.95 19.95 0 0 1-2.2-1v.02l-.36.69.039.018 2.231.982.29-.71zm4.65 1.38l-2.36-.57-.22.74c.8.24 1.61.43 2.43.59l.15-.76zm4.81.33c-.803.045-1.607.045-2.41 0l-.09.72c.831.07 1.666.09 2.5.06v-.78zm4.7-.85c-.749.282-1.522.496-2.31.64l.15.76c.827-.155 1.64-.379 2.43-.67l-.27-.73zm5.91-6.43c-.31.71-.65 1.37-1 2l.71.36c.369-.665.703-1.35 1-2.05l-.71-.31zm1.37-4.13l-.59 2.13.74.24.61-2.2-.76-.17zm.6-4.39l-.19 2.21.77.07c.103-.756.166-1.517.19-2.28h-.77zm-.779-6.628l.02.069-.05-.06.031-.008zm0 0l.719-.202c-.206-.737-.453-1.461-.74-2.17l-.72.29a17.59 17.59 0 0 1 .74 2.081zm-2.81-5.861c.427.596.818 1.217 1.17 1.86l.68-.37a19.01 19.01 0 0 0-1.22-1.94l-.63.45zm-2.96-3.26a20.76 20.76 0 0 1 1.57 1.54l.57-.52a20.51 20.51 0 0 0-1.63-1.6l-.51.58zm-3.6-2.54c.64.36 1.26.76 1.87 1.18l.44-.63a20.44 20.44 0 0 0-1.93-1.22l-.38.67zm-4.03-1.85l2.06.84.32-.7-2.11-.86-.27.72zm-4.32-1.31l2.16.54.21-.75-2.2-.55-.17.76zm-4.39-.71l2.21.3.12-.77-2.25-.3-.08.77zm-3.516-.242l1.276.052.04-.78-.308-.017-1.962-.073v.77l.954.048zM66.8 20.45h1.14l.01.01v-.78h-1.16v.77h-.03v-.77l-1.2.08.06.77 1.18-.08zm-5.94.61l2.38-.29-.09-.77-2.39.29.1.77zm-4.74.71l2.37-.37h.01l-.12-.77L56 21l.12.77zm-4.73.82l2.36-.42-.13-.77-2.37.43.14.76zm-4.74.97l2.35-.48-.15-.76-2.36.48.16.76zM42 24.6l2.3-.52-.12-.77-2.35.53.17.76zm-4.69 1.18l2.32-.6-.18-.75-2.34.6.2.75zm-3.41.96l1.15-.34-.22-.74-1.15.34-1.16.31.18.76 1.2-.33zm-6.1.97c.826-.018 1.651-.082 2.47-.19l-.08-.77a21.19 21.19 0 0 1-2.39.19v.77zm-4.93-.36l2.46.3.06-.77c-.798-.059-1.592-.159-2.38-.3l-.14.77zm-4.76-1.28l2.35.74.2-.74-2.28-.73-.27.73zm-4.46-2.11l2.18 1.15.33-.7-2.12-1.12-.39.67zm-4.01-2.88l1.94 1.53.45-.63-.11-.083-1.77-1.407-.51.59zm-3.39-3.6c.504.657 1.041 1.288 1.61 1.89l.56-.54L6.87 17l-.62.48zm-2.54-4.24c.339.755.723 1.49 1.15 2.2l.66-.44c-.408-.672-.779-1.367-1.11-2.08l-.7.32zm-.854-2.331l-.036.011.036-.011zm0 0l.704-.219A19.94 19.94 0 0 1 3 8.38l-.72.13c.138.812.331 1.613.576 2.399zm222.543 50.488l.293 2.369c-.003.199.044.322.143.371.099.06.218.083.357.069.127-.013.227-.058.301-.136.087-.067.114-.198.083-.394l-.259-2.197-.248-2.443-.231-2.445-.21-2.237c-.017-.173-.081-.278-.189-.313a.72.72 0 0 0-.39-.048c-.035.003-.098.016-.189.037a.43.43 0 0 0-.154.033c-.02.726.006 1.499.078 2.321l.273 2.511.342 2.504zm-1.239-10.291c-.088.056-.124.153-.11.291.021.208.072.366.153.475.093.107.193.173.3.197.118.011.227-.011.326-.068.098-.068.175-.17.232-.304a1.45 1.45 0 0 0-.14-.511c-.073-.144-.225-.205-.456-.181-.115.012-.217.045-.305.101zm14.046 7.956l-.255.078c-.113.035-.234.053-.362.054a.74.74 0 0 1-.34-.071c-.11-.047-.172-.14-.186-.279-.008-.081.003-.14.035-.179s.083-.096.157-.174c.233-.234.42-.521.56-.862.151-.354.283-.723.395-1.108l.354-1.174c.134-.399.296-.76.485-1.082a2.61 2.61 0 0 1 .74-.81c.305-.218.695-.345 1.17-.382.196-.02.42.004.672.072s.49.172.715.313c.223.129.415.296.576.502a1.34 1.34 0 0 1 .282.707c.067.087.023.225-.133.416-.144.19-.35.403-.618.64l-.924.724-.98.695-.834.575c-.24.165-.397.286-.471.363a1.78 1.78 0 0 0-.098.413l-.043.442.002.367.025.243.039.731a4.13 4.13 0 0 0 .113.759c.069.226.187.413.354.559.165.135.427.184.785.148.382-.039.73-.167 1.047-.386a5.04 5.04 0 0 0 .863-.806c.261-.307.49-.633.688-.98l.55-.966.448-.763c.131-.2.249-.305.353-.316.115-.012.239-.001.37.032.143.021.221.106.237.256.021.208-.041.465-.185.772a5.73 5.73 0 0 1-.565.985c-.233.35-.512.706-.837 1.066-.315.347-.638.666-.971.956a7.71 7.71 0 0 1-.995.714c-.331.185-.63.292-.895.319-.52.053-.926-.034-1.218-.261s-.514-.525-.668-.895c-.143-.371-.242-.769-.297-1.195l-.14-1.211zm2.713-5.003c-.197.02-.395.139-.594.358-.201.207-.386.459-.554.756-.158.285-.285.578-.383.879-.087.289-.122.526-.103.711.173-.018.415-.106.726-.266.321-.173.633-.374.936-.603a5.55 5.55 0 0 0 .786-.71c.22-.244.321-.464.301-.661a.33.33 0 0 0-.148-.248 1.05 1.05 0 0 0-.312-.143c-.109-.036-.222-.059-.34-.071s-.223-.012-.315-.003zm-12.428 9.72l-.22-1.308-.253-1.795-.294-2.036-.291-2.001-.315-1.719-.282-1.232c-.024-.231.015-.369.115-.414.099-.057.23-.093.391-.11l.156-.016c.081-.008.14-.008.175 0 .14.336.249.78.328 1.332l.251 1.778.256 2.005.323 1.963.167-2.31.166-1.47c.066-.38.131-.661.195-.843.073-.194.159-.325.257-.394a.67.67 0 0 1 .357-.106l.485-.049a.61.61 0 0 1 .527.192c.155.148.281.345.376.592.106.246.192.517.258.814l.211.871.181.752c.07.226.156.381.257.464l.532-2.172.407-1.337c.118-.339.227-.583.328-.734s.198-.242.288-.274a.36.36 0 0 1 .24-.042c.084.015.166.018.247.01.311-.032.565.106.759.413.238.501.416.985.533 1.452a11.16 11.16 0 0 1 .259 1.339l.125 1.23.151 1.14a6.95 6.95 0 0 0 .301 1.072c.141.347.35.682.627 1.004-.073.194-.153.331-.238.409-.087.067-.211.109-.372.125a.53.53 0 0 1-.378-.102 1.38 1.38 0 0 1-.297-.337 3.5 3.5 0 0 1-.219-.433l-.145-.388-.611-3.772c-.183-.88-.375-1.333-.576-1.36s-.416.386-.644 1.239c-.218.839-.465 2.148-.739 3.927-.029.061-.077.101-.145.12a1.4 1.4 0 0 1-.224.04l-.225.023a.63.63 0 0 0-.208.021l-1.1-3.582c-.261-.732-.481-1.001-.659-.808s-.335.839-.469 1.938l-.479 4.583-.846.296zm-8.092-6.601c-.109.07-.212.144-.309.224l-.26.202c-.088.056-.177.1-.267.132s-.188.042-.294.03c-.07.007-.131-.027-.186-.104a1.28 1.28 0 0 1-.134-.284c-.046-.112-.08-.219-.103-.322-.023-.114-.032-.201-.026-.26l1.567-1.122-.347-4.447c.008-.153.094-.22.259-.202.164.007.336.024.513.053.024-.002.059.006.108.024a.54.54 0 0 1 .125.022l.017 1.031.042 1.099.055 1.062c.035.347.084.657.147.93l2.526-.992c.045-.016.083.015.114.093.042.066.079.15.113.251.045.1.079.202.101.305l.033.154-2.819 1.547.093.743.212 1.397.246 1.726.243 1.709.195 1.398.093.743c.012.349-.074.533-.259.551-.173.018-.373-.05-.598-.202l-1.2-7.494zm-13.063 1.52c.097-.08.2-.155.31-.224l1.199 7.494c.225.152.425.219.598.202.185-.019.271-.203.259-.552l-.093-.743-.194-1.398-.244-1.709-.246-1.726-.212-1.397-.093-.743 2.819-1.547-.033-.154a1.53 1.53 0 0 0-.101-.305 1.1 1.1 0 0 0-.113-.251c-.031-.078-.069-.11-.114-.093l-2.526.992a7.76 7.76 0 0 1-.147-.931l-.055-1.062-.042-1.099-.017-1.031a.54.54 0 0 0-.125-.022c-.048-.018-.084-.026-.107-.024a4.36 4.36 0 0 0-.513-.053c-.166-.018-.252.049-.26.202l.347 4.447-1.567 1.122c-.006.059.003.146.026.26.023.103.057.21.103.322.034.102.079.196.134.284.055.076.116.111.186.104.106.013.204.003.294-.03s.179-.076.267-.132l.26-.202zm-4.561 7.484c.001.012.116-.07.343-.245.239-.176.514-.402.824-.679l.974-.922c.328-.337.594-.65.798-.939s.302-.527.295-.713c.003-.199-.166-.31-.507-.334-.421-.015-.773.026-1.055.125-.27.098-.516.204-.738.32l-.632.327c-.188.101-.405.152-.65.154-.508.052-.876-.069-1.104-.361-.218-.305-.354-.728-.409-1.271a3.4 3.4 0 0 1 .207-1.579c.192-.521.46-.981.805-1.377a4.39 4.39 0 0 1 1.231-.983c.474-.27.971-.431 1.491-.484.208-.021.389-.022.543-.003s.242.145.265.376c.017.162-.037.325-.16.489-.124.153-.273.238-.447.255a.53.53 0 0 1-.088-.009.91.91 0 0 1-.148-.072c-.049-.03-.098-.048-.145-.055-.049-.018-.079-.027-.09-.026-.381-.066-.733.022-1.059.265s-.608.558-.849.944c-.231.373-.406.777-.525 1.209-.121.421-.165.793-.132 1.116.013.127.047.229.101.305.065.063.14.108.224.135a1.22 1.22 0 0 0 .302.039l.346-.035c.231-.024.459-.082.683-.175.235-.094.458-.198.668-.313l.669-.313c.235-.094.48-.154.734-.18.116-.012.246.01.392.065.145.044.281.123.409.238a1.57 1.57 0 0 1 .337.386 1.21 1.21 0 0 1 .19.489c.086.155.084.371-.004.648-.077.276-.21.576-.399.898s-.424.656-.704.999l-.851.927c-.287.274-.573.502-.859.683-.283.192-.53.293-.739.303-.231.023-.377-.032-.437-.166a1.95 1.95 0 0 1-.1-.463zm-9.246-7.376l.014.139 2.039 7.829c.081.108.182.186.304.232a.92.92 0 0 0 .39.048.65.65 0 0 0 .338-.122.29.29 0 0 0 .112-.274c.043-.833.038-1.638-.018-2.414l-.064-2.182c.002-.666.06-1.249.172-1.751.124-.503.382-.891.775-1.164.094-.103.256-.178.484-.224l.706-.124c.24-.048.456-.105.648-.171.19-.078.278-.192.262-.342-.038-.381-.237-.554-.595-.517-.786-.037-1.428.075-1.927.336-.488.248-.856.647-1.103 1.198-.237.538-.366 1.222-.387 2.053-.022.819.041 1.782.188 2.887-.084-.143-.17-.356-.257-.639l-.272-.953-.274-1.145-.258-1.164-.224-.993-.178-.717c-.058-.111-.128-.168-.21-.171-.083-.015-.171-.018-.263-.008a.69.69 0 0 0-.305.101c-.076.055-.108.139-.097.255zm-1.247 8.355l-.293-2.369-.342-2.504-.273-2.511c-.072-.821-.098-1.595-.078-2.321.021-.014.073-.025.154-.033l.189-.037c.161-.016.291-.001.39.048.108.036.171.14.189.313l.21 2.237.231 2.445.248 2.443.259 2.197c.031.195.004.326-.083.394-.074.078-.174.123-.301.136-.139.014-.258-.009-.357-.069-.099-.048-.146-.172-.143-.371zm-1.642-12.368c-.014-.139.022-.236.11-.291s.189-.089.305-.101c.231-.023.383.037.456.181a1.43 1.43 0 0 1 .139.511c-.056.134-.133.235-.231.304a.54.54 0 0 1-.326.068c-.107-.024-.208-.09-.3-.197-.081-.108-.132-.267-.153-.475zm-4.216 6.923c.088-.056.155-.086.201-.09.011-.001.019.021.024.068l.081.797.142 1.053.254 1.637.415 2.356c.043.194.102.322.179.385.075.051.182.069.321.055.15-.015.255-.073.315-.172.058-.111.087-.236.084-.376.009-.141.001-.28-.025-.418l-.035-.347c-.002-.362-.038-.72-.109-1.074l-.245-1.201-.326-1.49-.34-1.961a3.1 3.1 0 0 1 .554-.231l.679-.209.73-.232c.235-.094.438-.22.609-.377a1.51 1.51 0 0 0 .413-.585c.105-.232.141-.516.107-.851-.278.028-.561.115-.849.261l-.764.41a1.64 1.64 0 0 0-.329.209l-.327.226-.416.217c-.144.073-.329.15-.554.231l-.055-1.92-.043-1.974.041-1.667c.044-.483.12-.823.228-1.021.12-.199.283-.209.487-.032.216.165.498.586.846 1.262.013.01.025.015.037.014l.052-.005c.138-.014.224-.087.258-.219.043-.145.059-.275.048-.39-.021-.208-.085-.435-.192-.681-.095-.247-.223-.468-.382-.661-.161-.205-.347-.367-.558-.486a1.06 1.06 0 0 0-.681-.158c-.358-.08-.631.047-.819.381s-.323.786-.405 1.354c-.072.556-.107 1.184-.106 1.884l.084 2.04.177 1.733.157 1.034c-.06.099-.16.203-.301.311l-.42.34a3.97 3.97 0 0 0-.367.352c-.094.115-.135.23-.123.345.014.139.064.227.15.265a.69.69 0 0 0 .319.038c.069-.007.147-.038.235-.094l.263-.167a2.22 2.22 0 0 1 .281-.169zm-16.392-.382l-.014-.139c-.012-.116.02-.201.096-.255.088-.056.19-.089.305-.101a.95.95 0 0 1 .264.008c.082.003.152.06.21.171a9.1 9.1 0 0 1 .177.717l.224.993.258 1.164.274 1.145.272.953c.087.283.173.496.258.639-.148-1.105-.21-2.068-.189-2.887.021-.831.15-1.515.387-2.053.247-.55.615-.95 1.104-1.198.498-.261 1.141-.373 1.926-.336.359-.036.557.136.596.517.015.15-.073.264-.263.342-.192.066-.408.123-.648.171l-.705.124c-.229.047-.391.121-.485.224-.393.273-.651.661-.775 1.164-.112.502-.17 1.085-.172 1.751l.064 2.182a19.36 19.36 0 0 1 .018 2.414c.012.115-.026.207-.112.274s-.199.108-.338.122a.92.92 0 0 1-.39-.048c-.121-.046-.223-.123-.304-.232l-2.038-7.829zm-4.414 4.931c.05.497.143 1.007.278 1.53l.067.659c.038.264.1.527.185.786.095.247.221.456.378.627.157.159.368.225.633.198.49-.12.899-.342 1.228-.668a3.42 3.42 0 0 0 .792-1.166c.187-.451.319-.937.394-1.458a9.14 9.14 0 0 0 .083-1.602c-.02-.535-.078-1.054-.176-1.558-.088-.516-.198-.972-.332-1.367l-.378-.627a3.76 3.76 0 0 0-.509-.701c-.186-.215-.39-.392-.615-.533s-.463-.198-.718-.172a1.07 1.07 0 0 0-.356.106c-.123.059-.238.135-.345.228a.81.81 0 0 0-.249.305.61.61 0 0 0-.069.357l-.248 1.863-.113 1.64a13.93 13.93 0 0 0 .07 1.551zm1.19 1.717l-.034-.329-.179-1.592-.136-1.509c-.037-.475-.046-.912-.028-1.31a4.6 4.6 0 0 1 .142-1.012c.087-.289.212-.5.373-.633.173-.134.391-.174.653-.119.151-.015.277.024.38.119s.192.226.268.393a2.47 2.47 0 0 1 .177.542 5.17 5.17 0 0 1 .13.582l.068.501.035.347.041.749c.019.301.018.634-.003.998-.011.351-.044.716-.099 1.096-.056.367-.138.709-.246 1.023a2.37 2.37 0 0 1-.431.761c-.177.205-.405.321-.682.35l-.104.011-.158-.352-.101-.305-.066-.308zm-6.074-3.726c-.046.005-.113.035-.201.09a2.2 2.2 0 0 0-.28.169l-.263.167c-.088.056-.167.087-.236.094a.69.69 0 0 1-.319-.038c-.086-.038-.135-.126-.149-.265-.012-.115.029-.231.122-.345a3.97 3.97 0 0 1 .367-.352l.421-.34c.14-.108.241-.211.301-.311-.042-.183-.095-.527-.158-1.034l-.176-1.733-.085-2.04c-.001-.7.034-1.328.106-1.884.082-.569.217-1.02.405-1.354s.461-.461.819-.381c.243-.025.47.028.682.158.21.119.396.281.557.486a2.36 2.36 0 0 1 .382.661c.107.246.171.473.192.681.012.115-.004.245-.048.39a.27.27 0 0 1-.258.219l-.052.005c-.011.001-.023-.003-.036-.014-.349-.676-.631-1.097-.846-1.262-.205-.178-.367-.167-.487.032-.108.198-.185.538-.229 1.021l-.041 1.667.043 1.974.055 1.92c.226-.081.41-.158.555-.231l.415-.217.327-.226a1.64 1.64 0 0 1 .329-.209 8.85 8.85 0 0 1 .764-.41c.289-.146.572-.233.849-.261.034.335-.001.619-.106.851a1.51 1.51 0 0 1-.413.585 1.96 1.96 0 0 1-.61.377l-.729.232-.679.209c-.215.069-.4.146-.554.231l.339 1.961.326 1.49.245 1.201c.071.355.107.713.109 1.074l.035.347c.026.138.034.277.025.418.003.14-.025.265-.084.376-.06.099-.165.157-.315.172-.139.014-.246-.004-.321-.055-.076-.062-.136-.19-.179-.384l-.414-2.356-.254-1.637-.143-1.053-.081-.797c-.004-.046-.012-.069-.024-.068zm-11.205 5.324l.357-.964.501 4.413c.031.078.083.132.156.159.074.039.146.055.215.048.185-.019.275-.104.272-.255a2.43 2.43 0 0 0-.006-.402l-.443-4.017-.48-4.03-.45-4.086-.409-4.195c-.037-.02-.114-.029-.231-.029a1.57 1.57 0 0 0-.329.033.85.85 0 0 0-.319.137c-.087.056-.126.135-.115.239l.227 1.378.315 1.719.278 1.705c.079.541.117.974.115 1.301-.674-.083-1.233-.015-1.677.206s-.802.548-1.073.984c-.26.435-.446.95-.561 1.545-.103.594-.156 1.224-.158 1.889a18.33 18.33 0 0 0 .095 1.969l.254 1.813a3.46 3.46 0 0 1 .264.358 2.13 2.13 0 0 0 .238.273c.089.073.182.127.279.164.108.024.248.027.421.01.382-.039.717-.184 1.007-.435s.534-.544.733-.88a6.01 6.01 0 0 0 .524-1.051zm-1.86-5.378c.28-.344.6-.522.961-.535.162-.017.287.07.376.259.101.188.176.408.225.66s.081.505.095.761l.039.556c.015.15.009.378-.018.685a8.12 8.12 0 0 1-.127.993l-.232 1.162c-.1.395-.226.758-.379 1.089a3.57 3.57 0 0 1-.528.841c-.199.219-.426.341-.68.367-.27-.124-.477-.389-.624-.794-.134-.406-.217-.877-.248-1.41-.02-.547.009-1.116.089-1.707.079-.603.203-1.159.374-1.666.181-.509.407-.928.677-1.259zm-3.372 7.836l-.293-2.369-.342-2.504-.273-2.511c-.071-.821-.097-1.595-.078-2.321.022-.014.074-.025.154-.033l.189-.037a.72.72 0 0 1 .39.048c.109.036.172.14.19.313l.21 2.237.231 2.445.248 2.443.258 2.197c.032.195.004.326-.082.394-.074.078-.175.123-.302.136-.138.014-.257-.009-.357-.069-.098-.048-.146-.172-.143-.371zm-1.642-12.368c-.014-.139.023-.236.111-.291s.189-.089.305-.101c.231-.023.383.037.456.181a1.45 1.45 0 0 1 .139.511c-.056.134-.134.235-.232.304-.099.057-.207.08-.325.068a.56.56 0 0 1-.3-.197c-.082-.108-.133-.267-.154-.475zm-.81 10.061l.047 2.009c.007.069.043.141.109.216a.93.93 0 0 0 .266.201.87.87 0 0 0 .357.069c.127-.013.267-.068.421-.165.01-.013.007-.106-.011-.279l-.044-.433-.905-6.841-1.164-6.797c-.044-.089-.096-.142-.156-.159-.061-.029-.132-.039-.213-.031a.55.55 0 0 0-.27.098c-.066.042-.148.102-.245.182.121.385.251.914.389 1.589l.444 2.301.416 2.706.335 2.785.224 2.551zm-1.852 2.639l-.265-1.059-.251-1.27-.299-1.213c-.096-.375-.22-.678-.372-.908l-1.271 3c-.381.727-.73 1.259-1.046 1.594-.306.323-.574.49-.807.502s-.433-.073-.603-.254-.305-.418-.405-.712l-.21-.854c-.025-.254-.004-.618.065-1.092s.173-.992.314-1.555c.14-.574.314-1.158.523-1.751.219-.594.462-1.138.727-1.632s.549-.908.854-1.242.624-.519.959-.553c.488-.131.864-.059 1.125.218.272.264.368.75.288 1.459l.286 1.949.366 1.538.367 1.538c.124.536.225 1.185.303 1.948.014.139.009.262-.015.369-.014.095-.148.155-.402.181-.035.003-.084-.021-.147-.073-.052-.053-.08-.097-.084-.132zm-1.723-7.651c-.146-.172-.321-.172-.525.001s-.41.444-.617.816-.414.812-.619 1.323l-.56 1.545-.428 1.479c-.117.455-.19.83-.218 1.125.042.416.13.646.263.691.132.033.28-.052.447-.255s.347-.49.542-.861a12.95 12.95 0 0 0 .581-1.179l.525-1.209.393-.95c.08-.253.138-.487.174-.701l.079-.603a2.59 2.59 0 0 0 .009-.596l-.046-.626zm-10.409 2.127a.15.15 0 0 1 .023.05c.102.2.284.502.547.907l.907 1.343 1.099 1.516 1.089 1.413.929 1.044c.272.264.467.402.585.413.035-.004.092-.015.171-.035.092-.021.182-.048.272-.08l.253-.096c.078-.043.127-.077.147-.103-.104-.678-.175-1.383-.214-2.114l-.087-2.232-.111-2.3-.233-2.287c-.019-.185-.111-.292-.278-.322a1.71 1.71 0 0 0-.475-.022c-.127.013-.228.047-.304.101-.065.053-.087.184-.066.392l.013.121c.016.045.032.148.049.31l.087.691.087 1.199.121 1.879.117 2.702c-.235-.128-.49-.341-.765-.64l-.802-1.004-.784-1.163-.74-1.08c-.233-.338-.441-.603-.624-.794-.184-.203-.339-.298-.466-.285-.116.012-.241.042-.376.091-.136.037-.196.142-.178.316l.007.069zm-14.907.289l-.015-.139c-.011-.115.021-.2.097-.255a.69.69 0 0 1 .305-.101c.092-.009.18-.007.263.008.082.003.152.06.21.171a8.6 8.6 0 0 1 .178.717l.224.993.258 1.164.274 1.145.272.953c.087.283.173.496.258.639-.148-1.106-.211-2.068-.189-2.887.021-.831.15-1.515.387-2.053.247-.55.615-.95 1.104-1.198.498-.261 1.141-.373 1.926-.336.358-.036.557.136.596.517.015.15-.073.264-.263.342a4.98 4.98 0 0 1-.648.171l-.705.124c-.229.047-.391.121-.485.224-.393.273-.651.661-.775 1.164-.112.502-.17 1.085-.172 1.751l.064 2.182c.056.776.062 1.581.018 2.414.012.115-.026.207-.112.274s-.199.108-.338.122a.92.92 0 0 1-.39-.048.67.67 0 0 1-.304-.232l-2.038-7.829zm-7.48 5.47l.255-.078.141 1.211c.055.426.153.825.296 1.195.154.37.377.668.669.895s.697.314 1.217.261c.266-.027.564-.133.895-.319.331-.197.662-.435.996-.714a11.86 11.86 0 0 0 .971-.957c.325-.36.604-.715.837-1.065.244-.352.432-.68.565-.985.144-.306.205-.564.184-.772-.015-.15-.094-.236-.236-.256a1.07 1.07 0 0 0-.371-.032c-.104.011-.222.116-.353.316l-.448.763-.549.966a6.48 6.48 0 0 1-.688.98 5.04 5.04 0 0 1-.864.805 2.2 2.2 0 0 1-1.046.386c-.358.036-.62-.013-.786-.148-.166-.146-.284-.333-.354-.559a4.13 4.13 0 0 1-.112-.759l-.039-.731-.025-.243-.002-.367.042-.442a1.83 1.83 0 0 1 .098-.413c.074-.078.231-.199.471-.363l.835-.575.979-.695.925-.724c.267-.237.473-.451.617-.64.156-.191.2-.33.133-.416a1.34 1.34 0 0 0-.282-.707 2 2 0 0 0-.576-.502 2.61 2.61 0 0 0-.714-.312c-.252-.068-.477-.092-.673-.072-.475.037-.865.164-1.169.381a2.6 2.6 0 0 0-.741.811c-.189.323-.35.683-.485 1.082l-.353 1.174c-.113.385-.245.754-.395 1.108-.141.341-.328.629-.561.862l-.157.174c-.031.038-.043.098-.034.178.014.139.076.232.185.279.099.048.212.072.34.07s.249-.02.362-.054zm2.374-4.723c.2-.219.398-.338.594-.358.092-.009.198-.008.315.003s.232.035.34.071c.12.034.224.082.312.143s.138.144.148.248c.02.196-.08.417-.3.661s-.483.481-.786.71-.616.43-.937.603c-.31.16-.552.249-.725.266-.019-.185.015-.422.102-.711a4.97 4.97 0 0 1 .384-.879c.168-.297.352-.549.553-.757zm-7.657 2.528c-.046.005-.113.035-.201.09-.089.044-.182.1-.281.169l-.263.167a.56.56 0 0 1-.236.094.69.69 0 0 1-.319-.038c-.086-.038-.135-.126-.15-.265-.012-.115.029-.231.123-.345.105-.116.227-.233.367-.352l.421-.34c.141-.108.241-.211.301-.311-.042-.182-.094-.527-.158-1.034l-.176-1.733-.085-2.04c-.001-.7.034-1.328.106-1.884.082-.569.217-1.02.405-1.354s.461-.461.819-.381c.243-.025.47.028.682.158.21.119.396.281.557.486a2.36 2.36 0 0 1 .382.661c.107.246.171.473.192.681.012.115-.004.246-.048.39a.27.27 0 0 1-.258.219l-.052.005c-.011.001-.023-.003-.036-.014-.349-.676-.631-1.097-.846-1.262-.205-.178-.367-.167-.487.032-.108.198-.185.538-.229 1.021l-.041 1.667.043 1.974.056 1.92a5.12 5.12 0 0 0 .554-.231l.415-.217.328-.226a1.61 1.61 0 0 1 .328-.209c.231-.14.486-.277.764-.41.289-.146.572-.233.849-.261.034.335-.001.619-.106.851a1.51 1.51 0 0 1-.413.585 1.96 1.96 0 0 1-.61.377l-.729.232-.679.209c-.215.069-.4.146-.554.231l.339 1.961.326 1.49.245 1.201a5.54 5.54 0 0 1 .109 1.074l.035.346c.026.138.034.277.025.418.003.14-.025.265-.084.376-.06.099-.165.157-.315.172-.139.014-.246-.004-.321-.055-.076-.062-.136-.19-.179-.384l-.414-2.356-.254-1.637-.142-1.053-.081-.797c-.005-.046-.013-.069-.025-.068zm-6.338.714c.088-.056.155-.086.201-.09.012-.001.02.021.024.067l.081.797.142 1.053.254 1.637.415 2.356c.043.194.103.322.179.385.075.051.182.069.321.055.15-.015.255-.073.315-.172.059-.111.087-.236.084-.376.009-.141.001-.28-.025-.418l-.035-.347c-.002-.362-.038-.72-.109-1.074l-.245-1.201-.326-1.49-.339-1.961a3.07 3.07 0 0 1 .554-.231l.679-.209.729-.232a1.96 1.96 0 0 0 .61-.377 1.51 1.51 0 0 0 .413-.585c.105-.232.14-.516.106-.851-.277.028-.56.115-.849.261l-.764.41c-.122.059-.232.129-.329.209l-.327.226-.416.217a5.05 5.05 0 0 1-.554.231l-.055-1.92-.043-1.974.041-1.667c.044-.483.12-.823.229-1.021.12-.199.282-.21.487-.032.215.165.497.585.846 1.262.013.01.025.015.036.014l.052-.005a.27.27 0 0 0 .258-.219c.044-.145.06-.275.048-.39-.021-.208-.085-.435-.192-.681a2.37 2.37 0 0 0-.382-.661 1.88 1.88 0 0 0-.557-.486 1.06 1.06 0 0 0-.681-.158c-.358-.08-.631.047-.819.381s-.323.786-.405 1.354c-.072.556-.107 1.184-.106 1.884l.085 2.04.176 1.733.158 1.034c-.06.099-.16.203-.301.311l-.421.34c-.14.119-.262.237-.367.352-.093.115-.134.23-.122.345.014.139.064.227.149.265a.69.69 0 0 0 .319.038c.069-.007.148-.038.236-.094l.263-.167a2.23 2.23 0 0 1 .281-.169zm-5.505 4.552c-.135-.523-.228-1.033-.278-1.53a14.05 14.05 0 0 1-.07-1.551l.113-1.64.248-1.864c-.013-.127.01-.246.069-.357a.8.8 0 0 1 .249-.305c.107-.093.222-.168.344-.228s.241-.095.357-.106c.254-.026.493.032.718.172s.429.318.614.533c.197.213.366.447.509.701l.379.627c.134.395.244.851.332 1.367.098.504.156 1.023.176 1.558s-.008 1.069-.082 1.602c-.075.521-.207 1.007-.394 1.458a3.41 3.41 0 0 1-.792 1.166c-.329.325-.738.548-1.228.668-.266.027-.477-.039-.633-.198-.157-.171-.284-.38-.379-.627-.085-.26-.146-.522-.185-.787l-.067-.659zm.878-.142l.034.329.066.308.101.305.158.352.104-.011c.277-.028.505-.145.682-.349a2.38 2.38 0 0 0 .43-.762 5.86 5.86 0 0 0 .246-1.023c.055-.379.088-.744.099-1.095a8.3 8.3 0 0 0 .004-.998l-.041-.749-.035-.347-.068-.501c-.032-.195-.075-.389-.129-.582-.044-.206-.103-.386-.178-.542-.075-.167-.165-.298-.267-.393s-.23-.134-.38-.119c-.262-.055-.48-.015-.653.119-.162.133-.286.344-.373.633-.077.276-.124.614-.142 1.012a10.82 10.82 0 0 0 .028 1.31l.136 1.509.179 1.593z" fill="#fff"/></svg>