<svg width="12" height="4" viewBox="0 0 12 4" fill="none" xmlns="http://www.w3.org/2000/svg">
<path d="M1.33341 1.08334H10.6667C10.9099 1.08334 11.143 1.17992 11.3149 1.35183M1.33341 1.08334L11.3149 1.35183M1.33341 1.08334C1.0903 1.08334 0.857142 1.17992 0.685234 1.35183C0.513325 1.52374 0.416748 1.75689 0.416748 2.00001C0.416748 2.24313 0.513325 2.47628 0.685234 2.64819C0.857142 2.8201 1.0903 2.91668 1.33341 2.91668H10.6667C10.9099 2.91668 11.143 2.8201 11.3149 2.64819C11.4868 2.47628 11.5834 2.24312 11.5834 2.00001C11.5834 1.7569 11.4868 1.52374 11.3149 1.35183M1.33341 1.08334L11.3149 1.35183" fill="#2A3646" stroke="#2A3646" stroke-width="0.5"/>
</svg>
