<svg width="24" height="24" viewBox="0 0 24 24" fill="none" xmlns="http://www.w3.org/2000/svg">
<path d="M8 16.75H5.43C2.73 16.75 1.25 15.27 1.25 12.57V5.43C1.25 2.73 2.73 1.25 5.43 1.25H10C12.69 1.25 14.18 2.73 14.18 5.43C14.18 5.62891 14.101 5.81968 13.9603 5.96033C13.8197 6.10098 13.6289 6.18 13.43 6.18C13.2311 6.18 13.0403 6.10098 12.8997 5.96033C12.759 5.81968 12.68 5.62891 12.68 5.43C12.68 3.55 11.88 2.75 10 2.75H5.43C3.55 2.75 2.75 3.55 2.75 5.43V12.57C2.75 14.45 3.55 15.25 5.43 15.25H8C8.19891 15.25 8.38968 15.329 8.53033 15.4697C8.67098 15.6103 8.75 15.8011 8.75 16C8.75 16.1989 8.67098 16.3897 8.53033 16.5303C8.38968 16.671 8.19891 16.75 8 16.75Z" fill="black" stroke="black" stroke-width="0.4"/>
<path d="M18.5703 22.75H14.0003C11.3103 22.75 9.82031 21.27 9.82031 18.57V11.43C9.82031 8.73 11.3103 7.25 14.0003 7.25H18.5703C21.2703 7.25 22.7503 8.73 22.7503 11.43V18.57C22.7503 21.27 21.2703 22.75 18.5703 22.75ZM14.0003 8.75C12.1203 8.75 11.3203 9.55 11.3203 11.43V18.57C11.3203 20.45 12.1203 21.25 14.0003 21.25H18.5703C20.4503 21.25 21.2503 20.45 21.2503 18.57V11.43C21.2503 9.55 20.4503 8.75 18.5703 8.75H14.0003Z" fill="black" stroke="black" stroke-width="0.4"/>
<path d="M18.0546 15.5H13.9454C13.6946 15.5 13.4542 15.421 13.2769 15.2803C13.0996 15.1397 13 14.9489 13 14.75C13 14.5511 13.0996 14.3603 13.2769 14.2197C13.4542 14.079 13.6946 14 13.9454 14H18.0546C18.3054 14 18.5458 14.079 18.7231 14.2197C18.9004 14.3603 19 14.5511 19 14.75C19 14.9489 18.9004 15.1397 18.7231 15.2803C18.5458 15.421 18.3054 15.5 18.0546 15.5Z" fill="black" stroke="black" stroke-width="0.4"/>
<path d="M16.0498 18C15.8517 17.9967 15.6624 17.8961 15.5223 17.7195C15.3822 17.5429 15.3024 17.3043 15.2998 17.0546V12.9454C15.2998 12.6946 15.3788 12.4542 15.5195 12.2769C15.6601 12.0996 15.8509 12 16.0498 12C16.2487 12 16.4395 12.0996 16.5801 12.2769C16.7208 12.4542 16.7998 12.6946 16.7998 12.9454V17.0546C16.7972 17.3043 16.7174 17.5429 16.5773 17.7195C16.4372 17.8961 16.2479 17.9967 16.0498 18Z" fill="black" stroke="black" stroke-width="0.4"/>
</svg>
