<svg width="16" height="17" viewBox="0 0 16 17" fill="none" xmlns="http://www.w3.org/2000/svg">
<g clip-path="url(#clip0_5904_11014)">
<path d="M1.5 3.5H8.571C8.7945 4.36 9.571 5 10.5 5C11.429 5 12.2055 4.36 12.429 3.5H14.5C14.776 3.5 15 3.276 15 3C15 2.724 14.776 2.5 14.5 2.5H12.429C12.2055 1.64 11.429 1 10.5 1C9.571 1 8.7945 1.64 8.571 2.5H1.5C1.224 2.5 1 2.724 1 3C1 3.276 1.224 3.5 1.5 3.5ZM10.5 2C11.0515 2 11.5 2.4485 11.5 3C11.5 3.5515 11.0515 4 10.5 4C9.9485 4 9.5 3.5515 9.5 3C9.5 2.4485 9.9485 2 10.5 2ZM14.5 13.5H12.429C12.2055 12.64 11.429 12 10.5 12C9.571 12 8.7945 12.64 8.571 13.5H1.5C1.224 13.5 1 13.724 1 14C1 14.276 1.224 14.5 1.5 14.5H8.571C8.7945 15.36 9.571 16 10.5 16C11.429 16 12.2055 15.36 12.429 14.5H14.5C14.776 14.5 15 14.276 15 14C15 13.724 14.776 13.5 14.5 13.5ZM10.5 15C9.9485 15 9.5 14.5515 9.5 14C9.5 13.4485 9.9485 13 10.5 13C11.0515 13 11.5 13.4485 11.5 14C11.5 14.5515 11.0515 15 10.5 15ZM14.5 8H6.929C6.7055 7.14 5.929 6.5 5 6.5C4.071 6.5 3.2945 7.14 3.071 8H1.5C1.224 8 1 8.224 1 8.5C1 8.776 1.224 9 1.5 9H3.071C3.2945 9.86 4.071 10.5 5 10.5C5.929 10.5 6.7055 9.86 6.929 9H14.5C14.776 9 15 8.776 15 8.5C15 8.224 14.776 8 14.5 8ZM5 9.5C4.4485 9.5 4 9.0515 4 8.5C4 7.9485 4.4485 7.5 5 7.5C5.5515 7.5 6 7.9485 6 8.5C6 9.0515 5.5515 9.5 5 9.5Z" fill="#6E7681" stroke="#6E7681" stroke-width="0.4"/>
</g>
<defs>
<clipPath id="clip0_5904_11014">
<rect width="16" height="16" fill="white" transform="translate(0 0.5)"/>
</clipPath>
</defs>
</svg>
