<svg width="24" height="24" viewBox="0 0 24 24" fill="none" xmlns="http://www.w3.org/2000/svg">
<path d="M21 11.0005C20.7348 11.0005 20.4804 11.1058 20.2929 11.2934C20.1054 11.4809 20 11.7353 20 12.0005C20.0119 13.8735 19.3703 15.6921 18.1857 17.1429C17.001 18.5938 15.3475 19.5862 13.51 19.9491C11.6724 20.312 9.76578 20.0228 8.11851 19.1313C6.47123 18.2397 5.18641 16.8017 4.48533 15.0647C3.78425 13.3278 3.71079 11.4008 4.27762 9.61556C4.84445 7.83032 6.01607 6.29862 7.5907 5.28427C9.16533 4.26991 11.0444 3.8364 12.9043 4.0584C14.7641 4.2804 16.4884 5.14401 17.78 6.50049H15.38C15.1148 6.50049 14.8604 6.60584 14.6729 6.79338C14.4854 6.98092 14.38 7.23527 14.38 7.50049C14.38 7.7657 14.4854 8.02006 14.6729 8.20759C14.8604 8.39513 15.1148 8.50049 15.38 8.50049H19.91C20.1752 8.50049 20.4296 8.39513 20.6171 8.20759C20.8046 8.02006 20.91 7.7657 20.91 7.50049V3.00049C20.91 2.73527 20.8046 2.48092 20.6171 2.29338C20.4296 2.10584 20.1752 2.00049 19.91 2.00049C19.6448 2.00049 19.3904 2.10584 19.2029 2.29338C19.0154 2.48092 18.91 2.73527 18.91 3.00049V4.77049C17.2447 3.17855 15.0808 2.21044 12.784 2.02982C10.4873 1.84919 8.19863 2.46713 6.30492 3.77918C4.41121 5.09122 3.02861 7.01689 2.39083 9.23068C1.75305 11.4445 1.89921 13.8106 2.80461 15.929C3.71001 18.0475 5.31911 19.7883 7.3599 20.8573C9.40069 21.9263 11.748 22.2579 14.005 21.796C16.2621 21.334 18.2904 20.107 19.7471 18.3222C21.2039 16.5374 21.9997 14.3043 22 12.0005C22 11.7353 21.8946 11.4809 21.7071 11.2934C21.5196 11.1058 21.2652 11.0005 21 11.0005Z" fill="#2A3646"/>
</svg>
