<svg width="14" height="15" viewBox="0 0 14 15" fill="none" xmlns="http://www.w3.org/2000/svg">
<path d="M13.4733 13.0267L10.9999 10.5733C11.96 9.37627 12.4249 7.85686 12.2991 6.32753C12.1733 4.7982 11.4664 3.37519 10.3236 2.35109C9.18085 1.327 7.68914 0.779671 6.15522 0.821644C4.62129 0.863618 3.16175 1.49171 2.0767 2.57676C0.991644 3.66181 0.363557 5.12136 0.321583 6.65528C0.27961 8.1892 0.82694 9.68091 1.85103 10.8237C2.87512 11.9664 4.29814 12.6734 5.82747 12.7992C7.3568 12.925 8.87621 12.4601 10.0733 11.5L12.5266 13.9533C12.5886 14.0158 12.6623 14.0654 12.7436 14.0993C12.8248 14.1331 12.9119 14.1505 12.9999 14.1505C13.0879 14.1505 13.1751 14.1331 13.2563 14.0993C13.3376 14.0654 13.4113 14.0158 13.4733 13.9533C13.5934 13.829 13.6606 13.6629 13.6606 13.49C13.6606 13.3171 13.5934 13.151 13.4733 13.0267ZM6.33327 11.5C5.41029 11.5 4.50804 11.2263 3.74061 10.7135C2.97318 10.2007 2.37504 9.47191 2.02183 8.61919C1.66862 7.76646 1.57621 6.82815 1.75627 5.92291C1.93634 5.01766 2.38079 4.18614 3.03344 3.5335C3.68608 2.88085 4.5176 2.4364 5.42285 2.25633C6.32809 2.07627 7.2664 2.16868 8.11913 2.52189C8.97185 2.8751 9.70068 3.47324 10.2135 4.24067C10.7262 5.0081 10.9999 5.91035 10.9999 6.83333C10.9999 8.07101 10.5083 9.25799 9.6331 10.1332C8.75793 11.0083 7.57095 11.5 6.33327 11.5Z" fill="#6E7681"/>
</svg>
