<svg width="24" height="24" viewBox="0 -5 11 18" fill="none" xmlns="http://www.w3.org/2000/svg">
	<path fill-rule="evenodd" clip-rule="evenodd" d="M2.29238 3.07372C2.16939 2.94637 2.02226 2.84479 1.85959 2.77492C1.69692 2.70504 1.52196 2.66826 1.34492 2.66672C1.16788 2.66518 0.992307 2.69892 0.828446 2.76596C0.664584 2.833 0.515715 2.932 0.390525 3.05719C0.265334 3.18238 0.16633 3.33125 0.0992891 3.49511C0.0322479 3.65897 -0.00148808 3.83455 5.03418e-05 4.01159C0.00158876 4.18862 0.0383698 4.36359 0.108249 4.52626C0.178127 4.68893 0.279704 4.83606 0.407051 4.95905L3.07372 7.62572C3.32375 7.87568 3.66283 8.0161 4.01638 8.0161C4.36994 8.0161 4.70901 7.87568 4.95905 7.62572L10.2924 2.29238C10.4197 2.16939 10.5213 2.02226 10.5912 1.85959C10.6611 1.69692 10.6978 1.52196 10.6994 1.34492C10.7009 1.16788 10.6672 0.992308 10.6001 0.828446C10.5331 0.664584 10.4341 0.515716 10.3089 0.390525C10.1837 0.265335 10.0349 0.166331 9.87099 0.0992897C9.70713 0.0322485 9.53156 -0.00148808 9.35452 5.03409e-05C9.17748 0.00158876 9.00252 0.0383705 8.83985 0.108249C8.67717 0.178128 8.53005 0.279705 8.40705 0.407052L4.01638 4.79772L2.29238 3.07372Z" fill="#2A3646"/>
</svg>
