<svg xmlns="http://www.w3.org/2000/svg" width="14" height="14" viewBox="0 0 14 14" fill="none">
  <g clip-path="url(#clip0_5893_7542)">
    <path d="M2.79659 6.02886C2.78195 6.16484 2.76222 6.29184 2.75458 6.41884C2.68966 7.39212 2.91696 8.36255 3.40692 9.20382C3.81666 9.91943 4.40314 10.516 5.10936 10.9356C5.72752 11.307 6.4217 11.5312 7.13893 11.5911C8.13044 11.6803 9.12442 11.4496 9.97739 10.9324C10.7104 10.4991 11.32 9.88252 11.7473 9.14225C12.0343 8.65157 12.2132 8.11985 12.3583 7.57401C12.4174 7.34952 12.5212 7.29373 12.7401 7.35594C13.0723 7.45023 13.4052 7.54194 13.7368 7.63751C13.9073 7.6869 13.9684 7.79594 13.9277 7.96399C13.717 8.81514 13.4014 9.62009 12.9018 10.3442C11.998 11.6533 10.7984 12.5641 9.27414 12.9907C7.16693 13.5795 5.23728 13.1626 3.52657 11.8041C2.34154 10.8625 1.60328 9.61624 1.27234 8.13075C1.09093 7.3272 1.07123 6.49515 1.21443 5.68379C1.22906 5.60105 1.20424 5.57154 1.1266 5.55166C0.904486 5.49458 0.684922 5.42852 0.465354 5.36502C0.230513 5.29767 0.180871 5.10332 0.357161 4.9295C1.10517 4.18975 1.85425 3.45084 2.60438 2.7128C2.76985 2.54988 2.96715 2.60055 3.02442 2.82376C3.2896 3.85557 3.55287 4.88824 3.81423 5.92175C3.86896 6.13662 3.71877 6.27838 3.50302 6.22066C3.30764 6.16806 3.11289 6.11097 2.9175 6.05645C2.8825 6.04619 2.84495 6.03977 2.79659 6.02886Z" fill="#00791D" stroke="white" stroke-width="0.25"/>
    <path d="M7.10709 0.250348C7.2872 0.243934 7.37884 0.326034 7.39603 0.50691C7.42912 0.864815 7.46307 1.2225 7.49786 1.57998C7.51695 1.7724 7.43421 1.88208 7.23947 1.90068C7.14973 1.90966 7.05999 1.91992 6.97026 1.92505C6.80478 1.93531 6.7055 1.8654 6.68768 1.70248C6.64525 1.31507 6.60919 0.927245 6.57949 0.538981C6.56804 0.390816 6.65523 0.301015 6.80479 0.277924H6.82706L7.10709 0.250348Z" fill="#00791D" stroke="white" stroke-width="0.25"/>
    <path d="M12.3309 5.96966C12.3309 5.79327 12.3901 5.70476 12.5403 5.68231C12.9221 5.62672 13.304 5.57606 13.6858 5.5303C13.7168 5.52524 13.7485 5.52668 13.7789 5.53453C13.8092 5.54238 13.8377 5.55647 13.8624 5.57592C13.8872 5.59537 13.9077 5.61976 13.9226 5.64756C13.9375 5.67536 13.9466 5.70597 13.9493 5.73748C13.9688 5.84523 13.9841 5.95362 13.9951 6.06266C14.0098 6.22109 13.941 6.31923 13.7845 6.34489C13.4064 6.40047 13.0273 6.45092 12.6472 6.49625C12.4912 6.51485 12.3971 6.43853 12.3684 6.28075C12.3512 6.16978 12.3417 6.05625 12.3309 5.96966Z" fill="#00791D" stroke="white" stroke-width="0.25"/>
    <path d="M5.06352 2.55994C5.00561 2.51376 4.91841 2.47527 4.88214 2.40856C4.69566 2.06798 4.51937 1.72162 4.34563 1.37398C4.32941 1.34703 4.31898 1.31695 4.31499 1.28568C4.31101 1.25441 4.31356 1.22265 4.3225 1.19244C4.33143 1.16223 4.34654 1.13423 4.36686 1.11026C4.38717 1.08629 4.41224 1.06689 4.44046 1.05328C4.54325 0.991745 4.6495 0.936271 4.75867 0.887149C4.7844 0.872585 4.81282 0.863517 4.84217 0.860497C4.87153 0.857476 4.90118 0.860571 4.9293 0.869595C4.95741 0.878619 4.98339 0.893368 5.0056 0.91294C5.02782 0.932512 5.0458 0.956485 5.05843 0.98336C5.2449 1.33293 5.42819 1.68377 5.59939 2.04104C5.61444 2.07822 5.62078 2.1184 5.61791 2.15845C5.61504 2.1985 5.60304 2.23734 5.58285 2.27195C5.45747 2.42012 5.26972 2.4772 5.06352 2.55994Z" fill="#00791D" stroke="white" stroke-width="0.25"/>
    <path d="M13.332 3.84375C13.2836 3.90789 13.246 3.98998 13.1805 4.02911C12.8521 4.22602 12.518 4.41396 12.1819 4.59868C12.1561 4.61585 12.1269 4.62735 12.0963 4.63244C12.0657 4.63754 12.0344 4.63611 12.0045 4.62825C11.9745 4.62039 11.9464 4.60629 11.9222 4.58683C11.898 4.56737 11.878 4.543 11.8637 4.5153C11.7986 4.41372 11.7395 4.30834 11.6868 4.19972C11.6714 4.17432 11.6614 4.14602 11.6573 4.11655C11.6532 4.08708 11.6551 4.05707 11.663 4.02839C11.6709 3.99971 11.6845 3.97296 11.703 3.94981C11.7216 3.92665 11.7447 3.90759 11.7708 3.89378C12.1145 3.69174 12.4601 3.49418 12.8114 3.30753C12.8463 3.29223 12.8843 3.28537 12.9223 3.28748C12.9603 3.2896 12.9973 3.30064 13.0303 3.31971C13.1786 3.44799 13.2518 3.63016 13.332 3.84375Z" fill="#00791D" stroke="white" stroke-width="0.25"/>
    <path d="M11.844 1.94328C11.8194 2.00592 11.7889 2.06606 11.753 2.12288C11.5218 2.4222 11.2884 2.71811 11.0529 3.01059C11.035 3.03774 11.0115 3.06073 10.9841 3.07805C10.9567 3.09537 10.9259 3.10662 10.8938 3.11104C10.8617 3.11547 10.8291 3.11298 10.7981 3.10373C10.767 3.09448 10.7383 3.0787 10.7137 3.05741C10.6188 2.98949 10.5278 2.91604 10.4413 2.83741C10.4161 2.81866 10.395 2.79472 10.3796 2.7672C10.3641 2.73967 10.3546 2.70916 10.3516 2.67767C10.3487 2.64618 10.3524 2.61442 10.3625 2.58447C10.3726 2.55451 10.3888 2.52705 10.4102 2.50387C10.6456 2.19984 10.8841 1.89818 11.1255 1.59885C11.2261 1.4757 11.347 1.46479 11.4736 1.5578C11.5631 1.62089 11.6482 1.69011 11.7282 1.76497C11.7728 1.82019 11.8117 1.87995 11.844 1.94328Z" fill="#00791D" stroke="white" stroke-width="0.25"/>
    <path d="M9.74828 0.81299C9.72983 0.877131 9.70564 0.963717 9.68018 1.05031C9.59427 1.34407 9.51026 1.63783 9.42052 1.93031C9.35688 2.12915 9.25823 2.18174 9.06221 2.12274C8.96866 2.09516 8.87129 2.07142 8.78219 2.03742C8.64536 1.98675 8.58681 1.88414 8.6269 1.74174C8.73255 1.36374 8.84328 0.987231 8.95911 0.612222C8.9665 0.58343 8.97959 0.556454 8.99762 0.532908C9.01564 0.509361 9.03821 0.489742 9.06397 0.475234C9.08972 0.460726 9.11813 0.45162 9.14747 0.448488C9.17682 0.445356 9.20649 0.448258 9.23469 0.457007C9.35489 0.485193 9.47345 0.520089 9.58981 0.561548C9.69228 0.59875 9.74637 0.675729 9.74828 0.81299Z" fill="#00791D" stroke="white" stroke-width="0.25"/>
    <path d="M7.15619 7.12468C7.63648 7.60675 8.19293 8.0681 8.4129 7.84718C8.72753 7.53118 8.92171 7.25571 9.6159 7.8161C10.3098 8.37618 9.7767 8.74976 9.47178 9.05571C9.11983 9.40918 7.80791 9.0746 6.51115 7.77252C5.21471 6.47014 4.88248 5.15252 5.23473 4.79904C5.53965 4.49249 5.90981 3.9574 6.46746 4.6543C7.02543 5.3512 6.75145 5.54622 6.43621 5.86252C6.21716 6.08344 6.67621 6.64231 7.15619 7.12468Z" fill="#00791D" stroke="#00791D" stroke-width="0.5"/>
  </g>
  <defs>
    <clipPath id="clip0_5893_7542">
      <rect width="13.75" height="13" fill="white" transform="translate(0.250248 0.25)"/>
    </clipPath>
  </defs>
</svg>