<svg xmlns="http://www.w3.org/2000/svg" width="14" height="13" viewBox="0 0 14 13" fill="none">
  <g clip-path="url(#clip0_5893_7534)">
    <path d="M6.71027 12.3346C6.18791 12.2086 5.65688 12.111 5.14534 11.9499C4.41394 11.7198 3.77986 11.3035 3.20613 10.794C2.85026 10.4784 2.79471 10.1258 3.05419 9.82875C3.30934 9.53672 3.66707 9.54655 4.02526 9.85572C6.55956 12.0426 10.3564 11.1601 11.5502 8.0674C12.276 6.18694 11.9279 4.43651 10.5234 3.00024C9.09788 1.54308 7.33862 1.17139 5.45139 1.91712C3.63086 2.6365 2.64663 4.05951 2.47736 6.0343C2.47024 6.11756 2.47643 6.20206 2.47643 6.32055C2.64911 6.32055 2.79935 6.30699 2.94619 6.32368C3.21109 6.35361 3.34725 6.60151 3.19886 6.8226C2.84113 7.35426 2.47071 7.87813 2.08358 8.38843C1.92885 8.59189 1.71223 8.56882 1.56152 8.36457C1.19435 7.86565 0.83322 7.36268 0.487557 6.84894C0.316582 6.59496 0.45661 6.34597 0.764829 6.32149C0.902847 6.31058 1.04241 6.31962 1.13711 6.31962C1.26569 5.67835 1.33423 5.05673 1.51696 4.47268C2.34027 1.83994 4.84827 0.121466 7.55942 0.33647C10.4856 0.56878 12.6919 2.68093 13.0772 5.51277C13.0872 5.58683 13.1163 5.65808 13.1366 5.73105V6.90804C13.1163 6.98038 13.0886 7.05148 13.0769 7.12522C12.7233 9.34947 11.5325 10.9418 9.48207 11.8328C8.89797 12.0865 8.24208 12.1724 7.61899 12.3352L6.71027 12.3346Z" fill="#00791D"/>
    <path d="M7.55262 9.04189C7.5062 9.3849 7.64762 9.82597 7.12805 9.90564C6.84087 9.94961 6.73659 9.76002 6.64468 9.10036C6.35069 9.04236 6.05331 8.99683 5.76273 8.92231C5.39246 8.82736 5.22411 8.56713 5.30612 8.2589C5.39431 7.92727 5.65318 7.82936 6.05423 7.90965C6.41152 7.98191 6.77479 8.01991 7.13919 8.02316C7.42157 8.02472 7.68213 7.8936 7.73845 7.57538C7.7957 7.25124 7.57026 7.07646 7.3179 6.95064C7.13516 6.85896 6.93773 6.79737 6.75066 6.71365C6.48499 6.59484 6.20633 6.49537 5.96155 6.34024C4.98242 5.72126 5.01229 4.41222 6.01617 3.82927C6.22768 3.70641 6.4669 3.63188 6.71137 3.52726C6.74108 3.21201 6.63803 2.79323 7.13718 2.729C7.41074 2.69376 7.51023 2.86432 7.61513 3.47628C7.85512 3.51947 8.10129 3.54769 8.33865 3.61037C8.65723 3.6944 8.805 3.9621 8.72191 4.25709C8.64625 4.52573 8.39079 4.6436 8.07576 4.5923C7.76878 4.54241 7.45592 4.49876 7.14631 4.50328C6.89209 4.5064 6.64452 4.60493 6.58929 4.90584C6.53822 5.18399 6.7352 5.33008 6.94346 5.42971C7.36123 5.63006 7.80205 5.78613 8.21223 6.00035C8.93064 6.37454 9.20946 6.97465 9.04777 7.72958C8.93946 8.23349 8.62814 8.58086 8.17834 8.8021C7.9871 8.89658 7.77852 8.95676 7.55262 9.04189Z" fill="#00791D"/>
  </g>
  <defs>
    <clipPath id="clip0_5893_7534">
      <rect width="12.7229" height="12.016" fill="white" transform="translate(0.414062 0.318359)"/>
    </clipPath>
  </defs>
</svg>