<svg width="140" height="16" viewBox="0 0 140 16" fill="none" xmlns="http://www.w3.org/2000/svg">
<path d="M58.6304 4.41086L56.2847 10.4522L53.4534 4.41086H51.823L49.19 10.5889L46.7896 4.41086H43.6943L48.5294 15.885L49.4937 15.8864L52.6081 9.10719L55.7376 15.8908H56.7018L61.5561 4.41086H58.6304Z" fill="#17449C"/>
<path d="M58.6304 4.41086L56.2847 10.4522L53.4534 4.41086H51.823L49.19 10.5889L46.7896 4.41086H43.6943L48.5294 15.885L49.4937 15.8864L52.6081 9.10719L55.7376 15.8908H56.7018L61.5561 4.41086H58.6304Z" fill="#17449C"/>
<path d="M71.6158 10.8626L63.9916 10.8568C64.1805 11.5947 64.5429 12.1635 65.0749 12.5648C65.6083 12.9661 66.269 13.166 67.0568 13.166C68.1237 13.166 69.1317 12.775 70.0809 11.9915L71.3067 14.1582C70.0208 15.3194 68.5737 15.8986 66.9679 15.8971C65.2596 15.8956 63.8426 15.3106 62.7183 14.1406C61.594 12.9705 61.0332 11.5226 61.0332 9.79552C61.0346 8.08452 61.5803 6.64108 62.6691 5.46515C63.7578 4.28922 65.105 3.70126 66.7122 3.70126C68.2167 3.70273 69.4435 4.22161 70.3914 5.2579C71.3406 6.29417 71.8142 7.58182 71.8128 9.12081C71.8142 9.68524 71.7471 10.2673 71.6158 10.8626ZM64.9573 6.90272C64.4896 7.32609 64.1681 7.8993 63.9916 8.62102L68.943 8.62399C68.9293 7.90227 68.6954 7.32899 68.2427 6.90419C67.79 6.47939 67.2428 6.26772 66.6 6.26772C65.9736 6.26772 65.4251 6.47939 64.9573 6.90272Z" fill="#17449C"/>
<path d="M71.6158 10.8626L63.9916 10.8568C64.1805 11.5947 64.5429 12.1635 65.0749 12.5648C65.6083 12.9661 66.269 13.166 67.0568 13.166C68.1237 13.166 69.1317 12.775 70.0809 11.9915L71.3067 14.1582C70.0208 15.3194 68.5737 15.8986 66.9679 15.8971C65.2596 15.8956 63.8426 15.3106 62.7183 14.1406C61.594 12.9705 61.0332 11.5226 61.0332 9.79552C61.0346 8.08452 61.5803 6.64108 62.6691 5.46515C63.7578 4.28922 65.105 3.70126 66.7122 3.70126C68.2167 3.70273 69.4435 4.22161 70.3914 5.2579C71.3406 6.29417 71.8142 7.58182 71.8128 9.12081C71.8142 9.68524 71.7471 10.2673 71.6158 10.8626ZM64.9573 6.90272C64.4896 7.32609 64.1681 7.8993 63.9916 8.62102L68.943 8.62399C68.9293 7.90227 68.6954 7.32899 68.2427 6.90419C67.79 6.47939 67.2428 6.26772 66.6 6.26772C65.9736 6.26772 65.4251 6.47939 64.9573 6.90272Z" fill="#17449C"/>
<path d="M82.8445 5.44307C83.829 6.59694 84.3213 8.05361 84.3199 9.81162C84.3185 11.5696 83.8249 13.0248 82.839 14.1787C81.8524 15.3311 80.5914 15.9074 79.0586 15.9074C77.5251 15.9058 76.3636 15.3252 75.5762 14.1625L75.5748 15.6222L72.8584 15.6207L72.8695 0L75.8264 0.00146986L75.8223 5.09764C76.5966 4.1716 77.6786 3.71005 79.0655 3.71005C80.5997 3.71151 81.8593 4.28919 82.8445 5.44307ZM80.5181 12.1282C81.0511 11.5403 81.318 10.7597 81.3194 9.78666C81.3194 8.82974 81.0497 8.05658 80.5098 7.46712C79.9691 6.87769 79.3047 6.58372 78.5166 6.58224C77.7574 6.58224 77.111 6.86006 76.5773 7.41713C76.0435 7.97424 75.7774 8.7709 75.776 9.80575C75.776 10.8568 76.0449 11.6549 76.5856 12.1958C77.1255 12.7382 77.7685 13.0087 78.5124 13.0102C79.3158 13.0102 79.9843 12.7177 80.5181 12.1282Z" fill="#17449C"/>
<path d="M82.8445 5.44307C83.829 6.59694 84.3213 8.05361 84.3199 9.81162C84.3185 11.5696 83.8249 13.0248 82.839 14.1787C81.8524 15.3311 80.5914 15.9074 79.0586 15.9074C77.5251 15.9058 76.3636 15.3252 75.5762 14.1625L75.5748 15.6222L72.8584 15.6207L72.8695 0L75.8264 0.00146986L75.8223 5.09764C76.5966 4.1716 77.6786 3.71005 79.0655 3.71005C80.5997 3.71151 81.8593 4.28919 82.8445 5.44307ZM80.5181 12.1282C81.0511 11.5403 81.318 10.7597 81.3194 9.78666C81.3194 8.82974 81.0497 8.05658 80.5098 7.46712C79.9691 6.87769 79.3047 6.58372 78.5166 6.58224C77.7574 6.58224 77.111 6.86006 76.5773 7.41713C76.0435 7.97424 75.7774 8.7709 75.776 9.80575C75.776 10.8568 76.0449 11.6549 76.5856 12.1958C77.1255 12.7382 77.7685 13.0087 78.5124 13.0102C79.3158 13.0102 79.9843 12.7177 80.5181 12.1282Z" fill="#17449C"/>
<path d="M101.859 5.48143C102.997 6.65147 103.566 8.09198 103.565 9.80298C103.564 11.5139 102.993 12.9573 101.854 14.1348C100.715 15.3122 99.3332 15.8986 97.7119 15.8972C96.0913 15.8957 94.7224 15.3107 93.6045 14.1406C92.4886 12.9706 91.9307 11.5228 91.9307 9.79558C91.932 8.08465 92.4941 6.64412 93.6197 5.47554C94.7452 4.30697 96.1183 3.72342 97.7396 3.72489C99.3477 3.72489 100.72 4.30991 101.859 5.48143ZM95.7235 7.52457C95.1967 8.12876 94.934 8.89307 94.9326 9.81909C94.9326 10.7452 95.1953 11.5022 95.7208 12.0916C96.2455 12.681 96.9175 12.975 97.7354 12.9765C98.5381 12.9765 99.2073 12.6796 99.7404 12.0828C100.274 11.486 100.54 10.7334 100.542 9.82351C100.543 8.91367 100.277 8.15226 99.7431 7.5393C99.2101 6.92634 98.5422 6.6206 97.7396 6.61913C96.9217 6.61913 96.2483 6.92046 95.7235 7.52457Z" fill="#17449C"/>
<path d="M101.859 5.48143C102.997 6.65147 103.566 8.09198 103.565 9.80298C103.564 11.5139 102.993 12.9573 101.854 14.1348C100.715 15.3122 99.3332 15.8986 97.7119 15.8972C96.0913 15.8957 94.7224 15.3107 93.6045 14.1406C92.4886 12.9706 91.9307 11.5228 91.9307 9.79558C91.932 8.08465 92.4941 6.64412 93.6197 5.47554C94.7452 4.30697 96.1183 3.72342 97.7396 3.72489C99.3477 3.72489 100.72 4.30991 101.859 5.48143ZM95.7235 7.52457C95.1967 8.12876 94.934 8.89307 94.9326 9.81909C94.9326 10.7452 95.1953 11.5022 95.7208 12.0916C96.2455 12.681 96.9175 12.975 97.7354 12.9765C98.5381 12.9765 99.2073 12.6796 99.7404 12.0828C100.274 11.486 100.54 10.7334 100.542 9.82351C100.543 8.91367 100.277 8.15226 99.7431 7.5393C99.2101 6.92634 98.5422 6.6206 97.7396 6.61913C96.9217 6.61913 96.2483 6.92046 95.7235 7.52457Z" fill="#17449C"/>
<path d="M104.7 15.4857L107.556 15.4871L107.562 7.31744L109.869 7.31889L109.87 4.70598L107.563 4.70457L107.565 4.56372C107.565 3.93127 107.72 3.48476 108.031 3.22136C108.342 2.95796 108.821 2.82696 109.47 2.82696C109.615 2.82696 109.77 2.83541 109.934 2.85091L109.935 0.236615C109.557 0.145059 109.162 0.098576 108.752 0.098576C107.497 0.0971675 106.509 0.446491 105.788 1.14514C105.069 1.84378 104.708 2.89316 104.708 4.29186L104.7 15.4857Z" fill="#17449C"/>
<path d="M104.7 15.4857L107.556 15.4871L107.562 7.31744L109.869 7.31889L109.87 4.70598L107.563 4.70457L107.565 4.56372C107.565 3.93127 107.72 3.48476 108.031 3.22136C108.342 2.95796 108.821 2.82696 109.47 2.82696C109.615 2.82696 109.77 2.83541 109.934 2.85091L109.935 0.236615C109.557 0.145059 109.162 0.098576 108.752 0.098576C107.497 0.0971675 106.509 0.446491 105.788 1.14514C105.069 1.84378 104.708 2.89316 104.708 4.29186L104.7 15.4857Z" fill="#17449C"/>
<path d="M110.887 15.4857L113.743 15.4871L113.748 7.31744L116.055 7.31889L116.057 4.70598L113.75 4.70457L113.751 4.56372C113.751 3.93127 113.907 3.48476 114.218 3.22136C114.528 2.95796 115.008 2.82696 115.656 2.82696C115.802 2.82696 115.957 2.83541 116.12 2.85091L116.122 0.236615C115.744 0.145059 115.349 0.098576 114.939 0.098576C113.684 0.0971675 112.695 0.446491 111.975 1.14514C111.255 1.84378 110.894 2.89316 110.894 4.29186L110.887 15.4857Z" fill="#17449C"/>
<path d="M110.887 15.4857L113.743 15.4871L113.748 7.31744L116.055 7.31889L116.057 4.70598L113.75 4.70457L113.751 4.56372C113.751 3.93127 113.907 3.48476 114.218 3.22136C114.528 2.95796 115.008 2.82696 115.656 2.82696C115.802 2.82696 115.957 2.83541 116.12 2.85091L116.122 0.236615C115.744 0.145059 115.349 0.098576 114.939 0.098576C113.684 0.0971675 112.695 0.446491 111.975 1.14514C111.255 1.84378 110.894 2.89316 110.894 4.29186L110.887 15.4857Z" fill="#17449C"/>
<path d="M88.3685 6.58669L88.3658 11.3374C88.3658 11.9974 88.5262 12.4634 88.8476 12.7383C89.1691 13.0131 89.6655 13.1513 90.3369 13.1513C90.5996 13.1513 90.892 13.1278 91.2135 13.0808L91.2121 15.7413C90.7005 15.9132 90.1606 16 89.5916 15.9985C88.2918 15.997 87.2693 15.6325 86.5246 14.902C85.7807 14.1714 85.4088 13.0763 85.4102 11.6167L85.4129 6.58374L85.4143 3.8997L85.4157 0.0162048L88.3727 0.0176747L88.3713 3.90117L88.3685 6.58669Z" fill="#17449C"/>
<path d="M88.3685 6.58669L88.3658 11.3374C88.3658 11.9974 88.5262 12.4634 88.8476 12.7383C89.1691 13.0131 89.6655 13.1513 90.3369 13.1513C90.5996 13.1513 90.892 13.1278 91.2135 13.0808L91.2121 15.7413C90.7005 15.9132 90.1606 16 89.5916 15.9985C88.2918 15.997 87.2693 15.6325 86.5246 14.902C85.7807 14.1714 85.4088 13.0763 85.4102 11.6167L85.4129 6.58374L85.4143 3.8997L85.4157 0.0162048L88.3727 0.0176747L88.3713 3.90117L88.3685 6.58669Z" fill="#17449C"/>
<path d="M89.143 4.43921L91.6458 4.44068L91.6444 7.12475L89.1416 7.12323L89.143 4.43921Z" fill="#17449C"/>
<path d="M89.143 4.43921L91.6458 4.44068L91.6444 7.12475L89.1416 7.12323L89.143 4.43921Z" fill="#17449C"/>
<path d="M127.442 10.9026L119.818 10.8967C120.007 11.6346 120.369 12.2035 120.901 12.6048C121.435 13.006 122.095 13.206 122.883 13.206C123.95 13.206 124.958 12.8149 125.907 12.0315L127.133 14.1982C125.847 15.3594 124.4 15.9385 122.794 15.937C121.086 15.9356 119.669 15.3505 118.545 14.1805C117.42 13.0105 116.859 11.5626 116.859 9.83548C116.861 8.12448 117.406 6.68103 118.494 5.50364C119.583 4.32771 120.93 3.73975 122.537 3.73975C124.042 3.74122 125.268 4.26009 126.216 5.29638C127.166 6.33266 127.639 7.62033 127.638 9.15932C127.641 9.72521 127.575 10.3058 127.442 10.9026ZM120.785 6.94267C120.318 7.36598 119.996 7.93926 119.82 8.66098L124.771 8.66396C124.757 7.94223 124.523 7.36895 124.07 6.94415C123.618 6.51934 123.071 6.30768 122.428 6.30768C121.8 6.30768 121.253 6.51934 120.785 6.94267Z" fill="#17449C"/>
<path d="M127.442 10.9026L119.818 10.8967C120.007 11.6346 120.369 12.2035 120.901 12.6048C121.435 13.006 122.095 13.206 122.883 13.206C123.95 13.206 124.958 12.8149 125.907 12.0315L127.133 14.1982C125.847 15.3594 124.4 15.9385 122.794 15.937C121.086 15.9356 119.669 15.3505 118.545 14.1805C117.42 13.0105 116.859 11.5626 116.859 9.83548C116.861 8.12448 117.406 6.68103 118.494 5.50364C119.583 4.32771 120.93 3.73975 122.537 3.73975C124.042 3.74122 125.268 4.26009 126.216 5.29638C127.166 6.33266 127.639 7.62033 127.638 9.15932C127.641 9.72521 127.575 10.3058 127.442 10.9026ZM120.785 6.94267C120.318 7.36598 119.996 7.93926 119.82 8.66098L124.771 8.66396C124.757 7.94223 124.523 7.36895 124.07 6.94415C123.618 6.51934 123.071 6.30768 122.428 6.30768C121.8 6.30768 121.253 6.51934 120.785 6.94267Z" fill="#17449C"/>
<path d="M138.86 10.9094L131.237 10.9035C131.425 11.6413 131.788 12.2102 132.32 12.6115C132.854 13.0128 133.514 13.2127 134.302 13.2127C135.369 13.2127 136.377 12.8217 137.326 12.0382L138.551 14.2049C137.266 15.3661 135.819 15.9452 134.213 15.9438C132.505 15.9423 131.088 15.3573 129.963 14.1872C128.839 13.0172 128.278 11.5694 128.278 9.84218C128.28 8.13124 128.824 6.68777 129.913 5.51037C131.002 4.33445 132.349 3.74649 133.956 3.74649C135.46 3.74796 136.687 4.26684 137.635 5.30312C138.585 6.3394 139.057 7.62703 139.056 9.16602C139.059 9.73197 138.992 10.3126 138.86 10.9094ZM132.203 6.94942C131.734 7.37274 131.413 7.94603 131.237 8.66775L136.188 8.67065C136.174 7.94893 135.941 7.37572 135.488 6.95088C135.035 6.52608 134.488 6.31442 133.845 6.31442C133.219 6.31442 132.67 6.52608 132.203 6.94942Z" fill="#17449C"/>
<path d="M138.86 10.9094L131.237 10.9035C131.425 11.6413 131.788 12.2102 132.32 12.6115C132.854 13.0128 133.514 13.2127 134.302 13.2127C135.369 13.2127 136.377 12.8217 137.326 12.0382L138.551 14.2049C137.266 15.3661 135.819 15.9452 134.213 15.9438C132.505 15.9423 131.088 15.3573 129.963 14.1872C128.839 13.0172 128.278 11.5694 128.278 9.84218C128.28 8.13124 128.824 6.68777 129.913 5.51037C131.002 4.33445 132.349 3.74649 133.956 3.74649C135.46 3.74796 136.687 4.26684 137.635 5.30312C138.585 6.3394 139.057 7.62703 139.056 9.16602C139.059 9.73197 138.992 10.3126 138.86 10.9094ZM132.203 6.94942C131.734 7.37274 131.413 7.94603 131.237 8.66775L136.188 8.67065C136.174 7.94893 135.941 7.37572 135.488 6.95088C135.035 6.52608 134.488 6.31442 133.845 6.31442C133.219 6.31442 132.67 6.52608 132.203 6.94942Z" fill="#17449C"/>
<path d="M29.9557 15.1047C29.9557 15.5967 29.5804 16 29.1226 16H23.3145C22.8567 16 22.4814 15.5967 22.4814 15.1047V8.86293C22.4814 8.37095 22.8567 7.96761 23.3145 7.96761H29.1226C29.5804 7.96761 29.9557 8.37095 29.9557 8.86293V15.1047Z" fill="#07BFDD"/>
<path d="M29.9557 15.1047C29.9557 15.5967 29.5804 16 29.1226 16H23.3145C22.8567 16 22.4814 15.5967 22.4814 15.1047V8.86293C22.4814 8.37095 22.8567 7.96761 23.3145 7.96761H29.1226C29.5804 7.96761 29.9557 8.37095 29.9557 8.86293V15.1047Z" fill="#07BFDD"/>
<path d="M37.524 7.23565C37.524 7.72763 37.1487 8.13097 36.691 8.13097H30.8828C30.4251 8.13097 30.0498 7.72763 30.0498 7.23565V0.993847C30.0498 0.501889 30.4251 0.0985718 30.8828 0.0985718H36.691C37.1487 0.0985718 37.524 0.501889 37.524 0.993847V7.23565Z" fill="#007FFF"/>
<path d="M37.524 7.23565C37.524 7.72763 37.1487 8.13097 36.691 8.13097H30.8828C30.4251 8.13097 30.0498 7.72763 30.0498 7.23565V0.993847C30.0498 0.501889 30.4251 0.0985718 30.8828 0.0985718H36.691C37.1487 0.0985718 37.524 0.501889 37.524 0.993847V7.23565Z" fill="#007FFF"/>
<path d="M15.0319 15.1047C15.0319 15.5967 14.6566 16 14.1988 16H8.39072C7.93296 16 7.55762 15.5967 7.55762 15.1047V8.86293C7.55762 8.37095 7.93296 7.96761 8.39072 7.96761H14.1988C14.6566 7.96761 15.0319 8.37095 15.0319 8.86293V15.1047Z" fill="#1DA5F8"/>
<path d="M15.0319 15.1047C15.0319 15.5967 14.6566 16 14.1988 16H8.39072C7.93296 16 7.55762 15.5967 7.55762 15.1047V8.86293C7.55762 8.37095 7.93296 7.96761 8.39072 7.96761H14.1988C14.6566 7.96761 15.0319 8.37095 15.0319 8.86293V15.1047Z" fill="#1DA5F8"/>
<path d="M7.47426 7.23633C7.47426 7.72831 7.09891 8.13159 6.64116 8.13159H0.833066C0.375292 8.13159 0 7.72976 0 7.23633V0.99452C0 0.502561 0.375292 0.0992432 0.833066 0.0992432H6.64116C7.09891 0.0992432 7.47426 0.502561 7.47426 0.99452V7.23633Z" fill="#8CC936"/>
<path d="M7.47426 7.23633C7.47426 7.72831 7.09891 8.13159 6.64116 8.13159H0.833066C0.375292 8.13159 0 7.72976 0 7.23633V0.99452C0 0.502561 0.375292 0.0992432 0.833066 0.0992432H6.64116C7.09891 0.0992432 7.47426 0.502561 7.47426 0.99452V7.23633Z" fill="#8CC936"/>
</svg>
