<?xml version="1.0" encoding="utf-8"?>
<svg version="1.1" xmlns="http://www.w3.org/2000/svg" xmlns:xlink="http://www.w3.org/1999/xlink"
	 viewBox="0 0 33.848 33.848" style="enable-background:new 0 0 33.848 33.848;" xml:space="preserve" id="img" fill="currentColor">
     <g xmlns="http://www.w3.org/2000/svg">
	<path d="M26.97,13.193c2.297,1.838,4.578,3.666,6.877,5.506c-0.084,0.061-0.151,0.113-0.226,0.16   c-3.174,2.069-6.346,4.141-9.518,6.215c-0.143,0.094-0.234,0.119-0.385-0.006c-2.201-1.847-4.408-3.687-6.615-5.527   c-0.052-0.043-0.104-0.086-0.179-0.146c-2.334,1.948-4.646,3.878-6.967,5.812c-3.315-2.164-6.618-4.32-9.958-6.5   c2.311-1.852,4.588-3.676,6.885-5.514c-2.297-1.84-4.576-3.666-6.875-5.506C0.1,7.621,0.168,7.568,0.24,7.521   c3.164-2.066,6.33-4.133,9.494-6.199c0.129-0.084,0.223-0.154,0.386-0.018c2.221,1.865,4.449,3.721,6.676,5.578   c0.034,0.026,0.071,0.051,0.144,0.102c-3.367,2.08-6.695,4.135-10.053,6.209c3.355,2.072,6.681,4.125,10.038,6.197   c3.358-2.072,6.685-4.125,10.04-6.197c-3.361-2.076-6.686-4.129-10.029-6.195c0.085-0.078,0.148-0.137,0.214-0.193   c2.172-1.812,4.346-3.622,6.515-5.44c0.163-0.137,0.272-0.166,0.47-0.037c3.16,2.072,6.326,4.138,9.49,6.203   c0.064,0.043,0.131,0.09,0.223,0.154C31.556,9.521,29.277,11.345,26.97,13.193z M16.949,20.643   c-2.335,1.937-4.659,3.863-6.987,5.798c-0.991-0.646-1.969-1.283-2.988-1.949c0,0.736-0.006,1.412,0.007,2.088   c0.001,0.068,0.097,0.158,0.169,0.201c3.209,1.93,6.42,3.854,9.629,5.783c0.119,0.069,0.208,0.079,0.333,0.006   c3.217-1.935,6.437-3.863,9.648-5.802c0.082-0.049,0.152-0.186,0.156-0.284c0.021-0.353,0.009-0.706,0.009-1.058   c0-0.295,0-0.588,0-0.937c-1.022,0.668-1.996,1.304-2.985,1.949C21.604,24.502,19.283,22.579,16.949,20.643z" fill="currentColor"/>
    </g>
</svg>