<svg xmlns="http://www.w3.org/2000/svg" height="12" viewBox="0 0 12 12" width="12"><path d="m12.7071068 6.29289322c.3604839.36048396.3882135.92771502.0831886 1.32000622l-.0831886.09420734-3.2921068 3.29289322h7.585c.5522847 0 1 .4477153 1 1s-.4477153 1-1 1h-7.585l3.2921068 3.2928932c.3604839.360484.3882135.927715.0831886 1.3200062l-.0831886.0942074c-.360484.3604839-.927715.3882135-1.3200062.0831886l-.0942074-.0831886-4.99999998-5c-.36048396-.360484-.3882135-.927715-.08318861-1.3200062l.08318861-.0942074 4.99999998-4.99999998c.3905243-.39052429 1.0236893-.39052429 1.4142136 0z" fill="#293040" transform="translate(-6 -6)"/></svg>