<svg width="53" height="53" viewBox="0 0 53 53" fill="none" xmlns="http://www.w3.org/2000/svg">
<circle cx="26.5" cy="26.5" r="26.5" fill="white"/>
<path fill-rule="evenodd" clip-rule="evenodd" d="M15.297 14.0363H38.7047C39.7429 14.0363 40.5914 14.8848 40.5914 15.923V39.1133C40.5914 40.1515 39.7424 41 38.7047 41H15.297C14.2588 41 13.4086 40.1515 13.4086 39.1133V15.923C13.4086 14.8853 14.2588 14.0363 15.297 14.0363Z" fill="url(#paint0_linear_0_1)"/>
<path fill-rule="evenodd" clip-rule="evenodd" d="M15.3123 14.0363H38.6894C39.7359 14.0363 40.5914 14.832 40.5914 15.8053V20.1055H13.4086V15.8053C13.4086 14.832 14.2658 14.0363 15.3123 14.0363Z" fill="#FF4155"/>
<path fill-rule="evenodd" clip-rule="evenodd" d="M32.4427 11C33.0972 11 33.6334 11.5367 33.6334 12.1906V15.8797C33.6334 16.5342 33.0967 17.0703 32.4427 17.0703C31.7865 17.0703 31.2504 16.5336 31.2504 15.8797V12.1912C31.2504 11.5367 31.7865 11 32.4427 11Z" fill="#2A428C"/>
<path fill-rule="evenodd" clip-rule="evenodd" d="M21.5589 11C22.2134 11 22.7495 11.5367 22.7495 12.1906V15.8797C22.7495 16.5342 22.2128 17.0703 21.5589 17.0703C20.9027 17.0703 20.3683 16.5336 20.3683 15.8797V12.1912C20.3677 11.5367 20.9027 11 21.5589 11Z" fill="#2A428C"/>
<path fill-rule="evenodd" clip-rule="evenodd" d="M27 22.8043L29.1908 24.9951L27 27.1842V26.1178C24.2561 26.1178 22.0307 28.342 22.0307 31.0854C22.0307 33.8311 24.2561 36.0547 27 36.0547C29.744 36.0547 31.9694 33.8305 31.9694 31.0854H34.2147C34.2147 35.0715 30.9844 38.3024 26.9994 38.3024C23.0145 38.3024 19.7848 35.0721 19.7848 31.086C19.7848 27.1016 23.0151 23.8707 27 23.8707V22.8043Z" fill="#4DBB84"/>
<path d="M25.5896 29.8748C25.3224 29.8748 25.1062 29.6586 25.1062 29.3914C25.1062 29.1242 25.3224 28.908 25.5896 28.908H28.4097C28.6769 28.908 28.8949 29.1242 28.8949 29.3914C28.8949 29.491 28.8632 29.5859 28.8117 29.6621L26.6443 33.4156C26.5095 33.6465 26.216 33.7244 25.9851 33.5914C25.7542 33.4584 25.6746 33.1631 25.8093 32.9322L27.573 29.8742H25.5896V29.8748Z" fill="#2A428C"/>
<defs>
<linearGradient id="paint0_linear_0_1" x1="27" y1="14.0363" x2="27" y2="41" gradientUnits="userSpaceOnUse">
<stop stop-color="#EBF5FC"/>
<stop offset="1" stop-color="#D6E3EC"/>
</linearGradient>
</defs>
</svg>
