<svg width="24" height="23" viewBox="0 0 24 23" fill="none" xmlns="http://www.w3.org/2000/svg">
<path d="M12.5518 0.915136C6.8094 0.412737 1.76271 4.59169 1.18909 10.3274C0.979106 12.4273 1.40226 14.4408 2.30081 16.1819C2.36052 16.2976 2.3622 16.4346 2.30701 16.5525L0.647536 20.0959C0.495036 20.4215 0.793053 20.7767 1.14022 20.6831L4.91799 19.6641C5.0437 19.6302 5.17836 19.6556 5.28193 19.7345C6.84059 20.9218 8.74994 21.6882 10.8545 21.846C16.6027 22.2771 21.5944 18.0327 22.0968 12.2903C22.6022 6.51339 18.3288 1.42055 12.5518 0.915136Z" fill="#FFC344"/>
<path d="M18.6947 3.60116C19.8934 5.49884 20.4964 7.79446 20.2652 10.2059C19.7109 15.9867 14.6087 20.2001 8.82705 19.6554C6.25591 19.4132 3.9869 18.2613 2.30994 16.5465L0.647726 20.0959C0.495226 20.4215 0.793243 20.7767 1.14041 20.683L4.91818 19.664C5.04389 19.6301 5.17855 19.6556 5.28212 19.7345C6.80083 20.8914 8.65255 21.6486 10.6933 21.8327C16.4182 22.3489 21.4655 18.2122 22.0769 12.4967C22.4487 9.02055 21.085 5.77454 18.6947 3.60116Z" fill="#FFB35A"/>
<path d="M10.8925 19.8792C15.5892 20.2901 19.7297 16.8158 20.1406 12.1191C20.5516 7.42239 17.0772 3.28187 12.3806 2.87097C7.68388 2.46006 3.54336 5.93437 3.13245 10.6311C2.72155 15.3277 6.19586 19.4683 10.8925 19.8792Z" fill="#FF7D04"/>
<path d="M11.6363 14.487C11.027 14.487 10.5331 13.9931 10.5331 13.3838V11.3744C10.5331 10.7651 11.027 10.2712 11.6363 10.2712C12.1084 10.2712 12.5478 10.0822 12.8736 9.7391C13.199 9.39633 13.3647 8.94656 13.3401 8.47266C13.2941 7.58574 12.5614 6.87695 11.672 6.85907C10.8055 6.84114 10.0656 7.47209 9.9466 8.32554C9.93565 8.40417 9.93003 8.48472 9.93003 8.56495C9.93003 9.17423 9.43612 9.66814 8.82683 9.66814C8.21754 9.66814 7.72363 9.17423 7.72363 8.56495C7.72363 8.38304 7.73631 8.19991 7.76133 8.02059C8.03117 6.08736 9.68959 4.65234 11.6365 4.65234C11.6631 4.65234 11.6897 4.65263 11.7165 4.65316C13.7567 4.69426 15.4378 6.32176 15.5435 8.35835C15.5998 9.44248 15.2198 10.4724 14.4736 11.2583C13.9969 11.7605 13.3948 12.1239 12.7394 12.3174V13.3839C12.7395 13.9932 12.2456 14.487 11.6363 14.487Z" fill="#EDF6FF"/>
<path d="M11.6362 18.0976C12.1901 18.0976 12.6391 17.6486 12.6391 17.0947C12.6391 16.5408 12.1901 16.0918 11.6362 16.0918C11.0823 16.0918 10.6333 16.5408 10.6333 17.0947C10.6333 17.6486 11.0823 18.0976 11.6362 18.0976Z" fill="#EDF6FF"/>
</svg>
