<svg width="60" height="61" viewBox="0 0 60 61" fill="none" xmlns="http://www.w3.org/2000/svg">
<g clip-path="url(#clip0_3596_17629)">
<path d="M28.7808 12.9281L20.0951 17.1588C19.3147 17.5504 18.6947 18.2031 18.3421 19.0034L7.50638 46.167C6.3863 48.7039 7.52874 51.6693 10.0584 52.79L20.8361 57.5657H28.8402L28.7808 12.9281Z" fill="#FAA515"/>
<path d="M52.9236 49.9153V55.1482C52.9236 58.0615 50.4863 60.5 47.5718 60.5H25.5698C22.6553 60.5 20.3369 58.0615 20.3369 55.1482V24.3454C20.3369 23.4265 20.5974 22.5554 21.1824 21.8467L27.7976 13.8315C28.5494 12.9205 29.6213 12.3335 30.8027 12.3335H42.3389C43.5203 12.3335 44.5923 12.9205 45.3441 13.8315L51.9594 21.8467C52.5443 22.5554 52.9238 23.4267 52.9238 24.3454V45.7527V49.9153H52.9236Z" fill="#FAD207"/>
<path fill-rule="evenodd" clip-rule="evenodd" d="M34.7782 33.2072L34.7783 33.2059L34.7476 33.1752C34.7315 33.1586 34.715 33.1422 34.6985 33.1261L33.4681 31.8949L33.2935 32.2425C32.8864 32.0965 32.4483 32.0163 31.9916 32.0163H31.8726C29.7413 32.0163 28.0074 33.7503 28.0074 35.8815C28.0074 36.323 28.0828 36.7469 28.2197 37.1424L27.8584 37.3277L29.1326 38.6048C29.138 38.6101 29.1433 38.6156 29.1487 38.621L29.1658 38.6381L29.1664 38.6377C29.864 39.323 30.8196 39.7468 31.8726 39.7468H31.9916C34.1229 39.7468 35.8568 38.0128 35.8568 35.8815C35.8568 34.8444 35.4454 33.9021 34.7782 33.2072ZM31.9916 37.9628H31.8726C30.7251 37.9628 29.7914 37.0291 29.7914 35.8815C29.7914 34.734 30.7251 33.8003 31.8726 33.8003H31.9916C33.1391 33.8003 34.0728 34.734 34.0728 35.8815C34.0728 37.0291 33.1391 37.9628 31.9916 37.9628Z" fill="#F8C201"/>
<path fill-rule="evenodd" clip-rule="evenodd" d="M45.9424 32.3966L44.7532 31.2073L28.2686 47.6916L29.4579 48.8809C29.6321 49.055 29.8604 49.1422 30.0887 49.1422C30.3169 49.1422 30.5452 49.0552 30.7195 48.8809L45.9424 33.6579C46.2907 33.3097 46.2907 32.7448 45.9424 32.3966Z" fill="#F8C201"/>
<path fill-rule="evenodd" clip-rule="evenodd" d="M46.1762 42.3584L46.1773 42.3579L45.1934 41.3604L45.2571 41.7648C44.7664 41.5389 44.2211 41.4118 43.6465 41.4118H43.5275C41.3962 41.4118 39.6623 43.1458 39.6623 45.2771C39.6623 45.8278 39.7789 46.3517 39.9875 46.8264L39.5508 46.7627L40.7344 47.9447C40.7766 47.9889 40.8199 48.0321 40.8642 48.0743L40.8914 48.1014L40.8916 48.1005C41.5826 48.7459 42.5094 49.1423 43.5275 49.1423H43.6465C45.7778 49.1423 47.5117 47.4083 47.5117 45.2771C47.5117 44.1126 46.9934 43.0677 46.1762 42.3584ZM43.6465 47.3583H43.5275C42.38 47.3583 41.4463 46.4246 41.4463 45.2771C41.4463 44.1295 42.38 43.1958 43.5275 43.1958H43.6465C44.794 43.1958 45.7277 44.1295 45.7277 45.2771C45.7277 46.4246 44.794 47.3583 43.6465 47.3583Z" fill="#F8C201"/>
<path d="M28.8999 47.953C28.6716 47.953 28.4433 47.8659 28.2691 47.6917C27.9207 47.3433 27.9207 46.7785 28.2691 46.4303L43.4921 31.2073C43.8405 30.859 44.4052 30.859 44.7536 31.2073C45.1019 31.5556 45.1019 32.1204 44.7536 32.4687L29.5306 47.6917C29.3564 47.8659 29.1281 47.953 28.8999 47.953Z" fill="#F5F5F5"/>
<path d="M30.8025 38.5575H30.6836C28.5522 38.5575 26.8184 36.8235 26.8184 34.6922C26.8184 32.561 28.5522 30.827 30.6836 30.827H30.8025C32.9338 30.827 34.6677 32.561 34.6677 34.6922C34.6677 36.8235 32.9338 38.5575 30.8025 38.5575ZM30.6836 32.611C29.536 32.611 28.6023 33.5447 28.6023 34.6922C28.6023 35.8398 29.536 36.7735 30.6836 36.7735H30.8025C31.9501 36.7735 32.8838 35.8398 32.8838 34.6922C32.8838 33.5447 31.9501 32.611 30.8025 32.611H30.6836Z" fill="#F5F5F5"/>
<path d="M42.4578 47.9528H42.3388C40.2075 47.9528 38.4736 46.2188 38.4736 44.0876C38.4736 41.9564 40.2075 40.2224 42.3388 40.2224H42.4578C44.5891 40.2224 46.323 41.9564 46.323 44.0876C46.323 46.2188 44.5891 47.9528 42.4578 47.9528ZM42.3388 42.0064C41.1913 42.0064 40.2576 42.9401 40.2576 44.0876C40.2576 45.2352 41.1913 46.1689 42.3388 46.1689H42.4578C43.6053 46.1689 44.539 45.2352 44.539 44.0876C44.539 42.9401 43.6053 42.0064 42.4578 42.0064H42.3388Z" fill="#F5F5F5"/>
<path d="M38.509 19.5874C38.1218 19.5874 37.7655 19.3335 37.6525 18.943C37.5157 18.4698 37.7884 17.9752 38.2616 17.8383C38.3628 17.809 38.4646 17.7769 38.5643 17.7429C41.2842 16.8144 43.1115 14.2581 43.1115 11.3819V1.39185C43.1115 0.899244 43.5109 0.499878 44.0035 0.499878C44.4961 0.499878 44.8955 0.899244 44.8955 1.39185V11.3819C44.8955 15.0214 42.5828 18.2561 39.1405 19.4311C39.0143 19.4742 38.8854 19.5148 38.7572 19.5519C38.6745 19.576 38.591 19.5874 38.509 19.5874Z" fill="#E0A446"/>
<path d="M36.6298 21.7884C35.0887 21.7884 33.835 20.5347 33.835 18.9936C33.835 17.4525 35.0887 16.1987 36.6298 16.1987C38.1709 16.1987 39.4247 17.4525 39.4247 18.9936C39.4247 20.5347 38.1709 21.7884 36.6298 21.7884Z" fill="#F5F5F5"/>
</g>
<defs>
<clipPath id="clip0_3596_17629">
<rect width="60" height="60" fill="white" transform="translate(0 0.5)"/>
</clipPath>
</defs>
</svg>
