<svg width="210" height="90" viewBox="0 0 210 90" fill="none" xmlns="http://www.w3.org/2000/svg">
<path opacity="0.7" d="M53.5837 69.8513H7.38571C3.79571 69.8513 0.886719 66.9413 0.886719 63.3513V17.1533C0.886719 13.5643 3.79671 10.6543 7.38571 10.6543H53.5837C57.1737 10.6543 60.0837 13.5643 60.0837 17.1533V63.3513C60.0827 66.9413 57.1727 69.8513 53.5837 69.8513Z" fill="#EAEBED"/>
<path d="M45.7046 37.8062C45.5706 37.8462 45.4446 37.8792 45.3226 37.9102C45.3306 38.1782 45.3406 38.4462 45.3476 38.7172V38.7202C45.5926 46.8482 45.7046 56.0502 45.7426 62.2912C36.0766 64.2112 26.4546 64.2292 16.8746 62.2912C16.8616 56.0122 16.8996 46.7512 17.0796 38.6212C17.0896 38.2802 17.0976 37.9382 17.1046 37.6022C17.1076 37.4862 17.1096 37.3692 17.1146 37.2532V37.2502C17.0716 37.2502 17.0256 37.2472 16.9826 37.2452C14.9916 37.1592 13.3326 36.2382 12.2246 35.4062C11.2706 34.6982 10.7246 34.0482 10.7246 34.0482C12.7866 28.7232 17.3216 22.6502 18.3006 21.4382C18.3006 21.4352 18.3036 21.4352 18.3036 21.4332C18.3066 21.4302 18.3066 21.4302 18.3066 21.4302C18.9416 20.5342 21.2616 19.0572 23.6976 17.6432C24.1326 17.3872 24.5986 17.1932 25.0816 17.0642C25.5646 16.9322 26.0636 16.8672 26.5696 16.8672C26.8456 16.8672 27.0706 17.0902 27.0706 17.3682V17.3882C27.0706 19.9452 29.1906 22.0072 31.7656 21.9162C34.2166 21.8272 36.1296 19.7382 36.1296 17.2842C36.1296 17.2812 36.1296 17.2812 36.1296 17.2792C36.1296 17.0512 36.3146 16.8672 36.5396 16.8672C37.3336 16.8672 38.1106 17.0792 38.7936 17.4822C41.0956 18.8402 43.3296 20.2852 43.9796 21.2002C44.9026 22.3382 49.5266 28.8502 51.6996 34.0232C50.6376 35.5122 47.6026 37.2252 45.7046 37.8062Z" fill="#BDC1C6"/>
<path d="M20.3804 32.7577L17.0794 38.6217C17.0894 38.2807 17.0974 37.9387 17.1044 37.6027C17.1074 37.4867 17.1094 37.3697 17.1144 37.2537V37.2507C17.0714 37.2507 17.0254 37.2477 16.9824 37.2457L19.7194 32.3867C19.8204 32.2047 20.0534 32.1387 20.2354 32.2427C20.4184 32.3427 20.4844 32.5757 20.3804 32.7577Z" fill="#9DA3AA"/>
<path d="M45.3224 37.9098C45.3304 38.1778 45.3405 38.4458 45.3475 38.7168L41.9904 32.7568C41.8894 32.5748 41.9524 32.3418 42.1344 32.2408C42.3164 32.1368 42.5495 32.2028 42.6535 32.3848L45.7045 37.8058C45.5705 37.8468 45.4444 37.8798 45.3224 37.9098Z" fill="#9DA3AA"/>
<rect x="0.886719" y="72.8516" width="32" height="17" rx="4" fill="#EAEBED"/>
<path d="M12.703 86.0437C11.999 86.0437 11.319 85.9637 10.663 85.8037C10.007 85.6437 9.46697 85.4357 9.04297 85.1797L9.95497 83.1157C10.355 83.3477 10.799 83.5357 11.287 83.6797C11.783 83.8157 12.263 83.8837 12.727 83.8837C12.999 83.8837 13.211 83.8677 13.363 83.8357C13.523 83.7957 13.639 83.7437 13.711 83.6797C13.783 83.6077 13.819 83.5237 13.819 83.4277C13.819 83.2757 13.735 83.1557 13.567 83.0677C13.399 82.9797 13.175 82.9077 12.895 82.8517C12.623 82.7877 12.323 82.7237 11.995 82.6597C11.667 82.5877 11.335 82.4957 10.999 82.3837C10.671 82.2717 10.367 82.1237 10.087 81.9397C9.81497 81.7557 9.59497 81.5157 9.42697 81.2197C9.25897 80.9157 9.17497 80.5397 9.17497 80.0917C9.17497 79.5717 9.31897 79.0997 9.60697 78.6757C9.90297 78.2437 10.339 77.8997 10.915 77.6437C11.499 77.3877 12.223 77.2597 13.087 77.2597C13.655 77.2597 14.215 77.3197 14.767 77.4397C15.319 77.5597 15.815 77.7437 16.255 77.9917L15.403 80.0437C14.987 79.8357 14.583 79.6797 14.191 79.5757C13.807 79.4717 13.431 79.4197 13.063 79.4197C12.791 79.4197 12.575 79.4437 12.415 79.4917C12.255 79.5397 12.139 79.6037 12.067 79.6837C12.003 79.7637 11.971 79.8517 11.971 79.9477C11.971 80.0917 12.055 80.2077 12.223 80.2957C12.391 80.3757 12.611 80.4437 12.883 80.4997C13.163 80.5557 13.467 80.6157 13.795 80.6797C14.131 80.7437 14.463 80.8317 14.791 80.9437C15.119 81.0557 15.419 81.2037 15.691 81.3877C15.971 81.5717 16.195 81.8117 16.363 82.1077C16.531 82.4037 16.615 82.7717 16.615 83.2117C16.615 83.7237 16.467 84.1957 16.171 84.6277C15.883 85.0517 15.451 85.3957 14.875 85.6597C14.299 85.9157 13.575 86.0437 12.703 86.0437ZM12.127 87.2917V85.7317H13.819V87.2917H12.127ZM12.127 77.5717V76.0117H13.819V77.5717H12.127Z" fill="#6E7681"/>
<path d="M20.8417 86.0437C20.0977 86.0437 19.4417 85.9357 18.8737 85.7197C18.3137 85.4957 17.8737 85.1837 17.5537 84.7837C17.2337 84.3757 17.0737 83.8997 17.0737 83.3557C17.0737 82.8117 17.2377 82.3477 17.5657 81.9637C17.8937 81.5797 18.3417 81.2877 18.9097 81.0877C19.4777 80.8877 20.1217 80.7877 20.8417 80.7877C21.5617 80.7877 22.2057 80.8877 22.7737 81.0877C23.3417 81.2877 23.7897 81.5797 24.1177 81.9637C24.4457 82.3477 24.6097 82.8117 24.6097 83.3557C24.6097 83.8997 24.4497 84.3757 24.1297 84.7837C23.8097 85.1837 23.3657 85.4957 22.7977 85.7197C22.2377 85.9357 21.5857 86.0437 20.8417 86.0437ZM20.8417 84.1357C21.1137 84.1357 21.3337 84.0597 21.5017 83.9077C21.6777 83.7477 21.7657 83.5317 21.7657 83.2597C21.7657 82.9877 21.6777 82.7757 21.5017 82.6237C21.3337 82.4637 21.1137 82.3837 20.8417 82.3837C20.5697 82.3837 20.3457 82.4637 20.1697 82.6237C20.0017 82.7757 19.9177 82.9877 19.9177 83.2597C19.9177 83.5317 20.0017 83.7477 20.1697 83.9077C20.3457 84.0597 20.5697 84.1357 20.8417 84.1357ZM20.8417 82.1557C20.1857 82.1557 19.5937 82.0637 19.0657 81.8797C18.5457 81.6877 18.1337 81.4157 17.8297 81.0637C17.5257 80.7037 17.3737 80.2717 17.3737 79.7677C17.3737 79.2557 17.5217 78.8157 17.8177 78.4477C18.1137 78.0717 18.5217 77.7797 19.0417 77.5717C19.5617 77.3637 20.1617 77.2597 20.8417 77.2597C21.5217 77.2597 22.1217 77.3637 22.6417 77.5717C23.1617 77.7797 23.5697 78.0717 23.8657 78.4477C24.1617 78.8157 24.3097 79.2557 24.3097 79.7677C24.3097 80.2717 24.1577 80.7037 23.8537 81.0637C23.5497 81.4157 23.1377 81.6877 22.6177 81.8797C22.0977 82.0637 21.5057 82.1557 20.8417 82.1557ZM20.8417 80.6077C21.0337 80.6077 21.1937 80.5437 21.3217 80.4157C21.4497 80.2877 21.5137 80.1117 21.5137 79.8877C21.5137 79.6557 21.4497 79.4797 21.3217 79.3597C21.1937 79.2317 21.0337 79.1677 20.8417 79.1677C20.6497 79.1677 20.4897 79.2317 20.3617 79.3597C20.2337 79.4797 20.1697 79.6557 20.1697 79.8877C20.1697 80.1117 20.2337 80.2877 20.3617 80.4157C20.4897 80.5437 20.6497 80.6077 20.8417 80.6077Z" fill="#6E7681"/>
<path opacity="0.7" d="M122.941 69.8513H76.7432C73.1532 69.8513 70.2432 66.9413 70.2432 63.3513V17.1533C70.2432 13.5643 73.1532 10.6543 76.7432 10.6543H122.941C126.53 10.6543 129.44 13.5643 129.44 17.1533V63.3513C129.44 66.9413 126.53 69.8513 122.941 69.8513Z" fill="#EAEBED"/>
<path d="M118.774 53.5113H99.4534C99.4534 53.5113 98.6513 52.3423 97.5943 50.6683C97.2043 50.0513 96.7773 49.3683 96.3443 48.6473C94.2223 45.1133 90.5344 41.0813 90.5344 41.0813L88.0324 50.6683L87.2914 53.5113H84.6004C84.6004 53.5113 84.5244 52.3703 84.3854 50.6683C84.0644 46.7753 83.4114 39.9403 82.5644 37.0263C81.3474 32.8403 81.8894 28.5143 83.6444 26.8923C85.4024 25.2713 87.2923 26.8923 87.2923 26.8923L89.0484 28.0103L93.2623 30.6943C94.6863 31.7393 96.8014 32.9433 98.5564 34.2033C99.3634 34.7803 100.091 35.3693 100.648 35.9593C103.345 38.8353 107.718 42.6043 112.841 44.6333C116.453 46.0623 117.883 48.6533 118.439 50.6693C118.883 52.2713 118.774 53.5113 118.774 53.5113Z" fill="#BDC1C6"/>
<path d="M98.5554 34.2018C95.7224 35.6538 90.7614 33.5768 89.1224 30.8098C88.2424 29.3228 88.4874 28.4848 89.0464 28.0098L93.2604 30.6938C94.6854 31.7378 96.7994 32.9418 98.5554 34.2018Z" fill="#9DA3AA"/>
<path d="M84.3848 50.668H88.0328L87.2918 53.511H84.6008C84.6008 53.511 84.5238 52.371 84.3848 50.668Z" fill="#9DA3AA"/>
<path d="M118.775 53.511H99.4537C99.4537 53.511 98.6517 52.342 97.5947 50.668H118.439C118.884 52.271 118.775 53.511 118.775 53.511Z" fill="#9DA3AA"/>
<rect x="70.2432" y="72.8516" width="32" height="17" rx="4" fill="#EAEBED"/>
<path d="M82.0594 86.0437C81.3554 86.0437 80.6754 85.9637 80.0194 85.8037C79.3634 85.6437 78.8234 85.4357 78.3994 85.1797L79.3114 83.1157C79.7114 83.3477 80.1554 83.5357 80.6434 83.6797C81.1394 83.8157 81.6194 83.8837 82.0834 83.8837C82.3554 83.8837 82.5674 83.8677 82.7194 83.8357C82.8794 83.7957 82.9954 83.7437 83.0674 83.6797C83.1394 83.6077 83.1754 83.5237 83.1754 83.4277C83.1754 83.2757 83.0914 83.1557 82.9234 83.0677C82.7554 82.9797 82.5314 82.9077 82.2514 82.8517C81.9794 82.7877 81.6794 82.7237 81.3514 82.6597C81.0234 82.5877 80.6914 82.4957 80.3554 82.3837C80.0274 82.2717 79.7234 82.1237 79.4434 81.9397C79.1714 81.7557 78.9514 81.5157 78.7834 81.2197C78.6154 80.9157 78.5314 80.5397 78.5314 80.0917C78.5314 79.5717 78.6754 79.0997 78.9634 78.6757C79.2594 78.2437 79.6954 77.8997 80.2714 77.6437C80.8554 77.3877 81.5794 77.2597 82.4434 77.2597C83.0114 77.2597 83.5714 77.3197 84.1234 77.4397C84.6754 77.5597 85.1714 77.7437 85.6114 77.9917L84.7594 80.0437C84.3434 79.8357 83.9394 79.6797 83.5474 79.5757C83.1634 79.4717 82.7874 79.4197 82.4194 79.4197C82.1474 79.4197 81.9314 79.4437 81.7714 79.4917C81.6114 79.5397 81.4954 79.6037 81.4234 79.6837C81.3594 79.7637 81.3274 79.8517 81.3274 79.9477C81.3274 80.0917 81.4114 80.2077 81.5794 80.2957C81.7474 80.3757 81.9674 80.4437 82.2394 80.4997C82.5194 80.5557 82.8234 80.6157 83.1514 80.6797C83.4874 80.7437 83.8194 80.8317 84.1474 80.9437C84.4754 81.0557 84.7754 81.2037 85.0474 81.3877C85.3274 81.5717 85.5514 81.8117 85.7194 82.1077C85.8874 82.4037 85.9714 82.7717 85.9714 83.2117C85.9714 83.7237 85.8234 84.1957 85.5274 84.6277C85.2394 85.0517 84.8074 85.3957 84.2314 85.6597C83.6554 85.9157 82.9314 86.0437 82.0594 86.0437ZM81.4834 87.2917V85.7317H83.1754V87.2917H81.4834ZM81.4834 77.5717V76.0117H83.1754V77.5717H81.4834Z" fill="#6E7681"/>
<path d="M90.1981 86.0437C89.4541 86.0437 88.7981 85.9357 88.2301 85.7197C87.6701 85.4957 87.2301 85.1837 86.9101 84.7837C86.5901 84.3757 86.4301 83.8997 86.4301 83.3557C86.4301 82.8117 86.5941 82.3477 86.9221 81.9637C87.2501 81.5797 87.6981 81.2877 88.2661 81.0877C88.8341 80.8877 89.4781 80.7877 90.1981 80.7877C90.9181 80.7877 91.5621 80.8877 92.1301 81.0877C92.6981 81.2877 93.1461 81.5797 93.4741 81.9637C93.8021 82.3477 93.9661 82.8117 93.9661 83.3557C93.9661 83.8997 93.8061 84.3757 93.4861 84.7837C93.1661 85.1837 92.7221 85.4957 92.1541 85.7197C91.5941 85.9357 90.9421 86.0437 90.1981 86.0437ZM90.1981 84.1357C90.4701 84.1357 90.6901 84.0597 90.8581 83.9077C91.0341 83.7477 91.1221 83.5317 91.1221 83.2597C91.1221 82.9877 91.0341 82.7757 90.8581 82.6237C90.6901 82.4637 90.4701 82.3837 90.1981 82.3837C89.9261 82.3837 89.7021 82.4637 89.5261 82.6237C89.3581 82.7757 89.2741 82.9877 89.2741 83.2597C89.2741 83.5317 89.3581 83.7477 89.5261 83.9077C89.7021 84.0597 89.9261 84.1357 90.1981 84.1357ZM90.1981 82.1557C89.5421 82.1557 88.9501 82.0637 88.4221 81.8797C87.9021 81.6877 87.4901 81.4157 87.1861 81.0637C86.8821 80.7037 86.7301 80.2717 86.7301 79.7677C86.7301 79.2557 86.8781 78.8157 87.1741 78.4477C87.4701 78.0717 87.8781 77.7797 88.3981 77.5717C88.9181 77.3637 89.5181 77.2597 90.1981 77.2597C90.8781 77.2597 91.4781 77.3637 91.9981 77.5717C92.5181 77.7797 92.9261 78.0717 93.2221 78.4477C93.5181 78.8157 93.6661 79.2557 93.6661 79.7677C93.6661 80.2717 93.5141 80.7037 93.2101 81.0637C92.9061 81.4157 92.4941 81.6877 91.9741 81.8797C91.4541 82.0637 90.8621 82.1557 90.1981 82.1557ZM90.1981 80.6077C90.3901 80.6077 90.5501 80.5437 90.6781 80.4157C90.8061 80.2877 90.8701 80.1117 90.8701 79.8877C90.8701 79.6557 90.8061 79.4797 90.6781 79.3597C90.5501 79.2317 90.3901 79.1677 90.1981 79.1677C90.0061 79.1677 89.8461 79.2317 89.7181 79.3597C89.5901 79.4797 89.5261 79.6557 89.5261 79.8877C89.5261 80.1117 89.5901 80.2877 89.7181 80.4157C89.8461 80.5437 90.0061 80.6077 90.1981 80.6077Z" fill="#6E7681"/>
<path opacity="0.7" d="M192.454 69.8513H146.256C142.666 69.8513 139.757 66.9413 139.757 63.3513V17.1533C139.757 13.5643 142.667 10.6543 146.256 10.6543H192.454C196.044 10.6543 198.954 13.5643 198.954 17.1533V63.3513C198.954 66.9413 196.044 69.8513 192.454 69.8513Z" fill="#EAEBED"/>
<path d="M191.242 36.1209V53.5119C191.242 53.5119 189.001 53.4589 184.252 53.4589C183.63 53.4589 182.547 52.5879 182.059 52.6049C179.319 52.7029 175.973 53.4589 175.973 53.4589H145.836C145.962 52.4679 146.288 51.5389 146.776 50.6689C150.906 43.2709 166.574 39.9369 169.111 36.5969C169.982 35.4499 170.922 34.3699 171.807 33.4209C172.678 32.4859 173.404 31.5669 174.14 31.0689C175.517 30.1359 177.601 33.8339 177.601 33.8339C180.794 35.3679 185.717 34.6939 188.694 34.0599C190.007 33.7779 191.242 34.7779 191.242 36.1209Z" fill="#BDC1C6"/>
<path d="M191.242 50.668V53.512C191.242 53.512 189.001 53.459 184.252 53.459C183.63 53.459 182.547 52.588 182.059 52.605C179.319 52.703 175.973 53.459 175.973 53.459H145.836C145.962 52.468 146.288 51.539 146.776 50.669L191.242 50.668Z" fill="#9DA3AA"/>
<path d="M155.87 43.3891C155.87 43.3891 157.077 42.8101 157.811 42.4471C157.882 42.4121 158.742 41.3741 159.928 41.6561C161.559 42.0441 162.59 43.2791 163.056 43.9731C163.233 44.2371 163.589 44.3111 163.862 44.1471C164.147 43.9751 164.241 43.6051 164.067 43.3221C163.582 42.5301 162.5 41.0831 160.895 40.6951C159.212 40.2901 157.079 40.7501 155.87 43.3891Z" fill="#6E7681"/>
<path d="M158.337 42.2211C158.337 42.2211 159.544 41.6761 160.278 41.3131C160.349 41.2781 161.209 40.2061 162.395 40.4881C164.026 40.8761 165.057 42.1111 165.523 42.8051C165.701 43.0691 166.056 43.1431 166.329 42.9791C166.614 42.8071 166.707 42.4371 166.534 42.1541C166.049 41.3621 164.967 39.9151 163.362 39.5271C161.68 39.1221 159.547 39.5831 158.337 42.2211Z" fill="#6E7681"/>
<path d="M160.667 41.2875C160.667 41.2875 161.874 40.7085 162.608 40.3455C162.679 40.3105 163.539 39.2725 164.725 39.5545C166.356 39.9425 167.387 41.1775 167.853 41.8715C168.031 42.1355 168.386 42.2095 168.659 42.0455C168.944 41.8735 169.037 41.5035 168.864 41.2205C168.379 40.4285 167.297 38.9815 165.692 38.5935C164.01 38.1885 161.877 38.6495 160.667 41.2875Z" fill="#6E7681"/>
<path d="M163.051 40.139C163.051 40.139 164.258 39.594 164.992 39.231C165.063 39.196 165.923 38.124 167.109 38.406C168.74 38.794 169.771 40.029 170.237 40.723C170.415 40.987 170.77 41.061 171.043 40.897C171.328 40.725 171.422 40.355 171.248 40.072C170.763 39.28 169.681 37.833 168.076 37.445C166.394 37.04 164.261 37.501 163.051 40.139Z" fill="#6E7681"/>
<rect x="139.757" y="72.8516" width="32" height="17" rx="4" fill="#EAEBED"/>
<path d="M151.417 85.8836C150.713 85.8836 150.033 85.8036 149.377 85.6436C148.721 85.4836 148.181 85.2756 147.757 85.0196L148.669 82.9556C149.069 83.1876 149.513 83.3756 150.001 83.5196C150.497 83.6556 150.977 83.7236 151.441 83.7236C151.713 83.7236 151.925 83.7076 152.077 83.6756C152.237 83.6356 152.353 83.5836 152.425 83.5196C152.497 83.4476 152.533 83.3636 152.533 83.2676C152.533 83.1156 152.449 82.9956 152.281 82.9076C152.113 82.8196 151.889 82.7476 151.609 82.6916C151.337 82.6276 151.037 82.5636 150.709 82.4996C150.381 82.4276 150.049 82.3356 149.713 82.2236C149.385 82.1116 149.081 81.9636 148.801 81.7796C148.529 81.5956 148.309 81.3556 148.141 81.0596C147.973 80.7556 147.889 80.3796 147.889 79.9316C147.889 79.4116 148.033 78.9396 148.321 78.5156C148.617 78.0836 149.053 77.7396 149.629 77.4836C150.213 77.2276 150.937 77.0996 151.801 77.0996C152.369 77.0996 152.929 77.1596 153.481 77.2796C154.033 77.3996 154.529 77.5836 154.969 77.8316L154.117 79.8836C153.701 79.6756 153.297 79.5196 152.905 79.4156C152.521 79.3116 152.145 79.2596 151.777 79.2596C151.505 79.2596 151.289 79.2836 151.129 79.3316C150.969 79.3796 150.853 79.4436 150.781 79.5236C150.717 79.6036 150.685 79.6916 150.685 79.7876C150.685 79.9316 150.769 80.0476 150.937 80.1356C151.105 80.2156 151.325 80.2836 151.597 80.3396C151.877 80.3956 152.181 80.4556 152.509 80.5196C152.845 80.5836 153.177 80.6716 153.505 80.7836C153.833 80.8956 154.133 81.0436 154.405 81.2276C154.685 81.4116 154.909 81.6516 155.077 81.9476C155.245 82.2436 155.329 82.6116 155.329 83.0516C155.329 83.5636 155.181 84.0356 154.885 84.4676C154.597 84.8916 154.165 85.2356 153.589 85.4996C153.013 85.7556 152.289 85.8836 151.417 85.8836ZM150.841 87.1316V85.5716H152.533V87.1316H150.841ZM150.841 77.4116V75.8516H152.533V77.4116H150.841Z" fill="#6E7681"/>
<path d="M155.764 84.2516V82.4516L159.328 77.2916H162.232L158.8 82.4516L157.48 82.0556H163.984V84.2516H155.764ZM160.12 85.6916V84.2516L160.204 82.0556V80.7716H162.868V85.6916H160.12Z" fill="#6E7681"/>
<path d="M177.362 23.7514L208.728 19.6109C208.933 19.5837 209.093 19.4157 209.113 19.2055L208.887 0.153442C208.916 -0.154504 209.183 0.0847719 208.887 0.153442L176.887 5.48201L177.362 23.7514Z" fill="#DBA617"/>
<path d="M180.083 18.3196C179.772 18.2885 179.608 18.0713 179.596 17.6741L179.378 10.3199C179.363 9.84051 179.57 9.59271 180.048 9.51663L184.894 8.74625C185.003 8.72871 185.095 8.72437 185.176 8.73239C185.487 8.76352 185.651 8.98052 185.663 9.37765L185.694 10.4351C185.709 10.9231 185.502 11.1744 185.024 11.2503L182.165 11.7046L182.192 12.6106L184.383 12.2625C184.492 12.245 184.584 12.2404 184.664 12.2484C184.976 12.2796 185.14 12.4968 185.151 12.8939L185.183 13.9512C185.197 14.4389 184.991 14.6903 184.513 14.7661L182.267 15.1232L182.331 17.2963C182.346 17.7827 182.148 18.0223 181.672 18.0979L180.365 18.3056C180.256 18.3231 180.163 18.3277 180.083 18.3196Z" fill="#ED8D2A"/>
<path d="M186.733 17.2628C186.421 17.2317 186.257 17.0146 186.246 16.6175L186.027 9.26334C186.013 8.78342 186.22 8.53567 186.698 8.45982L189.994 7.93594C190.351 7.8791 190.689 7.86626 191.001 7.89738C192.362 8.03355 193.169 8.99174 193.214 10.5267C193.247 11.6348 192.874 12.549 192.133 13.1862C192.207 13.2842 192.274 13.3861 192.335 13.4943L193.433 15.3333C193.563 15.5549 193.588 15.7767 193.504 15.9594C193.445 16.0863 193.309 16.2482 192.993 16.2985L191.744 16.497C191.526 16.5319 191.347 16.5413 191.196 16.5263C190.844 16.491 190.608 16.3238 190.432 15.9839L189.645 14.4938C189.505 14.246 189.399 14.1546 189.226 14.1374C189.16 14.1307 189.083 14.1346 188.991 14.1492L188.919 14.1607L188.98 16.2397C188.995 16.7256 188.798 16.9653 188.321 17.0411L187.015 17.2489C186.905 17.2665 186.813 17.2708 186.733 17.2628ZM188.847 11.7419L189.847 11.5829C190.214 11.5246 190.41 11.284 190.398 10.9056C190.388 10.5451 190.205 10.4853 190.069 10.4717C190.01 10.4658 189.943 10.4686 189.869 10.4804L188.814 10.648L188.847 11.7419Z" fill="#ED8D2A"/>
<path d="M194.377 16.0462C194.066 16.015 193.902 15.7978 193.89 15.4007L193.672 8.04646C193.658 7.56683 193.864 7.31901 194.343 7.24316L199.188 6.47298C199.297 6.45546 199.39 6.45087 199.47 6.45891C199.781 6.49005 199.945 6.70731 199.957 7.10443L199.988 8.16191C200.003 8.64937 199.796 8.90071 199.318 8.97676L196.459 9.43135L196.476 10.0201L198.667 9.67199C198.777 9.65447 198.869 9.64992 198.949 9.65796C199.261 9.68908 199.424 9.90632 199.436 10.3034L199.468 11.3609C199.482 11.8486 199.275 12.0999 198.797 12.1758L196.551 12.5328L196.571 13.2039L199.479 12.7418C199.588 12.7244 199.679 12.7198 199.758 12.7277C200.218 12.7737 200.232 13.2264 200.236 13.3749L200.268 14.4438C200.282 14.9234 200.079 15.1705 199.609 15.2454L194.659 16.0322C194.55 16.0499 194.458 16.0542 194.377 16.0462Z" fill="#ED8D2A"/>
<path d="M201.178 14.9661C200.867 14.9349 200.703 14.7177 200.691 14.3206L200.472 6.96637C200.458 6.48674 200.665 6.23897 201.143 6.16307L205.989 5.39289C206.098 5.37535 206.19 5.3708 206.271 5.37884C206.582 5.40996 206.746 5.62722 206.758 6.02434L206.789 7.08182C206.803 7.56951 206.596 7.82084 206.118 7.89672L203.26 8.3511L203.277 8.93984L205.468 8.59174C205.577 8.5742 205.67 8.56963 205.75 8.57767C206.061 8.60882 206.225 8.82605 206.237 9.22314L206.268 10.2806C206.283 10.7683 206.076 11.0197 205.598 11.0955L203.352 11.4526L203.372 12.1237L206.28 11.6618C206.389 11.6444 206.48 11.6397 206.559 11.6476C206.864 11.6782 207.025 11.896 207.037 12.2949L207.069 13.3638C207.083 13.8432 206.879 14.0905 206.409 14.1653L201.46 14.952C201.351 14.9695 201.258 14.9741 201.178 14.9661Z" fill="#ED8D2A"/>
<path d="M185.44 9.38444L185.472 10.4419C185.483 10.8179 185.36 10.9674 184.99 11.0261L181.937 11.5115L181.977 12.8742L184.417 12.4863C184.787 12.4274 184.918 12.5366 184.929 12.9007L184.961 13.958C184.972 14.3339 184.848 14.4833 184.478 14.5422L182.038 14.9301L182.109 17.3032C182.12 17.6675 182.008 17.8152 181.638 17.8738L180.331 18.0816C179.961 18.1405 179.83 18.0315 179.819 17.6672L179.6 10.313C179.589 9.94865 179.713 9.79931 180.083 9.74044L184.929 8.97006C185.298 8.91138 185.43 9.02011 185.44 9.38444Z" fill="#FFFAF0"/>
<path d="M192.993 10.5335C193.027 11.6847 192.589 12.5807 191.816 13.152C191.936 13.2865 192.045 13.4345 192.143 13.6075L193.244 15.451C193.415 15.7426 193.342 16.0138 192.96 16.0746L191.711 16.2731C191.098 16.3704 190.828 16.2602 190.631 15.8783L189.843 14.3864C189.634 14.0181 189.431 13.85 188.957 13.9253L188.691 13.9677L188.759 16.2466C188.77 16.6109 188.658 16.7584 188.288 16.8172L186.981 17.0251C186.611 17.0837 186.48 16.975 186.469 16.6106L186.251 9.25643C186.24 8.8921 186.363 8.74254 186.733 8.68387L190.029 8.1598C191.776 7.88222 192.939 8.71282 192.993 10.5335ZM189.836 10.2563L188.587 10.455L188.633 12.0055L189.882 11.8068C190.368 11.7297 190.636 11.3804 190.622 10.8987C190.608 10.4287 190.333 10.1774 189.836 10.2563Z" fill="#FFFAF0"/>
<path d="M199.734 7.11113L199.766 8.16862C199.777 8.54453 199.653 8.69389 199.283 8.75274L196.23 9.23816L196.262 10.2836L198.702 9.89571C199.072 9.83686 199.203 9.94585 199.214 10.3102L199.245 11.3676C199.256 11.7436 199.133 11.8929 198.763 11.9518L196.323 12.3397L196.356 13.4675L199.513 12.9655C199.872 12.9084 200.003 13.0058 200.014 13.3817L200.045 14.4505C200.056 14.8149 199.933 14.9642 199.574 15.0214L194.625 15.8082C194.255 15.8669 194.124 15.7581 194.113 15.3936L193.894 8.03939C193.883 7.6753 194.007 7.52572 194.377 7.46705L199.222 6.69667C199.592 6.63783 199.724 6.74681 199.734 7.11113Z" fill="#FFFAF0"/>
<path d="M206.535 6.03106L206.566 7.08856C206.578 7.46447 206.454 7.61383 206.084 7.67269L203.031 8.1579L203.062 9.20334L205.502 8.81545C205.872 8.75658 206.003 8.86555 206.014 9.22984L206.046 10.2873C206.057 10.6633 205.934 10.8126 205.563 10.8715L203.123 11.2594L203.157 12.3872L206.314 11.8854C206.672 11.8283 206.803 11.9257 206.814 12.3016L206.846 13.3705C206.857 13.7348 206.734 13.8842 206.375 13.9413L201.426 14.728C201.055 14.7868 200.924 14.6778 200.914 14.3135L200.695 6.95931C200.684 6.59502 200.807 6.4456 201.178 6.38676L206.023 5.61657C206.393 5.55778 206.524 5.66675 206.535 6.03106Z" fill="#FFFAF0"/>
</svg>
