<svg width="19" height="18" viewBox="0 0 19 18" fill="none" xmlns="http://www.w3.org/2000/svg">
<path d="M16.25 6.705C16.2422 6.6361 16.2271 6.56822 16.205 6.5025V6.435C16.1689 6.35788 16.1208 6.287 16.0625 6.225L11.5625 1.725C11.5005 1.66666 11.4296 1.61856 11.3525 1.5825C11.3301 1.57932 11.3074 1.57932 11.285 1.5825C11.2088 1.53881 11.1247 1.51076 11.0375 1.5H8C7.40326 1.5 6.83097 1.73705 6.40901 2.15901C5.98705 2.58097 5.75 3.15326 5.75 3.75V4.5H5C4.40326 4.5 3.83097 4.73705 3.40901 5.15901C2.98705 5.58097 2.75 6.15326 2.75 6.75V14.25C2.75 14.8467 2.98705 15.419 3.40901 15.841C3.83097 16.2629 4.40326 16.5 5 16.5H11C11.5967 16.5 12.169 16.2629 12.591 15.841C13.0129 15.419 13.25 14.8467 13.25 14.25V13.5H14C14.5967 13.5 15.169 13.2629 15.591 12.841C16.0129 12.419 16.25 11.8467 16.25 11.25V6.75C16.25 6.75 16.25 6.75 16.25 6.705ZM11.75 4.0575L13.6925 6H12.5C12.3011 6 12.1103 5.92098 11.9697 5.78033C11.829 5.63968 11.75 5.44891 11.75 5.25V4.0575ZM11.75 14.25C11.75 14.4489 11.671 14.6397 11.5303 14.7803C11.3897 14.921 11.1989 15 11 15H5C4.80109 15 4.61032 14.921 4.46967 14.7803C4.32902 14.6397 4.25 14.4489 4.25 14.25V6.75C4.25 6.55109 4.32902 6.36032 4.46967 6.21967C4.61032 6.07902 4.80109 6 5 6H5.75V11.25C5.75 11.8467 5.98705 12.419 6.40901 12.841C6.83097 13.2629 7.40326 13.5 8 13.5H11.75V14.25ZM14.75 11.25C14.75 11.4489 14.671 11.6397 14.5303 11.7803C14.3897 11.921 14.1989 12 14 12H8C7.80109 12 7.61032 11.921 7.46967 11.7803C7.32902 11.6397 7.25 11.4489 7.25 11.25V3.75C7.25 3.55109 7.32902 3.36032 7.46967 3.21967C7.61032 3.07902 7.80109 3 8 3H10.25V5.25C10.25 5.84674 10.4871 6.41903 10.909 6.84099C11.331 7.26295 11.9033 7.5 12.5 7.5H14.75V11.25Z" fill="#555E6B"/>
</svg>
