<svg width="90" height="90" viewBox="0 0 90 90" fill="none" xmlns="http://www.w3.org/2000/svg">
<path d="M34.202 30.4102C34.4551 30.4102 34.6978 30.3083 34.8768 30.127C35.0557 29.9457 35.1562 29.6998 35.1562 29.4434C35.1562 29.1869 35.0557 28.941 34.8768 28.7597C34.6978 28.5784 34.4551 28.4766 34.202 28.4766H29.4308C29.1777 28.4766 28.935 28.5784 28.7561 28.7597C28.5771 28.941 28.4766 29.1869 28.4766 29.4434V37.1777C28.4766 37.4341 28.5771 37.6801 28.7561 37.8614C28.935 38.0427 29.1777 38.1445 29.4308 38.1445H34.202C34.4551 38.1445 34.6978 38.0427 34.8768 37.8614C35.0557 37.6801 35.1562 37.4341 35.1562 37.1777C35.1562 36.9213 35.0557 36.6754 34.8768 36.4941C34.6978 36.3128 34.4551 36.2109 34.202 36.2109H30.385V34.2773H34.202C34.4551 34.2773 34.6978 34.1755 34.8768 33.9942C35.0557 33.8129 35.1562 33.567 35.1562 33.3105C35.1562 33.0541 35.0557 32.8082 34.8768 32.6269C34.6978 32.4456 34.4551 32.3438 34.202 32.3438H30.385V30.4102H34.202Z" fill="#F1503C"/>
<path d="M42.966 28.4766H38.0692C37.8095 28.4766 37.5604 28.5784 37.3767 28.7597C37.193 28.941 37.0898 29.1869 37.0898 29.4434C37.0898 29.6998 37.193 29.9457 37.3767 30.127C37.5604 30.3083 37.8095 30.4102 38.0692 30.4102H39.5382V37.1777C39.5382 37.4341 39.6414 37.6801 39.8251 37.8614C40.0087 38.0427 40.2578 38.1445 40.5176 38.1445C40.7773 38.1445 41.0264 38.0427 41.2101 37.8614C41.3937 37.6801 41.4969 37.4341 41.4969 37.1777V30.4102H42.966C43.2257 30.4102 43.4748 30.3083 43.6585 30.127C43.8421 29.9457 43.9453 29.6998 43.9453 29.4434C43.9453 29.1869 43.8421 28.941 43.6585 28.7597C43.4748 28.5784 43.2257 28.4766 42.966 28.4766Z" fill="#F1503C"/>
<path d="M22.3807 30.4102H23.8497C24.0445 30.4104 24.2311 30.4869 24.3688 30.6228C24.5065 30.7587 24.584 30.943 24.5843 31.1353C24.5843 31.3917 24.6874 31.6376 24.8711 31.8189C25.0548 32.0002 25.3039 32.1021 25.5636 32.1021C25.8234 32.1021 26.0725 32.0002 26.2561 31.8189C26.4398 31.6376 26.543 31.3917 26.543 31.1353C26.5424 30.4303 26.2585 29.7543 25.7536 29.2558C25.2486 28.7574 24.5639 28.4771 23.8497 28.4766H22.3807C21.6666 28.4771 20.9819 28.7574 20.4769 29.2558C19.9719 29.7543 19.688 30.4303 19.6875 31.1353V35.4858C19.688 36.1908 19.9719 36.8668 20.4769 37.3653C20.9819 37.8637 21.6666 38.144 22.3807 38.1445H23.8497C24.5639 38.144 25.2486 37.8637 25.7536 37.3653C26.2585 36.8668 26.5424 36.1908 26.543 35.4858V33.7939C26.543 33.5375 26.4398 33.2916 26.2561 33.1103C26.0725 32.929 25.8234 32.8271 25.5636 32.8271H23.6049C23.3452 32.8271 23.0961 32.929 22.9124 33.1103C22.7287 33.2916 22.6256 33.5375 22.6256 33.7939C22.6256 34.0504 22.7287 34.2963 22.9124 34.4776C23.0961 34.6589 23.3452 34.7607 23.6049 34.7607H24.5843V35.4858C24.584 35.6781 24.5065 35.8624 24.3688 35.9983C24.2311 36.1342 24.0445 36.2107 23.8497 36.2109H22.3807C22.186 36.2107 21.9993 36.1342 21.8616 35.9983C21.7239 35.8624 21.6465 35.6781 21.6462 35.4858V31.1353C21.6465 30.943 21.7239 30.7587 21.8616 30.6228C21.9993 30.4869 22.186 30.4104 22.3807 30.4102Z" fill="#F1503C"/>
<path d="M77.3438 23.9062H12.6563C12.4203 23.9063 12.1881 23.8469 11.9811 23.7336C11.7741 23.6203 11.5989 23.4567 11.4717 23.2579C11.3446 23.0592 11.2694 22.8316 11.2533 22.5962C11.2372 22.3608 11.2805 22.125 11.3794 21.9108L14.4056 15.3548C14.4909 15.1701 14.535 14.9691 14.535 14.7656C14.535 14.5622 14.4909 14.3611 14.4056 14.1764L11.3808 7.62047C11.282 7.40631 11.2386 7.17074 11.2547 6.93543C11.2707 6.70011 11.3457 6.47262 11.4728 6.27389C11.5998 6.07516 11.7748 5.91157 11.9816 5.79818C12.1884 5.68479 12.4204 5.62523 12.6563 5.625H77.3438C77.5798 5.625 77.8119 5.68438 78.0189 5.79767C78.2259 5.91097 78.4011 6.07453 78.5283 6.2733C78.6555 6.47207 78.7306 6.69965 78.7467 6.93507C78.7629 7.1705 78.7195 7.4062 78.6207 7.62047L75.5944 14.1764C75.5091 14.3611 75.465 14.5622 75.465 14.7656C75.465 14.9691 75.5091 15.1701 75.5944 15.3548L78.6207 21.9108C78.7195 22.125 78.7629 22.3608 78.7467 22.5962C78.7306 22.8316 78.6555 23.0592 78.5283 23.2579C78.4011 23.4567 78.2259 23.6203 78.0189 23.7336C77.8119 23.8469 77.5798 23.9063 77.3438 23.9062Z" fill="#E62E2E"/>
<path d="M27.4219 9.14067H23.2031C22.8302 9.14067 22.4725 9.28882 22.2088 9.55255C21.945 9.81627 21.7969 10.174 21.7969 10.5469V21.7969C21.7969 22.1699 21.945 22.5276 22.2088 22.7913C22.4725 23.055 22.8302 23.2032 23.2031 23.2032H27.4219C28.2378 23.2068 29.0371 22.9727 29.7222 22.5294C30.4073 22.0862 30.9484 21.453 31.2795 20.7073C31.6106 19.9615 31.7174 19.1355 31.5867 18.3301C31.4561 17.5247 31.0936 16.7747 30.5437 16.1719C31.0936 15.5691 31.4561 14.8192 31.5867 14.0138C31.7174 13.2083 31.6106 12.3823 31.2795 11.6365C30.9484 10.8908 30.4073 10.2576 29.7222 9.8144C29.0371 9.37117 28.2378 9.13706 27.4219 9.14067ZM24.6094 11.9532H27.4219C27.7948 11.9532 28.1525 12.1013 28.4162 12.365C28.68 12.6288 28.8281 12.9865 28.8281 13.3594C28.8281 13.7324 28.68 14.0901 28.4162 14.3538C28.1525 14.6175 27.7948 14.7657 27.4219 14.7657H24.6094V11.9532ZM27.4219 20.3907H24.6094V17.5782H27.4219C27.7948 17.5782 28.1525 17.7263 28.4162 17.99C28.68 18.2538 28.8281 18.6115 28.8281 18.9844C28.8281 19.3574 28.68 19.7151 28.4162 19.9788C28.1525 20.2425 27.7948 20.3907 27.4219 20.3907Z" fill="#A00028"/>
<path d="M41.4844 9.14062C41.1114 9.14062 40.7537 9.28878 40.49 9.55251C40.2263 9.81623 40.0781 10.1739 40.0781 10.5469V18.2812C40.0781 18.8407 39.8559 19.3772 39.4603 19.7728C39.0647 20.1684 38.5282 20.3906 37.9688 20.3906C37.4093 20.3906 36.8728 20.1684 36.4772 19.7728C36.0816 19.3772 35.8594 18.8407 35.8594 18.2812V10.5469C35.8594 10.1739 35.7112 9.81623 35.4475 9.55251C35.1838 9.28878 34.8261 9.14062 34.4531 9.14062C34.0802 9.14062 33.7225 9.28878 33.4588 9.55251C33.195 9.81623 33.0469 10.1739 33.0469 10.5469V18.2812C33.0469 19.5866 33.5654 20.8385 34.4885 21.7615C35.4115 22.6846 36.6634 23.2031 37.9688 23.2031C39.2741 23.2031 40.526 22.6846 41.449 21.7615C42.3721 20.8385 42.8906 19.5866 42.8906 18.2812V10.5469C42.8906 10.1739 42.7425 9.81623 42.4787 9.55251C42.215 9.28878 41.8573 9.14062 41.4844 9.14062Z" fill="#A00028"/>
<path d="M53.3634 9.28834C53.1981 9.20571 53.0182 9.15646 52.8339 9.14341C52.6495 9.13035 52.4645 9.15375 52.2892 9.21226C52.114 9.27076 51.9519 9.36324 51.8124 9.48439C51.6729 9.60554 51.5587 9.753 51.4762 9.91834L49.2191 14.4338L46.9691 9.91834C46.8866 9.75305 46.7723 9.60565 46.6328 9.48454C46.4933 9.36343 46.3313 9.27099 46.156 9.21249C45.9808 9.15399 45.7957 9.13057 45.6114 9.14359C45.4272 9.1566 45.2472 9.20579 45.082 9.28834C44.9167 9.37088 44.7693 9.48518 44.6482 9.62469C44.5271 9.76421 44.4346 9.92621 44.3761 10.1015C44.3176 10.2767 44.2942 10.4617 44.3072 10.646C44.3202 10.8303 44.3694 11.0102 44.452 11.1755L47.8129 17.9101V21.7969C47.8129 22.1699 47.961 22.5276 48.2248 22.7913C48.4885 23.055 48.8462 23.2032 49.2191 23.2032C49.5921 23.2032 49.9498 23.055 50.2135 22.7913C50.4772 22.5276 50.6254 22.1699 50.6254 21.7969V17.9101L54.0004 11.1755C54.0828 11.0098 54.1316 10.8295 54.1442 10.6449C54.1568 10.4603 54.1328 10.275 54.0736 10.0997C54.0144 9.92439 53.9212 9.76248 53.7993 9.62324C53.6775 9.48401 53.5293 9.3702 53.3634 9.28834Z" fill="#A00028"/>
<path d="M27.4219 16.1719H23.2031C22.8302 16.1719 22.4725 16.0237 22.2088 15.76C21.945 15.4963 21.7969 15.1386 21.7969 14.7656V9.14062C21.7969 8.76766 21.945 8.40998 22.2088 8.14626C22.4725 7.88253 22.8302 7.73437 23.2031 7.73438H27.4219C28.5408 7.73438 29.6138 8.17885 30.405 8.97002C31.1962 9.76119 31.6406 10.8342 31.6406 11.9531C31.6406 13.072 31.1962 14.1451 30.405 14.9362C29.6138 15.7274 28.5408 16.1719 27.4219 16.1719ZM24.6094 13.3594H27.4219C27.7948 13.3594 28.1525 13.2112 28.4162 12.9475C28.68 12.6838 28.8281 12.3261 28.8281 11.9531C28.8281 11.5802 28.68 11.2225 28.4162 10.9588C28.1525 10.695 27.7948 10.5469 27.4219 10.5469H24.6094V13.3594Z" fill="#F0F0F0"/>
<path d="M27.4219 21.7969H23.2031C22.8302 21.7969 22.4725 21.6487 22.2088 21.385C21.945 21.1213 21.7969 20.7636 21.7969 20.3906V14.7656C21.7969 14.3927 21.945 14.035 22.2088 13.7713C22.4725 13.5075 22.8302 13.3594 23.2031 13.3594H27.4219C28.5408 13.3594 29.6138 13.8038 30.405 14.595C31.1962 15.3862 31.6406 16.4592 31.6406 17.5781C31.6406 18.697 31.1962 19.7701 30.405 20.5612C29.6138 21.3524 28.5408 21.7969 27.4219 21.7969ZM24.6094 18.9844H27.4219C27.7948 18.9844 28.1525 18.8362 28.4162 18.5725C28.68 18.3088 28.8281 17.9511 28.8281 17.5781C28.8281 17.2052 28.68 16.8475 28.4162 16.5838C28.1525 16.32 27.7948 16.1719 27.4219 16.1719H24.6094V18.9844Z" fill="#F0F0F0"/>
<path d="M37.9688 21.7969C36.6634 21.7969 35.4115 21.2783 34.4885 20.3553C33.5654 19.4323 33.0469 18.1804 33.0469 16.875V9.14062C33.0469 8.76766 33.195 8.40998 33.4588 8.14626C33.7225 7.88253 34.0802 7.73437 34.4531 7.73438C34.8261 7.73437 35.1838 7.88253 35.4475 8.14626C35.7112 8.40998 35.8594 8.76766 35.8594 9.14062V16.875C35.8594 17.4344 36.0816 17.971 36.4772 18.3666C36.8728 18.7621 37.4093 18.9844 37.9688 18.9844C38.5282 18.9844 39.0647 18.7621 39.4603 18.3666C39.8559 17.971 40.0781 17.4344 40.0781 16.875V9.14062C40.0781 8.76766 40.2263 8.40998 40.49 8.14626C40.7537 7.88253 41.1114 7.73437 41.4844 7.73438C41.8573 7.73437 42.215 7.88253 42.4787 8.14626C42.7425 8.40998 42.8906 8.76766 42.8906 9.14062V16.875C42.8906 18.1804 42.3721 19.4323 41.449 20.3553C40.526 21.2783 39.2741 21.7969 37.9688 21.7969Z" fill="#F0F0F0"/>
<path d="M49.2186 17.5781C48.956 17.5795 48.6984 17.5075 48.4747 17.37C48.251 17.2326 48.0703 17.0353 47.9529 16.8004L44.4373 9.7692C44.3548 9.60392 44.3056 9.42399 44.2926 9.2397C44.2795 9.05542 44.303 8.87037 44.3615 8.69512C44.4796 8.34121 44.7335 8.04872 45.0673 7.88201C45.4011 7.7153 45.7875 7.68801 46.1414 7.80616C46.4953 7.92431 46.7878 8.17821 46.9545 8.51201L49.2186 13.0275L51.4686 8.51201C51.6353 8.17821 51.9278 7.92431 52.2817 7.80616C52.6356 7.68801 53.0219 7.7153 53.3557 7.88201C53.6895 8.04872 53.9434 8.34121 54.0616 8.69512C54.1797 9.04904 54.1525 9.4354 53.9857 9.7692L50.4701 16.8004C50.3538 17.0331 50.1753 17.229 49.9543 17.3663C49.7334 17.5036 49.4787 17.5769 49.2186 17.5781Z" fill="#F0F0F0"/>
<path d="M49.2188 21.7969C48.8458 21.7969 48.4881 21.6487 48.2244 21.385C47.9607 21.1213 47.8125 20.7636 47.8125 20.3906V16.1719C47.8125 15.7989 47.9607 15.4412 48.2244 15.1775C48.4881 14.9138 48.8458 14.7656 49.2188 14.7656C49.5917 14.7656 49.9494 14.9138 50.2131 15.1775C50.4768 15.4412 50.625 15.7989 50.625 16.1719V20.3906C50.625 20.7636 50.4768 21.1213 50.2131 21.385C49.9494 21.6487 49.5917 21.7969 49.2188 21.7969Z" fill="#F0F0F0"/>
<path d="M25.3125 55.5469H64.6875V82.9688H25.3125V55.5469Z" fill="#E62E2E"/>
<path d="M64.6875 49.2188H25.3125C24.5358 49.2188 23.9062 49.8483 23.9062 50.625V54.1406C23.9062 54.9173 24.5358 55.5469 25.3125 55.5469H64.6875C65.4641 55.5469 66.0938 54.9173 66.0938 54.1406V50.625C66.0938 49.8483 65.4641 49.2188 64.6875 49.2188Z" fill="#F1503C"/>
<path d="M25.3125 55.5469H64.6875V56.9531H25.3125V55.5469Z" fill="#A00028"/>
<path d="M51.3281 49.2188H43.5938V47.8125C43.5938 46.3207 44.1864 44.8899 45.2413 43.835C46.2962 42.7801 47.7269 42.1875 49.2188 42.1875H51.3281C52.2605 42.1875 53.1547 42.5579 53.814 43.2172C54.4734 43.8765 54.8438 44.7707 54.8438 45.7031C54.8438 46.6355 54.4734 47.5297 53.814 48.189C53.1547 48.8484 52.2605 49.2188 51.3281 49.2188ZM46.7845 46.4062H51.3281C51.5146 46.4062 51.6934 46.3322 51.8253 46.2003C51.9572 46.0684 52.0312 45.8896 52.0312 45.7031C52.0312 45.5166 51.9572 45.3378 51.8253 45.2059C51.6934 45.0741 51.5146 45 51.3281 45H49.2188C48.7253 45.0003 48.2406 45.1303 47.8133 45.3772C47.3861 45.624 47.0313 45.9789 46.7845 46.4062Z" fill="#074F77"/>
<path d="M46.4062 49.2188H38.6719C37.7395 49.2188 36.8453 48.8484 36.186 48.189C35.5266 47.5297 35.1562 46.6355 35.1562 45.7031C35.1562 44.7707 35.5266 43.8765 36.186 43.2172C36.8453 42.5579 37.7395 42.1875 38.6719 42.1875H40.7812C42.2731 42.1875 43.7038 42.7801 44.7587 43.835C45.8136 44.8899 46.4062 46.3207 46.4062 47.8125V49.2188ZM38.6719 45C38.4854 45 38.3066 45.0741 38.1747 45.2059C38.0428 45.3378 37.9688 45.5166 37.9688 45.7031C37.9688 45.8896 38.0428 46.0684 38.1747 46.2003C38.3066 46.3322 38.4854 46.4062 38.6719 46.4062H43.2155C42.9687 45.9789 42.6139 45.624 42.1867 45.3772C41.7594 45.1303 41.2747 45.0003 40.7812 45H38.6719Z" fill="#074F77"/>
<path d="M43.5938 48.5156H46.4062V55.5469H43.5938V48.5156Z" fill="#074F77"/>
<path d="M45 80.1562C44.627 80.1562 44.2694 80.0081 44.0056 79.7444C43.7419 79.4806 43.5938 79.123 43.5938 78.75V78.0469C43.5938 77.6739 43.7419 77.3162 44.0056 77.0525C44.2694 76.7888 44.627 76.6406 45 76.6406C45.373 76.6406 45.7306 76.7888 45.9944 77.0525C46.2581 77.3162 46.4062 77.6739 46.4062 78.0469V78.75C46.4062 79.123 46.2581 79.4806 45.9944 79.7444C45.7306 80.0081 45.373 80.1562 45 80.1562Z" fill="#F0F0F0"/>
<path d="M45.0001 74.5312C44.6272 74.5312 44.2695 74.3831 44.0057 74.1194C43.742 73.8556 43.5939 73.4979 43.5939 73.125V71.3391C43.5815 70.4906 43.8209 69.6575 44.282 68.9451C44.7431 68.2327 45.405 67.673 46.1842 67.3369C46.8995 67.0476 47.4872 66.5112 47.8405 65.8253C48.1938 65.1393 48.2892 64.3494 48.1093 63.5991C47.9771 63.0294 47.6877 62.5082 47.274 62.0948C46.8604 61.6814 46.3391 61.3924 45.7693 61.2605C45.2981 61.1447 44.8068 61.1376 44.3324 61.2397C43.8581 61.3417 43.4131 61.5502 43.0312 61.8494C42.6492 62.1486 42.3402 62.5307 42.1276 62.9668C41.915 63.4029 41.8042 63.8817 41.8037 64.3669C41.8037 64.7398 41.6556 65.0975 41.3918 65.3612C41.1281 65.625 40.7704 65.7731 40.3975 65.7731C40.0245 65.7731 39.6668 65.625 39.4031 65.3612C39.1394 65.0975 38.9912 64.7398 38.9912 64.3669C38.9907 63.2747 39.2877 62.203 39.8503 61.2669C40.413 60.3308 41.22 59.5656 42.1848 59.0536C43.1496 58.5416 44.2356 58.3021 45.3262 58.3609C46.4168 58.4196 47.4708 58.7743 48.375 59.3869C49.2792 59.9996 49.9994 60.8469 50.4583 61.8381C50.9172 62.8292 51.0974 63.9266 50.9796 65.0124C50.8618 66.0982 50.4504 67.1314 49.7896 68.001C49.1288 68.8707 48.2436 69.5438 47.229 69.9483C46.9723 70.0759 46.758 70.2752 46.612 70.522C46.466 70.7688 46.3946 71.0526 46.4064 71.3391V73.125C46.4064 73.4979 46.2582 73.8556 45.9945 74.1194C45.7308 74.3831 45.3731 74.5312 45.0001 74.5312Z" fill="#F0F0F0"/>
<path d="M5.625 57.6563V68.1174C5.62593 68.5799 5.74089 69.0349 5.95969 69.4424C6.17848 69.8498 6.49437 70.197 6.87938 70.4532L19.2136 78.196C19.7927 78.5817 20.2675 79.1047 20.5955 79.7183C20.9235 80.332 21.0947 81.0172 21.0938 81.713V84.3751H35.1562V74.5102C35.1561 72.2728 34.2674 70.1271 32.6855 68.5449L24.7008 60.5602C24.1756 60.01 23.4661 59.6726 22.7078 59.6125C21.9496 59.5523 21.1958 59.7735 20.5903 60.234C20.2664 60.4976 20.0014 60.8262 19.8124 61.1986C19.6234 61.5711 19.5147 61.979 19.4932 62.3961C19.4717 62.8132 19.538 63.2301 19.6877 63.62C19.8375 64.0098 20.0674 64.364 20.3625 64.6594L23.4352 67.7307C23.8661 68.1405 24.1404 68.688 24.2105 69.2786C24.2806 69.8692 24.1421 70.4657 23.8191 70.9651C23.4677 71.4635 22.9417 71.8114 22.3455 71.9396C21.7493 72.0678 21.1267 71.9669 20.6016 71.6569L11.9419 67.1344C11.731 67.0101 11.5563 66.8328 11.4349 66.6202C11.3136 66.4076 11.2498 66.167 11.25 65.9222V57.8068C11.2652 57.1221 11.0391 56.454 10.6113 55.9192C10.1835 55.3845 9.58127 55.0172 8.91 54.8818C8.50632 54.813 8.09248 54.8332 7.69741 54.9409C7.30235 55.0487 6.93557 55.2414 6.62273 55.5056C6.30988 55.7699 6.05851 56.0992 5.88618 56.4707C5.71384 56.8422 5.62471 57.2468 5.625 57.6563Z" fill="#F0C8A0"/>
<path d="M84.375 57.6563V68.1174C84.375 68.5808 84.2605 69.037 84.0416 69.4455C83.8228 69.854 83.5064 70.2021 83.1206 70.4588L70.7864 78.2016C70.2081 78.5868 69.7338 79.1089 69.4058 79.7215C69.0778 80.334 68.9062 81.0182 68.9062 81.713V84.3751H54.8438V74.5102C54.8439 72.2728 55.7326 70.1271 57.3145 68.5449L65.2992 60.5602C65.8244 60.01 66.5339 59.6726 67.2922 59.6125C68.0504 59.5523 68.8043 59.7735 69.4097 60.234C69.7336 60.4976 69.9986 60.8262 70.1876 61.1986C70.3766 61.5711 70.4853 61.979 70.5068 62.3961C70.5283 62.8132 70.462 63.2301 70.3123 63.62C70.1625 64.0098 69.9326 64.364 69.6375 64.6594L66.5648 67.7307C66.1339 68.1405 65.8596 68.688 65.7895 69.2786C65.7194 69.8692 65.8579 70.4657 66.1809 70.9651C66.5323 71.4635 67.0583 71.8114 67.6545 71.9396C68.2507 72.0678 68.8733 71.9669 69.3984 71.6569L78.0581 67.1344C78.269 67.0101 78.4437 66.8328 78.5651 66.6202C78.6864 66.4076 78.7502 66.167 78.75 65.9222V57.8068C78.7348 57.1221 78.9609 56.454 79.3887 55.9192C79.8165 55.3845 80.4187 55.0172 81.09 54.8818C81.4937 54.813 81.9075 54.8332 82.3026 54.9409C82.6977 55.0487 83.0644 55.2414 83.3773 55.5056C83.6901 55.7699 83.9415 56.0992 84.1138 56.4707C84.2862 56.8422 84.3753 57.2468 84.375 57.6563Z" fill="#F0C8A0"/>
<path d="M87.8906 35.9315H85.0781C84.7052 35.9315 84.3475 35.7834 84.0838 35.5196C83.82 35.2559 83.6719 34.8982 83.6719 34.5253C83.6719 34.1523 83.82 33.7946 84.0838 33.5309C84.3475 33.2672 84.7052 33.119 85.0781 33.119H87.8906C88.2636 33.119 88.6213 33.2672 88.885 33.5309C89.1487 33.7946 89.2969 34.1523 89.2969 34.5253C89.2969 34.8982 89.1487 35.2559 88.885 35.5196C88.6213 35.7834 88.2636 35.9315 87.8906 35.9315Z" fill="#FFBB33"/>
<path d="M83.2426 44.5391L81.2541 42.5507C80.998 42.2854 80.8562 41.9302 80.8594 41.5615C80.8626 41.1928 81.0105 40.8401 81.2713 40.5794C81.532 40.3186 81.8847 40.1707 82.2534 40.1675C82.6221 40.1643 82.9773 40.3061 83.2426 40.5622L85.231 42.5507C85.4872 42.8159 85.6289 43.1711 85.6257 43.5398C85.6225 43.9085 85.4746 44.2612 85.2139 44.522C84.9531 44.7827 84.6004 44.9306 84.2317 44.9338C83.863 44.937 83.5078 44.7953 83.2426 44.5391Z" fill="#FAB400"/>
<path d="M81.2711 28.4882C81.0075 28.2245 80.8594 27.8669 80.8594 27.494C80.8594 27.1211 81.0075 26.7635 81.2711 26.4998L83.2595 24.5113C83.3893 24.377 83.5444 24.2699 83.716 24.1962C83.8876 24.1225 84.0721 24.0837 84.2588 24.0821C84.4455 24.0805 84.6307 24.116 84.8035 24.1867C84.9764 24.2575 85.1334 24.3619 85.2654 24.4939C85.3974 24.626 85.5019 24.783 85.5726 24.9558C85.6433 25.1286 85.6789 25.3138 85.6772 25.5005C85.6756 25.6872 85.6368 25.8718 85.5631 26.0433C85.4894 26.2149 85.3823 26.3701 85.248 26.4998L83.2595 28.4882C82.9958 28.7519 82.6382 28.8999 82.2653 28.8999C81.8924 28.8999 81.5348 28.7519 81.2711 28.4882Z" fill="#FFBB33"/>
<path d="M3.07617 33.2227H5.71289C6.06254 33.2227 6.39787 33.3708 6.64511 33.6345C6.89235 33.8983 7.03125 34.2559 7.03125 34.6289C7.03125 35.0019 6.89235 35.3596 6.64511 35.6233C6.39787 35.887 6.06254 36.0352 5.71289 36.0352H3.07617C2.72652 36.0352 2.39119 35.887 2.14395 35.6233C1.89671 35.3596 1.75781 35.0019 1.75781 34.6289C1.75781 34.2559 1.89671 33.8983 2.14395 33.6345C2.39119 33.3708 2.72652 33.2227 3.07617 33.2227Z" fill="#FFBB33"/>
<path d="M7.31074 24.6822L9.13085 26.6479C9.36533 26.9101 9.49507 27.2613 9.49214 27.6258C9.48921 27.9903 9.35383 28.339 9.11517 28.5967C8.87651 28.8545 8.55367 29.0007 8.21616 29.0039C7.87866 29.007 7.55351 28.8669 7.31074 28.6137L5.49063 26.6479C5.36768 26.5197 5.26962 26.3663 5.20216 26.1967C5.1347 26.0271 5.09919 25.8447 5.0977 25.6601C5.09622 25.4755 5.12879 25.2924 5.19351 25.1216C5.25823 24.9507 5.35381 24.7955 5.47467 24.665C5.59553 24.5345 5.73925 24.4312 5.89744 24.3613C6.05564 24.2914 6.22514 24.2563 6.39605 24.2579C6.56697 24.2595 6.73587 24.2978 6.89292 24.3707C7.04996 24.4435 7.192 24.5494 7.31074 24.6822Z" fill="#FFBB33"/>
<path d="M9.11664 40.6595C9.3571 40.9193 9.49219 41.2716 9.49219 41.6389C9.49219 42.0062 9.3571 42.3585 9.11664 42.6183L7.30294 44.5771C7.18462 44.7094 7.04308 44.8149 6.88659 44.8875C6.7301 44.9601 6.56179 44.9983 6.39147 44.9999C6.22116 45.0015 6.05226 44.9665 5.89463 44.8968C5.73699 44.8272 5.59378 44.7243 5.47334 44.5943C5.35291 44.4642 5.25767 44.3095 5.19317 44.1393C5.12868 43.969 5.09622 43.7866 5.0977 43.6027C5.09918 43.4187 5.13457 43.237 5.20179 43.068C5.26902 42.8989 5.36673 42.7461 5.48924 42.6183L7.30294 40.6595C7.54348 40.3998 7.86967 40.2539 8.20979 40.2539C8.54991 40.2539 8.8761 40.3998 9.11664 40.6595Z" fill="#FFBB33"/>
<path d="M58.0078 21.8068C58.0078 21.6533 58.0415 21.4999 58.1089 21.3465C58.1764 21.1931 58.2876 21.0064 58.4427 20.7863L61.8307 16.044L58.4629 11.3917C58.3078 11.1916 58.1966 11.0115 58.1292 10.8515C58.0618 10.6847 58.028 10.5213 58.028 10.3612C58.028 10.0077 58.1528 9.71757 58.4022 9.49079C58.6584 9.25735 58.9787 9.14062 59.363 9.14062C59.5451 9.14062 59.7035 9.17064 59.8383 9.23067C59.9799 9.28403 60.1215 9.38741 60.2631 9.54082C60.4047 9.69423 60.5766 9.911 60.7789 10.1911L63.5399 14.2631H63.6713L66.3514 10.1911C66.6278 9.78427 66.8604 9.50747 67.0492 9.36073C67.2448 9.21399 67.4774 9.14062 67.7471 9.14062C68.1246 9.14062 68.4348 9.25735 68.6775 9.49079C68.927 9.72424 69.0517 10.0144 69.0517 10.3612C69.0517 10.5146 69.018 10.6714 68.9506 10.8314C68.8831 10.9849 68.7719 11.1683 68.6168 11.3817L65.158 16.154L68.6573 20.7863C68.8056 20.9797 68.9135 21.1564 68.9809 21.3165C69.0483 21.4766 69.082 21.64 69.082 21.8068C69.082 22.1603 68.9539 22.4537 68.6977 22.6872C68.4483 22.914 68.1314 23.0273 67.7471 23.0273C67.5718 23.0273 67.4167 22.9973 67.2818 22.9373C67.1537 22.8839 67.0155 22.7839 66.8672 22.6372C66.7256 22.4837 66.5469 22.2636 66.3312 21.9768L63.5298 18.0149H63.4084L60.7081 21.9768C60.4114 22.397 60.1687 22.6772 59.9799 22.8172C59.7979 22.9573 59.5754 23.0273 59.3124 23.0273C58.9349 23.0273 58.6214 22.9106 58.3719 22.6772C58.1292 22.4437 58.0078 22.1536 58.0078 21.8068Z" fill="#A00028"/>
<path d="M58.0078 20.5763C58.0078 20.4229 58.0415 20.2695 58.1089 20.1161C58.1764 19.9627 58.2876 19.7759 58.4427 19.5558L61.8307 14.8135L58.4629 10.1612C58.3078 9.96115 58.1966 9.78106 58.1292 9.62098C58.0618 9.45424 58.028 9.29082 58.028 9.13075C58.028 8.77724 58.1528 8.4871 58.4022 8.26033C58.6584 8.02688 58.9787 7.91016 59.363 7.91016C59.5451 7.91016 59.7035 7.94017 59.8383 8.0002C59.9799 8.05356 60.1215 8.15694 60.2631 8.31035C60.4047 8.46376 60.5766 8.68053 60.7789 8.96066L63.5399 13.0326H63.6713L66.3514 8.96066C66.6278 8.5538 66.8604 8.277 67.0492 8.13026C67.2448 7.98353 67.4774 7.91016 67.7471 7.91016C68.1246 7.91016 68.4348 8.02688 68.6775 8.26033C68.927 8.49377 69.0517 8.78391 69.0517 9.13075C69.0517 9.28415 69.018 9.4409 68.9506 9.60097C68.8831 9.75438 68.7719 9.9378 68.6168 10.1512L65.158 14.9235L68.6573 19.5558C68.8056 19.7492 68.9135 19.926 68.9809 20.086C69.0483 20.2461 69.082 20.4095 69.082 20.5763C69.082 20.9298 68.9539 21.2233 68.6977 21.4567C68.4483 21.6835 68.1314 21.7969 67.7471 21.7969C67.5718 21.7969 67.4167 21.7669 67.2818 21.7068C67.1537 21.6535 67.0155 21.5534 66.8672 21.4067C66.7256 21.2533 66.5469 21.0332 66.3312 20.7464L63.5298 16.7845H63.4084L60.7081 20.7464C60.4114 21.1666 60.1687 21.4467 59.9799 21.5868C59.7979 21.7268 59.5754 21.7969 59.3124 21.7969C58.9349 21.7969 58.6214 21.6802 58.3719 21.4467C58.1292 21.2133 58.0078 20.9231 58.0078 20.5763Z" fill="white"/>
<path d="M47.1584 36.7855C47.1584 36.6402 47.1887 36.4948 47.2493 36.3494C47.31 36.1993 47.3986 36.0468 47.5152 35.8921L49.6354 33.1202L47.4732 30.4116C47.3566 30.2662 47.2656 30.1185 47.2003 29.9684C47.1397 29.8183 47.1094 29.6683 47.1094 29.5182C47.1094 29.1664 47.233 28.8733 47.4802 28.6388C47.7275 28.3996 48.033 28.28 48.3969 28.28C48.5695 28.28 48.7211 28.3058 48.8517 28.3574C48.9823 28.409 49.1176 28.5074 49.2576 28.6528C49.4022 28.7982 49.5724 29.0093 49.7684 29.286L51.3428 31.4529H51.4617L52.8962 29.286C53.1527 28.8967 53.3766 28.6317 53.5679 28.491C53.7638 28.3503 53.9947 28.28 54.2606 28.28C54.6245 28.28 54.9301 28.3996 55.1773 28.6388C55.4245 28.8733 55.5481 29.1664 55.5481 29.5182C55.5481 29.6589 55.5178 29.8066 55.4572 29.9614C55.3965 30.1115 55.3056 30.2616 55.1843 30.4116L52.9941 33.1765L55.2403 35.8921C55.3569 36.0328 55.4455 36.1782 55.5062 36.3283C55.5668 36.4783 55.5971 36.6308 55.5971 36.7855C55.5971 37.1326 55.4735 37.4258 55.2263 37.6649C54.979 37.9041 54.6735 38.0237 54.3096 38.0237C54.1463 38.0237 54.0017 37.9979 53.8758 37.9464C53.7545 37.8948 53.6216 37.7963 53.4769 37.6509C53.337 37.5055 53.1574 37.2944 52.9381 37.0177L51.3777 34.9775H51.2588L49.8103 37.0177C49.5211 37.4164 49.2855 37.6837 49.1036 37.8197C48.9217 37.9557 48.7001 38.0237 48.4389 38.0237C48.075 38.0237 47.7695 37.9041 47.5222 37.6649C47.2796 37.4258 47.1584 37.1326 47.1584 36.7855Z" fill="#F1503C"/>
<path d="M58.2911 39.3886C58.2165 39.6559 58.0742 39.867 57.8643 40.0217C57.659 40.1765 57.4211 40.2539 57.1505 40.2539C56.8147 40.2539 56.5371 40.1367 56.3179 39.9021C56.0986 39.6676 55.996 39.3933 56.01 39.079C56.0146 38.9946 56.0216 38.9172 56.031 38.8469C56.045 38.7765 56.059 38.7202 56.0729 38.678L58.8859 28.6388C58.9605 28.3667 59.1005 28.1557 59.3057 28.0056C59.5156 27.8508 59.7559 27.7734 60.0264 27.7734C60.3576 27.7734 60.6329 27.8907 60.8521 28.1252C61.076 28.3597 61.181 28.6341 61.167 28.9483C61.1623 29.0327 61.153 29.1101 61.139 29.1805C61.1297 29.2508 61.118 29.3071 61.104 29.3493L58.2911 39.3886Z" fill="#F1503C"/>
<path d="M66.2121 38.0237C65.7829 38.0237 65.4377 37.8971 65.1765 37.6438C64.9199 37.3859 64.7986 37.0552 64.8126 36.6519L64.8756 34.5906L62.4825 30.6157C62.3519 30.3999 62.2562 30.2053 62.1956 30.0317C62.1396 29.8535 62.1116 29.6847 62.1116 29.5252C62.1116 29.15 62.2283 28.8498 62.4615 28.6247C62.6947 28.3949 63.0026 28.28 63.3851 28.28C63.679 28.28 63.9286 28.3574 64.1339 28.5121C64.3391 28.6622 64.5257 28.9061 64.6936 29.2438L66.1491 32.2127H66.2471L67.7655 29.2508C67.9287 28.9319 68.12 28.6904 68.3393 28.5262C68.5632 28.3621 68.8104 28.28 69.081 28.28C69.4308 28.28 69.7224 28.3949 69.9556 28.6247C70.1935 28.8498 70.3125 29.1289 70.3125 29.4619C70.3125 29.626 70.2752 29.8043 70.2005 29.9966C70.1306 30.1889 70.0209 30.4116 69.8717 30.6649L67.5136 34.5906L67.5765 36.6519C67.5952 37.0552 67.4763 37.3859 67.2197 37.6438C66.9631 37.8971 66.6272 38.0237 66.2121 38.0237Z" fill="#F1503C"/>
</svg>
