<svg width="18" height="18" viewBox="0 0 18 18" fill="none" xmlns="http://www.w3.org/2000/svg">
<path d="M8.99984 4.83366C8.77883 4.83366 8.56687 4.92146 8.41059 5.07774C8.25431 5.23402 8.16651 5.44598 8.16651 5.66699V9.00033C8.16651 9.22134 8.25431 9.4333 8.41059 9.58958C8.56687 9.74586 8.77883 9.83366 8.99984 9.83366C9.22085 9.83366 9.43282 9.74586 9.5891 9.58958C9.74538 9.4333 9.83317 9.22134 9.83317 9.00033V5.66699C9.83317 5.44598 9.74538 5.23402 9.5891 5.07774C9.43282 4.92146 9.22085 4.83366 8.99984 4.83366ZM9.76651 12.017C9.74827 11.9639 9.72305 11.9134 9.69151 11.867L9.59151 11.742C9.47432 11.6264 9.32551 11.548 9.16385 11.5169C9.00219 11.4857 8.83493 11.5032 8.68317 11.567C8.58219 11.6092 8.48918 11.6684 8.40817 11.742C8.33094 11.8199 8.26984 11.9122 8.22837 12.0137C8.18689 12.1153 8.16587 12.224 8.16651 12.3337C8.16782 12.4426 8.19047 12.5501 8.23317 12.6503C8.2706 12.7537 8.33031 12.8477 8.40808 12.9254C8.48584 13.0032 8.57976 13.0629 8.68317 13.1003C8.78292 13.1444 8.89078 13.1672 8.99984 13.1672C9.1089 13.1672 9.21676 13.1444 9.31651 13.1003C9.41992 13.0629 9.51384 13.0032 9.5916 12.9254C9.66937 12.8477 9.72908 12.7537 9.76651 12.6503C9.80921 12.5501 9.83186 12.4426 9.83317 12.3337C9.83727 12.2782 9.83727 12.2225 9.83317 12.167C9.81883 12.1139 9.79634 12.0633 9.76651 12.017ZM8.99984 0.666992C7.35166 0.666992 5.7405 1.15573 4.37009 2.07141C2.99968 2.98709 1.93158 4.28858 1.30084 5.8113C0.670115 7.33401 0.505087 9.00957 0.82663 10.6261C1.14817 12.2426 1.94185 13.7274 3.10728 14.8929C4.27272 16.0583 5.75758 16.852 7.37409 17.1735C8.9906 17.4951 10.6662 17.3301 12.1889 16.6993C13.7116 16.0686 15.0131 15.0005 15.9288 13.6301C16.8444 12.2597 17.3332 10.6485 17.3332 9.00033C17.3332 7.90598 17.1176 6.82234 16.6988 5.8113C16.28 4.80025 15.6662 3.88159 14.8924 3.10777C14.1186 2.33395 13.1999 1.72012 12.1889 1.30133C11.1778 0.88254 10.0942 0.666992 8.99984 0.666992ZM8.99984 15.667C7.6813 15.667 6.39237 15.276 5.29604 14.5435C4.19971 13.8109 3.34523 12.7697 2.84064 11.5515C2.33606 10.3334 2.20404 8.99293 2.46127 7.69972C2.71851 6.40652 3.35345 5.21863 4.2858 4.28628C5.21815 3.35393 6.40603 2.71899 7.69924 2.46176C8.99245 2.20452 10.3329 2.33654 11.5511 2.84113C12.7692 3.34571 13.8104 4.2002 14.543 5.29652C15.2755 6.39285 15.6665 7.68178 15.6665 9.00033C15.6665 10.7684 14.9641 12.4641 13.7139 13.7144C12.4636 14.9646 10.768 15.667 8.99984 15.667Z" fill="#DD585A"/>
</svg>
