<svg xmlns="http://www.w3.org/2000/svg" width="13" height="14" viewBox="0 0 13 14" fill="none">
  <path d="M7.59664 13.1544H5.28993C5.05644 13.1544 4.86711 13.3437 4.86711 13.5772C4.86711 13.8107 5.05644 14 5.28993 14H7.59664C7.83013 14 8.01946 13.8107 8.01946 13.5772C8.01946 13.3437 7.83013 13.1544 7.59664 13.1544ZM6.44329 1.67342C6.67678 1.67342 6.86611 1.48409 6.86611 1.2506V0.422819C6.86611 0.189329 6.67678 0 6.44329 0C6.2098 0 6.02047 0.189329 6.02047 0.422819V1.2506C6.02047 1.48409 6.2098 1.67342 6.44329 1.67342ZM12.4638 5.54785H11.636C11.4025 5.54785 11.2132 5.73718 11.2132 5.97067C11.2132 6.20416 11.4025 6.39349 11.636 6.39349H12.4638C12.6972 6.39349 12.8866 6.20416 12.8866 5.97067C12.8866 5.73718 12.6977 5.54785 12.4638 5.54785ZM1.25013 5.54785H0.422819C0.189329 5.54785 0 5.73718 0 5.97067C0 6.20416 0.189329 6.39349 0.422819 6.39349H1.2506C1.48409 6.39349 1.67342 6.20416 1.67342 5.97067C1.67342 5.73718 1.48362 5.54785 1.25013 5.54785ZM2.80658 2.93201C2.88926 3.0147 2.99732 3.05604 3.10584 3.05604C3.21436 3.05604 3.32242 3.0147 3.4051 2.93201C3.57047 2.76711 3.57047 2.49933 3.4051 2.33443L2.81926 1.74859C2.65389 1.58322 2.38611 1.58322 2.22121 1.74859C2.05584 1.91349 2.05584 2.18128 2.22121 2.34617L2.80658 2.93201ZM10.0673 1.74859L9.48195 2.33396C9.31658 2.49886 9.31658 2.76664 9.48195 2.93154C9.56463 3.01423 9.67268 3.05557 9.78121 3.05557C9.88973 3.05557 9.99779 3.01423 10.0805 2.93154L10.6658 2.34617C10.8312 2.18128 10.8312 1.91349 10.6658 1.74859C10.5005 1.58369 10.2322 1.58369 10.0673 1.74859ZM6.44329 2.97946C4.31745 2.97617 2.58812 4.70503 2.58812 6.83463C2.58812 7.85973 2.99027 8.79228 3.64799 9.48054C4.08443 9.93765 4.3555 10.5272 4.3555 11.1591V11.5195C4.3555 11.7788 4.56597 11.9893 4.8253 11.9893H6.44329H8.06128C8.3206 11.9893 8.53107 11.7788 8.53107 11.5195V11.1591C8.53107 10.5272 8.80168 9.93765 9.23859 9.48054C9.89584 8.79228 10.2985 7.8602 10.2985 6.83463C10.2985 4.70503 8.56913 2.9757 6.44329 2.97946ZM6.0651 5.32658C5.51356 5.46376 5.07007 5.9096 4.93476 6.46255C4.88732 6.65564 4.71443 6.7853 4.52463 6.7853C4.49128 6.7853 4.45698 6.78107 4.42362 6.77309C4.19671 6.71765 4.05812 6.48886 4.11356 6.26195C4.32591 5.39423 4.99537 4.72148 5.86074 4.50584C6.08718 4.4504 6.31738 4.58711 6.37329 4.81403C6.42966 5.04094 6.29154 5.2702 6.0651 5.32658Z" fill="#5454A5"/>
</svg>