<svg width="20" height="20" viewBox="0 0 20 20" fill="none" xmlns="http://www.w3.org/2000/svg">
<ellipse cx="10" cy="9.61539" rx="10" ry="9.61539" fill="#FFF4F4"/>
<path d="M9.99985 13.8447C10.0891 13.8447 10.1647 13.8146 10.2265 13.7545L13.4408 10.7397C13.4751 10.713 13.5223 10.6696 13.5824 10.6095C13.6425 10.5494 13.7378 10.44 13.8683 10.2815C13.9988 10.1229 14.1156 9.9601 14.2186 9.79317C14.3216 9.62624 14.4135 9.42425 14.4942 9.1872C14.5749 8.95015 14.6152 8.71978 14.6152 8.49609C14.6152 7.76159 14.3972 7.18733 13.961 6.77334C13.5249 6.35934 12.9222 6.15234 12.153 6.15234C11.9401 6.15234 11.7229 6.18823 11.5014 6.26002C11.2799 6.3318 11.0739 6.42862 10.8833 6.55048C10.6927 6.67234 10.5287 6.78669 10.3913 6.89353C10.254 7.00037 10.1235 7.11388 9.99985 7.23407C9.87622 7.11388 9.74573 7.00037 9.60837 6.89353C9.471 6.78669 9.30703 6.67234 9.11644 6.55048C8.92585 6.42862 8.7198 6.3318 8.4983 6.26002C8.27681 6.18823 8.0596 6.15234 7.84669 6.15234C7.07746 6.15234 6.47478 6.35934 6.03865 6.77334C5.60253 7.18733 5.38447 7.76159 5.38447 8.49609C5.38447 9.23394 5.77767 9.98514 6.56407 10.7497L9.7732 13.7545C9.83501 13.8146 9.91056 13.8447 9.99985 13.8447Z" fill="#F9A2A2"/>
</svg>
