<svg width="20" height="19" viewBox="0 0 20 19" fill="none" xmlns="http://www.w3.org/2000/svg">
<ellipse cx="10" cy="9.5" rx="10" ry="9.5" fill="#E6FFDC"/>
<path d="M11.6105 9.54252C11.1561 9.32567 10.673 9.16046 10.1947 8.98903C9.91649 8.89587 9.65484 8.76933 9.41749 8.61314C8.95594 8.29508 9.04443 7.77875 9.5849 7.57421C9.73639 7.52163 9.89759 7.49295 10.0608 7.48953C10.6775 7.45763 11.2934 7.56288 11.8496 7.79521C12.1318 7.91294 12.2251 7.87574 12.3207 7.62173C12.4212 7.35328 12.5049 7.08062 12.5982 6.81008C12.6603 6.62833 12.5838 6.50854 12.3853 6.43212C12.0253 6.29319 11.6458 6.1953 11.2566 6.14091C10.7448 6.07275 10.7448 6.07069 10.7424 5.62664C10.7399 5.00091 10.7399 5.00091 10.0129 5.00091C9.90769 5.00091 9.80249 4.99886 9.69725 5.00091C9.35766 5.00918 9.30025 5.06081 9.29068 5.35614C9.28592 5.4883 9.29068 5.62051 9.2883 5.75473C9.28592 6.14715 9.28354 6.14094 8.84828 6.27726C7.796 6.60769 7.14553 7.22729 7.07606 8.21866C7.01389 9.09641 7.54479 9.68916 8.37942 10.1208C8.89361 10.3872 9.46278 10.5442 10.008 10.7528C10.2213 10.8284 10.4211 10.9299 10.6011 11.0543C11.1249 11.4281 11.029 12.0498 10.4073 12.2852C10.0781 12.4065 9.71653 12.4473 9.36226 12.403C8.80714 12.3494 8.26766 12.2102 7.76952 11.9919C7.47535 11.8598 7.38928 11.8949 7.28884 12.1698C7.20274 12.4073 7.12623 12.6468 7.04969 12.8864C6.94687 13.2086 6.9851 13.285 7.34144 13.4358C7.79584 13.6258 8.28129 13.7228 8.77634 13.791C9.16388 13.8447 9.17571 13.8592 9.18052 14.2061C9.1829 14.363 9.1829 14.5221 9.18528 14.6791C9.18766 14.8773 9.29767 14.9928 9.53443 14.9971C9.80229 15.0012 10.0725 15.0012 10.3404 14.9951C10.5604 14.991 10.6728 14.8877 10.6728 14.6956C10.6728 14.4808 10.6849 14.264 10.6752 14.0492C10.663 13.8303 10.7732 13.7187 11.0171 13.6609C11.5706 13.5359 12.0639 13.2625 12.4259 12.88C13.4496 11.8061 13.0597 10.2344 11.6105 9.54252Z" fill="#6ABE45"/>
</svg>
