<svg width="22" height="22" viewBox="0 0 22 22" fill="none" xmlns="http://www.w3.org/2000/svg">
<path d="M17.5829 6.24424C16.8229 6.25834 16.1916 6.9917 16.2303 7.82379C16.2432 8.28919 16.4493 8.68407 16.7585 8.95203C15.161 11.2931 13.5378 11.4765 11.657 7.59814C12.3269 7.23146 12.7005 6.30065 12.2109 5.36985C11.9791 4.91855 11.5024 4.6929 11.0258 4.72111C11.0129 4.72111 11.0129 4.72111 11 4.72111C11 4.72111 10.9871 4.72111 10.9742 4.72111C10.4976 4.707 10.0338 4.91855 9.78905 5.36985C9.29952 6.30065 9.67311 7.23146 10.343 7.59814C8.46216 11.4765 6.83897 11.2931 5.24155 8.95203C5.55072 8.68407 5.75684 8.27508 5.76973 7.82379C5.79549 6.9917 5.17713 6.25834 4.41707 6.24424C3.63124 6.23014 3 6.90708 3 7.76737C3 8.59946 3.61836 9.29051 4.3913 9.29051C4.44283 9.29051 4.50725 9.29051 4.55878 9.2764L5.08696 14.9458C5.1256 15.3971 5.47343 15.7356 5.88567 15.7356H11H16.1143C16.5266 15.7356 16.8744 15.3971 16.913 14.9458L17.4412 9.2764C17.4928 9.29051 17.5443 9.29051 17.6087 9.29051C18.3688 9.29051 19 8.61356 19 7.76737C19 6.90708 18.3559 6.23014 17.5829 6.24424Z" fill="url(#paint0_linear_8492_233)"/>
<rect x="5.19043" y="16.5625" width="11.5942" height="1.26928" rx="0.634639" fill="url(#paint1_linear_8492_233)"/>
<defs>
<linearGradient id="paint0_linear_8492_233" x1="0.0639326" y1="5.70528" x2="9.13905" y2="17.6461" gradientUnits="userSpaceOnUse">
<stop stop-color="#FF5100"/>
<stop offset="1" stop-color="#FFB803"/>
</linearGradient>
<linearGradient id="paint1_linear_8492_233" x1="3.06284" y1="16.6762" x2="3.32133" y2="18.8153" gradientUnits="userSpaceOnUse">
<stop stop-color="#FF5100"/>
<stop offset="1" stop-color="#FFB803"/>
</linearGradient>
</defs>
</svg>
