<svg width="14" height="14" viewBox="0 0 14 14" fill="none" xmlns="http://www.w3.org/2000/svg">
<path d="M11.1143 3.95343C10.6393 3.96225 10.2448 4.4206 10.2689 4.94065C10.277 5.23152 10.4058 5.47833 10.599 5.6458C9.60064 7.109 8.58615 7.22359 7.41063 4.79962C7.82931 4.57044 8.0628 3.98869 7.75684 3.40694C7.61192 3.12487 7.31401 2.98384 7.0161 3.00147C7.00805 3.00147 7.00805 3.00147 7 3.00147C7 3.00147 6.99195 3.00147 6.9839 3.00147C6.68599 2.99266 6.39614 3.12487 6.24316 3.40694C5.9372 3.98869 6.17069 4.57044 6.58937 4.79962C5.41385 7.22359 4.39936 7.109 3.40097 5.6458C3.5942 5.47833 3.72303 5.22271 3.73108 4.94065C3.74718 4.4206 3.36071 3.96225 2.88567 3.95343C2.39452 3.94462 2 4.36771 2 4.90539C2 5.42544 2.38647 5.85735 2.86957 5.85735C2.90177 5.85735 2.94203 5.85735 2.97424 5.84853L3.30435 9.39193C3.3285 9.674 3.54589 9.88554 3.80354 9.88554H7H10.1965C10.4541 9.88554 10.6715 9.674 10.6957 9.39193L11.0258 5.84853C11.058 5.85735 11.0902 5.85735 11.1304 5.85735C11.6055 5.85735 12 5.43426 12 4.90539C12 4.36771 11.5974 3.94462 11.1143 3.95343Z" fill="#FFB800"/>
<rect x="3.36914" y="10.4023" width="7.24638" height="0.793299" rx="0.396649" fill="#FFB800"/>
</svg>
