<svg width="879" height="174" viewBox="0 0 879 174" fill="none" xmlns="http://www.w3.org/2000/svg">
<mask id="mask0_9048_19270" style="mask-type:alpha" maskUnits="userSpaceOnUse" x="0" y="0" width="880" height="174">
<path d="M0.5 0.5H878.522V173.5H0.5V0.5Z" fill="url(#paint0_linear_9048_19270)" stroke="#C3C4C7"/>
</mask>
<g mask="url(#mask0_9048_19270)">
<g filter="url(#filter0_f_9048_19270)">
<path d="M875.945 81.1954C844.328 48.4334 779.944 31.4421 714.839 44.0829C653.386 56.017 600.693 90.6369 540.105 106.577C442.122 132.353 346.659 104.591 246.965 116.957C131.102 131.327 20.2715 206.416 1.22825 283.439C-11.0685 333.179 15.9258 379.657 66.3499 408.297L890.203 196.684C908.455 155.463 905.986 112.322 875.945 81.1954Z" fill="#D3E4FF" fill-opacity="0.33"/>
<path d="M103.352 265.532C180.754 237.322 241.241 183.615 258.358 129.258C261.959 117.829 263.556 106.558 263.605 95.4899C262.97 95.5343 262.341 95.5803 261.707 95.6274C261.675 103.066 260.981 110.604 259.416 118.245C253.863 145.328 237.038 172.689 212.191 197.177C187.515 221.495 154.883 243.036 117.643 258.656C79.051 274.842 36.0433 284.12 -5.49041 286.287C-5.85984 286.306 -6.22265 286.314 -6.59208 286.332C-6.59861 286.733 -6.60967 287.134 -6.61084 287.536C30.1756 285.722 68.0862 278.389 103.349 265.539L103.352 265.532Z" fill="white"/>
<path d="M242.384 265.921C303.256 255.622 365.086 242.596 421.115 218.101C446.529 206.992 470.322 193.6 490.033 177.895C509.823 162.128 524.831 144.308 535.52 125.938C544.063 111.248 549.777 96.4874 553.547 81.7544C552.902 81.9658 552.263 82.1788 551.616 82.3845C549.018 92.36 545.514 102.364 540.805 112.395C531.674 131.826 518.15 151.052 499.164 168.36C480.443 185.427 456.757 200.14 430.961 212.306C376.458 238.01 314.949 252.07 254.583 262.636C188.538 274.194 121.436 282.276 56.5383 300.903C37.1436 306.469 17.7848 313.006 -0.78357 320.616C-0.643044 321.003 -0.515309 321.396 -0.37025 321.782C14.7627 315.548 30.424 310.034 46.2072 305.197C110.21 285.592 176.861 277.007 242.389 265.92L242.384 265.921Z" fill="white"/>
<path d="M831.807 143.197C808.064 145.932 784.264 147.355 761.487 146C740.265 144.74 719.563 141.108 703.397 133.307C686.779 125.29 676.425 113.055 674.352 98.42C670.54 71.5413 691.621 43.8631 723.029 22.5547C722.106 22.6792 721.182 22.8162 720.257 22.9532C693.964 41.0911 675.248 63.3369 672.445 86.9837C670.659 102.063 676.125 116.176 689.367 126.537C702.063 136.474 720.648 142.272 740.636 145.186C761.728 148.261 784.596 148.341 807.444 146.688C834.869 144.706 862.621 140.658 890.009 134.786C892.205 134.316 894.392 133.812 896.587 133.319C896.615 132.91 896.639 132.502 896.663 132.094C875.182 136.957 853.473 140.704 831.817 143.198L831.807 143.197Z" fill="white"/>
<path d="M312.922 113.895C315.48 107.384 318.568 100.908 322.159 94.4913C321.556 94.4758 320.953 94.4603 320.35 94.4448C317.781 99.0526 315.464 103.69 313.425 108.347C308.345 119.947 304.92 131.651 303.294 143.209C301.518 155.838 300.84 169.39 308.856 179.86C315.046 187.943 326.899 193.93 342.169 193.487C359.442 192.986 375.973 184.655 388.907 175.988C403.003 166.541 415.249 155.619 426.73 144.877C438.279 134.07 448.885 122.896 458.48 111.455C462.348 106.845 466.037 102.19 469.567 97.5024C468.889 97.5487 468.215 97.591 467.536 97.6345C450.477 120.222 429.502 141.958 405.044 162.112C392.507 172.443 378.16 183.324 360.16 189.085C342.277 194.811 325.182 192.177 315.033 183.786C303.785 174.484 303.314 160.71 304.549 147.912C305.637 136.666 308.461 125.244 312.921 113.889L312.922 113.895Z" fill="white"/>
<path d="M836.409 110.197C855.388 105.995 873.41 98.2304 889.162 88.681C889.018 88.3497 888.878 88.0172 888.731 87.6899C875.677 95.5843 860.986 102.152 845.055 106.765C827.188 111.938 807.931 113.716 792.254 109.326C778.108 105.368 769.086 96.6482 770.796 85.2965C771.557 80.2582 774.408 74.9875 779.42 70.5131C785.922 64.7032 795.463 61.1993 804.926 58.5739C813.451 56.2077 822.179 54.3798 830.514 51.5053C836.594 49.4078 842.371 46.7794 847.689 43.7575C847.274 43.5142 846.871 43.2646 846.452 43.0282C844.71 44.0114 842.923 44.9575 841.086 45.8493C824.51 53.8846 804.707 55.3091 788.262 63.2743C775.418 69.4955 768.541 79.453 768.74 88.7255C768.946 98.4283 776.95 105.894 788.99 109.793C802.717 114.239 819.87 113.861 836.409 110.197Z" fill="white"/>
<path d="M674.13 192.111C662.487 182.065 650.846 172.021 639.199 161.975C631.049 154.949 622.387 147.226 608.468 144.766C593.769 142.167 576.094 146.707 562.624 154.066C548.316 161.884 538.222 172.519 530.023 183.06C513.697 204.049 504.103 226.476 501.467 248.266C500.338 257.608 500.491 266.825 501.929 275.767L503.792 275.289C499.624 249.086 506.485 220.61 524.242 193.695C531.503 182.689 540.385 171.324 552.824 161.919C565.603 152.257 584.159 144.416 601.815 145.297C617.946 146.103 627.872 154.398 636.542 161.86C647.371 171.178 658.167 180.514 668.979 189.843C681.786 200.89 694.593 211.94 707.4 222.988L709.349 222.487C697.611 212.361 685.872 202.233 674.134 192.107L674.13 192.111Z" fill="white"/>
</g>
</g>
<path d="M803.179 100.649C803.179 102.328 801.824 103.705 800.17 103.705H779.195C777.541 103.705 776.186 102.328 776.186 100.649V79.3474C776.186 77.6684 777.541 76.292 779.195 76.292H800.17C801.824 76.292 803.179 77.6684 803.179 79.3474V100.649Z" fill="#07BFDD"/>
<path d="M830.51 73.7938C830.51 75.4728 829.155 76.8492 827.502 76.8492H806.526C804.873 76.8492 803.518 75.4728 803.518 73.7938V52.4919C803.518 50.813 804.873 49.4365 806.526 49.4365H827.502C829.155 49.4365 830.51 50.813 830.51 52.4919V73.7938Z" fill="#007FFF"/>
<path d="M749.285 100.649C749.285 102.328 747.93 103.705 746.277 103.705H725.301C723.648 103.705 722.292 102.328 722.292 100.649V79.3474C722.292 77.6684 723.648 76.292 725.301 76.292H746.277C747.93 76.292 749.285 77.6684 749.285 79.3474V100.649Z" fill="#1DA5F8"/>
<path d="M721.993 73.7967C721.993 75.4757 720.638 76.8521 718.984 76.8521H698.009C696.355 76.8521 695 75.4807 695 73.7967V52.4948C695 50.8159 696.355 49.4395 698.009 49.4395H718.984C720.638 49.4395 721.993 50.8159 721.993 52.4948V73.7967Z" fill="#8CC936"/>
<defs>
<filter id="filter0_f_9048_19270" x="-10.6108" y="18.5547" width="916.342" height="393.742" filterUnits="userSpaceOnUse" color-interpolation-filters="sRGB">
<feFlood flood-opacity="0" result="BackgroundImageFix"/>
<feBlend mode="normal" in="SourceGraphic" in2="BackgroundImageFix" result="shape"/>
<feGaussianBlur stdDeviation="2" result="effect1_foregroundBlur_9048_19270"/>
</filter>
<linearGradient id="paint0_linear_9048_19270" x1="208.919" y1="87.6445" x2="709.551" y2="100.2" gradientUnits="userSpaceOnUse">
<stop stop-color="#FFFBD3"/>
<stop offset="1" stop-color="white"/>
</linearGradient>
</defs>
</svg>
