<svg width="16" height="16" viewBox="0 0 16 16" fill="none" xmlns="http://www.w3.org/2000/svg">
<rect x="1" y="1" width="14" height="14" rx="2" stroke="#9DA3AA" stroke-width="2"/>
<rect width="16" height="16" rx="3" fill="#BDC1C6"/>
<path fill-rule="evenodd" clip-rule="evenodd" d="M5.29238 7.07372C5.16939 6.94637 5.02226 6.84479 4.85959 6.77492C4.69692 6.70504 4.52196 6.66826 4.34492 6.66672C4.16788 6.66518 3.99231 6.69892 3.82845 6.76596C3.66458 6.833 3.51571 6.932 3.39052 7.05719C3.26533 7.18238 3.16633 7.33125 3.09929 7.49511C3.03225 7.65897 2.99851 7.83455 3.00005 8.01159C3.00159 8.18862 3.03837 8.36359 3.10825 8.52626C3.17813 8.68893 3.2797 8.83606 3.40705 8.95905L6.07372 11.6257C6.32375 11.8757 6.66283 12.0161 7.01638 12.0161C7.36994 12.0161 7.70901 11.8757 7.95905 11.6257L13.2924 6.29238C13.4197 6.16939 13.5213 6.02226 13.5912 5.85959C13.6611 5.69692 13.6978 5.52196 13.6994 5.34492C13.7009 5.16788 13.6672 4.99231 13.6001 4.82845C13.5331 4.66458 13.4341 4.51572 13.3089 4.39053C13.1837 4.26534 13.0349 4.16633 12.871 4.09929C12.7071 4.03225 12.5316 3.99851 12.3545 4.00005C12.1775 4.00159 12.0025 4.03837 11.8398 4.10825C11.6772 4.17813 11.53 4.2797 11.4071 4.40705L7.01638 8.79772L5.29238 7.07372Z" fill="white"/>
</svg>
