<svg width="50" height="50" viewBox="0 0 50 50" fill="none" xmlns="http://www.w3.org/2000/svg">
<circle cx="25" cy="25" r="25" fill="white"/>
<path d="M37.927 21.7333L35.407 20.8933L36.5937 18.52C36.714 18.2715 36.7542 17.9919 36.7088 17.7197C36.6634 17.4474 36.5347 17.1959 36.3403 17L33.5003 14.16C33.3033 13.9627 33.0494 13.8322 32.7744 13.7868C32.4993 13.7414 32.217 13.7833 31.967 13.9066L29.5937 15.0933L28.7537 12.5733C28.6649 12.3106 28.4966 12.0821 28.2719 11.9196C28.0473 11.7571 27.7776 11.6687 27.5003 11.6666H23.5003C23.2208 11.6659 22.9481 11.7531 22.7208 11.9158C22.4935 12.0785 22.3231 12.3085 22.2337 12.5733L21.3937 15.0933L19.0203 13.9066C18.7719 13.7863 18.4923 13.7461 18.22 13.7915C17.9478 13.8369 17.6963 13.9656 17.5003 14.16L14.6603 17C14.4631 17.197 14.3326 17.4509 14.2872 17.7259C14.2417 18.0009 14.2836 18.2833 14.407 18.5333L15.5937 20.9066L13.0737 21.7466C12.811 21.8353 12.5825 22.0037 12.42 22.2284C12.2575 22.453 12.1691 22.7227 12.167 23V27C12.1663 27.2795 12.2534 27.5522 12.4161 27.7795C12.5788 28.0068 12.8088 28.1772 13.0737 28.2666L15.5937 29.1066L14.407 31.48C14.2867 31.7284 14.2465 32.008 14.2918 32.2803C14.3372 32.5525 14.466 32.804 14.6603 33L17.5003 35.84C17.6973 36.0372 17.9512 36.1677 18.2263 36.2131C18.5013 36.2586 18.7837 36.2167 19.0337 36.0933L21.407 34.9066L22.247 37.4266C22.3364 37.6915 22.5069 37.9215 22.7342 38.0842C22.9615 38.2469 23.2341 38.334 23.5137 38.3333H27.5137C27.7932 38.334 28.0659 38.2469 28.2932 38.0842C28.5205 37.9215 28.6909 37.6915 28.7803 37.4266L29.6203 34.9066L31.9937 36.0933C32.2405 36.2106 32.5174 36.2491 32.7869 36.2038C33.0564 36.1585 33.3054 36.0315 33.5003 35.84L36.3403 33C36.5375 32.8029 36.6681 32.5491 36.7135 32.274C36.7589 31.999 36.717 31.7166 36.5937 31.4666L35.407 29.0933L37.927 28.2533C38.1897 28.1646 38.4182 27.9962 38.5807 27.7716C38.7432 27.5469 38.8316 27.2772 38.8337 27V23C38.8344 22.7204 38.7472 22.4478 38.5845 22.2205C38.4218 21.9932 38.1918 21.8227 37.927 21.7333ZM36.167 26.04L34.567 26.5733C34.1991 26.6926 33.8615 26.8906 33.5777 27.1534C33.294 27.4163 33.0708 27.7377 32.9236 28.0954C32.7765 28.4531 32.7089 28.8386 32.7256 29.225C32.7423 29.6114 32.8429 29.9896 33.0203 30.3333L33.7803 31.8533L32.3137 33.32L30.8337 32.52C30.4917 32.3496 30.1172 32.2547 29.7354 32.2417C29.3536 32.2287 28.9735 32.2978 28.6208 32.4445C28.268 32.5911 27.9509 32.8119 27.6909 33.0917C27.4309 33.3716 27.234 33.7041 27.1137 34.0666L26.5803 35.6666H24.4603L23.927 34.0666C23.8077 33.6987 23.6097 33.3611 23.3469 33.0774C23.084 32.7936 22.7626 32.5704 22.4049 32.4232C22.0472 32.2761 21.6617 32.2085 21.2753 32.2252C20.8889 32.2419 20.5107 32.3425 20.167 32.52L18.647 33.28L17.1803 31.8133L17.9803 30.3333C18.1578 29.9896 18.2584 29.6114 18.2751 29.225C18.2918 28.8386 18.2242 28.4531 18.077 28.0954C17.9299 27.7377 17.7067 27.4163 17.4229 27.1534C17.1391 26.8906 16.8016 26.6926 16.4337 26.5733L14.8337 26.04V23.96L16.4337 23.4266C16.8016 23.3073 17.1391 23.1093 17.4229 22.8465C17.7067 22.5837 17.9299 22.2622 18.077 21.9045C18.2242 21.5468 18.2918 21.1614 18.2751 20.7749C18.2584 20.3885 18.1578 20.0103 17.9803 19.6666L17.2203 18.1866L18.687 16.72L20.167 17.48C20.5107 17.6574 20.8889 17.758 21.2753 17.7747C21.6617 17.7914 22.0472 17.7238 22.4049 17.5767C22.7626 17.4295 23.084 17.2063 23.3469 16.9226C23.6097 16.6388 23.8077 16.3012 23.927 15.9333L24.4603 14.3333H26.5403L27.0737 15.9333C27.193 16.3012 27.391 16.6388 27.6538 16.9226C27.9166 17.2063 28.2381 17.4295 28.5958 17.5767C28.9535 17.7238 29.3389 17.7914 29.7254 17.7747C30.1118 17.758 30.49 17.6574 30.8337 17.48L32.3537 16.72L33.8203 18.1866L33.0203 19.6666C32.85 20.0086 32.7551 20.3831 32.7421 20.7649C32.729 21.1467 32.7982 21.5268 32.9449 21.8795C33.0915 22.2323 33.3122 22.5494 33.5921 22.8094C33.872 23.0694 34.2044 23.2663 34.567 23.3866L36.167 23.92V26.04ZM25.5003 19.6666C24.4455 19.6666 23.4144 19.9794 22.5373 20.5655C21.6602 21.1515 20.9766 21.9844 20.573 22.959C20.1693 23.9335 20.0637 25.0059 20.2695 26.0404C20.4753 27.075 20.9832 28.0253 21.7291 28.7712C22.475 29.5171 23.4253 30.025 24.4598 30.2308C25.4944 30.4366 26.5668 30.331 27.5413 29.9273C28.5158 29.5237 29.3488 28.8401 29.9348 27.963C30.5209 27.0859 30.8337 26.0548 30.8337 25C30.8337 23.5855 30.2718 22.2289 29.2716 21.2287C28.2714 20.2285 26.9148 19.6666 25.5003 19.6666ZM25.5003 27.6666C24.9729 27.6666 24.4573 27.5102 24.0188 27.2172C23.5803 26.9242 23.2385 26.5077 23.0366 26.0205C22.8348 25.5332 22.782 24.997 22.8849 24.4797C22.9878 23.9624 23.2418 23.4873 23.6147 23.1143C23.9877 22.7414 24.4628 22.4874 24.9801 22.3845C25.4974 22.2816 26.0335 22.3344 26.5208 22.5363C27.0081 22.7381 27.4246 23.0799 27.7176 23.5184C28.0106 23.957 28.167 24.4725 28.167 25C28.167 25.7072 27.886 26.3855 27.3859 26.8856C26.8858 27.3857 26.2076 27.6666 25.5003 27.6666Z" fill="#2A3646"/>
</svg>
