<svg width="24" height="24" viewBox="0 0 24 24" fill="none" xmlns="http://www.w3.org/2000/svg">
<g clip-path="url(#clip0_7743_62098)">
<path d="M21.9999 0H13.6873C13.1374 0 12.3688 0.318572 11.9803 0.706811L0.583633 12.1034C-0.194544 12.8807 -0.194544 14.1551 0.583633 14.9315L9.06935 23.4169C9.84577 24.1942 11.1189 24.1942 11.8965 23.416L23.2932 12.0212C23.6814 11.633 24 10.8632 24 10.3145V2.00008C24 0.900286 23.0996 0 21.9999 0ZM17.9997 8.00004C16.8951 8.00004 15.9996 7.10362 15.9996 5.99996C15.9996 4.89448 16.8951 3.99987 17.9997 3.99987C19.1043 3.99987 20.0001 4.89448 20.0001 5.99996C20.0001 7.10362 19.1043 8.00004 17.9997 8.00004Z" fill="#2A3646"/>
</g>
<defs>
<clipPath id="clip0_7743_62098">
<rect width="24" height="24" fill="white"/>
</clipPath>
</defs>
</svg>
