<svg width="140" height="16" viewBox="0 0 140 16" fill="none" xmlns="http://www.w3.org/2000/svg">
<path d="M58.6304 4.41089L56.2847 10.4522L53.4534 4.41089H51.823L49.19 10.5889L46.7896 4.41089H43.6943L48.5294 15.885L49.4937 15.8864L52.6081 9.10722L55.7376 15.8909H56.7018L61.5561 4.41089H58.6304Z" fill="#17449C"/>
<path d="M58.6304 4.41089L56.2847 10.4522L53.4534 4.41089H51.823L49.19 10.5889L46.7896 4.41089H43.6943L48.5294 15.885L49.4937 15.8864L52.6081 9.10722L55.7376 15.8909H56.7018L61.5561 4.41089H58.6304Z" fill="#17449C"/>
<path d="M71.6158 10.8627L63.9916 10.8568C64.1805 11.5947 64.5429 12.1636 65.0749 12.5648C65.6083 12.9661 66.269 13.166 67.0568 13.166C68.1237 13.166 69.1317 12.775 70.0809 11.9915L71.3067 14.1582C70.0208 15.3195 68.5737 15.8986 66.9679 15.8971C65.2596 15.8956 63.8426 15.3106 62.7183 14.1406C61.594 12.9705 61.0332 11.5227 61.0332 9.79555C61.0346 8.08455 61.5803 6.64111 62.6691 5.46518C63.7578 4.28926 65.105 3.70129 66.7122 3.70129C68.2167 3.70276 69.4435 4.22164 70.3914 5.25793C71.3406 6.29421 71.8142 7.58185 71.8128 9.12084C71.8142 9.68528 71.7471 10.2673 71.6158 10.8627ZM64.9573 6.90275C64.4896 7.32612 64.1681 7.89933 63.9916 8.62105L68.943 8.62402C68.9293 7.9023 68.6954 7.32902 68.2427 6.90422C67.79 6.47942 67.2428 6.26775 66.6 6.26775C65.9736 6.26775 65.4251 6.47942 64.9573 6.90275Z" fill="#17449C"/>
<path d="M71.6158 10.8627L63.9916 10.8568C64.1805 11.5947 64.5429 12.1636 65.0749 12.5648C65.6083 12.9661 66.269 13.166 67.0568 13.166C68.1237 13.166 69.1317 12.775 70.0809 11.9915L71.3067 14.1582C70.0208 15.3195 68.5737 15.8986 66.9679 15.8971C65.2596 15.8956 63.8426 15.3106 62.7183 14.1406C61.594 12.9705 61.0332 11.5227 61.0332 9.79555C61.0346 8.08455 61.5803 6.64111 62.6691 5.46518C63.7578 4.28926 65.105 3.70129 66.7122 3.70129C68.2167 3.70276 69.4435 4.22164 70.3914 5.25793C71.3406 6.29421 71.8142 7.58185 71.8128 9.12084C71.8142 9.68528 71.7471 10.2673 71.6158 10.8627ZM64.9573 6.90275C64.4896 7.32612 64.1681 7.89933 63.9916 8.62105L68.943 8.62402C68.9293 7.9023 68.6954 7.32902 68.2427 6.90422C67.79 6.47942 67.2428 6.26775 66.6 6.26775C65.9736 6.26775 65.4251 6.47942 64.9573 6.90275Z" fill="#17449C"/>
<path d="M82.8445 5.44307C83.829 6.59694 84.3213 8.05361 84.3199 9.81162C84.3185 11.5696 83.8249 13.0248 82.839 14.1787C81.8524 15.3311 80.5914 15.9074 79.0586 15.9074C77.5251 15.9058 76.3636 15.3252 75.5762 14.1625L75.5748 15.6222L72.8584 15.6207L72.8695 0L75.8264 0.00146986L75.8223 5.09764C76.5966 4.1716 77.6786 3.71005 79.0655 3.71005C80.5997 3.71151 81.8593 4.28919 82.8445 5.44307ZM80.5181 12.1282C81.0511 11.5403 81.318 10.7597 81.3194 9.78666C81.3194 8.82974 81.0497 8.05658 80.5098 7.46712C79.9691 6.87769 79.3047 6.58372 78.5166 6.58224C77.7574 6.58224 77.111 6.86006 76.5773 7.41713C76.0435 7.97424 75.7774 8.7709 75.776 9.80575C75.776 10.8568 76.0449 11.6549 76.5856 12.1958C77.1255 12.7382 77.7685 13.0087 78.5124 13.0102C79.3158 13.0102 79.9843 12.7177 80.5181 12.1282Z" fill="#17449C"/>
<path d="M82.8445 5.44307C83.829 6.59694 84.3213 8.05361 84.3199 9.81162C84.3185 11.5696 83.8249 13.0248 82.839 14.1787C81.8524 15.3311 80.5914 15.9074 79.0586 15.9074C77.5251 15.9058 76.3636 15.3252 75.5762 14.1625L75.5748 15.6222L72.8584 15.6207L72.8695 0L75.8264 0.00146986L75.8223 5.09764C76.5966 4.1716 77.6786 3.71005 79.0655 3.71005C80.5997 3.71151 81.8593 4.28919 82.8445 5.44307ZM80.5181 12.1282C81.0511 11.5403 81.318 10.7597 81.3194 9.78666C81.3194 8.82974 81.0497 8.05658 80.5098 7.46712C79.9691 6.87769 79.3047 6.58372 78.5166 6.58224C77.7574 6.58224 77.111 6.86006 76.5773 7.41713C76.0435 7.97424 75.7774 8.7709 75.776 9.80575C75.776 10.8568 76.0449 11.6549 76.5856 12.1958C77.1255 12.7382 77.7685 13.0087 78.5124 13.0102C79.3158 13.0102 79.9843 12.7177 80.5181 12.1282Z" fill="#17449C"/>
<path d="M101.859 5.4814C102.997 6.65144 103.566 8.09195 103.565 9.80295C103.564 11.5139 102.993 12.9573 101.854 14.1347C100.715 15.3121 99.3332 15.8986 97.7119 15.8972C96.0913 15.8957 94.7224 15.3107 93.6045 14.1406C92.4886 12.9706 91.9307 11.5227 91.9307 9.79555C91.932 8.08462 92.4941 6.64409 93.6197 5.47551C94.7452 4.30694 96.1183 3.72339 97.7396 3.72486C99.3477 3.72486 100.72 4.30988 101.859 5.4814ZM95.7235 7.52454C95.1967 8.12873 94.934 8.89304 94.9326 9.81906C94.9326 10.7451 95.1953 11.5021 95.7208 12.0916C96.2455 12.681 96.9175 12.9749 97.7354 12.9765C98.5381 12.9765 99.2073 12.6795 99.7404 12.0827C100.274 11.4859 100.54 10.7334 100.542 9.82348C100.543 8.91364 100.277 8.15223 99.7431 7.53926C99.2101 6.92631 98.5422 6.62057 97.7396 6.6191C96.9217 6.6191 96.2483 6.92043 95.7235 7.52454Z" fill="#17449C"/>
<path d="M101.859 5.4814C102.997 6.65144 103.566 8.09195 103.565 9.80295C103.564 11.5139 102.993 12.9573 101.854 14.1347C100.715 15.3121 99.3332 15.8986 97.7119 15.8972C96.0913 15.8957 94.7224 15.3107 93.6045 14.1406C92.4886 12.9706 91.9307 11.5227 91.9307 9.79555C91.932 8.08462 92.4941 6.64409 93.6197 5.47551C94.7452 4.30694 96.1183 3.72339 97.7396 3.72486C99.3477 3.72486 100.72 4.30988 101.859 5.4814ZM95.7235 7.52454C95.1967 8.12873 94.934 8.89304 94.9326 9.81906C94.9326 10.7451 95.1953 11.5021 95.7208 12.0916C96.2455 12.681 96.9175 12.9749 97.7354 12.9765C98.5381 12.9765 99.2073 12.6795 99.7404 12.0827C100.274 11.4859 100.54 10.7334 100.542 9.82348C100.543 8.91364 100.277 8.15223 99.7431 7.53926C99.2101 6.92631 98.5422 6.62057 97.7396 6.6191C96.9217 6.6191 96.2483 6.92043 95.7235 7.52454Z" fill="#17449C"/>
<path d="M104.7 15.4857L107.556 15.4872L107.562 7.3175L109.869 7.31895L109.87 4.70604L107.563 4.70463L107.565 4.56378C107.565 3.93134 107.72 3.48482 108.031 3.22142C108.342 2.95802 108.821 2.82702 109.47 2.82702C109.615 2.82702 109.77 2.83547 109.934 2.85097L109.935 0.236676C109.557 0.14512 109.162 0.0986371 108.752 0.0986371C107.497 0.0972285 106.509 0.446552 105.788 1.1452C105.069 1.84384 104.708 2.89322 104.708 4.29193L104.7 15.4857Z" fill="#17449C"/>
<path d="M104.7 15.4857L107.556 15.4872L107.562 7.3175L109.869 7.31895L109.87 4.70604L107.563 4.70463L107.565 4.56378C107.565 3.93134 107.72 3.48482 108.031 3.22142C108.342 2.95802 108.821 2.82702 109.47 2.82702C109.615 2.82702 109.77 2.83547 109.934 2.85097L109.935 0.236676C109.557 0.14512 109.162 0.0986371 108.752 0.0986371C107.497 0.0972285 106.509 0.446552 105.788 1.1452C105.069 1.84384 104.708 2.89322 104.708 4.29193L104.7 15.4857Z" fill="#17449C"/>
<path d="M110.887 15.4857L113.743 15.4872L113.748 7.3175L116.055 7.31895L116.057 4.70604L113.75 4.70463L113.751 4.56378C113.751 3.93134 113.907 3.48482 114.218 3.22142C114.528 2.95802 115.008 2.82702 115.656 2.82702C115.802 2.82702 115.957 2.83547 116.12 2.85097L116.122 0.236676C115.744 0.14512 115.349 0.0986371 114.939 0.0986371C113.684 0.0972285 112.695 0.446552 111.975 1.1452C111.255 1.84384 110.894 2.89322 110.894 4.29193L110.887 15.4857Z" fill="#17449C"/>
<path d="M110.887 15.4857L113.743 15.4872L113.748 7.3175L116.055 7.31895L116.057 4.70604L113.75 4.70463L113.751 4.56378C113.751 3.93134 113.907 3.48482 114.218 3.22142C114.528 2.95802 115.008 2.82702 115.656 2.82702C115.802 2.82702 115.957 2.83547 116.12 2.85097L116.122 0.236676C115.744 0.14512 115.349 0.0986371 114.939 0.0986371C113.684 0.0972285 112.695 0.446552 111.975 1.1452C111.255 1.84384 110.894 2.89322 110.894 4.29193L110.887 15.4857Z" fill="#17449C"/>
<path d="M88.3685 6.58672L88.3658 11.3374C88.3658 11.9974 88.5262 12.4634 88.8476 12.7383C89.1691 13.0132 89.6655 13.1513 90.3369 13.1513C90.5996 13.1513 90.892 13.1278 91.2135 13.0808L91.2121 15.7413C90.7005 15.9133 90.1606 16 89.5916 15.9985C88.2918 15.9971 87.2693 15.6325 86.5246 14.902C85.7807 14.1714 85.4088 13.0764 85.4102 11.6167L85.4129 6.58377L85.4143 3.89973L85.4157 0.0162354L88.3727 0.0177052L88.3713 3.9012L88.3685 6.58672Z" fill="#17449C"/>
<path d="M88.3685 6.58672L88.3658 11.3374C88.3658 11.9974 88.5262 12.4634 88.8476 12.7383C89.1691 13.0132 89.6655 13.1513 90.3369 13.1513C90.5996 13.1513 90.892 13.1278 91.2135 13.0808L91.2121 15.7413C90.7005 15.9133 90.1606 16 89.5916 15.9985C88.2918 15.9971 87.2693 15.6325 86.5246 14.902C85.7807 14.1714 85.4088 13.0764 85.4102 11.6167L85.4129 6.58377L85.4143 3.89973L85.4157 0.0162354L88.3727 0.0177052L88.3713 3.9012L88.3685 6.58672Z" fill="#17449C"/>
<path d="M89.143 4.43921L91.6458 4.44068L91.6444 7.12475L89.1416 7.12323L89.143 4.43921Z" fill="#17449C"/>
<path d="M89.143 4.43921L91.6458 4.44068L91.6444 7.12475L89.1416 7.12323L89.143 4.43921Z" fill="#17449C"/>
<path d="M127.442 10.9026L119.818 10.8967C120.007 11.6346 120.369 12.2035 120.901 12.6048C121.435 13.006 122.095 13.206 122.883 13.206C123.95 13.206 124.958 12.8149 125.907 12.0315L127.133 14.1982C125.847 15.3594 124.4 15.9385 122.794 15.937C121.086 15.9356 119.669 15.3505 118.545 14.1805C117.42 13.0105 116.859 11.5626 116.859 9.83548C116.861 8.12448 117.406 6.68103 118.494 5.50364C119.583 4.32771 120.93 3.73975 122.537 3.73975C124.042 3.74122 125.268 4.26009 126.216 5.29638C127.166 6.33266 127.639 7.62033 127.638 9.15932C127.641 9.72521 127.575 10.3058 127.442 10.9026ZM120.785 6.94267C120.318 7.36598 119.996 7.93926 119.82 8.66098L124.771 8.66396C124.757 7.94223 124.523 7.36895 124.07 6.94415C123.618 6.51934 123.071 6.30768 122.428 6.30768C121.8 6.30768 121.253 6.51934 120.785 6.94267Z" fill="#17449C"/>
<path d="M127.442 10.9026L119.818 10.8967C120.007 11.6346 120.369 12.2035 120.901 12.6048C121.435 13.006 122.095 13.206 122.883 13.206C123.95 13.206 124.958 12.8149 125.907 12.0315L127.133 14.1982C125.847 15.3594 124.4 15.9385 122.794 15.937C121.086 15.9356 119.669 15.3505 118.545 14.1805C117.42 13.0105 116.859 11.5626 116.859 9.83548C116.861 8.12448 117.406 6.68103 118.494 5.50364C119.583 4.32771 120.93 3.73975 122.537 3.73975C124.042 3.74122 125.268 4.26009 126.216 5.29638C127.166 6.33266 127.639 7.62033 127.638 9.15932C127.641 9.72521 127.575 10.3058 127.442 10.9026ZM120.785 6.94267C120.318 7.36598 119.996 7.93926 119.82 8.66098L124.771 8.66396C124.757 7.94223 124.523 7.36895 124.07 6.94415C123.618 6.51934 123.071 6.30768 122.428 6.30768C121.8 6.30768 121.253 6.51934 120.785 6.94267Z" fill="#17449C"/>
<path d="M138.86 10.9093L131.237 10.9035C131.425 11.6413 131.788 12.2102 132.32 12.6115C132.854 13.0128 133.514 13.2126 134.302 13.2126C135.369 13.2126 136.377 12.8217 137.326 12.0382L138.551 14.2048C137.266 15.366 135.819 15.9452 134.213 15.9438C132.505 15.9423 131.088 15.3573 129.963 14.1872C128.839 13.0172 128.278 11.5693 128.278 9.84215C128.28 8.13121 128.824 6.68774 129.913 5.51034C131.002 4.33442 132.349 3.74646 133.956 3.74646C135.46 3.74793 136.687 4.26681 137.635 5.30309C138.585 6.33937 139.057 7.627 139.056 9.16599C139.059 9.73194 138.992 10.3126 138.86 10.9093ZM132.203 6.94939C131.734 7.37271 131.413 7.946 131.237 8.66772L136.188 8.67062C136.174 7.9489 135.941 7.37569 135.488 6.95085C135.035 6.52605 134.488 6.31439 133.845 6.31439C133.219 6.31439 132.67 6.52605 132.203 6.94939Z" fill="#17449C"/>
<path d="M138.86 10.9093L131.237 10.9035C131.425 11.6413 131.788 12.2102 132.32 12.6115C132.854 13.0128 133.514 13.2126 134.302 13.2126C135.369 13.2126 136.377 12.8217 137.326 12.0382L138.551 14.2048C137.266 15.366 135.819 15.9452 134.213 15.9438C132.505 15.9423 131.088 15.3573 129.963 14.1872C128.839 13.0172 128.278 11.5693 128.278 9.84215C128.28 8.13121 128.824 6.68774 129.913 5.51034C131.002 4.33442 132.349 3.74646 133.956 3.74646C135.46 3.74793 136.687 4.26681 137.635 5.30309C138.585 6.33937 139.057 7.627 139.056 9.16599C139.059 9.73194 138.992 10.3126 138.86 10.9093ZM132.203 6.94939C131.734 7.37271 131.413 7.946 131.237 8.66772L136.188 8.67062C136.174 7.9489 135.941 7.37569 135.488 6.95085C135.035 6.52605 134.488 6.31439 133.845 6.31439C133.219 6.31439 132.67 6.52605 132.203 6.94939Z" fill="#17449C"/>
<path d="M29.9557 15.1048C29.9557 15.5967 29.5804 16 29.1226 16H23.3145C22.8567 16 22.4814 15.5967 22.4814 15.1048V8.86297C22.4814 8.371 22.8567 7.96765 23.3145 7.96765H29.1226C29.5804 7.96765 29.9557 8.371 29.9557 8.86297V15.1048Z" fill="#07BFDD"/>
<path d="M29.9557 15.1048C29.9557 15.5967 29.5804 16 29.1226 16H23.3145C22.8567 16 22.4814 15.5967 22.4814 15.1048V8.86297C22.4814 8.371 22.8567 7.96765 23.3145 7.96765H29.1226C29.5804 7.96765 29.9557 8.371 29.9557 8.86297V15.1048Z" fill="#07BFDD"/>
<path d="M37.524 7.23571C37.524 7.72769 37.1487 8.13103 36.691 8.13103H30.8828C30.4251 8.13103 30.0498 7.72769 30.0498 7.23571V0.993908C30.0498 0.50195 30.4251 0.0986328 30.8828 0.0986328H36.691C37.1487 0.0986328 37.524 0.50195 37.524 0.993908V7.23571Z" fill="#007FFF"/>
<path d="M37.524 7.23571C37.524 7.72769 37.1487 8.13103 36.691 8.13103H30.8828C30.4251 8.13103 30.0498 7.72769 30.0498 7.23571V0.993908C30.0498 0.50195 30.4251 0.0986328 30.8828 0.0986328H36.691C37.1487 0.0986328 37.524 0.50195 37.524 0.993908V7.23571Z" fill="#007FFF"/>
<path d="M15.0319 15.1048C15.0319 15.5967 14.6566 16 14.1988 16H8.39072C7.93296 16 7.55762 15.5967 7.55762 15.1048V8.86297C7.55762 8.371 7.93296 7.96765 8.39072 7.96765H14.1988C14.6566 7.96765 15.0319 8.371 15.0319 8.86297V15.1048Z" fill="#1DA5F8"/>
<path d="M15.0319 15.1048C15.0319 15.5967 14.6566 16 14.1988 16H8.39072C7.93296 16 7.55762 15.5967 7.55762 15.1048V8.86297C7.55762 8.371 7.93296 7.96765 8.39072 7.96765H14.1988C14.6566 7.96765 15.0319 8.371 15.0319 8.86297V15.1048Z" fill="#1DA5F8"/>
<path d="M7.47426 7.23633C7.47426 7.72831 7.09891 8.13159 6.64116 8.13159H0.833066C0.375292 8.13159 0 7.72976 0 7.23633V0.99452C0 0.502561 0.375292 0.0992432 0.833066 0.0992432H6.64116C7.09891 0.0992432 7.47426 0.502561 7.47426 0.99452V7.23633Z" fill="#8CC936"/>
<path d="M7.47426 7.23633C7.47426 7.72831 7.09891 8.13159 6.64116 8.13159H0.833066C0.375292 8.13159 0 7.72976 0 7.23633V0.99452C0 0.502561 0.375292 0.0992432 0.833066 0.0992432H6.64116C7.09891 0.0992432 7.47426 0.502561 7.47426 0.99452V7.23633Z" fill="#8CC936"/>
</svg>
