<svg width="36" height="36" viewBox="0 0 36 36" fill="none" xmlns="http://www.w3.org/2000/svg">
<path fill-rule="evenodd" clip-rule="evenodd" d="M3.38341 13.5461C2.99785 13.935 2.99785 14.5655 3.38341 14.9544C3.76898 15.3432 4.39411 15.3432 4.77968 14.9544L14.8805 4.7666C15.266 4.37771 15.266 3.7472 14.8805 3.35832C14.4949 2.96943 13.8698 2.96943 13.4842 3.35832L3.38341 13.5461ZM3.57206 25.3059C3.18649 25.6947 3.18649 26.3253 3.57206 26.7141C3.95762 27.103 4.58275 27.103 4.96832 26.7141L26.686 4.80949C27.0716 4.42061 27.0716 3.7901 26.686 3.40121C26.3004 3.01232 25.6753 3.01232 25.2897 3.40121L3.57206 25.3059ZM9.5617 32.6228C9.17613 32.2339 9.17613 31.6034 9.5617 31.2145L31.2733 9.31598C31.6588 8.9271 32.284 8.92709 32.6695 9.31598C33.0551 9.70487 33.0551 10.3354 32.6695 10.7243L10.958 32.6228C10.5724 33.0116 9.94726 33.0116 9.5617 32.6228ZM21.3526 31.2715C20.967 31.6604 20.967 32.2909 21.3526 32.6798C21.7382 33.0687 22.3633 33.0687 22.7488 32.6798L32.7119 22.631C33.0975 22.2421 33.0975 21.6116 32.7119 21.2227C32.3264 20.8338 31.7013 20.8338 31.3157 21.2227L21.3526 31.2715Z" fill="#666666"/>
<path fill-rule="evenodd" clip-rule="evenodd" d="M3.28918 7.66612C2.90361 8.05501 2.90361 8.68552 3.28918 9.07441C3.67474 9.46329 4.29987 9.46329 4.68544 9.07441L9.02256 4.69995C9.40813 4.31106 9.40813 3.68055 9.02256 3.29167C8.63699 2.90278 8.01187 2.90278 7.6263 3.29167L3.28918 7.66612ZM3.47757 20.8342C3.092 20.4453 3.092 19.8148 3.47757 19.4259L19.3122 3.45496C19.6978 3.06608 20.3229 3.06608 20.7085 3.45496C21.094 3.84385 21.094 4.47436 20.7085 4.86325L4.87383 20.8342C4.48826 21.2231 3.86313 21.2231 3.47757 20.8342ZM3.66621 32.5941C3.28064 32.2052 3.28064 31.5747 3.66621 31.1858L31.1195 3.49623C31.505 3.10734 32.1302 3.10734 32.5157 3.49623C32.9013 3.88511 32.9013 4.51562 32.5157 4.90451L5.06247 32.5941C4.67691 32.983 4.05178 32.983 3.66621 32.5941ZM15.4571 32.6512C15.0715 32.2623 15.0715 31.6318 15.4571 31.2429L31.0407 15.5251C31.4263 15.1362 32.0514 15.1362 32.437 15.5251C32.8225 15.914 32.8225 16.5445 32.437 16.9334L16.8534 32.6512C16.4678 33.0401 15.8427 33.0401 15.4571 32.6512ZM27.2477 31.3001C26.8622 31.689 26.8622 32.3195 27.2477 32.7084C27.6333 33.0972 28.2584 33.0972 28.644 32.7084L32.7179 28.5994C33.1035 28.2105 33.1035 27.58 32.7179 27.1911C32.3323 26.8022 31.7072 26.8022 31.3216 27.1911L27.2477 31.3001Z" fill="black"/>
</svg>
