<svg width="36" height="36" viewBox="0 0 36 36" fill="none" xmlns="http://www.w3.org/2000/svg">
<path fill-rule="evenodd" clip-rule="evenodd" d="M27 5H5L5 27H27V5ZM5 3C3.89543 3 3 3.89543 3 5V27C3 28.1046 3.89543 29 5 29H27C28.1046 29 29 28.1046 29 27V5C29 3.89543 28.1046 3 27 3H5Z" fill="black"/>
<path fill-rule="evenodd" clip-rule="evenodd" d="M31 7C31 6.44772 31.4477 6 32 6C32.5523 6 33 6.44772 33 7C33 7.55228 32.5523 8 32 8C31.4477 8 31 7.55228 31 7ZM31 11C31 10.4477 31.4477 10 32 10C32.5523 10 33 10.4477 33 11C33 11.5523 32.5523 12 32 12C31.4477 12 31 11.5523 31 11ZM32 14C31.4477 14 31 14.4477 31 15C31 15.5523 31.4477 16 32 16C32.5523 16 33 15.5523 33 15C33 14.4477 32.5523 14 32 14ZM31 19C31 18.4477 31.4477 18 32 18C32.5523 18 33 18.4477 33 19C33 19.5523 32.5523 20 32 20C31.4477 20 31 19.5523 31 19ZM32 22C31.4477 22 31 22.4477 31 23C31 23.5523 31.4477 24 32 24C32.5523 24 33 23.5523 33 23C33 22.4477 32.5523 22 32 22ZM31 27C31 26.4477 31.4477 26 32 26C32.5523 26 33 26.4477 33 27C33 27.5523 32.5523 28 32 28C31.4477 28 31 27.5523 31 27ZM32 30C31.4477 30 31 30.4477 31 31C31 31.5523 31.4477 32 32 32C32.5523 32 33 31.5523 33 31C33 30.4477 32.5523 30 32 30ZM27 31C27 30.4477 27.4477 30 28 30C28.5523 30 29 30.4477 29 31C29 31.5523 28.5523 32 28 32C27.4477 32 27 31.5523 27 31ZM24 30C23.4477 30 23 30.4477 23 31C23 31.5523 23.4477 32 24 32C24.5523 32 25 31.5523 25 31C25 30.4477 24.5523 30 24 30ZM19 31C19 30.4477 19.4477 30 20 30C20.5523 30 21 30.4477 21 31C21 31.5523 20.5523 32 20 32C19.4477 32 19 31.5523 19 31ZM16 30C15.4477 30 15 30.4477 15 31C15 31.5523 15.4477 32 16 32C16.5523 32 17 31.5523 17 31C17 30.4477 16.5523 30 16 30ZM11 31C11 30.4477 11.4477 30 12 30C12.5523 30 13 30.4477 13 31C13 31.5523 12.5523 32 12 32C11.4477 32 11 31.5523 11 31ZM8 30C7.44772 30 7 30.4477 7 31C7 31.5523 7.44772 32 8 32C8.55228 32 9 31.5523 9 31C9 30.4477 8.55228 30 8 30Z" fill="#666666"/>
</svg>
