<svg width="36" height="36" viewBox="0 0 36 36" fill="none" xmlns="http://www.w3.org/2000/svg">
<path fill-rule="evenodd" clip-rule="evenodd" d="M25.9336 13.4452C24.9645 13.1381 23.9535 12.9831 22.9369 12.9859C21.1834 12.986 19.4608 13.4474 17.9423 14.324C16.4237 13.4474 14.7012 12.986 12.9477 12.9859C11.2291 12.9864 9.5398 13.43 8.04297 14.274C8.12311 14.9736 8.28746 15.6609 8.53244 16.3211C9.33741 18.5936 10.9376 20.4982 13.0376 21.6835C12.9771 22.1102 12.9471 22.5406 12.9477 22.9716C12.9444 24.3474 13.2278 25.7087 13.7799 26.9689C14.332 28.2291 15.1406 29.3606 16.1542 30.2912C16.6951 30.8036 17.2954 31.2495 17.9423 31.6193C18.5892 31.2495 19.1894 30.8036 19.7303 30.2912C20.744 29.3606 21.5526 28.2291 22.1047 26.9689C22.6567 25.7087 22.9401 24.3474 22.9369 22.9716C22.9375 22.5406 22.9074 22.1102 22.847 21.6835C24.9469 20.4982 26.5471 18.5936 27.3521 16.3211C27.5971 15.6609 27.7614 14.9736 27.8416 14.274C27.2364 13.9317 26.5969 13.6539 25.9336 13.4452ZM17.9423 16.7405C19.1687 17.7209 20.0789 19.0407 20.5594 20.5351C18.8641 21.1225 17.0204 21.1225 15.3251 20.5351C15.8056 19.0407 16.7159 17.7209 17.9423 16.7405ZM10.3305 15.4224C11.1727 15.1328 12.057 14.9843 12.9477 14.983C14.0513 14.9823 15.143 15.2101 16.1542 15.6521C14.962 16.7462 14.0594 18.1185 13.527 19.6464C12.012 18.6427 10.8845 17.1528 10.3305 15.4224ZM17.9423 29.2027C17.0078 28.4548 16.2533 27.5065 15.7346 26.428C15.2159 25.3495 14.9463 24.1683 14.9455 22.9716C14.9455 22.8218 14.9455 22.6621 14.9455 22.5123C16.8958 23.1288 18.9888 23.1288 20.939 22.5123C20.939 22.6621 20.939 22.8218 20.939 22.9716C20.9383 24.1683 20.6686 25.3495 20.1499 26.428C19.6312 27.5065 18.8768 28.4548 17.9423 29.2027ZM22.3575 19.6364C21.8252 18.1085 20.9226 16.7362 19.7303 15.6421C20.7422 15.2036 21.834 14.9792 22.9369 14.983C23.8275 14.9843 24.7118 15.1328 25.554 15.4224C24.998 17.1491 23.8707 18.6352 22.3575 19.6364Z" fill="#666666"/>
<path fill-rule="evenodd" clip-rule="evenodd" d="M17.9423 3C15.293 3 12.7522 4.05207 10.8789 5.92475C9.00556 7.79744 7.95313 10.3374 7.95313 12.9857C7.95254 13.4135 7.98214 13.8408 8.0417 14.2644C6.90226 14.9141 5.90194 15.7817 5.0978 16.8177C4.29336 17.8541 3.701 19.0388 3.35455 20.304C3.0081 21.5692 2.91433 22.8903 3.07861 24.1918C3.24289 25.4933 3.66199 26.7496 4.31199 27.8892C4.96198 29.0288 5.83015 30.0292 6.86691 30.8333C7.90367 31.6375 9.08873 32.2297 10.3544 32.576C11.6201 32.9223 12.9416 33.0161 14.2436 32.8518C15.5455 32.6876 16.8023 32.2687 17.9423 31.6189C17.2954 31.2491 16.6951 30.8032 16.1542 30.2908C14.3207 31.0993 12.2502 31.1897 10.3531 30.544C8.45611 29.8983 6.871 28.5636 5.912 26.8046C4.95301 25.0456 4.69013 22.9906 5.17548 21.0469C5.66083 19.1033 6.85897 17.4129 8.53243 16.3107C8.28857 15.6536 8.12461 14.9696 8.04407 14.2733C8.64896 13.9313 9.2881 13.6537 9.95097 13.4451V12.9857C9.95097 10.867 10.7929 8.8351 12.2916 7.33695C13.7903 5.8388 15.8229 4.99715 17.9423 4.99715C20.0618 4.99715 22.0944 5.8388 23.5931 7.33695C25.0918 8.8351 25.9337 10.867 25.9337 12.9857V13.4451C26.6004 13.6532 27.2433 13.931 27.8516 14.2739C27.9087 13.8469 27.9354 13.4165 27.9315 12.9857C27.9315 10.3374 26.8791 7.79744 25.0058 5.92475C23.1324 4.05207 20.5916 3 17.9423 3ZM27.3522 16.321C27.5972 15.6608 27.7615 14.9735 27.8417 14.2739C29 14.9137 30.0195 15.7771 30.8412 16.814C31.6628 17.851 32.2702 19.0408 32.628 20.3144C32.9858 21.588 33.0869 22.92 32.9254 24.2329C32.7639 25.5459 32.343 26.8137 31.6873 27.9627C31.0315 29.1117 30.1539 30.119 29.1054 30.9261C28.057 31.7332 26.8585 32.324 25.5797 32.6642C24.3009 33.0044 22.9672 33.0872 21.6561 32.9078C20.3451 32.7284 19.0827 32.2904 17.9424 31.6191C18.5887 31.2525 19.189 30.81 19.7305 30.301C21.564 31.1095 23.6345 31.1999 25.5315 30.5542C27.4285 29.9085 29.0136 28.5739 29.9726 26.8149C30.9316 25.0558 31.1945 23.0008 30.7092 21.0572C30.2238 19.1135 29.0257 17.4231 27.3522 16.321Z" fill="black"/>
</svg>
