<svg width="36" height="36" viewBox="0 0 36 36" fill="none" xmlns="http://www.w3.org/2000/svg">
<path fill-rule="evenodd" clip-rule="evenodd" d="M32.0625 5C32.5803 5 33 5.44772 33 6C33 6.55228 32.5803 7 32.0625 7H3.9375C3.41973 7 3 6.55228 3 6C3 5.44772 3.41973 5 3.9375 5H32.0625ZM3 18C3 17.4477 3.41973 17 3.9375 17H32.0625C32.5803 17 33 17.4477 33 18C33 18.5523 32.5803 19 32.0625 19H3.9375C3.41973 19 3 18.5523 3 18ZM33 30C33 29.4477 32.5803 29 32.0625 29H3.9375C3.41973 29 3 29.4477 3 30C3 30.5523 3.41973 31 3.9375 31H32.0625C32.5803 31 33 30.5523 33 30Z" fill="#666666"/>
<path fill-rule="evenodd" clip-rule="evenodd" d="M9 6C9 6.55228 9.44772 7 10 7C10.5523 7 11 6.55228 11 6C11 5.44772 10.5523 5 10 5C9.44772 5 9 5.44772 9 6ZM7 6C7 7.65685 8.34315 9 10 9C11.6569 9 13 7.65685 13 6C13 4.34315 11.6569 3 10 3C8.34315 3 7 4.34315 7 6ZM26 19C26.5523 19 27 18.5523 27 18C27 17.4477 26.5523 17 26 17C25.4477 17 25 17.4477 25 18C25 18.5523 25.4477 19 26 19ZM26 21C27.6569 21 29 19.6569 29 18C29 16.3431 27.6569 15 26 15C24.3431 15 23 16.3431 23 18C23 19.6569 24.3431 21 26 21ZM10 31C9.44772 31 9 30.5523 9 30C9 29.4477 9.44772 29 10 29C10.5523 29 11 29.4477 11 30C11 30.5523 10.5523 31 10 31ZM10 33C8.34315 33 7 31.6569 7 30C7 28.3431 8.34315 27 10 27C11.6569 27 13 28.3431 13 30C13 31.6569 11.6569 33 10 33Z" fill="black"/>
</svg>
