<svg width="36" height="36" viewBox="0 0 36 36" fill="none" xmlns="http://www.w3.org/2000/svg">
<path fill-rule="evenodd" clip-rule="evenodd" d="M6 4C6 3.44772 6.44772 3 7 3C7.55228 3 8 3.44772 8 4V5H14V4C14 3.44772 14.4477 3 15 3C15.5523 3 16 3.44772 16 4V5H22V4C22 3.44772 22.4477 3 23 3C23.5523 3 24 3.44772 24 4V5C25.6569 5 27 6.34315 27 8V16H25V8C25 7.44771 24.5523 7 24 7H23H15H7H6C5.44771 7 5 7.44772 5 8V26C5 26.5523 5.44772 27 6 27H17V29H6C4.34315 29 3 27.6569 3 26V8C3 6.34314 4.34315 5 6 5V4Z" fill="black"/>
<path fill-rule="evenodd" clip-rule="evenodd" d="M31 24C31 27.866 27.866 31 24 31C20.134 31 17 27.866 17 24C17 20.134 20.134 17 24 17C27.866 17 31 20.134 31 24ZM33 24C33 28.9706 28.9706 33 24 33C19.0294 33 15 28.9706 15 24C15 19.0294 19.0294 15 24 15C28.9706 15 33 19.0294 33 24ZM23 20C23 19.4477 23.4477 19 24 19C24.5523 19 25 19.4477 25 20V23H28C28.5523 23 29 23.4477 29 24C29 24.5523 28.5523 25 28 25H24C23.4477 25 23 24.5523 23 24V20Z" fill="#666666"/>
</svg>
