<svg width="36" height="36" viewBox="0 0 36 36" fill="none" xmlns="http://www.w3.org/2000/svg">
<path fill-rule="evenodd" clip-rule="evenodd" d="M19.3808 6.36366C19.8144 6.70568 20.4432 6.63142 20.7852 6.19778C21.1272 5.76415 21.053 5.13535 20.6193 4.79333L18.696 3.27632C18.5173 3.10584 18.2755 3.00089 18.0091 3.00005L17.9996 3C17.9249 2.99989 17.85 3.00811 17.7764 3.02483C17.6856 3.04544 17.5995 3.07841 17.5199 3.12187C17.4655 3.1515 17.4135 3.18643 17.3646 3.22659L15.3802 4.7937C14.9468 5.13598 14.8729 5.76482 15.2152 6.19825C15.5575 6.63168 16.1863 6.70557 16.6197 6.36328L17.0008 6.06235L17.0023 7.49943L17.0008 8.93623L16.6202 8.6353C16.187 8.29276 15.5581 8.36627 15.2156 8.79949C14.873 9.23271 14.9465 9.8616 15.3797 10.2041L17.3668 11.7753C17.4147 11.8144 17.4655 11.8485 17.5186 11.8775C17.6858 11.9692 17.8715 12.0087 18.0539 11.9986C18.1258 11.9947 18.1975 11.983 18.2677 11.9635C18.4251 11.9209 18.567 11.8409 18.6834 11.7336L20.6198 10.2044C21.0532 9.86215 21.1271 9.23331 20.7848 8.79989C20.4426 8.36646 19.8137 8.29257 19.3803 8.63485L19.0038 8.93219L19.0023 7.49906L19.0038 6.06631L19.3808 6.36366ZM6.36366 16.6193C6.70568 16.1857 6.63142 15.5569 6.19778 15.2149C5.76415 14.8729 5.13535 14.9471 4.79333 15.3808L3.27632 17.3041C3.10584 17.4828 3.00089 17.7246 3.00005 17.991L3 18.0005C2.99989 18.0752 3.00811 18.1501 3.02483 18.2237C3.04544 18.3145 3.07841 18.4006 3.12187 18.4802C3.15149 18.5345 3.18643 18.5866 3.22658 18.6354L4.7937 20.6199C5.13598 21.0533 5.76482 21.1272 6.19825 20.7849C6.63168 20.4426 6.70557 19.8138 6.36328 19.3804L6.06235 18.9993L7.49897 18.9978L8.93623 18.9993L8.6353 19.3799C8.29276 19.8131 8.36627 20.442 8.79949 20.7845C9.23271 21.1271 9.8616 21.0536 10.2041 20.6203L11.7753 18.6332C11.8144 18.5854 11.8485 18.5346 11.8775 18.4815C11.9692 18.3143 12.0087 18.1286 11.9986 17.9462C11.9947 17.8743 11.983 17.8026 11.9635 17.7323C11.9209 17.575 11.8409 17.4331 11.7336 17.3167L10.2044 15.3803C9.86215 14.9469 9.23331 14.873 8.79989 15.2153C8.36646 15.5575 8.29257 16.1864 8.63485 16.6198L8.93219 16.9963L7.4992 16.9978L6.06631 16.9963L6.36366 16.6193ZM27.3637 16.6193C27.7057 16.1857 27.6314 15.5569 27.1978 15.2149C26.7641 14.8729 26.1354 14.9471 25.7933 15.3808L24.2763 17.3041C24.1058 17.4828 24.0009 17.7247 24 17.9911L24 18.0017C24 18.0725 24.0074 18.1434 24.0225 18.2132C24.043 18.3083 24.0771 18.3984 24.1225 18.4813C24.152 18.5353 24.1867 18.5869 24.2266 18.6355L25.7937 20.6199C26.136 21.0533 26.7648 21.1272 27.1983 20.7849C27.6317 20.4426 27.7056 19.8138 27.3633 19.3804L27.0623 18.9993L28.499 18.9978L29.9362 18.9993L29.6353 19.3799C29.2928 19.8131 29.3663 20.442 29.7995 20.7845C30.2327 21.1271 30.8616 21.0536 31.2041 20.6203L32.7753 18.6332C32.8144 18.5854 32.8485 18.5346 32.8775 18.4815C32.9692 18.3143 33.0087 18.1286 32.9986 17.9462C32.9947 17.8743 32.983 17.8026 32.9635 17.7323C32.9209 17.575 32.8409 17.4331 32.7336 17.3167L31.2044 15.3803C30.8622 14.9469 30.2333 14.873 29.7999 15.2153C29.3665 15.5575 29.2926 16.1864 29.6349 16.6198L29.9322 16.9963L28.4992 16.9978L27.0663 16.9963L27.3637 16.6193ZM17.3669 32.7753L15.3797 31.2041C14.9465 30.8616 14.873 30.2327 15.2156 29.7995C15.5581 29.3663 16.187 29.2928 16.6202 29.6353L17.0008 29.9362L17.0023 28.4994L17.0008 27.0624L16.6197 27.3633C16.1863 27.7056 15.5575 27.6317 15.2152 27.1983C14.8729 26.7648 14.9468 26.136 15.3802 25.7937L17.3646 24.2266C17.4131 24.1867 17.4648 24.152 17.5188 24.1225C17.584 24.0868 17.6536 24.0581 17.7266 24.0375C17.7463 24.0319 17.7662 24.027 17.7864 24.0226C17.8562 24.0075 17.927 24 17.9978 24L18.0088 24C18.2753 24.0008 18.5172 24.1058 18.696 24.2763L20.6193 25.7933C21.053 26.1354 21.1272 26.7641 20.7852 27.1978C20.4432 27.6314 19.8144 27.7057 19.3808 27.3637L19.0038 27.0663L19.0023 28.4991L19.0038 29.9322L19.3803 29.6349C19.8137 29.2926 20.4426 29.3665 20.7848 29.7999C21.1271 30.2333 21.0532 30.8622 20.6198 31.2044L18.6834 32.7337C18.567 32.8409 18.4251 32.9209 18.2678 32.9634C18.1976 32.983 18.1258 32.9947 18.0539 32.9986C17.8715 33.0088 17.6858 32.9692 17.5186 32.8775C17.4655 32.8485 17.4147 32.8144 17.3669 32.7753Z" fill="black"/>
<path fill-rule="evenodd" clip-rule="evenodd" d="M21 15H15L15 21H21V15ZM15 13C13.8954 13 13 13.8954 13 15V21C13 22.1046 13.8954 23 15 23H21C22.1046 23 23 22.1046 23 21V15C23 13.8954 22.1046 13 21 13H15Z" fill="#666666"/>
</svg>
