<svg width="36" height="36" viewBox="0 0 36 36" fill="none" xmlns="http://www.w3.org/2000/svg">
<path fill-rule="evenodd" clip-rule="evenodd" d="M4 9V6H32V9H4ZM4 4C3.47275 4 2.95567 4.18011 2.56789 4.56789C2.18011 4.95567 2 5.47275 2 6V9C2 9.52725 2.18011 10.0443 2.56789 10.4321C2.95567 10.8199 3.47275 11 4 11H32C32.5272 11 33.0443 10.8199 33.4321 10.4321C33.8199 10.0443 34 9.52725 34 9V6C34 5.47275 33.8199 4.95567 33.4321 4.56789C33.0443 4.18011 32.5272 4 32 4H4ZM4 30V27H32V30H4ZM4 25C3.47275 25 2.95567 25.1801 2.56789 25.5679C2.18011 25.9557 2 26.4728 2 27V30C2 30.5272 2.18011 31.0443 2.56789 31.4321C2.95567 31.8199 3.47275 32 4 32H32C32.5272 32 33.0443 31.8199 33.4321 31.4321C33.8199 31.0443 34 30.5272 34 30V27C34 26.4728 33.8199 25.9557 33.4321 25.5679C33.0443 25.1801 32.5272 25 32 25H4Z" fill="#666666"/>
<path fill-rule="evenodd" clip-rule="evenodd" d="M21.7 15.7C21.3 16.1 20.7 16.1 20.3 15.7L20 15.4V17H21V19H20V20.6L20.3 20.3C20.7 19.9 21.3 19.9 21.7 20.3C22.1 20.7 22.1 21.3 21.7 21.7L19.7 23.7C19.65 23.7 19.625 23.725 19.6 23.75C19.575 23.775 19.55 23.8 19.5 23.8H19.4C19.4 23.9 19.3 23.9 19.3 23.9H19.1H19C18.95 23.9 18.9 23.875 18.85 23.85C18.8 23.825 18.75 23.8 18.7 23.8H18.6C18.5 23.8 18.4 23.7 18.3 23.6L16.3 21.6C15.9 21.2 15.9 20.6 16.3 20.2C16.7 19.8 17.3 19.8 17.7 20.2L18 20.5V15.3L17.7 15.6C17.3 16 16.7 16 16.3 15.6C15.9 15.2 15.9 14.6 16.3 14.2L18.3 12.2C18.35 12.15 18.4 12.125 18.45 12.1C18.5 12.075 18.55 12.05 18.6 12H18.8H19H19.1C19.2 12.1 19.2 12.1 19.3 12.1H19.4C19.5 12.1 19.6 12.2 19.7 12.3L21.7 14.3C22.1 14.7 22.1 15.3 21.7 15.7ZM7 17H9V19H7V17ZM13 17H11V19H13V17ZM3 17H5V19H3V17ZM25 17H23V19H25V17ZM27 17H29V19H27V17ZM17 17H15V19H17V17ZM31 17H33V19H31V17Z" fill="black"/>
</svg>
