<svg width="36" height="36" viewBox="0 0 36 36" fill="none" xmlns="http://www.w3.org/2000/svg">
<path fill-rule="evenodd" clip-rule="evenodd" d="M10.6328 12.1223C10.6328 11.8782 10.8379 11.6285 11.1538 11.6285C11.4698 11.6285 11.6749 11.8782 11.6749 12.1223C11.6749 12.3664 11.4698 12.6161 11.1538 12.6161C10.8379 12.6161 10.6328 12.3664 10.6328 12.1223ZM11.1538 9.38477C9.69504 9.38477 8.46154 10.5817 8.46154 12.1223C8.46154 13.6629 9.69504 14.8598 11.1538 14.8598C12.6126 14.8598 13.8462 13.6629 13.8462 12.1223C13.8462 10.5817 12.6126 9.38477 11.1538 9.38477ZM20.8451 10.8117C20.4285 10.3735 19.7562 10.3691 19.3346 10.8018L4.48025 26.0471C4.05369 26.4849 4.04389 27.205 4.45837 27.6556C4.87285 28.1061 5.55465 28.1165 5.98121 27.6787L20.0758 13.2133L28.1631 21.7213C28.5845 22.1646 29.2663 22.1631 29.6861 21.718C30.1058 21.2729 30.1044 20.5527 29.683 20.1094L20.8451 10.8117Z" fill="#666666"/>
<path fill-rule="evenodd" clip-rule="evenodd" d="M4 6H28V9V11V26H9H7H4V6ZM7 28H4C2.89543 28 2 27.1046 2 26V6C2 4.89543 2.89543 4 4 4H28C29.1046 4 30 4.89543 30 6V9H31C32.6569 9 34 10.3431 34 12V29C34 30.6569 32.6569 32 31 32H10C8.34315 32 7 30.6569 7 29V28ZM9 28V29C9 29.5523 9.44771 30 10 30H31C31.5523 30 32 29.5523 32 29V12C32 11.4477 31.5523 11 31 11H30V26C30 27.1046 29.1046 28 28 28H9Z" fill="black"/>
</svg>
