<svg width="36" height="36" viewBox="0 0 36 36" fill="none" xmlns="http://www.w3.org/2000/svg">
<path fill-rule="evenodd" clip-rule="evenodd" d="M8 6H11V10.5607L9.5 11.5811L8 10.5607V6ZM12.1249 12.2143L9.5 14L6.87507 12.2143C6.32765 11.8419 6 11.2228 6 10.5607V6C6 4.89543 6.89543 4 8 4H11C12.1046 4 13 4.89543 13 6V10.5607C13 11.2228 12.6723 11.8419 12.1249 12.2143ZM25 25.4393V30H28V25.4393L26.5 24.4189L25 25.4393ZM29.1249 23.7857L26.5 22L23.8751 23.7857C23.3277 24.1581 23 24.7772 23 25.4393V30C23 31.1046 23.8954 32 25 32H28C29.1046 32 30 31.1046 30 30V25.4393C30 24.7772 29.6723 24.1581 29.1249 23.7857Z" fill="#666666"/>
<path fill-rule="evenodd" clip-rule="evenodd" d="M10.5 16H17V20H10.5V16ZM19 20V16H25.5V20H19ZM27.5 20V16H32V20H27.5ZM26.5 14H18H9.5H4C2.89543 14 2 14.8954 2 16V20C2 21.1046 2.89543 22 4 22H9.5H18H26.5H32C33.1046 22 34 21.1046 34 20V16C34 14.8954 33.1046 14 32 14H26.5ZM8.5 16V20H4V16H8.5Z" fill="black"/>
</svg>
