<svg width="36" height="36" viewBox="0 0 36 36" fill="none" xmlns="http://www.w3.org/2000/svg">
<path fill-rule="evenodd" clip-rule="evenodd" d="M4 6H32V30H4V6ZM2 6C2 4.89543 2.89543 4 4 4H32C33.1046 4 34 4.89543 34 6V30C34 31.1046 33.1046 32 32 32H4C2.89543 32 2 31.1046 2 30V6ZM23.7724 8L21.379 17H19.8667L22.2602 8H23.7724ZM12.6954 8.35237V15.8695H14.4905V12.8487H17.417V15.8695H19.2085V8.35237H17.417V11.3695H14.4905V8.35237H12.6954ZM6 11.3695V12.8964L11.2511 15.1281V13.4617L7.83862 12.1683V12.0977L11.2511 10.8079V9.13785L6 11.3695ZM24.7489 15.8328L30 13.6011V12.0742L24.7489 9.84258V11.5126L28.165 12.8038V12.8716L24.7489 14.1664V15.8328Z" fill="black"/>
<path fill-rule="evenodd" clip-rule="evenodd" d="M7 22C6.44772 22 6 22.4477 6 23C6 23.5523 6.44772 24 7 24H29C29.5523 24 30 23.5523 30 23C30 22.4477 29.5523 22 29 22H7ZM7 26C6.44772 26 6 26.4477 6 27C6 27.5523 6.44772 28 7 28H29C29.5523 28 30 27.5523 30 27C30 26.4477 29.5523 26 29 26H7Z" fill="#666666"/>
</svg>
