<svg width="36" height="36" viewBox="0 0 36 36" fill="none" xmlns="http://www.w3.org/2000/svg">
<path fill-rule="evenodd" clip-rule="evenodd" d="M9 33L9 3H7V33H9ZM29 33L29 3H27L27 33H29Z" fill="black"/>
<path fill-rule="evenodd" clip-rule="evenodd" d="M24 3C23.4477 3 23 3.44772 23 4C23 4.55228 23.4477 5 24 5H32C32.5523 5 33 4.55228 33 4C33 3.44772 32.5523 3 32 3H24ZM7 18C7 17.4477 7.44772 17 8 17H28C28.5523 17 29 17.4477 29 18C29 18.5523 28.5523 19 28 19H8C7.44772 19 7 18.5523 7 18ZM3 32C3 31.4477 3.44772 31 4 31H12C12.5523 31 13 31.4477 13 32C13 32.5523 12.5523 33 12 33H4C3.44772 33 3 32.5523 3 32ZM3 4C3 3.44772 3.44772 3 4 3H12C12.5523 3 13 3.44772 13 4C13 4.55228 12.5523 5 12 5H4C3.44772 5 3 4.55228 3 4ZM24 31C23.4477 31 23 31.4477 23 32C23 32.5523 23.4477 33 24 33H32C32.5523 33 33 32.5523 33 32C33 31.4477 32.5523 31 32 31H24Z" fill="#666666"/>
</svg>
