<svg width="36" height="36" viewBox="0 0 36 36" fill="none" xmlns="http://www.w3.org/2000/svg">
<path fill-rule="evenodd" clip-rule="evenodd" d="M17 15C17 14.4477 17.4477 14 18 14C18.5523 14 19 14.4477 19 15V17C19 17.5523 18.5523 18 18 18C17.4477 18 17 17.5523 17 17V15ZM25.0643 20.7471C24.8481 21.0316 24.6165 21.3031 24.3709 21.5603L22.9244 20.1791C23.1183 19.976 23.3011 19.7618 23.4718 19.5371L25.0643 20.7471ZM10.9058 21.8382C10.6498 21.5913 10.4072 21.3297 10.1794 21.0543L11.7206 19.7796C11.9004 19.997 12.0919 20.2036 12.294 20.3985L10.9058 21.8382ZM22.7332 22.9284C22.4364 23.1243 22.1281 23.3039 21.8096 23.466C21.4911 23.6281 21.1645 23.7717 20.8314 23.8964L20.1301 22.0234C20.3931 21.925 20.6509 21.8116 20.9023 21.6836C21.1538 21.5556 21.3971 21.4138 21.6315 21.2592L22.7332 22.9284ZM13.5435 23.6366C13.2186 23.4877 12.9032 23.3211 12.5985 23.1375L13.6304 21.4243C13.871 21.5692 14.12 21.7008 14.3765 21.8183C14.633 21.9358 14.8953 22.0384 15.1621 22.1259L14.5386 24.0263C14.2007 23.9154 13.8684 23.7854 13.5435 23.6366ZM18.7616 24.4155C18.4091 24.4628 18.0534 24.4903 17.6961 24.4977C17.3388 24.505 16.9823 24.4922 16.6281 24.4596L16.8117 22.468C17.0913 22.4938 17.3728 22.5039 17.6548 22.4981C17.9369 22.4923 18.2177 22.4705 18.496 22.4333L18.7616 24.4155ZM10.5 17H11.4375V15H10.5V17ZM13.3125 17H15.1875V15H13.3125V17ZM20.8125 17H22.6875V15H20.8125V17ZM24.5625 17H25.5V15H24.5625V17Z" fill="#666666"/>
<path fill-rule="evenodd" clip-rule="evenodd" d="M17.5 2C16.9477 2 16.5 2.44772 16.5 3V4.12602C14.7748 4.57006 13.5 6.13616 13.5 8C13.5 9.46135 14.2837 10.7397 15.4536 11.4376L11.2647 18.3556C11.0813 18.1381 10.8068 18 10.5 18C9.94772 18 9.5 18.4477 9.5 19V24C9.5 24.5523 9.94772 25 10.5 25C11.0523 25 11.5 24.5523 11.5 24V21.8975L17.4931 12L17.5 12C17.6906 12 17.878 11.9867 18.0615 11.9609L24.5 22.3756V24C24.5 24.5523 24.9477 25 25.5 25C26.0523 25 26.5 24.5523 26.5 24V19C26.5 18.4477 26.0523 18 25.5 18C25.081 18 24.7222 18.2577 24.5734 18.6232L19.9573 11.1564C20.8962 10.4244 21.5 9.28272 21.5 8C21.5 6.13616 20.2252 4.57006 18.5 4.12602V3C18.5 2.44772 18.0523 2 17.5 2ZM17.5 10C18.6046 10 19.5 9.10457 19.5 8C19.5 6.89543 18.6046 6 17.5 6C16.3954 6 15.5 6.89543 15.5 8C15.5 9.10457 16.3954 10 17.5 10ZM18 32C19.1046 32 20 31.1046 20 30C20 28.8954 19.1046 28 18 28C16.8954 28 16 28.8954 16 30C16 31.1046 16.8954 32 18 32ZM18 34C19.8666 34 21.4346 32.7215 21.8759 30.9924C21.9166 30.9974 21.958 31 22 31H31C31.5523 31 32 30.5523 32 30C32 29.4477 31.5523 29 31 29H22C21.958 29 21.9166 29.0026 21.8759 29.0076C21.4346 27.2785 19.8666 26 18 26C16.1334 26 14.5654 27.2785 14.1241 29.0076C14.0834 29.0026 14.042 29 14 29H5C4.44772 29 4 29.4477 4 30C4 30.5523 4.44771 31 5 31H14C14.042 31 14.0834 30.9974 14.1241 30.9924C14.5654 32.7215 16.1334 34 18 34Z" fill="black"/>
</svg>
