<svg width="36" height="36" viewBox="0 0 36 36" fill="none" xmlns="http://www.w3.org/2000/svg">
<path fill-rule="evenodd" clip-rule="evenodd" d="M32 6H4V30H32V6ZM4 4C2.89543 4 2 4.89543 2 6V30C2 31.1046 2.89543 32 4 32H32C33.1046 32 34 31.1046 34 30V6C34 4.89543 33.1046 4 32 4H4Z" fill="black"/>
<path fill-rule="evenodd" clip-rule="evenodd" d="M17.9764 12.9816C19.2482 12.9767 20.4886 13.3722 21.5187 14.1111C22.5488 14.8501 23.3152 15.8942 23.7075 17.0928C24.0997 18.2914 24.0974 19.5824 23.701 20.7796C23.4097 21.6592 22.9166 22.4548 22.266 23.1066C21.8758 23.4975 21.766 24.1182 22.0903 24.5653C22.4106 25.0068 23.0321 25.112 23.4341 24.7433C24.4277 23.8322 25.1758 22.6821 25.6013 21.3974C26.1299 19.8011 26.133 18.0797 25.61 16.4816C25.087 14.8835 24.065 13.4913 22.6916 12.5061C21.3181 11.5208 19.6642 10.9935 17.9686 11.0001C16.273 11.0067 14.6233 11.5469 13.2577 12.5428C11.8921 13.5387 10.8812 14.9387 10.3709 16.5409C9.86057 18.143 9.87727 19.8644 10.4185 21.4565C10.8542 22.7378 11.6114 23.8821 12.6122 24.7855C13.0171 25.151 13.6377 25.0409 13.9545 24.5969C14.2753 24.1473 14.1606 23.5275 13.7674 23.1398C13.1115 22.493 12.6122 21.7013 12.3139 20.8239C11.908 19.6298 11.8954 18.3388 12.2782 17.1372C12.6609 15.9356 13.4191 14.8856 14.4433 14.1387C15.4675 13.3917 16.7047 12.9866 17.9764 12.9816ZM17.9921 16.9447C18.4161 16.9431 18.8295 17.0749 19.1729 17.3212C19.5163 17.5675 19.7717 17.9156 19.9025 18.3151C20.0332 18.7146 20.0325 19.145 19.9003 19.5441C19.8739 19.6238 19.8425 19.7015 19.8064 19.7768C19.5676 20.2748 19.4316 20.8999 19.7559 21.347C20.0762 21.7886 20.7052 21.8958 21.0586 21.4803C21.387 21.0942 21.6399 20.6473 21.8006 20.1619C22.065 19.3637 22.0665 18.503 21.805 17.7039C21.5435 16.9049 21.0325 16.2088 20.3458 15.7162C19.6591 15.2236 18.8321 14.9599 17.9843 14.9632C17.1365 14.9665 16.3116 15.2366 15.6288 15.7345C14.946 16.2325 14.4406 16.9325 14.1854 17.7336C13.9303 18.5346 13.9386 19.3953 14.2093 20.1914C14.3739 20.6755 14.6303 21.1206 14.9618 21.5041C15.3185 21.9168 15.9465 21.8046 16.2633 21.3606C16.5841 20.911 16.4432 20.287 16.2004 19.7909C16.1637 19.716 16.1317 19.6385 16.1046 19.5588C15.9693 19.1608 15.9651 18.7305 16.0927 18.3299C16.2203 17.9294 16.473 17.5794 16.8144 17.3304C17.1558 17.0814 17.5682 16.9464 17.9921 16.9447Z" fill="#666666"/>
</svg>
