<svg width="36" height="36" viewBox="0 0 36 36" fill="none" xmlns="http://www.w3.org/2000/svg">
<path d="M33 11.4978C33 15.0862 30.0901 17.9956 26.5 17.9956C22.9099 17.9956 20 15.0862 20 11.4978C20 7.90944 22.9099 5 26.5 5C30.0901 5 33 7.90944 33 11.4978Z" stroke="black" stroke-width="2"/>
<path fill-rule="evenodd" clip-rule="evenodd" d="M8.05335 16.8035L8.0803 14.9012C8.10337 13.2722 9.99281 12.3477 11.2938 13.3288L13.6501 15.1058C14.4909 14.1401 15 12.8783 15 11.4978C15 8.462 12.5381 6 9.5 6C6.46188 6 4 8.462 4 11.4978C4 14.0333 5.71731 16.1685 8.05335 16.8035ZM8.02435 18.8505C4.58887 18.1653 2 15.1338 2 11.4978C2 7.35688 5.35786 4 9.5 4C13.6421 4 17 7.35688 17 11.4978C17 13.3305 16.3422 15.0097 15.2498 16.3122L23.3619 22.4299C24.7903 23.5071 24.1363 25.7755 22.3406 25.9727L16.5671 26.6068C16.0987 26.6582 15.662 26.8719 15.3341 27.2101L11.2914 31.3795C10.034 32.6763 7.8409 31.801 7.86623 30.0124L8.02435 18.8505ZM10.017 18.9781L9.86064 30.0181L13.9033 25.8487C14.5592 25.1723 15.4327 24.7449 16.3693 24.642L22.1429 24.008L13.7485 17.6774C12.6739 18.4173 11.3967 18.8842 10.017 18.9781ZM12.0294 16.381L10.0747 14.9068L10.0455 16.9689C10.7551 16.8991 11.4251 16.6944 12.0294 16.381Z" fill="#666666"/>
</svg>
