<svg width="32" height="32" viewBox="0 0 32 32" fill="none" xmlns="http://www.w3.org/2000/svg">
<path fill-rule="evenodd" clip-rule="evenodd" d="M16 30C23.732 30 30 23.732 30 16C30 8.26801 23.732 2 16 2C8.26801 2 2 8.26801 2 16C2 23.732 8.26801 30 16 30ZM16 32C24.8366 32 32 24.8366 32 16C32 7.16344 24.8366 0 16 0C7.16344 0 0 7.16344 0 16C0 24.8366 7.16344 32 16 32Z" fill="black"/>
<path fill-rule="evenodd" clip-rule="evenodd" d="M19 11C19 12.6569 17.6569 14 16 14C14.3431 14 13 12.6569 13 11C13 9.34315 14.3431 8 16 8C17.6569 8 19 9.34315 19 11ZM19.1435 14.8884C20.276 13.9718 21 12.5704 21 11C21 8.23858 18.7614 6 16 6C13.2386 6 11 8.23858 11 11C11 12.5704 11.724 13.9718 12.8565 14.8884C11.1425 15.9447 10 17.8389 10 20C10 23.3137 12.6863 26 16 26C19.3137 26 22 23.3137 22 20C22 17.8389 20.8575 15.9447 19.1435 14.8884ZM16 16C13.7909 16 12 17.7909 12 20C12 22.2091 13.7909 24 16 24C18.2091 24 20 22.2091 20 20C20 17.7909 18.2091 16 16 16Z" fill="#666666"/>
</svg>
