<svg width="36" height="36" viewBox="0 0 36 36" fill="none" xmlns="http://www.w3.org/2000/svg">
<path fill-rule="evenodd" clip-rule="evenodd" d="M28 25H8L8 31H28V25ZM8 23C6.89543 23 6 23.8954 6 25V31C6 32.1046 6.89543 33 8 33H28C29.1046 33 30 32.1046 30 31V25C30 23.8954 29.1046 23 28 23H8Z" fill="#666666"/>
<path fill-rule="evenodd" clip-rule="evenodd" d="M15.1165 16L18 19.0758L20.8835 16H31V5H5V16H15.1165ZM21.75 18H31C32.1046 18 33 17.1046 33 16V5C33 3.89543 32.1046 3 31 3H5C3.89543 3 3 3.89543 3 5V16C3 17.1046 3.89543 18 5 18H14.25L17.2705 21.2218C17.6655 21.6432 18.3345 21.6432 18.7295 21.2218L21.75 18Z" fill="black"/>
</svg>
