<svg width="36" height="36" viewBox="0 0 36 36" fill="none" xmlns="http://www.w3.org/2000/svg">
<path fill-rule="evenodd" clip-rule="evenodd" d="M3 4H5V8L7 8V4H9V8V10V14H7V10H5V14H3V10V8V4ZM14 4H16V6H14V14H12V6H10V4H12H14ZM22 10.6667L20 4H18V14H20V10.6667L21 14H23L24 10.6667V14H26V4H24L22 10.6667ZM28 4H30V12H33V14H30H28V12V4Z" fill="#666666"/>
<path fill-rule="evenodd" clip-rule="evenodd" d="M19.7709 15C19.3192 15 18.9268 15.3108 18.8234 15.7505L15.2814 30.8036C15.1377 31.4147 15.6013 32 16.229 32C16.6807 32 17.0731 31.6892 17.1765 31.2495L20.7184 16.1964C20.8622 15.5853 20.3986 15 19.7709 15ZM9.70348 17.2927C10.0941 17.6831 10.0943 18.3163 9.70388 18.7069L4.41401 23.9998L9.70711 29.2929C10.0976 29.6834 10.0976 30.3166 9.70711 30.7071C9.31658 31.0976 8.68342 31.0976 8.29289 30.7071L2.2934 24.7076L2.2931 24.7073L2.29289 24.7071C2.07941 24.4936 1.98262 24.2076 2.00255 23.9284C2.00383 23.9105 2.00558 23.8927 2.00781 23.8749C2.03448 23.6622 2.12944 23.4564 2.29269 23.2931L2.29289 23.2929L8.28927 17.2931C8.67968 16.9025 9.31284 16.9023 9.70348 17.2927ZM26.2961 18.7069L31.586 23.9998L26.2929 29.2929C25.9023 29.6834 25.9023 30.3166 26.2929 30.7071C26.6834 31.0976 27.3166 31.0976 27.7071 30.7071L33.7063 24.708L33.7069 24.7073L33.7071 24.7071C34.0976 24.3167 34.0976 23.6837 33.7073 23.2931L33.7073 23.2931L33.7071 23.2929L27.7107 17.2931C27.3203 16.9025 26.6871 16.9023 26.2965 17.2927C25.9059 17.6831 25.9057 18.3163 26.2961 18.7069Z" fill="black"/>
</svg>
