<svg width="36" height="36" viewBox="0 0 36 36" fill="none" xmlns="http://www.w3.org/2000/svg">
<path fill-rule="evenodd" clip-rule="evenodd" d="M32 16.1353C32 15.583 31.5523 15.1353 31 15.1353C30.4477 15.1353 30 15.583 30 16.1353V21.9998C30 22.8304 29.676 23.6234 29.105 24.2052C28.5764 24.7438 27.8637 25 27 25H5C4.44772 25 4 25.4477 4 26C4 26.5523 4.44772 27 5 27H27C28.2757 27 29.5483 26.6088 30.5324 25.6061C31.4742 24.6465 32 23.3489 32 21.9998V16.1353ZM4 19.8647C4 20.417 4.44772 20.8647 5 20.8647C5.55228 20.8647 6 20.417 6 19.8647V14.0002C6 13.1696 6.32403 12.3766 6.89499 11.7948C7.42365 11.2562 8.13633 11 9 11H31C31.5523 11 32 10.5523 32 10C32 9.44772 31.5523 9 31 9H9C7.72434 9 6.45166 9.39123 5.46759 10.3939C4.52581 11.3535 4 12.6511 4 14.0002V19.8647Z" fill="black"/>
<path fill-rule="evenodd" clip-rule="evenodd" d="M4.29289 25.2929L9.29289 20.2929C9.68342 19.9024 10.3166 19.9024 10.7071 20.2929C11.0976 20.6834 11.0976 21.3166 10.7071 21.7071L6.41422 26L10.7071 30.2929C11.0976 30.6834 11.0976 31.3166 10.7071 31.7071C10.3166 32.0976 9.68342 32.0976 9.29289 31.7071L4.29289 26.7071C3.90237 26.3166 3.90237 25.6834 4.29289 25.2929ZM29.5858 10L25.2929 14.2929C24.9024 14.6834 24.9024 15.3166 25.2929 15.7071C25.6834 16.0976 26.3166 16.0976 26.7071 15.7071L31.7071 10.7071C32.0976 10.3166 32.0976 9.68342 31.7071 9.29289L26.7071 4.29289C26.3166 3.90237 25.6834 3.90237 25.2929 4.29289C24.9024 4.68342 24.9024 5.31658 25.2929 5.70711L29.5858 10Z" fill="#666666"/>
</svg>
