<svg width="36" height="36" viewBox="0 0 36 36" fill="none" xmlns="http://www.w3.org/2000/svg">
<path fill-rule="evenodd" clip-rule="evenodd" d="M6 6C6 4.34315 7.34315 3 9 3H30C31.6569 3 33 4.34315 33 6V27C33 28.6569 31.6569 30 30 30H27V28H30C30.5523 28 31 27.5523 31 27V6C31 5.44771 30.5523 5 30 5H9C8.44772 5 8 5.44772 8 6V9H6V6Z" fill="#666666"/>
<path fill-rule="evenodd" clip-rule="evenodd" d="M5 9H27V31H5L5 9ZM3 9C3 7.89543 3.89543 7 5 7H27C28.1046 7 29 7.89543 29 9V31C29 32.1046 28.1046 33 27 33H5C3.89543 33 3 32.1046 3 31V9ZM24.7475 14.6643C25.1144 14.2515 25.0771 13.6194 24.6643 13.2525C24.2515 12.8857 23.6194 12.9229 23.2525 13.3357L13.3349 24.4951L8.74711 19.3387C8.38 18.9261 7.74791 18.8892 7.3353 19.2563C6.92269 19.6234 6.8858 20.2555 7.25291 20.6681L12.5882 26.6647C12.7781 26.8781 13.05 27.0001 13.3356 27C13.6212 26.9999 13.8931 26.8778 14.0828 26.6643L24.7475 14.6643Z" fill="black"/>
</svg>
