<svg width="36" height="36" viewBox="0 0 36 36" fill="none" xmlns="http://www.w3.org/2000/svg">
<path fill-rule="evenodd" clip-rule="evenodd" d="M31 5H5L5 31H31V5ZM5 3C3.89543 3 3 3.89543 3 5V31C3 32.1046 3.89543 33 5 33H31C32.1046 33 33 32.1046 33 31V5C33 3.89543 32.1046 3 31 3H5Z" fill="black"/>
<path fill-rule="evenodd" clip-rule="evenodd" d="M6.67132 21.1958C7.04208 20.8246 7.6432 20.8246 8.01396 21.1958L13.5299 26.7175C13.891 27.0789 14.4843 27.0711 14.8551 26.7L28.0386 13.5027C28.3997 13.1413 28.9851 13.1413 29.3462 13.5027V13.5027C29.7073 13.8642 29.7073 14.4503 29.3462 14.8117L16.1627 28.0089C15.0504 29.1224 13.2706 29.1459 12.1873 28.0615L6.67132 22.5398C6.30056 22.1687 6.30056 21.5669 6.67132 21.1958V21.1958Z" fill="#666666"/>
</svg>
