<svg xmlns="http://www.w3.org/2000/svg" width="36" height="36" viewBox="0 0 36 36" fill="none">
    <path fill-rule="evenodd" clip-rule="evenodd" d="M14 2C12.3431 2 11 3.34315 11 5V6H10C8.34315 6 7 7.34315 7 9V11C7 11.5523 7.44772 12 8 12C8.55228 12 9 11.5523 9 11V9C9 8.44772 9.44772 8 10 8H12H25H27C27.5523 8 28 8.44772 28 9V11C28 11.5523 28.4477 12 29 12C29.5523 12 30 11.5523 30 11V9C30 7.34315 28.6569 6 27 6H26V5C26 3.34315 24.6569 2 23 2H14ZM24 6V5C24 4.44772 23.5523 4 23 4H14C13.4477 4 13 4.44772 13 5V6H24Z" fill="#666666"/>
    <path fill-rule="evenodd" clip-rule="evenodd" d="M6 12H30V32H6V12ZM4 12C4 10.8954 4.89543 10 6 10H30C31.1046 10 32 10.8954 32 12V32C32 33.1046 31.1046 34 30 34H6C4.89543 34 4 33.1046 4 32V12ZM15 16H10V28H15V16ZM10 14C8.89543 14 8 14.8954 8 16V28C8 29.1046 8.89543 30 10 30H15C16.1046 30 17 29.1046 17 28V16C17 14.8954 16.1046 14 15 14H10ZM20 17C19.4477 17 19 17.4477 19 18C19 18.5523 19.4477 19 20 19H27C27.5523 19 28 18.5523 28 18C28 17.4477 27.5523 17 27 17H20ZM19 22C19 21.4477 19.4477 21 20 21H27C27.5523 21 28 21.4477 28 22C28 22.5523 27.5523 23 27 23H20C19.4477 23 19 22.5523 19 22ZM20 25C19.4477 25 19 25.4477 19 26C19 26.5523 19.4477 27 20 27H27C27.5523 27 28 26.5523 28 26C28 25.4477 27.5523 25 27 25H20Z" fill="black"/>
</svg>