<svg width="36" height="36" viewBox="0 0 36 36" fill="none" xmlns="http://www.w3.org/2000/svg">
<path fill-rule="evenodd" clip-rule="evenodd" d="M25 11H11C7.13401 11 4 14.134 4 18C4 21.866 7.13401 25 11 25H25C28.866 25 32 21.866 32 18C32 14.134 28.866 11 25 11ZM11 9C6.02944 9 2 13.0294 2 18C2 22.9706 6.02944 27 11 27H25C29.9706 27 34 22.9706 34 18C34 13.0294 29.9706 9 25 9H11Z" fill="black"/>
<path fill-rule="evenodd" clip-rule="evenodd" d="M25 21C26.6569 21 28 19.6569 28 18C28 16.3431 26.6569 15 25 15C23.3431 15 22 16.3431 22 18C22 19.6569 23.3431 21 25 21ZM25 23C27.7614 23 30 20.7614 30 18C30 15.2386 27.7614 13 25 13C22.2386 13 20 15.2386 20 18C20 20.7614 22.2386 23 25 23Z" fill="#666666"/>
</svg>
