<svg width="36" height="36" viewBox="0 0 36 36" fill="none" xmlns="http://www.w3.org/2000/svg">
<path fill-rule="evenodd" clip-rule="evenodd" d="M6 3C4.34315 3 3 4.34315 3 6V15C3 15.5523 3.44772 16 4 16C4.55228 16 5 15.5523 5 15V6C5 5.44772 5.44772 5 6 5H15C15.5523 5 16 4.55228 16 4C16 3.44772 15.5523 3 15 3H6ZM6 33C4.34315 33 3 31.6569 3 30V21C3 20.4477 3.44772 20 4 20C4.55228 20 5 20.4477 5 21V30C5 30.5523 5.44772 31 6 31H15C15.5523 31 16 31.4477 16 32C16 32.5523 15.5523 33 15 33H6ZM33 6C33 4.34315 31.6569 3 30 3H21C20.4477 3 20 3.44772 20 4C20 4.55228 20.4477 5 21 5H30C30.5523 5 31 5.44772 31 6V15C31 15.5523 31.4477 16 32 16C32.5523 16 33 15.5523 33 15V6ZM30 33C31.6569 33 33 31.6569 33 30V21C33 20.4477 32.5523 20 32 20C31.4477 20 31 20.4477 31 21V30C31 30.5523 30.5523 31 30 31H21C20.4477 31 20 31.4477 20 32C20 32.5523 20.4477 33 21 33H30Z" fill="black"/>
<path fill-rule="evenodd" clip-rule="evenodd" d="M8 9C8 8.44772 8.44772 8 9 8H18H27C27.5523 8 28 8.44772 28 9V11C28 11.5523 27.5523 12 27 12C26.4477 12 26 11.5523 26 11V10H19L19 26H22C22.5523 26 23 26.4477 23 27C23 27.5523 22.5523 28 22 28H18H14C13.4477 28 13 27.5523 13 27C13 26.4477 13.4477 26 14 26H17L17 10H10V11C10 11.5523 9.55228 12 9 12C8.44772 12 8 11.5523 8 11V9Z" fill="#666666"/>
</svg>
