<svg width="36" height="36" viewBox="0 0 36 36" fill="none" xmlns="http://www.w3.org/2000/svg">
<path fill-rule="evenodd" clip-rule="evenodd" d="M32 6H4V30H32V6ZM4 4C2.89543 4 2 4.89543 2 6V30C2 31.1046 2.89543 32 4 32H32C33.1046 32 34 31.1046 34 30V6C34 4.89543 33.1046 4 32 4H4ZM26.7074 26.9262C26.3168 27.3167 26.3168 27.9499 26.7074 28.3404C27.0979 28.7309 27.731 28.7309 28.1216 28.3404L30.3403 26.1217C30.7308 25.7312 30.7308 25.098 30.3403 24.7075C29.9497 24.317 29.3166 24.317 28.9261 24.7075L26.7074 26.9262ZM22.7066 28.3409C22.3161 27.9504 22.3161 27.3172 22.7066 26.9267L28.9266 20.7067C29.3171 20.3162 29.9503 20.3162 30.3408 20.7067C30.7314 21.0972 30.7314 21.7304 30.3408 22.1209L24.1208 28.3409C23.7303 28.7314 23.0971 28.7314 22.7066 28.3409Z" fill="black"/>
<path fill-rule="evenodd" clip-rule="evenodd" d="M18.7071 26.9257C18.3166 27.3162 18.3166 27.9494 18.7071 28.3399C19.0976 28.7304 19.7308 28.7304 20.1213 28.3399L30.3399 18.1213C30.7304 17.7308 30.7304 17.0977 30.3399 16.7071C29.9494 16.3166 29.3162 16.3166 28.9257 16.7071L18.7071 26.9257Z" fill="#666666"/>
</svg>
