<svg width="36" height="36" viewBox="0 0 36 36" fill="none" xmlns="http://www.w3.org/2000/svg">
<path fill-rule="evenodd" clip-rule="evenodd" d="M20.5 11.5C19.9477 11.5 19.5 11.9477 19.5 12.5C19.5 13.0523 19.9477 13.5 20.5 13.5C21.0523 13.5 21.5 13.0523 21.5 12.5C21.5 11.9477 21.0523 11.5 20.5 11.5ZM19.5 15.5C19.5 16.0523 19.9477 16.5 20.5 16.5C21.0523 16.5 21.5 16.0523 21.5 15.5C21.5 14.9477 21.0523 14.5 20.5 14.5C19.9477 14.5 19.5 14.9477 19.5 15.5ZM19.5 18.5C19.5 19.0523 19.9477 19.5 20.5 19.5C21.0523 19.5 21.5 19.0523 21.5 18.5C21.5 17.9477 21.0523 17.5 20.5 17.5C19.9477 17.5 19.5 17.9477 19.5 18.5ZM19.5 21.5C19.5 22.0523 19.9477 22.5 20.5 22.5C21.0523 22.5 21.5 22.0523 21.5 21.5C21.5 20.9477 21.0523 20.5 20.5 20.5C19.9477 20.5 19.5 20.9477 19.5 21.5ZM22.5 12.5C22.5 11.9477 22.9477 11.5 23.5 11.5C24.0523 11.5 24.5 11.9477 24.5 12.5C24.5 13.0523 24.0523 13.5 23.5 13.5C22.9477 13.5 22.5 13.0523 22.5 12.5ZM26 11.5C25.7239 11.5 25.5 11.7239 25.5 12V13C25.5 13.2761 25.7239 13.5 26 13.5C26.2761 13.5 26.5 13.2761 26.5 13V12C26.5 11.7239 26.2761 11.5 26 11.5ZM21.5 24.5C21.5 25.0523 21.0523 25.5 20.5 25.5C19.9477 25.5 19.5 25.0523 19.5 24.5C19.5 23.9477 19.9477 23.5 20.5 23.5C21.0523 23.5 21.5 23.9477 21.5 24.5ZM20 26.5C19.7239 26.5 19.5 26.7239 19.5 27C19.5 27.2761 19.7239 27.5 20 27.5H21C21.2761 27.5 21.5 27.2761 21.5 27C21.5 26.7239 21.2761 26.5 21 26.5H20Z" fill="#666666"/>
<path fill-rule="evenodd" clip-rule="evenodd" d="M5 5H31V31H5L5 5ZM3 5C3 3.89543 3.89543 3 5 3H31C32.1046 3 33 3.89543 33 5V31C33 32.1046 32.1046 33 31 33H5C3.89543 33 3 32.1046 3 31V5ZM9.5 9.5C9.5 8.94772 9.94772 8.5 10.5 8.5H17.5H24.5C25.0523 8.5 25.5 8.94772 25.5 9.5C25.5 10.0523 25.0523 10.5 24.5 10.5H18.5L18.5 25.5C18.5 26.0523 18.0523 26.5 17.5 26.5C16.9477 26.5 16.5 26.0523 16.5 25.5L16.5 10.5H10.5C9.94772 10.5 9.5 10.0523 9.5 9.5Z" fill="black"/>
</svg>
