<svg width="36" height="36" viewBox="0 0 36 36" fill="none" xmlns="http://www.w3.org/2000/svg">
<path fill-rule="evenodd" clip-rule="evenodd" d="M4 3C3.44772 3 3 3.44772 3 4C3 4.55228 3.44772 5 4 5H17L17 32C17 32.5523 17.4477 33 18 33C18.5523 33 19 32.5523 19 32L19 5H32C32.5523 5 33 4.55228 33 4C33 3.44772 32.5523 3 32 3H18H4Z" fill="black"/>
<path fill-rule="evenodd" clip-rule="evenodd" d="M4 3C4.55228 3 5 3.44772 5 4L5 8C5 8.55228 4.55228 9 4 9C3.44772 9 3 8.55228 3 8V4C3 3.44772 3.44772 3 4 3ZM32 3C32.5523 3 33 3.44772 33 4V8C33 8.55228 32.5523 9 32 9C31.4477 9 31 8.55228 31 8V4C31 3.44772 31.4477 3 32 3ZM22 33C22.5523 33 23 32.5523 23 32C23 31.4477 22.5523 31 22 31H14C13.4477 31 13 31.4477 13 32C13 32.5523 13.4477 33 14 33H22Z" fill="#666666"/>
</svg>
