<svg width="36" height="36" viewBox="0 0 36 36" fill="none" xmlns="http://www.w3.org/2000/svg">
<path fill-rule="evenodd" clip-rule="evenodd" d="M32 14H4V22H32V14ZM4 12C2.89543 12 2 12.8954 2 14V22C2 23.1046 2.89543 24 4 24H32C33.1046 24 34 23.1046 34 22V14C34 12.8954 33.1046 12 32 12H4Z" fill="black"/>
<path fill-rule="evenodd" clip-rule="evenodd" d="M22 7C21.4477 7 21 7.44772 21 8C21 8.55228 21.4477 9 22 9H23V27H22C21.4477 27 21 27.4477 21 28C21 28.5523 21.4477 29 22 29H24H26C26.5523 29 27 28.5523 27 28C27 27.4477 26.5523 27 26 27H25V9H26C26.5523 9 27 8.55228 27 8C27 7.44772 26.5523 7 26 7H24H22ZM10 18C10 19.1046 9.10457 20 8 20C6.89543 20 6 19.1046 6 18C6 16.8954 6.89543 16 8 16C9.10457 16 10 16.8954 10 18ZM16 18C16 19.1046 15.1046 20 14 20C12.8954 20 12 19.1046 12 18C12 16.8954 12.8954 16 14 16C15.1046 16 16 16.8954 16 18Z" fill="#666666"/>
</svg>
