<svg width="36" height="36" viewBox="0 0 36 36" fill="none" xmlns="http://www.w3.org/2000/svg">
<path fill-rule="evenodd" clip-rule="evenodd" d="M3 5V8V10V13V15H5H7.5H8V14.9641C8.74339 14.8568 9.43751 14.5122 9.97487 13.9749C10.6313 13.3185 11 12.4283 11 11.5C11 10.5717 10.6313 9.6815 9.97487 9.02513L9.94949 9L9.97487 8.97487C10.6313 8.3185 11 7.42826 11 6.5C11 5.57174 10.6313 4.6815 9.97487 4.02513C9.43751 3.48776 8.74339 3.14317 8 3.03588V3H7.5H5H3V5ZM7.5 8C7.89782 8 8.27936 7.84196 8.56066 7.56066C8.84196 7.27936 9 6.89783 9 6.5C9 6.10218 8.84196 5.72064 8.56066 5.43934C8.27954 5.15822 7.89832 5.00021 7.50077 5L7.5 5H5V8H7.5ZM7.5 10H5V13H7.5C7.89782 13 8.27936 12.842 8.56066 12.5607C8.84196 12.2794 9 11.8978 9 11.5C9 11.1022 8.84196 10.7206 8.56066 10.4393C8.27936 10.158 7.89783 10 7.5 10ZM15.5 3H18H20H21.5V5H19.6667L18.3333 13H20.5V15H18H16H14.5V13H16.3333L17.6667 5H15.5V3ZM33 3H31V8H33V3ZM27 8C27 8.53043 27.2107 9.03914 27.5858 9.41421C27.9609 9.78929 28.4696 10 29 10C29.5304 10 30.0391 9.78929 30.4142 9.41421C30.7893 9.03914 31 8.53043 31 8H33C33 9.06087 32.5786 10.0783 31.8284 10.8284C31.0783 11.5786 30.0609 12 29 12C27.9391 12 26.9217 11.5786 26.1716 10.8284C25.4214 10.0783 25 9.06087 25 8V3H27V8ZM25 15V13H33V15H25Z" fill="#666666"/>
<path fill-rule="evenodd" clip-rule="evenodd" d="M5 19H31V31H5L5 19ZM3 19C3 17.8954 3.89543 17 5 17H31C32.1046 17 33 17.8954 33 19V31C33 32.1046 32.1046 33 31 33H5C3.89543 33 3 32.1046 3 31V19ZM8 20C7.44772 20 7 20.4477 7 21V23C7 23.5523 7.44772 24 8 24C8.55228 24 9 23.5523 9 23V22H11V28H10C9.44772 28 9 28.4477 9 29C9 29.5523 9.44772 30 10 30H12H14C14.5523 30 15 29.5523 15 29C15 28.4477 14.5523 28 14 28H13V22H15V23C15 23.5523 15.4477 24 16 24C16.5523 24 17 23.5523 17 23V21C17 20.4477 16.5523 20 16 20H12H8Z" fill="black"/>
</svg>
