
<svg viewBox="0 0 675 900" width="675" height="900" xmlns="http://www.w3.org/2000/svg" xmlns:xlink="http://www.w3.org/1999/xlink" version="1.1"><path d="M0 82L10.2 82C20.3 82 40.7 82 61.2 83.5C81.7 85 102.3 88 122.8 88C143.3 88 163.7 85 184 82C204.3 79 224.7 76 245.2 79C265.7 82 286.3 91 306.8 95.5C327.3 100 347.7 100 368.2 97C388.7 94 409.3 88 429.8 86.5C450.3 85 470.7 88 491 86.5C511.3 85 531.7 79 552.2 79C572.7 79 593.3 85 613.8 88C634.3 91 654.7 91 664.8 91L675 91L675 0L664.8 0C654.7 0 634.3 0 613.8 0C593.3 0 572.7 0 552.2 0C531.7 0 511.3 0 491 0C470.7 0 450.3 0 429.8 0C409.3 0 388.7 0 368.2 0C347.7 0 327.3 0 306.8 0C286.3 0 265.7 0 245.2 0C224.7 0 204.3 0 184 0C163.7 0 143.3 0 122.8 0C102.3 0 81.7 0 61.2 0C40.7 0 20.3 0 10.2 0L0 0Z" fill="#a4170d"></path><path d="M0 181L10.2 178C20.3 175 40.7 169 61.2 170.5C81.7 172 102.3 181 122.8 181C143.3 181 163.7 172 184 167.5C204.3 163 224.7 163 245.2 164.5C265.7 166 286.3 169 306.8 176.5C327.3 184 347.7 196 368.2 197.5C388.7 199 409.3 190 429.8 188.5C450.3 187 470.7 193 491 193C511.3 193 531.7 187 552.2 185.5C572.7 184 593.3 187 613.8 188.5C634.3 190 654.7 190 664.8 190L675 190L675 89L664.8 89C654.7 89 634.3 89 613.8 86C593.3 83 572.7 77 552.2 77C531.7 77 511.3 83 491 84.5C470.7 86 450.3 83 429.8 84.5C409.3 86 388.7 92 368.2 95C347.7 98 327.3 98 306.8 93.5C286.3 89 265.7 80 245.2 77C224.7 74 204.3 77 184 80C163.7 83 143.3 86 122.8 86C102.3 86 81.7 83 61.2 81.5C40.7 80 20.3 80 10.2 80L0 80Z" fill="#bb1b0a"></path><path d="M0 307L10.2 310C20.3 313 40.7 319 61.2 319C81.7 319 102.3 313 122.8 314.5C143.3 316 163.7 325 184 331C204.3 337 224.7 340 245.2 334C265.7 328 286.3 313 306.8 316C327.3 319 347.7 340 368.2 344.5C388.7 349 409.3 337 429.8 331C450.3 325 470.7 325 491 323.5C511.3 322 531.7 319 552.2 316C572.7 313 593.3 310 613.8 314.5C634.3 319 654.7 331 664.8 337L675 343L675 188L664.8 188C654.7 188 634.3 188 613.8 186.5C593.3 185 572.7 182 552.2 183.5C531.7 185 511.3 191 491 191C470.7 191 450.3 185 429.8 186.5C409.3 188 388.7 197 368.2 195.5C347.7 194 327.3 182 306.8 174.5C286.3 167 265.7 164 245.2 162.5C224.7 161 204.3 161 184 165.5C163.7 170 143.3 179 122.8 179C102.3 179 81.7 170 61.2 168.5C40.7 167 20.3 173 10.2 176L0 179Z" fill="#d22005"></path><path d="M0 442L10.2 442C20.3 442 40.7 442 61.2 436C81.7 430 102.3 418 122.8 419.5C143.3 421 163.7 436 184 442C204.3 448 224.7 445 245.2 437.5C265.7 430 286.3 418 306.8 425.5C327.3 433 347.7 460 368.2 469C388.7 478 409.3 469 429.8 458.5C450.3 448 470.7 436 491 427C511.3 418 531.7 412 552.2 410.5C572.7 409 593.3 412 613.8 421C634.3 430 654.7 445 664.8 452.5L675 460L675 341L664.8 335C654.7 329 634.3 317 613.8 312.5C593.3 308 572.7 311 552.2 314C531.7 317 511.3 320 491 321.5C470.7 323 450.3 323 429.8 329C409.3 335 388.7 347 368.2 342.5C347.7 338 327.3 317 306.8 314C286.3 311 265.7 326 245.2 332C224.7 338 204.3 335 184 329C163.7 323 143.3 314 122.8 312.5C102.3 311 81.7 317 61.2 317C40.7 317 20.3 311 10.2 308L0 305Z" fill="#e33515"></path><path d="M0 685L10.2 679C20.3 673 40.7 661 61.2 659.5C81.7 658 102.3 667 122.8 670C143.3 673 163.7 670 184 668.5C204.3 667 224.7 667 245.2 664C265.7 661 286.3 655 306.8 659.5C327.3 664 347.7 679 368.2 686.5C388.7 694 409.3 694 429.8 691C450.3 688 470.7 682 491 682C511.3 682 531.7 688 552.2 677.5C572.7 667 593.3 640 613.8 637C634.3 634 654.7 655 664.8 665.5L675 676L675 458L664.8 450.5C654.7 443 634.3 428 613.8 419C593.3 410 572.7 407 552.2 408.5C531.7 410 511.3 416 491 425C470.7 434 450.3 446 429.8 456.5C409.3 467 388.7 476 368.2 467C347.7 458 327.3 431 306.8 423.5C286.3 416 265.7 428 245.2 435.5C224.7 443 204.3 446 184 440C163.7 434 143.3 419 122.8 417.5C102.3 416 81.7 428 61.2 434C40.7 440 20.3 440 10.2 440L0 440Z" fill="#eb5031"></path><path d="M0 901L10.2 901C20.3 901 40.7 901 61.2 901C81.7 901 102.3 901 122.8 901C143.3 901 163.7 901 184 901C204.3 901 224.7 901 245.2 901C265.7 901 286.3 901 306.8 901C327.3 901 347.7 901 368.2 901C388.7 901 409.3 901 429.8 901C450.3 901 470.7 901 491 901C511.3 901 531.7 901 552.2 901C572.7 901 593.3 901 613.8 901C634.3 901 654.7 901 664.8 901L675 901L675 674L664.8 663.5C654.7 653 634.3 632 613.8 635C593.3 638 572.7 665 552.2 675.5C531.7 686 511.3 680 491 680C470.7 680 450.3 686 429.8 689C409.3 692 388.7 692 368.2 684.5C347.7 677 327.3 662 306.8 657.5C286.3 653 265.7 659 245.2 662C224.7 665 204.3 665 184 666.5C163.7 668 143.3 671 122.8 668C102.3 665 81.7 656 61.2 657.5C40.7 659 20.3 671 10.2 677L0 683Z" fill="#f2674a"></path></svg>
