<svg width="20" height="20" viewBox="0 0 20 20" fill="none" xmlns="http://www.w3.org/2000/svg">
<path d="M9.25777 0.0203495C7.4286 0.192324 5.88476 0.723877 4.48943 1.658C2.98467 2.66248 1.81994 3.99136 1.03043 5.60166C0.373802 6.93054 0.0611237 8.18516 0.00640496 9.66647C-0.0522222 11.3315 0.291724 12.9183 1.03433 14.4114C1.55416 15.4627 2.09353 16.2054 2.94167 17.0574C3.80545 17.9173 4.55197 18.4527 5.60335 18.9687C6.33814 19.3282 6.81107 19.5041 7.55759 19.6917C9.89485 20.278 12.2829 20.0239 14.4131 18.9647C15.484 18.4332 16.1836 17.9251 17.0591 17.0535C17.9072 16.2054 18.4427 15.4627 18.9664 14.4114C20.1742 11.9842 20.3344 9.20918 19.4159 6.62177C19.2322 6.10194 18.7788 5.16391 18.4974 4.72225C17.6727 3.42072 16.3986 2.17001 15.1518 1.4274C13.5376 0.465916 11.7475 -0.022644 9.92221 0.000806808C9.63299 0.000806808 9.33203 0.0125332 9.25777 0.0203495ZM10.9775 1.47821C14.9094 1.95505 17.9776 4.98021 18.5052 8.90432C18.6186 9.76028 18.5599 10.9993 18.3684 11.863C17.5711 15.4158 14.6163 18.0775 10.9775 18.5192C10.5007 18.5778 9.42193 18.5661 8.92164 18.5035C4.99362 17.9837 1.95674 14.9156 1.4799 10.9758C1.42909 10.5498 1.42909 9.4476 1.4799 9.02157C1.95283 5.10919 4.97017 2.03712 8.86693 1.49776C9.32422 1.43522 10.5319 1.42349 10.9775 1.47821Z" fill="#FF0000"/>
<path d="M6.42133 6.04224C6.07348 6.16323 5.88822 6.51107 5.97896 6.8627C6.01677 7.00637 6.19826 7.20298 7.5783 8.58302L9.13604 10.1445L7.5783 11.7023C6.2096 13.0786 6.01677 13.2827 5.97896 13.4264C5.84663 13.933 6.31168 14.3981 6.81833 14.2658C6.962 14.228 7.16617 14.0351 8.54243 12.6664L10.1002 11.1087L11.6617 12.6664C13.0342 14.0351 13.2384 14.228 13.382 14.2658C13.8887 14.3981 14.3537 13.933 14.2214 13.4264C14.1836 13.2827 13.9908 13.0786 12.6221 11.7023L11.0643 10.1445L12.6221 8.58302C13.9908 7.21055 14.1836 7.00637 14.2214 6.8627C14.3537 6.35605 13.8887 5.891 13.382 6.02333C13.2384 6.06114 13.0342 6.25397 11.6617 7.62267L10.1002 9.18041L8.54243 7.62267C7.21911 6.30312 6.95822 6.06114 6.82967 6.02711C6.64062 5.97418 6.59903 5.97796 6.42133 6.04224Z" fill="#FF0000"/>
</svg>
