<svg width="20" height="20" viewBox="0 0 20 20" fill="none" xmlns="http://www.w3.org/2000/svg">
<path d="M9.24735 0.0195866C7.79655 0.156374 6.69379 0.465122 5.48936 1.07089C3.9017 1.86425 2.43135 3.21257 1.46546 4.76021C0.76548 5.87796 0.257115 7.32008 0.0498588 8.7661C-0.0166196 9.22727 -0.0166196 10.7671 0.0498588 11.2283C0.2141 12.3812 0.519118 13.3895 0.996199 14.3548C1.53194 15.4491 2.05985 16.1838 2.92798 17.0554C3.7922 17.9152 4.53911 18.4506 5.59103 18.9665C6.3262 19.326 6.79938 19.5019 7.54628 19.6895C9.50153 20.1819 11.4646 20.0881 13.3729 19.412C13.9595 19.2049 14.9684 18.6968 15.4846 18.3529C16.6656 17.5634 17.7253 16.477 18.4918 15.2732C18.7733 14.8316 19.2269 13.8936 19.4107 13.3739C20.3297 10.7866 20.1694 8.01182 18.961 5.58484C18.4761 4.60779 17.9326 3.83788 17.17 3.05234C16.3332 2.18472 15.4885 1.57114 14.3896 1.0279C13.2321 0.457304 12.1528 0.148558 10.8702 0.031311C10.4713 -0.00386238 9.56801 -0.0116787 9.24735 0.0195866Z" fill="white"/>
<path d="M13.8261 6.73158C13.7733 6.75427 12.4461 8.05869 10.8776 9.63534L8.01967 12.4975L6.95643 11.4313C5.80646 10.2819 5.79892 10.2781 5.46712 10.3424C5.28238 10.3764 5.05615 10.6033 5.02222 10.7885C4.95812 11.1288 4.9355 11.1023 6.39087 12.5618C7.84624 14.0212 7.81607 13.9985 8.15918 13.9343C8.28737 13.9116 8.65687 13.5562 11.4432 10.7658C13.7243 8.47837 14.5914 7.58607 14.6216 7.49155C14.7046 7.23822 14.6141 6.966 14.3841 6.79586C14.2672 6.70889 13.9656 6.67487 13.8261 6.73158Z" fill="#8072FC"/>
</svg>
