<svg id="Capa_1" enable-background="new 0 0 512 512" height="512" viewBox="0 0 512 512" width="512" xmlns="http://www.w3.org/2000/svg"><g><g><g><g><g><g><g><circle cx="256" cy="256" fill="#ff6c52" r="256"/></g></g></g></g></g></g><g><g><g><g><g><g><circle cx="256" cy="256" fill="#ff6c52" r="256"/></g></g></g></g></g></g><path d="m512 256c0-18.577-1.979-36.692-5.737-54.146l-109.381-109.381-54.011 54.011 106.323 106.322-6.1 6.1-136.795-136.794-246.299 149.688 74.903 74.903-26.39 34.078 130.675 130.675c5.558.361 11.163.544 16.812.544 141.385 0 256-114.615 256-256z" fill="#f92814"/><g><path d="m343.934 242.634-64.816 10.91v-69.387l64.816 10.911z" fill="#fff"/></g><g><path d="m279.118 216.424v37.12l64.816-10.91v-26.21z" fill="#e9edf5"/></g><g><path d="m173.672 380.782h-65.158l-35.186-147.335h65.158z" fill="#fdba12"/></g><g><path d="m306.299 122.112-49.496 8.475-24.747 88.264 24.747 88.263 49.496 8.475z" fill="#636978"/></g><g><path d="m232.736 216.424-.68 2.427 24.747 88.263 49.496 8.475v-99.165z" fill="#414952"/></g><g><path d="m60 165.901v105.899l196.803 35.314v-176.527z" fill="#fff"/></g><g><path d="m60 216.424v55.376l196.803 35.314v-90.69z" fill="#e9edf5"/></g><path d="m420.893 116.484h-24.011v-24.011h-30v24.011h-24.011v30h24.011v24.011h30v-24.011h24.011z" fill="#ffce00"/><path d="m474.011 258.09h-24.011v-24.01h-30v24.01h-24.011v30h24.011v24.011h30v-24.011h24.011z" fill="#a3d4ff"/><path d="m382.944 347.548h-24.01v-24.01h-30v24.01h-24.011v30h24.011v24.011h30v-24.011h24.01z" fill="#fdba12"/></g></svg>